G04 #@! TF.GenerationSoftware,KiCad,Pcbnew,8.0.5*
G04 #@! TF.CreationDate,2025-06-12T17:02:52+03:00*
G04 #@! TF.ProjectId,Main Board,4d61696e-2042-46f6-9172-642e6b696361,rev?*
G04 #@! TF.SameCoordinates,Original*
G04 #@! TF.FileFunction,Copper,L2,Inr*
G04 #@! TF.FilePolarity,Positive*
%FSLAX46Y46*%
G04 Gerber Fmt 4.6, Leading zero omitted, Abs format (unit mm)*
G04 Created by KiCad (PCBNEW 8.0.5) date 2025-06-12 17:02:52*
%MOMM*%
%LPD*%
G01*
G04 APERTURE LIST*
G04 #@! TA.AperFunction,ViaPad*
%ADD10C,0.600000*%
G04 #@! TD*
G04 #@! TA.AperFunction,ViaPad*
%ADD11C,0.800000*%
G04 #@! TD*
G04 #@! TA.AperFunction,ViaPad*
%ADD12C,0.500000*%
G04 #@! TD*
G04 #@! TA.AperFunction,ViaPad*
%ADD13C,0.450000*%
G04 #@! TD*
G04 APERTURE END LIST*
D10*
X136625000Y-67060000D03*
X109850000Y-49600000D03*
X125700000Y-54700000D03*
X130950000Y-53900000D03*
X138925000Y-66310000D03*
X109775000Y-53175000D03*
D11*
X179625000Y-69564966D03*
X164205000Y-60180000D03*
D10*
X125525000Y-67550000D03*
D11*
X105000000Y-50250000D03*
X104800000Y-60050000D03*
D10*
X145750000Y-46425000D03*
D11*
X146625000Y-43600000D03*
X172825000Y-76725000D03*
D12*
X146900000Y-85025000D03*
D11*
X181825000Y-42150000D03*
X165225000Y-77950000D03*
X172025000Y-38930000D03*
X165025000Y-48750000D03*
D10*
X158700000Y-53525000D03*
D11*
X180025000Y-74350000D03*
X194625000Y-54270000D03*
D10*
X166225000Y-86450000D03*
X183100000Y-56900000D03*
X136725000Y-71250000D03*
D11*
X161325000Y-72700000D03*
D10*
X131200000Y-38525000D03*
D11*
X125800000Y-64950000D03*
D13*
X104825000Y-87200000D03*
D10*
X166395000Y-62390000D03*
D11*
X189225000Y-46250000D03*
D10*
X185695000Y-59190000D03*
X125825000Y-71250000D03*
X170595000Y-83990000D03*
X139125000Y-71250000D03*
D11*
X156415000Y-41680000D03*
X170750000Y-55650000D03*
X185350000Y-88800000D03*
X117000000Y-63800000D03*
D10*
X119000000Y-91500000D03*
X154425000Y-55680000D03*
D11*
X176625000Y-55350000D03*
X186125000Y-42050000D03*
D10*
X135300000Y-45075000D03*
D13*
X109200000Y-77300000D03*
D10*
X133375000Y-43700000D03*
D13*
X102500000Y-84600000D03*
D10*
X120825000Y-71250000D03*
D11*
X108000000Y-41000000D03*
X136575000Y-54400000D03*
D10*
X109625000Y-60950000D03*
D12*
X147600000Y-82925000D03*
X145500000Y-85025000D03*
D11*
X185325000Y-76900000D03*
X155050000Y-91340000D03*
X181925000Y-83150000D03*
D12*
X146900000Y-82225000D03*
D11*
X144825000Y-41850000D03*
X186575000Y-90950000D03*
X134415000Y-91340000D03*
X110600000Y-53850000D03*
D12*
X146200000Y-84325000D03*
D11*
X122150000Y-62100000D03*
D10*
X128725000Y-71250000D03*
X168755000Y-82070000D03*
D11*
X157785000Y-58220000D03*
X179195000Y-86150000D03*
D10*
X160965000Y-62420000D03*
X143025000Y-85650000D03*
D11*
X106495000Y-71170000D03*
D10*
X159925000Y-82950000D03*
D11*
X171825000Y-68550000D03*
X167075000Y-79475000D03*
D10*
X134625000Y-59325000D03*
D11*
X194475000Y-50500000D03*
X190895000Y-39020000D03*
D10*
X181075000Y-68014966D03*
X183175000Y-52900000D03*
X136175000Y-38500000D03*
X110000000Y-91500000D03*
D11*
X165455000Y-81570000D03*
D10*
X109625000Y-59050000D03*
D11*
X157075000Y-72950000D03*
X114300000Y-41200000D03*
D12*
X145500000Y-82225000D03*
D11*
X166900000Y-88800000D03*
X192125000Y-44800000D03*
D10*
X125000000Y-91500000D03*
D11*
X154875000Y-49350000D03*
X137515000Y-91340000D03*
X190975000Y-90950000D03*
X114800000Y-63800000D03*
D10*
X111525000Y-87950000D03*
X120975000Y-38450000D03*
D11*
X111570000Y-41000000D03*
D10*
X116750000Y-79950000D03*
X131500000Y-91500000D03*
X176525000Y-57800000D03*
D11*
X154490000Y-39280000D03*
D10*
X140025000Y-41400000D03*
D11*
X159625000Y-48850000D03*
D10*
X184525000Y-57900000D03*
D11*
X170995000Y-80020000D03*
D10*
X145650000Y-50900000D03*
X131225000Y-43700000D03*
X128500000Y-91500000D03*
X177625000Y-73850000D03*
X105525000Y-62350000D03*
X139375000Y-54225000D03*
X135325000Y-67550000D03*
D11*
X152765000Y-41680000D03*
D10*
X185075000Y-50520000D03*
X139375000Y-48350000D03*
D11*
X119050000Y-47450000D03*
D10*
X138950000Y-65225000D03*
X131425000Y-71250000D03*
X158695000Y-91585000D03*
D11*
X165325000Y-72200000D03*
D10*
X163665000Y-62420000D03*
X165525000Y-91650000D03*
X115525000Y-73750000D03*
X181075000Y-65164966D03*
D11*
X186325000Y-39020000D03*
D10*
X164225000Y-88750000D03*
D11*
X160175000Y-56480000D03*
X197325000Y-52100000D03*
D12*
X144800000Y-84325000D03*
D11*
X177125000Y-38970000D03*
X197275000Y-56400000D03*
X120200000Y-61875000D03*
D10*
X183200000Y-49275000D03*
D11*
X128600000Y-64900000D03*
D10*
X119550000Y-39575000D03*
D11*
X113355000Y-39020000D03*
D13*
X107400000Y-81600000D03*
D11*
X114850000Y-48750000D03*
D10*
X130375000Y-59350000D03*
D11*
X190895000Y-42110000D03*
D10*
X170725000Y-60450000D03*
X118325000Y-71250000D03*
X113025000Y-67550000D03*
X157025000Y-91380000D03*
D13*
X102425000Y-87100000D03*
D10*
X110030000Y-45820000D03*
X101000000Y-91500000D03*
X184550000Y-51435000D03*
D11*
X174625000Y-66494966D03*
X112600000Y-63800000D03*
X186475000Y-79050000D03*
X114800000Y-56050000D03*
X161005000Y-59940000D03*
X193477702Y-66647300D03*
X188477701Y-66647299D03*
D10*
X175125000Y-56700000D03*
D11*
X155540000Y-68585000D03*
D10*
X117700000Y-67525000D03*
D11*
X159500000Y-68595000D03*
X179360000Y-55205000D03*
X160975000Y-53550000D03*
X177225000Y-42050000D03*
D10*
X143850000Y-44550000D03*
D11*
X186475000Y-81550000D03*
D10*
X141825000Y-42900000D03*
X122425000Y-67550000D03*
D11*
X104800000Y-57850000D03*
X178775000Y-71650000D03*
X174760000Y-86105000D03*
X174725000Y-53850000D03*
X191625000Y-58180000D03*
X161725000Y-50450000D03*
X188525000Y-44150000D03*
D10*
X112869622Y-53669622D03*
X123125000Y-71250000D03*
X104000000Y-91500000D03*
D11*
X191525000Y-48750000D03*
D10*
X173285000Y-56110000D03*
D11*
X182125000Y-76950000D03*
D10*
X135600000Y-53900000D03*
D11*
X127100000Y-64900000D03*
X126550000Y-38500000D03*
D10*
X180225000Y-59150000D03*
X182825000Y-59150000D03*
D11*
X184450000Y-79250000D03*
X191425000Y-54250000D03*
X136403000Y-46792200D03*
D10*
X132625000Y-67550000D03*
D11*
X190975000Y-67850000D03*
X196275000Y-74150000D03*
D13*
X107125000Y-87000000D03*
D10*
X109625000Y-62650000D03*
X152600000Y-48725000D03*
X115400000Y-67525000D03*
X122000000Y-91500000D03*
X167895000Y-83990000D03*
D11*
X163915000Y-46930902D03*
D13*
X187040000Y-65995000D03*
D11*
X160505000Y-78570000D03*
D10*
X138125000Y-39925000D03*
X110050000Y-44600000D03*
X152500000Y-55625000D03*
X191300000Y-50875000D03*
X140200000Y-59190000D03*
D13*
X104825000Y-84600000D03*
D12*
X144800000Y-82925000D03*
D10*
X161325000Y-86550000D03*
X140835000Y-39340000D03*
D11*
X110000000Y-39000000D03*
D10*
X115825000Y-71250000D03*
X128000000Y-59375000D03*
D11*
X170825000Y-53800000D03*
D12*
X145500000Y-83625000D03*
D11*
X170625000Y-51700000D03*
X188800000Y-81350000D03*
X146990000Y-39280000D03*
D10*
X183735000Y-65094966D03*
D11*
X148965000Y-41805000D03*
D10*
X156925000Y-86450000D03*
X170735000Y-61480000D03*
X149375000Y-85600000D03*
D11*
X106300000Y-68350000D03*
D10*
X107000000Y-91500000D03*
D11*
X105000000Y-55350000D03*
D10*
X113725000Y-71250000D03*
X163460000Y-91750000D03*
X114365000Y-75350000D03*
X119575000Y-41575000D03*
X186775000Y-57850000D03*
X181550000Y-57375000D03*
D11*
X152700000Y-57925000D03*
D13*
X102425000Y-86400000D03*
D11*
X183225000Y-74300000D03*
X151950000Y-91340000D03*
X172995000Y-74450000D03*
D10*
X114575000Y-88000000D03*
D13*
X157523974Y-81888975D03*
D11*
X190125000Y-71200000D03*
X103750000Y-68450000D03*
D10*
X124100000Y-52150000D03*
X135450000Y-51400000D03*
X178025000Y-59100000D03*
D11*
X178675000Y-57050000D03*
D12*
X146900000Y-83625000D03*
D11*
X172025000Y-43100000D03*
D10*
X167262100Y-60175000D03*
X170000000Y-58725000D03*
D11*
X123650000Y-62100000D03*
X160615000Y-41580000D03*
X177280000Y-83545000D03*
D10*
X128975000Y-38525000D03*
X171455000Y-82070000D03*
X145650000Y-53075000D03*
X120125000Y-67550000D03*
D11*
X198325000Y-71100000D03*
X194325000Y-71150000D03*
D10*
X106525000Y-48250000D03*
D11*
X197345000Y-48500000D03*
D10*
X176725000Y-72450000D03*
X134125000Y-71250000D03*
D11*
X167525000Y-68600000D03*
D10*
X163625000Y-86450000D03*
D11*
X102045000Y-47280000D03*
X104365000Y-45080000D03*
D10*
X187200000Y-46375000D03*
D11*
X164125000Y-52200000D03*
X181475000Y-71700000D03*
X116600000Y-41250000D03*
D10*
X158800000Y-46715000D03*
D11*
X186625000Y-86050000D03*
X194625000Y-58250000D03*
D10*
X160860000Y-91750000D03*
X123775000Y-38400000D03*
X157990000Y-62420000D03*
D11*
X183675000Y-85200000D03*
X144050000Y-59450000D03*
X185125000Y-44250000D03*
D10*
X105425000Y-65800000D03*
D12*
X147600000Y-84325000D03*
D10*
X129700000Y-53900000D03*
X139325000Y-51175000D03*
D11*
X129575000Y-44425000D03*
D10*
X185630000Y-51435000D03*
X109625000Y-64550000D03*
X109950000Y-70650000D03*
D11*
X176325000Y-69800000D03*
D10*
X113000000Y-91500000D03*
D11*
X163525000Y-68600000D03*
X194425000Y-46750000D03*
X174275000Y-51700000D03*
D10*
X115025000Y-81175000D03*
X133500000Y-38500000D03*
D13*
X187030000Y-67279966D03*
D11*
X192085000Y-74240000D03*
X177675000Y-51700000D03*
D13*
X102500000Y-78300000D03*
D11*
X179515000Y-80220000D03*
D10*
X152895000Y-69630000D03*
X116000000Y-91500000D03*
D13*
X102450000Y-76650000D03*
D10*
X155525000Y-60650000D03*
X180000000Y-53100000D03*
D11*
X167525000Y-52200000D03*
X115420000Y-42320000D03*
D10*
X169005000Y-62420000D03*
D11*
X150990000Y-39280000D03*
X105000000Y-53250000D03*
D10*
X129600000Y-51000000D03*
D11*
X158490000Y-39280000D03*
D10*
X103715000Y-71150000D03*
D12*
X146200000Y-82925000D03*
D10*
X145700000Y-48425000D03*
D11*
X181825000Y-39020000D03*
X174375000Y-40950000D03*
X193175000Y-81350000D03*
X112700000Y-43300000D03*
D10*
X118199500Y-57549500D03*
X105125000Y-64100000D03*
X137825000Y-65260000D03*
X163450000Y-89990000D03*
X167697100Y-54150000D03*
X166487100Y-54125000D03*
X164887100Y-54100000D03*
X163287100Y-54175000D03*
X166165000Y-59690000D03*
D13*
X157318999Y-84034000D03*
D10*
X138600000Y-61875000D03*
X166472100Y-56250000D03*
X140425000Y-62025000D03*
X116650000Y-47400000D03*
D11*
X168955000Y-72950000D03*
D10*
X142300000Y-58390000D03*
D11*
X160925000Y-90070000D03*
D10*
X167287100Y-61350000D03*
D13*
X104825000Y-83100000D03*
D10*
X130850000Y-51407800D03*
X111175000Y-86150000D03*
X125350500Y-49950000D03*
X140925000Y-64475000D03*
X112295000Y-57205000D03*
X118800000Y-51900000D03*
X117200000Y-52700000D03*
X116400000Y-52700000D03*
X116400000Y-54300000D03*
X117200000Y-54300000D03*
D11*
X110650000Y-52000000D03*
D10*
X116400000Y-51100000D03*
X118000000Y-52700000D03*
X119600000Y-51100000D03*
X119600000Y-52700000D03*
X116400000Y-53500000D03*
X119600000Y-54300000D03*
X119600000Y-53500000D03*
X122400000Y-54700000D03*
X117200000Y-51900000D03*
X118000000Y-53500000D03*
X118800000Y-52700000D03*
X119600000Y-51900000D03*
X117200000Y-53500000D03*
X118000000Y-51100000D03*
X118800000Y-54300000D03*
D11*
X115850000Y-59700000D03*
D10*
X117200000Y-51100000D03*
X118000000Y-54300000D03*
X116400000Y-51900000D03*
X118800000Y-51100000D03*
X118800000Y-53500000D03*
X118000000Y-51900000D03*
X138100000Y-63650000D03*
X116915332Y-58015332D03*
X117599500Y-58900000D03*
X140625000Y-62925000D03*
X139264493Y-61006879D03*
X118500000Y-58500000D03*
X141300000Y-60190000D03*
X120410000Y-58310000D03*
D11*
X187825000Y-62450000D03*
X107750000Y-61350000D03*
D10*
X173825000Y-57650000D03*
D11*
X185605000Y-60810000D03*
X123425000Y-40200000D03*
X124550000Y-40200000D03*
D10*
X184575000Y-47805000D03*
D11*
X185775000Y-47875000D03*
X122300000Y-40200000D03*
X187050000Y-47865000D03*
D10*
X166487100Y-58600000D03*
D11*
X187825000Y-60840000D03*
X128050000Y-41375000D03*
X183295000Y-60810000D03*
X185585000Y-62520000D03*
X183275000Y-62520000D03*
X190825000Y-60850000D03*
D10*
X153100000Y-51225000D03*
D11*
X124800000Y-59300000D03*
D10*
X181725000Y-51400000D03*
D11*
X121175000Y-40225000D03*
D10*
X172925000Y-57650000D03*
D11*
X107750000Y-62575000D03*
X123270000Y-58280000D03*
X129175000Y-41375000D03*
D10*
X186575000Y-64850000D03*
D13*
X179075000Y-66764966D03*
D10*
X154900000Y-75100000D03*
X188425000Y-83700000D03*
X188375000Y-84900000D03*
X154900000Y-76200000D03*
X161425000Y-88150000D03*
X188275000Y-87350000D03*
D13*
X138025000Y-71950000D03*
X104600000Y-76800000D03*
X135775000Y-72925000D03*
X107800000Y-76200000D03*
X105100000Y-77500000D03*
D10*
X151765000Y-82980000D03*
D13*
X132925000Y-76100000D03*
X104825000Y-78400000D03*
X111500000Y-77300000D03*
X132900000Y-77390000D03*
X104825000Y-79500000D03*
X132925000Y-79900000D03*
X132975000Y-78650000D03*
X111575000Y-78300000D03*
X132900000Y-81190000D03*
X104325000Y-80100000D03*
X132900000Y-82490000D03*
X109550000Y-81200000D03*
X133000000Y-85020000D03*
X104825000Y-80700000D03*
X108400000Y-81300000D03*
X132822500Y-83747500D03*
X104775000Y-81750000D03*
X133000000Y-86290000D03*
X132975000Y-87300000D03*
X110525000Y-87300000D03*
X133025000Y-88800000D03*
X110575000Y-88800000D03*
X104700000Y-85700000D03*
X133200000Y-90020000D03*
D10*
X154000000Y-70750000D03*
X150415000Y-71935000D03*
X157325000Y-88750000D03*
X115350000Y-47000000D03*
D11*
X104150000Y-61950000D03*
X168505000Y-71100000D03*
D10*
X147225000Y-75140000D03*
G04 #@! TA.AperFunction,Conductor*
G36*
X197040233Y-37800033D02*
G01*
X197087862Y-37809547D01*
X198242798Y-38290117D01*
X198246256Y-38291556D01*
X198280274Y-38312721D01*
X199048374Y-38984808D01*
X199075578Y-39018750D01*
X199649991Y-40071841D01*
X199665131Y-40130694D01*
X199810540Y-74496577D01*
X199810541Y-74497101D01*
X199810664Y-88030091D01*
X199810687Y-90677789D01*
X199810702Y-92276033D01*
X199791018Y-92343073D01*
X199738214Y-92388828D01*
X199686702Y-92400034D01*
X159158191Y-92400034D01*
X159114785Y-92392189D01*
X158978982Y-92341441D01*
X158978981Y-92341440D01*
X158978979Y-92341440D01*
X158840624Y-92308124D01*
X158720608Y-92279224D01*
X158720598Y-92279222D01*
X158456606Y-92248734D01*
X158331445Y-92249496D01*
X158330691Y-92249498D01*
X131314869Y-92249461D01*
X131312440Y-92249461D01*
X131272554Y-92249461D01*
X131260819Y-92249461D01*
X131260686Y-92249473D01*
X131179559Y-92249492D01*
X130915759Y-92281648D01*
X130915743Y-92281651D01*
X130657772Y-92345498D01*
X130535923Y-92391912D01*
X130491784Y-92400034D01*
X100510243Y-92400034D01*
X100443204Y-92380349D01*
X100397449Y-92327545D01*
X100386243Y-92276085D01*
X100384189Y-87299996D01*
X109794909Y-87299996D01*
X109794909Y-87300003D01*
X109813212Y-87462455D01*
X109867210Y-87616774D01*
X109919205Y-87699523D01*
X109954192Y-87755204D01*
X110069796Y-87870808D01*
X110186972Y-87944435D01*
X110212880Y-87960714D01*
X110259171Y-88013049D01*
X110269819Y-88082103D01*
X110241444Y-88145951D01*
X110212881Y-88170701D01*
X110119798Y-88229190D01*
X110119795Y-88229192D01*
X110004192Y-88344795D01*
X109917210Y-88483225D01*
X109863212Y-88637544D01*
X109844909Y-88799996D01*
X109844909Y-88800003D01*
X109863212Y-88962455D01*
X109917210Y-89116774D01*
X109975070Y-89208857D01*
X110004192Y-89255204D01*
X110119796Y-89370808D01*
X110258225Y-89457789D01*
X110412539Y-89511786D01*
X110412542Y-89511786D01*
X110412544Y-89511787D01*
X110574996Y-89530091D01*
X110575000Y-89530091D01*
X110575004Y-89530091D01*
X110737455Y-89511787D01*
X110737456Y-89511786D01*
X110737461Y-89511786D01*
X110891775Y-89457789D01*
X111030204Y-89370808D01*
X111145808Y-89255204D01*
X111232789Y-89116775D01*
X111286786Y-88962461D01*
X111289839Y-88935368D01*
X111305091Y-88800003D01*
X111305091Y-88799996D01*
X111286787Y-88637544D01*
X111286786Y-88637542D01*
X111286786Y-88637539D01*
X111232789Y-88483225D01*
X111145808Y-88344796D01*
X111030204Y-88229192D01*
X111030198Y-88229187D01*
X110887119Y-88139284D01*
X110840828Y-88086950D01*
X110830180Y-88017896D01*
X110858555Y-87954048D01*
X110887117Y-87929298D01*
X110980204Y-87870808D01*
X111095808Y-87755204D01*
X111182789Y-87616775D01*
X111236786Y-87462461D01*
X111249457Y-87350003D01*
X111255091Y-87300003D01*
X111255091Y-87299996D01*
X111236787Y-87137545D01*
X111236786Y-87137543D01*
X111236786Y-87137539D01*
X111224536Y-87102532D01*
X111220974Y-87032759D01*
X111255702Y-86972131D01*
X111317695Y-86939903D01*
X111327695Y-86938361D01*
X111354250Y-86935369D01*
X111354253Y-86935368D01*
X111354255Y-86935368D01*
X111524522Y-86875789D01*
X111677262Y-86779816D01*
X111804816Y-86652262D01*
X111900789Y-86499522D01*
X111960368Y-86329255D01*
X111964791Y-86290000D01*
X111980565Y-86150003D01*
X111980565Y-86149996D01*
X111960369Y-85970750D01*
X111960368Y-85970745D01*
X111922478Y-85862461D01*
X111900789Y-85800478D01*
X111804816Y-85647738D01*
X111677262Y-85520184D01*
X111605677Y-85475204D01*
X111524523Y-85424211D01*
X111354254Y-85364631D01*
X111354249Y-85364630D01*
X111175004Y-85344435D01*
X111174996Y-85344435D01*
X110995750Y-85364630D01*
X110995745Y-85364631D01*
X110825476Y-85424211D01*
X110672737Y-85520184D01*
X110545184Y-85647737D01*
X110449211Y-85800476D01*
X110389631Y-85970745D01*
X110389630Y-85970750D01*
X110369435Y-86149996D01*
X110369435Y-86150003D01*
X110389630Y-86329249D01*
X110389632Y-86329257D01*
X110426451Y-86434479D01*
X110430012Y-86504257D01*
X110395283Y-86564885D01*
X110350364Y-86592474D01*
X110309495Y-86606775D01*
X110208225Y-86642210D01*
X110069795Y-86729192D01*
X109954192Y-86844795D01*
X109867210Y-86983225D01*
X109813212Y-87137544D01*
X109794909Y-87299996D01*
X100384189Y-87299996D01*
X100383529Y-85699996D01*
X103969909Y-85699996D01*
X103969909Y-85700003D01*
X103988212Y-85862455D01*
X104042210Y-86016774D01*
X104042211Y-86016775D01*
X104129192Y-86155204D01*
X104244796Y-86270808D01*
X104383225Y-86357789D01*
X104537539Y-86411786D01*
X104537542Y-86411786D01*
X104537544Y-86411787D01*
X104699996Y-86430091D01*
X104700000Y-86430091D01*
X104700004Y-86430091D01*
X104862455Y-86411787D01*
X104862456Y-86411786D01*
X104862461Y-86411786D01*
X105016775Y-86357789D01*
X105155204Y-86270808D01*
X105270808Y-86155204D01*
X105357789Y-86016775D01*
X105411786Y-85862461D01*
X105414903Y-85834796D01*
X105430091Y-85700003D01*
X105430091Y-85699996D01*
X105411787Y-85537544D01*
X105411786Y-85537542D01*
X105411786Y-85537539D01*
X105357789Y-85383225D01*
X105270808Y-85244796D01*
X105155204Y-85129192D01*
X105075730Y-85079255D01*
X105016774Y-85042210D01*
X104862455Y-84988212D01*
X104700004Y-84969909D01*
X104699996Y-84969909D01*
X104537544Y-84988212D01*
X104383225Y-85042210D01*
X104244795Y-85129192D01*
X104129192Y-85244795D01*
X104042210Y-85383225D01*
X103988212Y-85537544D01*
X103969909Y-85699996D01*
X100383529Y-85699996D01*
X100381218Y-80099996D01*
X103594909Y-80099996D01*
X103594909Y-80100003D01*
X103613212Y-80262455D01*
X103667210Y-80416774D01*
X103667211Y-80416775D01*
X103754192Y-80555204D01*
X103869796Y-80670808D01*
X103927925Y-80707333D01*
X104008221Y-80757787D01*
X104008222Y-80757787D01*
X104008225Y-80757789D01*
X104031704Y-80766004D01*
X104088478Y-80806724D01*
X104108756Y-80856328D01*
X104111662Y-80855665D01*
X104113211Y-80862452D01*
X104167211Y-81016776D01*
X104236152Y-81126493D01*
X104255153Y-81193730D01*
X104234786Y-81260565D01*
X104218842Y-81280145D01*
X104204193Y-81294793D01*
X104204192Y-81294795D01*
X104117210Y-81433225D01*
X104063212Y-81587544D01*
X104044909Y-81749996D01*
X104044909Y-81750003D01*
X104063212Y-81912455D01*
X104117210Y-82066774D01*
X104197549Y-82194632D01*
X104204192Y-82205204D01*
X104319796Y-82320808D01*
X104346817Y-82337787D01*
X104393108Y-82390120D01*
X104403757Y-82459174D01*
X104375382Y-82523022D01*
X104368527Y-82530461D01*
X104254191Y-82644797D01*
X104167210Y-82783225D01*
X104113212Y-82937544D01*
X104094909Y-83099996D01*
X104094909Y-83100003D01*
X104113212Y-83262455D01*
X104167210Y-83416774D01*
X104167211Y-83416775D01*
X104254192Y-83555204D01*
X104369796Y-83670808D01*
X104508225Y-83757789D01*
X104662539Y-83811786D01*
X104662542Y-83811786D01*
X104662544Y-83811787D01*
X104824996Y-83830091D01*
X104825000Y-83830091D01*
X104825004Y-83830091D01*
X104987455Y-83811787D01*
X104987456Y-83811786D01*
X104987461Y-83811786D01*
X105141775Y-83757789D01*
X105158156Y-83747496D01*
X132092409Y-83747496D01*
X132092409Y-83747503D01*
X132110712Y-83909955D01*
X132164710Y-84064274D01*
X132164711Y-84064275D01*
X132251692Y-84202704D01*
X132367296Y-84318308D01*
X132425023Y-84354580D01*
X132471314Y-84406915D01*
X132481962Y-84475968D01*
X132453587Y-84539817D01*
X132446734Y-84547253D01*
X132429193Y-84564793D01*
X132429192Y-84564795D01*
X132342210Y-84703225D01*
X132288212Y-84857544D01*
X132269909Y-85019996D01*
X132269909Y-85020003D01*
X132288212Y-85182455D01*
X132342210Y-85336774D01*
X132429192Y-85475204D01*
X132521307Y-85567319D01*
X132554792Y-85628642D01*
X132549808Y-85698334D01*
X132521307Y-85742681D01*
X132429192Y-85834795D01*
X132342210Y-85973225D01*
X132288212Y-86127544D01*
X132269909Y-86289996D01*
X132269909Y-86290003D01*
X132288212Y-86452455D01*
X132342211Y-86606776D01*
X132406527Y-86709133D01*
X132425528Y-86776370D01*
X132406528Y-86841078D01*
X132317210Y-86983225D01*
X132263212Y-87137544D01*
X132244909Y-87299996D01*
X132244909Y-87300003D01*
X132263212Y-87462455D01*
X132317210Y-87616774D01*
X132369205Y-87699523D01*
X132404192Y-87755204D01*
X132519796Y-87870808D01*
X132636972Y-87944435D01*
X132662880Y-87960714D01*
X132709171Y-88013049D01*
X132719819Y-88082103D01*
X132691444Y-88145951D01*
X132662881Y-88170701D01*
X132569798Y-88229190D01*
X132569795Y-88229192D01*
X132454192Y-88344795D01*
X132367210Y-88483225D01*
X132313212Y-88637544D01*
X132294909Y-88799996D01*
X132294909Y-88800003D01*
X132313212Y-88962455D01*
X132367210Y-89116774D01*
X132454192Y-89255204D01*
X132569795Y-89370807D01*
X132569798Y-89370809D01*
X132594936Y-89386605D01*
X132641227Y-89438940D01*
X132651874Y-89507993D01*
X132630758Y-89557556D01*
X132632897Y-89558900D01*
X132542210Y-89703225D01*
X132488212Y-89857544D01*
X132469909Y-90019996D01*
X132469909Y-90020003D01*
X132488212Y-90182455D01*
X132542210Y-90336774D01*
X132629192Y-90475204D01*
X132744796Y-90590808D01*
X132883225Y-90677789D01*
X133037539Y-90731786D01*
X133037542Y-90731786D01*
X133037544Y-90731787D01*
X133199996Y-90750091D01*
X133200000Y-90750091D01*
X133200004Y-90750091D01*
X133362455Y-90731787D01*
X133362456Y-90731786D01*
X133362461Y-90731786D01*
X133516775Y-90677789D01*
X133655204Y-90590808D01*
X133770808Y-90475204D01*
X133857789Y-90336775D01*
X133911786Y-90182461D01*
X133913275Y-90169249D01*
X133924458Y-90070000D01*
X160019540Y-90070000D01*
X160039326Y-90258256D01*
X160039327Y-90258259D01*
X160097818Y-90438277D01*
X160097821Y-90438284D01*
X160192467Y-90602216D01*
X160294728Y-90715788D01*
X160319129Y-90742888D01*
X160472265Y-90854148D01*
X160472270Y-90854151D01*
X160645192Y-90931142D01*
X160645197Y-90931144D01*
X160830354Y-90970500D01*
X160830355Y-90970500D01*
X161019644Y-90970500D01*
X161019646Y-90970500D01*
X161204803Y-90931144D01*
X161377730Y-90854151D01*
X161530871Y-90742888D01*
X161657533Y-90602216D01*
X161752179Y-90438284D01*
X161810674Y-90258256D01*
X161830460Y-90070000D01*
X161822051Y-89989996D01*
X162644435Y-89989996D01*
X162644435Y-89990003D01*
X162664630Y-90169249D01*
X162664631Y-90169254D01*
X162724211Y-90339523D01*
X162786263Y-90438277D01*
X162820184Y-90492262D01*
X162947738Y-90619816D01*
X163100478Y-90715789D01*
X163270745Y-90775368D01*
X163270750Y-90775369D01*
X163449996Y-90795565D01*
X163450000Y-90795565D01*
X163450004Y-90795565D01*
X163629249Y-90775369D01*
X163629252Y-90775368D01*
X163629255Y-90775368D01*
X163799522Y-90715789D01*
X163952262Y-90619816D01*
X164079816Y-90492262D01*
X164175789Y-90339522D01*
X164235368Y-90169255D01*
X164235369Y-90169249D01*
X164255565Y-89990003D01*
X164255565Y-89989996D01*
X164235369Y-89810750D01*
X164235368Y-89810745D01*
X164189064Y-89678416D01*
X164175789Y-89640478D01*
X164079816Y-89487738D01*
X163952262Y-89360184D01*
X163814975Y-89273920D01*
X170374499Y-89273920D01*
X170403340Y-89418907D01*
X170403343Y-89418917D01*
X170459912Y-89555488D01*
X170459919Y-89555501D01*
X170542048Y-89678415D01*
X170542051Y-89678419D01*
X170646580Y-89782948D01*
X170646584Y-89782951D01*
X170769498Y-89865080D01*
X170769511Y-89865087D01*
X170906082Y-89921656D01*
X170906087Y-89921658D01*
X170906091Y-89921658D01*
X170906092Y-89921659D01*
X171051079Y-89950500D01*
X171051082Y-89950500D01*
X171198920Y-89950500D01*
X171296462Y-89931096D01*
X171343913Y-89921658D01*
X171480495Y-89865084D01*
X171603416Y-89782951D01*
X171707951Y-89678416D01*
X171790084Y-89555495D01*
X171846658Y-89418913D01*
X171867923Y-89312008D01*
X171875500Y-89273920D01*
X178374499Y-89273920D01*
X178403340Y-89418907D01*
X178403343Y-89418917D01*
X178459912Y-89555488D01*
X178459919Y-89555501D01*
X178542048Y-89678415D01*
X178542051Y-89678419D01*
X178646580Y-89782948D01*
X178646584Y-89782951D01*
X178769498Y-89865080D01*
X178769511Y-89865087D01*
X178906082Y-89921656D01*
X178906087Y-89921658D01*
X178906091Y-89921658D01*
X178906092Y-89921659D01*
X179051079Y-89950500D01*
X179051082Y-89950500D01*
X179198920Y-89950500D01*
X179296462Y-89931096D01*
X179343913Y-89921658D01*
X179480495Y-89865084D01*
X179603416Y-89782951D01*
X179707951Y-89678416D01*
X179790084Y-89555495D01*
X179846658Y-89418913D01*
X179867923Y-89312008D01*
X179875500Y-89273920D01*
X179875500Y-89126079D01*
X179846659Y-88981092D01*
X179846658Y-88981091D01*
X179846658Y-88981087D01*
X179838943Y-88962461D01*
X179790087Y-88844511D01*
X179790080Y-88844498D01*
X179707951Y-88721584D01*
X179707948Y-88721580D01*
X179603419Y-88617051D01*
X179603415Y-88617048D01*
X179480501Y-88534919D01*
X179480488Y-88534912D01*
X179343917Y-88478343D01*
X179343907Y-88478340D01*
X179198920Y-88449500D01*
X179198918Y-88449500D01*
X179051082Y-88449500D01*
X179051080Y-88449500D01*
X178906092Y-88478340D01*
X178906082Y-88478343D01*
X178769511Y-88534912D01*
X178769498Y-88534919D01*
X178646584Y-88617048D01*
X178646580Y-88617051D01*
X178542051Y-88721580D01*
X178542048Y-88721584D01*
X178459919Y-88844498D01*
X178459912Y-88844511D01*
X178403343Y-88981082D01*
X178403340Y-88981092D01*
X178374500Y-89126079D01*
X178374500Y-89126082D01*
X178374500Y-89273918D01*
X178374500Y-89273920D01*
X178374499Y-89273920D01*
X171875500Y-89273920D01*
X171875500Y-89126079D01*
X171846659Y-88981092D01*
X171846658Y-88981091D01*
X171846658Y-88981087D01*
X171838943Y-88962461D01*
X171790087Y-88844511D01*
X171790080Y-88844498D01*
X171707951Y-88721584D01*
X171707948Y-88721580D01*
X171603419Y-88617051D01*
X171603415Y-88617048D01*
X171480501Y-88534919D01*
X171480488Y-88534912D01*
X171343917Y-88478343D01*
X171343907Y-88478340D01*
X171198920Y-88449500D01*
X171198918Y-88449500D01*
X171051082Y-88449500D01*
X171051080Y-88449500D01*
X170906092Y-88478340D01*
X170906082Y-88478343D01*
X170769511Y-88534912D01*
X170769498Y-88534919D01*
X170646584Y-88617048D01*
X170646580Y-88617051D01*
X170542051Y-88721580D01*
X170542048Y-88721584D01*
X170459919Y-88844498D01*
X170459912Y-88844511D01*
X170403343Y-88981082D01*
X170403340Y-88981092D01*
X170374500Y-89126079D01*
X170374500Y-89126082D01*
X170374500Y-89273918D01*
X170374500Y-89273920D01*
X170374499Y-89273920D01*
X163814975Y-89273920D01*
X163799523Y-89264211D01*
X163629254Y-89204631D01*
X163629249Y-89204630D01*
X163450004Y-89184435D01*
X163449996Y-89184435D01*
X163270750Y-89204630D01*
X163270745Y-89204631D01*
X163100476Y-89264211D01*
X162947737Y-89360184D01*
X162820184Y-89487737D01*
X162724211Y-89640476D01*
X162664631Y-89810745D01*
X162664630Y-89810750D01*
X162644435Y-89989996D01*
X161822051Y-89989996D01*
X161810674Y-89881744D01*
X161752179Y-89701716D01*
X161657533Y-89537784D01*
X161530871Y-89397112D01*
X161530870Y-89397111D01*
X161377734Y-89285851D01*
X161377729Y-89285848D01*
X161204807Y-89208857D01*
X161204802Y-89208855D01*
X161059001Y-89177865D01*
X161019646Y-89169500D01*
X160830354Y-89169500D01*
X160797897Y-89176398D01*
X160645197Y-89208855D01*
X160645192Y-89208857D01*
X160472270Y-89285848D01*
X160472265Y-89285851D01*
X160319129Y-89397111D01*
X160192466Y-89537785D01*
X160097821Y-89701715D01*
X160097818Y-89701722D01*
X160047189Y-89857544D01*
X160039326Y-89881744D01*
X160019540Y-90070000D01*
X133924458Y-90070000D01*
X133930091Y-90020003D01*
X133930091Y-90019996D01*
X133911787Y-89857544D01*
X133911786Y-89857542D01*
X133911786Y-89857539D01*
X133857789Y-89703225D01*
X133770808Y-89564796D01*
X133655204Y-89449192D01*
X133655201Y-89449189D01*
X133630065Y-89433396D01*
X133583773Y-89381062D01*
X133573124Y-89312008D01*
X133594259Y-89262456D01*
X133592103Y-89261101D01*
X133640275Y-89184435D01*
X133682789Y-89116775D01*
X133736786Y-88962461D01*
X133739839Y-88935368D01*
X133755091Y-88800003D01*
X133755091Y-88799996D01*
X133749457Y-88749996D01*
X156519435Y-88749996D01*
X156519435Y-88750003D01*
X156539630Y-88929249D01*
X156539631Y-88929254D01*
X156599211Y-89099523D01*
X156667910Y-89208856D01*
X156695184Y-89252262D01*
X156822738Y-89379816D01*
X156975478Y-89475789D01*
X157130664Y-89530091D01*
X157145745Y-89535368D01*
X157145750Y-89535369D01*
X157324996Y-89555565D01*
X157325000Y-89555565D01*
X157325004Y-89555565D01*
X157504249Y-89535369D01*
X157504252Y-89535368D01*
X157504255Y-89535368D01*
X157674522Y-89475789D01*
X157827262Y-89379816D01*
X157954816Y-89252262D01*
X158050789Y-89099522D01*
X158110368Y-88929255D01*
X158116392Y-88875789D01*
X158130565Y-88750003D01*
X158130565Y-88749996D01*
X158110369Y-88570750D01*
X158110368Y-88570745D01*
X158078034Y-88478340D01*
X158050789Y-88400478D01*
X157954816Y-88247738D01*
X157857074Y-88149996D01*
X160619435Y-88149996D01*
X160619435Y-88150003D01*
X160639630Y-88329249D01*
X160639631Y-88329254D01*
X160699211Y-88499523D01*
X160773058Y-88617049D01*
X160795184Y-88652262D01*
X160922738Y-88779816D01*
X161075478Y-88875789D01*
X161228258Y-88929249D01*
X161245745Y-88935368D01*
X161245750Y-88935369D01*
X161424996Y-88955565D01*
X161425000Y-88955565D01*
X161425004Y-88955565D01*
X161604249Y-88935369D01*
X161604252Y-88935368D01*
X161604255Y-88935368D01*
X161774522Y-88875789D01*
X161927262Y-88779816D01*
X162054816Y-88652262D01*
X162150789Y-88499522D01*
X162210368Y-88329255D01*
X162219553Y-88247737D01*
X162230565Y-88150003D01*
X162230565Y-88149996D01*
X162210369Y-87970750D01*
X162210368Y-87970745D01*
X162195865Y-87929297D01*
X162150789Y-87800478D01*
X162122341Y-87755204D01*
X162054815Y-87647737D01*
X161927262Y-87520184D01*
X161774523Y-87424211D01*
X161604254Y-87364631D01*
X161604249Y-87364630D01*
X161474362Y-87349996D01*
X187469435Y-87349996D01*
X187469435Y-87350003D01*
X187489630Y-87529249D01*
X187489631Y-87529254D01*
X187549211Y-87699523D01*
X187612646Y-87800478D01*
X187645184Y-87852262D01*
X187772738Y-87979816D01*
X187925478Y-88075789D01*
X187960987Y-88088214D01*
X188095745Y-88135368D01*
X188095750Y-88135369D01*
X188274996Y-88155565D01*
X188275000Y-88155565D01*
X188275004Y-88155565D01*
X188454249Y-88135369D01*
X188454252Y-88135368D01*
X188454255Y-88135368D01*
X188624522Y-88075789D01*
X188777262Y-87979816D01*
X188904816Y-87852262D01*
X189000789Y-87699522D01*
X189060368Y-87529255D01*
X189067894Y-87462461D01*
X189080565Y-87350003D01*
X189080565Y-87349996D01*
X189060369Y-87170750D01*
X189060368Y-87170745D01*
X189036501Y-87102538D01*
X189000789Y-87000478D01*
X188982977Y-86972131D01*
X188959878Y-86935368D01*
X188904816Y-86847738D01*
X188777262Y-86720184D01*
X188624523Y-86624211D01*
X188454254Y-86564631D01*
X188454249Y-86564630D01*
X188275004Y-86544435D01*
X188274996Y-86544435D01*
X188095750Y-86564630D01*
X188095745Y-86564631D01*
X187925476Y-86624211D01*
X187772737Y-86720184D01*
X187645184Y-86847737D01*
X187549211Y-87000476D01*
X187489631Y-87170745D01*
X187489630Y-87170750D01*
X187469435Y-87349996D01*
X161474362Y-87349996D01*
X161425004Y-87344435D01*
X161424996Y-87344435D01*
X161245750Y-87364630D01*
X161245745Y-87364631D01*
X161075476Y-87424211D01*
X160922737Y-87520184D01*
X160795184Y-87647737D01*
X160699211Y-87800476D01*
X160639631Y-87970745D01*
X160639630Y-87970750D01*
X160619435Y-88149996D01*
X157857074Y-88149996D01*
X157827262Y-88120184D01*
X157776382Y-88088214D01*
X157674523Y-88024211D01*
X157504254Y-87964631D01*
X157504249Y-87964630D01*
X157325004Y-87944435D01*
X157324996Y-87944435D01*
X157145750Y-87964630D01*
X157145745Y-87964631D01*
X156975476Y-88024211D01*
X156822737Y-88120184D01*
X156695184Y-88247737D01*
X156599211Y-88400476D01*
X156539631Y-88570745D01*
X156539630Y-88570750D01*
X156519435Y-88749996D01*
X133749457Y-88749996D01*
X133736787Y-88637544D01*
X133736786Y-88637542D01*
X133736786Y-88637539D01*
X133682789Y-88483225D01*
X133595808Y-88344796D01*
X133480204Y-88229192D01*
X133480198Y-88229187D01*
X133337119Y-88139284D01*
X133290828Y-88086950D01*
X133280180Y-88017896D01*
X133308555Y-87954048D01*
X133337117Y-87929298D01*
X133430204Y-87870808D01*
X133545808Y-87755204D01*
X133632789Y-87616775D01*
X133686786Y-87462461D01*
X133699457Y-87350003D01*
X133705091Y-87300003D01*
X133705091Y-87299996D01*
X133686787Y-87137544D01*
X133686786Y-87137542D01*
X133686786Y-87137539D01*
X133632789Y-86983225D01*
X133568471Y-86880864D01*
X133549471Y-86813629D01*
X133568472Y-86748920D01*
X133570805Y-86745206D01*
X133570808Y-86745204D01*
X133657789Y-86606775D01*
X133711786Y-86452461D01*
X133713812Y-86434479D01*
X133730091Y-86290003D01*
X133730091Y-86289996D01*
X133711787Y-86127544D01*
X133711786Y-86127542D01*
X133711786Y-86127539D01*
X133657789Y-85973225D01*
X133570808Y-85834796D01*
X133478693Y-85742681D01*
X133445208Y-85681358D01*
X133450192Y-85611666D01*
X133478693Y-85567319D01*
X133516197Y-85529815D01*
X133570808Y-85475204D01*
X133657789Y-85336775D01*
X133711786Y-85182461D01*
X133723415Y-85079254D01*
X133730091Y-85020003D01*
X133730091Y-85019996D01*
X133716570Y-84899996D01*
X187569435Y-84899996D01*
X187569435Y-84900003D01*
X187589630Y-85079249D01*
X187589631Y-85079254D01*
X187649211Y-85249523D01*
X187708849Y-85344435D01*
X187745184Y-85402262D01*
X187872738Y-85529816D01*
X188025478Y-85625789D01*
X188184285Y-85681358D01*
X188195745Y-85685368D01*
X188195750Y-85685369D01*
X188374996Y-85705565D01*
X188375000Y-85705565D01*
X188375004Y-85705565D01*
X188554249Y-85685369D01*
X188554252Y-85685368D01*
X188554255Y-85685368D01*
X188724522Y-85625789D01*
X188877262Y-85529816D01*
X189004816Y-85402262D01*
X189100789Y-85249522D01*
X189160368Y-85079255D01*
X189167044Y-85020003D01*
X189180565Y-84900003D01*
X189180565Y-84899996D01*
X189160369Y-84720750D01*
X189160368Y-84720745D01*
X189150236Y-84691789D01*
X189100789Y-84550478D01*
X189004816Y-84397738D01*
X189004815Y-84397737D01*
X189001290Y-84392127D01*
X188982290Y-84324891D01*
X189002658Y-84258055D01*
X189018599Y-84238478D01*
X189054816Y-84202262D01*
X189150789Y-84049522D01*
X189210368Y-83879255D01*
X189211237Y-83871544D01*
X189230565Y-83700003D01*
X189230565Y-83699996D01*
X189210369Y-83520750D01*
X189210368Y-83520745D01*
X189190229Y-83463192D01*
X189150789Y-83350478D01*
X189137621Y-83329522D01*
X189054815Y-83197737D01*
X188927262Y-83070184D01*
X188774523Y-82974211D01*
X188604254Y-82914631D01*
X188604249Y-82914630D01*
X188425004Y-82894435D01*
X188424996Y-82894435D01*
X188245750Y-82914630D01*
X188245745Y-82914631D01*
X188075476Y-82974211D01*
X187922737Y-83070184D01*
X187795184Y-83197737D01*
X187699211Y-83350476D01*
X187639631Y-83520745D01*
X187639630Y-83520750D01*
X187619435Y-83699996D01*
X187619435Y-83700003D01*
X187639630Y-83879249D01*
X187639631Y-83879254D01*
X187699211Y-84049523D01*
X187798709Y-84207872D01*
X187817709Y-84275109D01*
X187797341Y-84341944D01*
X187781397Y-84361524D01*
X187745184Y-84397737D01*
X187649211Y-84550476D01*
X187589631Y-84720745D01*
X187589630Y-84720750D01*
X187569435Y-84899996D01*
X133716570Y-84899996D01*
X133711787Y-84857544D01*
X133711786Y-84857542D01*
X133711786Y-84857539D01*
X133657789Y-84703225D01*
X133570808Y-84564796D01*
X133455204Y-84449192D01*
X133397475Y-84412918D01*
X133351185Y-84360584D01*
X133340537Y-84291530D01*
X133368912Y-84227682D01*
X133375757Y-84220254D01*
X133393308Y-84202704D01*
X133480289Y-84064275D01*
X133490884Y-84033996D01*
X156588908Y-84033996D01*
X156588908Y-84034003D01*
X156607211Y-84196455D01*
X156661209Y-84350774D01*
X156723050Y-84449192D01*
X156748191Y-84489204D01*
X156863795Y-84604808D01*
X157002224Y-84691789D01*
X157156538Y-84745786D01*
X157156541Y-84745786D01*
X157156543Y-84745787D01*
X157318995Y-84764091D01*
X157318999Y-84764091D01*
X157319003Y-84764091D01*
X157481454Y-84745787D01*
X157481455Y-84745786D01*
X157481460Y-84745786D01*
X157635774Y-84691789D01*
X157774203Y-84604808D01*
X157889807Y-84489204D01*
X157976788Y-84350775D01*
X158030785Y-84196461D01*
X158049090Y-84034000D01*
X158035114Y-83909961D01*
X158030786Y-83871544D01*
X158030785Y-83871542D01*
X158030785Y-83871539D01*
X157976788Y-83717225D01*
X157889807Y-83578796D01*
X157774203Y-83463192D01*
X157700331Y-83416775D01*
X157635773Y-83376210D01*
X157481454Y-83322212D01*
X157319003Y-83303909D01*
X157318995Y-83303909D01*
X157156543Y-83322212D01*
X157002224Y-83376210D01*
X156863794Y-83463192D01*
X156748191Y-83578795D01*
X156661209Y-83717225D01*
X156607211Y-83871544D01*
X156588908Y-84033996D01*
X133490884Y-84033996D01*
X133534286Y-83909961D01*
X133537746Y-83879254D01*
X133552591Y-83747503D01*
X133552591Y-83747496D01*
X133534287Y-83585044D01*
X133534286Y-83585042D01*
X133534286Y-83585039D01*
X133480289Y-83430725D01*
X133393308Y-83292296D01*
X133345732Y-83244720D01*
X133312247Y-83183397D01*
X133317231Y-83113705D01*
X133351285Y-83066737D01*
X133350280Y-83065732D01*
X133361910Y-83054102D01*
X133436016Y-82979996D01*
X150959435Y-82979996D01*
X150959435Y-82980003D01*
X150979630Y-83159249D01*
X150979631Y-83159254D01*
X151039211Y-83329523D01*
X151135184Y-83482262D01*
X151262738Y-83609816D01*
X151353080Y-83666582D01*
X151406269Y-83700003D01*
X151415478Y-83705789D01*
X151585745Y-83765368D01*
X151585750Y-83765369D01*
X151764996Y-83785565D01*
X151765000Y-83785565D01*
X151765004Y-83785565D01*
X151944249Y-83765369D01*
X151944252Y-83765368D01*
X151944255Y-83765368D01*
X152114522Y-83705789D01*
X152267262Y-83609816D01*
X152394816Y-83482262D01*
X152490789Y-83329522D01*
X152550368Y-83159255D01*
X152550369Y-83159249D01*
X152570565Y-82980003D01*
X152570565Y-82979996D01*
X152550369Y-82800750D01*
X152550368Y-82800745D01*
X152495799Y-82644796D01*
X152490789Y-82630478D01*
X152394816Y-82477738D01*
X152267262Y-82350184D01*
X152230327Y-82326976D01*
X152114523Y-82254211D01*
X151944254Y-82194631D01*
X151944249Y-82194630D01*
X151765004Y-82174435D01*
X151764996Y-82174435D01*
X151585750Y-82194630D01*
X151585745Y-82194631D01*
X151415476Y-82254211D01*
X151262737Y-82350184D01*
X151135184Y-82477737D01*
X151039211Y-82630476D01*
X150979631Y-82800745D01*
X150979630Y-82800750D01*
X150959435Y-82979996D01*
X133436016Y-82979996D01*
X133470808Y-82945204D01*
X133557789Y-82806775D01*
X133611786Y-82652461D01*
X133625675Y-82529192D01*
X133630091Y-82490003D01*
X133630091Y-82489996D01*
X133611787Y-82327544D01*
X133611786Y-82327542D01*
X133611786Y-82327539D01*
X133557789Y-82173225D01*
X133470808Y-82034796D01*
X133363693Y-81927681D01*
X133330208Y-81866358D01*
X133335192Y-81796666D01*
X133363693Y-81752319D01*
X133366016Y-81749996D01*
X133470808Y-81645204D01*
X133557789Y-81506775D01*
X133611786Y-81352461D01*
X133611787Y-81352455D01*
X133630091Y-81190003D01*
X133630091Y-81189996D01*
X133611787Y-81027544D01*
X133611786Y-81027542D01*
X133611786Y-81027539D01*
X133557789Y-80873225D01*
X133470808Y-80734796D01*
X133381193Y-80645181D01*
X133347708Y-80583858D01*
X133352692Y-80514166D01*
X133381193Y-80469819D01*
X133434238Y-80416774D01*
X133495808Y-80355204D01*
X133582789Y-80216775D01*
X133636786Y-80062461D01*
X133650861Y-79937544D01*
X133655091Y-79900003D01*
X133655091Y-79899996D01*
X133636787Y-79737544D01*
X133636786Y-79737542D01*
X133636786Y-79737539D01*
X133582789Y-79583225D01*
X133495808Y-79444796D01*
X133438693Y-79387681D01*
X133405208Y-79326358D01*
X133410192Y-79256666D01*
X133438693Y-79212319D01*
X133488693Y-79162319D01*
X133545808Y-79105204D01*
X133632789Y-78966775D01*
X133686786Y-78812461D01*
X133686787Y-78812455D01*
X133705091Y-78650003D01*
X133705091Y-78649996D01*
X133686787Y-78487544D01*
X133686786Y-78487542D01*
X133686786Y-78487539D01*
X133632789Y-78333225D01*
X133545808Y-78194796D01*
X133430204Y-78079192D01*
X133425280Y-78074268D01*
X133426373Y-78073174D01*
X133390959Y-78022717D01*
X133388110Y-77952906D01*
X133420731Y-77895280D01*
X133470808Y-77845204D01*
X133557789Y-77706775D01*
X133611786Y-77552461D01*
X133617697Y-77500000D01*
X133630091Y-77390003D01*
X133630091Y-77389996D01*
X133611787Y-77227544D01*
X133611786Y-77227542D01*
X133611786Y-77227539D01*
X133557789Y-77073225D01*
X133470808Y-76934796D01*
X133381193Y-76845181D01*
X133347708Y-76783858D01*
X133352692Y-76714166D01*
X133381193Y-76669819D01*
X133413473Y-76637539D01*
X133495808Y-76555204D01*
X133582789Y-76416775D01*
X133636786Y-76262461D01*
X133640535Y-76229192D01*
X133655091Y-76100003D01*
X133655091Y-76099996D01*
X133636787Y-75937544D01*
X133636786Y-75937542D01*
X133636786Y-75937539D01*
X133582789Y-75783225D01*
X133495808Y-75644796D01*
X133380204Y-75529192D01*
X133241774Y-75442210D01*
X133087455Y-75388212D01*
X132925004Y-75369909D01*
X132924996Y-75369909D01*
X132762544Y-75388212D01*
X132608225Y-75442210D01*
X132469795Y-75529192D01*
X132354192Y-75644795D01*
X132267210Y-75783225D01*
X132213212Y-75937544D01*
X132194909Y-76099996D01*
X132194909Y-76100003D01*
X132213212Y-76262455D01*
X132267210Y-76416774D01*
X132354192Y-76555204D01*
X132443807Y-76644819D01*
X132477292Y-76706142D01*
X132472308Y-76775834D01*
X132443807Y-76820181D01*
X132329192Y-76934795D01*
X132242210Y-77073225D01*
X132188212Y-77227544D01*
X132169909Y-77389996D01*
X132169909Y-77390003D01*
X132188212Y-77552455D01*
X132242210Y-77706774D01*
X132329192Y-77845204D01*
X132449720Y-77965732D01*
X132448625Y-77966826D01*
X132484039Y-78017279D01*
X132486890Y-78087090D01*
X132454268Y-78144719D01*
X132404192Y-78194795D01*
X132317210Y-78333225D01*
X132263212Y-78487544D01*
X132244909Y-78649996D01*
X132244909Y-78650003D01*
X132263212Y-78812455D01*
X132317210Y-78966774D01*
X132404192Y-79105204D01*
X132461307Y-79162319D01*
X132494792Y-79223642D01*
X132489808Y-79293334D01*
X132461307Y-79337681D01*
X132354192Y-79444795D01*
X132267210Y-79583225D01*
X132213212Y-79737544D01*
X132194909Y-79899996D01*
X132194909Y-79900003D01*
X132213212Y-80062455D01*
X132267210Y-80216774D01*
X132354192Y-80355204D01*
X132443807Y-80444819D01*
X132477292Y-80506142D01*
X132472308Y-80575834D01*
X132443807Y-80620181D01*
X132329192Y-80734795D01*
X132242210Y-80873225D01*
X132188212Y-81027544D01*
X132169909Y-81189996D01*
X132169909Y-81190003D01*
X132188212Y-81352455D01*
X132242210Y-81506774D01*
X132329192Y-81645204D01*
X132436307Y-81752319D01*
X132469792Y-81813642D01*
X132464808Y-81883334D01*
X132436307Y-81927681D01*
X132329192Y-82034795D01*
X132242210Y-82173225D01*
X132188212Y-82327544D01*
X132169909Y-82489996D01*
X132169909Y-82490003D01*
X132188212Y-82652455D01*
X132242210Y-82806774D01*
X132329192Y-82945204D01*
X132376767Y-82992779D01*
X132410252Y-83054102D01*
X132405268Y-83123794D01*
X132371217Y-83170765D01*
X132372220Y-83171768D01*
X132251692Y-83292295D01*
X132164710Y-83430725D01*
X132110712Y-83585044D01*
X132092409Y-83747496D01*
X105158156Y-83747496D01*
X105280204Y-83670808D01*
X105395808Y-83555204D01*
X105482789Y-83416775D01*
X105536786Y-83262461D01*
X105544079Y-83197737D01*
X105555091Y-83100003D01*
X105555091Y-83099996D01*
X105536787Y-82937544D01*
X105536786Y-82937542D01*
X105536786Y-82937539D01*
X105482789Y-82783225D01*
X105395808Y-82644796D01*
X105280204Y-82529192D01*
X105280202Y-82529190D01*
X105253181Y-82512212D01*
X105206891Y-82459878D01*
X105196243Y-82390824D01*
X105224618Y-82326976D01*
X105231449Y-82319562D01*
X105345808Y-82205204D01*
X105432789Y-82066775D01*
X105486786Y-81912461D01*
X105491479Y-81870809D01*
X105505091Y-81750003D01*
X105505091Y-81749996D01*
X105486787Y-81587544D01*
X105486786Y-81587542D01*
X105486786Y-81587539D01*
X105432789Y-81433225D01*
X105363846Y-81323503D01*
X105357203Y-81299996D01*
X107669909Y-81299996D01*
X107669909Y-81300003D01*
X107688212Y-81462455D01*
X107742210Y-81616774D01*
X107787369Y-81688643D01*
X107829192Y-81755204D01*
X107944796Y-81870808D01*
X108083225Y-81957789D01*
X108237539Y-82011786D01*
X108237542Y-82011786D01*
X108237544Y-82011787D01*
X108399996Y-82030091D01*
X108400000Y-82030091D01*
X108400004Y-82030091D01*
X108562455Y-82011787D01*
X108562456Y-82011786D01*
X108562461Y-82011786D01*
X108716775Y-81957789D01*
X108855204Y-81870808D01*
X108939149Y-81786862D01*
X109000468Y-81753380D01*
X109070160Y-81758364D01*
X109092800Y-81769553D01*
X109094793Y-81770805D01*
X109094796Y-81770808D01*
X109233225Y-81857789D01*
X109387539Y-81911786D01*
X109387542Y-81911786D01*
X109387544Y-81911787D01*
X109549996Y-81930091D01*
X109550000Y-81930091D01*
X109550004Y-81930091D01*
X109712455Y-81911787D01*
X109712456Y-81911786D01*
X109712461Y-81911786D01*
X109866775Y-81857789D01*
X110005204Y-81770808D01*
X110120808Y-81655204D01*
X110207789Y-81516775D01*
X110261786Y-81362461D01*
X110262913Y-81352461D01*
X110280091Y-81200003D01*
X110280091Y-81199996D01*
X110261787Y-81037544D01*
X110261786Y-81037542D01*
X110261786Y-81037539D01*
X110207789Y-80883225D01*
X110120808Y-80744796D01*
X110005204Y-80629192D01*
X109910856Y-80569909D01*
X109866774Y-80542210D01*
X109712455Y-80488212D01*
X109550004Y-80469909D01*
X109549996Y-80469909D01*
X109387544Y-80488212D01*
X109233225Y-80542210D01*
X109094795Y-80629192D01*
X109094794Y-80629193D01*
X109010852Y-80713134D01*
X108949529Y-80746619D01*
X108879837Y-80741633D01*
X108857200Y-80730446D01*
X108716774Y-80642210D01*
X108562455Y-80588212D01*
X108400004Y-80569909D01*
X108399996Y-80569909D01*
X108237544Y-80588212D01*
X108083225Y-80642210D01*
X107944795Y-80729192D01*
X107829192Y-80844795D01*
X107742210Y-80983225D01*
X107688212Y-81137544D01*
X107669909Y-81299996D01*
X105357203Y-81299996D01*
X105344846Y-81256269D01*
X105365213Y-81189434D01*
X105381156Y-81169855D01*
X105395808Y-81155204D01*
X105482789Y-81016775D01*
X105536786Y-80862461D01*
X105537552Y-80855665D01*
X105555091Y-80700003D01*
X105555091Y-80699996D01*
X105536787Y-80537544D01*
X105536786Y-80537542D01*
X105536786Y-80537539D01*
X105482789Y-80383225D01*
X105395808Y-80244796D01*
X105338693Y-80187681D01*
X105305208Y-80126358D01*
X105310192Y-80056666D01*
X105338693Y-80012319D01*
X105395808Y-79955204D01*
X105482789Y-79816775D01*
X105536786Y-79662461D01*
X105536787Y-79662455D01*
X105555091Y-79500003D01*
X105555091Y-79499996D01*
X105536787Y-79337544D01*
X105536786Y-79337541D01*
X105536786Y-79337539D01*
X105482789Y-79183225D01*
X105395808Y-79044796D01*
X105388693Y-79037681D01*
X105355208Y-78976358D01*
X105360192Y-78906666D01*
X105388693Y-78862319D01*
X105395808Y-78855204D01*
X105482789Y-78716775D01*
X105536786Y-78562461D01*
X105545228Y-78487539D01*
X105555091Y-78400003D01*
X105555091Y-78399996D01*
X105536787Y-78237545D01*
X105536786Y-78237543D01*
X105536786Y-78237539D01*
X105524073Y-78201209D01*
X105520511Y-78131436D01*
X105553434Y-78072576D01*
X105555198Y-78070811D01*
X105555204Y-78070808D01*
X105670808Y-77955204D01*
X105757789Y-77816775D01*
X105811786Y-77662461D01*
X105830091Y-77500000D01*
X105828803Y-77488571D01*
X105811787Y-77337544D01*
X105811786Y-77337542D01*
X105811786Y-77337539D01*
X105798649Y-77299996D01*
X110769909Y-77299996D01*
X110769909Y-77300003D01*
X110788212Y-77462455D01*
X110842210Y-77616774D01*
X110929192Y-77755204D01*
X110939898Y-77765910D01*
X110973383Y-77827233D01*
X110968399Y-77896925D01*
X110957212Y-77919562D01*
X110917210Y-77983226D01*
X110863212Y-78137544D01*
X110844909Y-78299996D01*
X110844909Y-78300003D01*
X110863212Y-78462455D01*
X110917210Y-78616774D01*
X110980045Y-78716774D01*
X111004192Y-78755204D01*
X111119796Y-78870808D01*
X111258225Y-78957789D01*
X111412539Y-79011786D01*
X111412542Y-79011786D01*
X111412544Y-79011787D01*
X111574996Y-79030091D01*
X111575000Y-79030091D01*
X111575004Y-79030091D01*
X111737455Y-79011787D01*
X111737456Y-79011786D01*
X111737461Y-79011786D01*
X111891775Y-78957789D01*
X112030204Y-78870808D01*
X112145808Y-78755204D01*
X112232789Y-78616775D01*
X112286786Y-78462461D01*
X112286787Y-78462455D01*
X112305091Y-78300003D01*
X112305091Y-78299996D01*
X112286787Y-78137544D01*
X112286786Y-78137542D01*
X112286786Y-78137539D01*
X112232789Y-77983225D01*
X112145808Y-77844796D01*
X112135101Y-77834089D01*
X112101616Y-77772766D01*
X112106600Y-77703074D01*
X112117788Y-77680436D01*
X112129086Y-77662455D01*
X112157789Y-77616775D01*
X112211786Y-77462461D01*
X112211787Y-77462455D01*
X112230091Y-77300003D01*
X112230091Y-77299996D01*
X112211787Y-77137544D01*
X112211786Y-77137542D01*
X112211786Y-77137539D01*
X112157789Y-76983225D01*
X112070808Y-76844796D01*
X111955204Y-76729192D01*
X111860713Y-76669819D01*
X111816774Y-76642210D01*
X111662455Y-76588212D01*
X111500004Y-76569909D01*
X111499996Y-76569909D01*
X111337544Y-76588212D01*
X111183225Y-76642210D01*
X111044795Y-76729192D01*
X110929192Y-76844795D01*
X110842210Y-76983225D01*
X110788212Y-77137544D01*
X110769909Y-77299996D01*
X105798649Y-77299996D01*
X105757789Y-77183225D01*
X105670808Y-77044796D01*
X105555204Y-76929192D01*
X105420889Y-76844796D01*
X105416777Y-76842212D01*
X105416776Y-76842211D01*
X105416775Y-76842211D01*
X105411376Y-76840321D01*
X105405022Y-76838098D01*
X105348247Y-76797374D01*
X105322761Y-76734941D01*
X105311787Y-76637544D01*
X105311786Y-76637542D01*
X105311786Y-76637539D01*
X105257789Y-76483225D01*
X105170808Y-76344796D01*
X105055204Y-76229192D01*
X105008750Y-76200003D01*
X105008739Y-76199996D01*
X107069909Y-76199996D01*
X107069909Y-76200003D01*
X107088212Y-76362455D01*
X107088213Y-76362460D01*
X107088214Y-76362461D01*
X107095379Y-76382939D01*
X107142210Y-76516774D01*
X107175597Y-76569909D01*
X107229192Y-76655204D01*
X107344796Y-76770808D01*
X107483225Y-76857789D01*
X107637539Y-76911786D01*
X107637542Y-76911786D01*
X107637544Y-76911787D01*
X107799996Y-76930091D01*
X107800000Y-76930091D01*
X107800004Y-76930091D01*
X107962455Y-76911787D01*
X107962456Y-76911786D01*
X107962461Y-76911786D01*
X108116775Y-76857789D01*
X108255204Y-76770808D01*
X108370808Y-76655204D01*
X108457789Y-76516775D01*
X108511786Y-76362461D01*
X108511787Y-76362455D01*
X108530091Y-76200003D01*
X108530091Y-76199996D01*
X108511787Y-76037544D01*
X108511786Y-76037542D01*
X108511786Y-76037539D01*
X108457789Y-75883225D01*
X108370808Y-75744796D01*
X108255204Y-75629192D01*
X108183325Y-75584027D01*
X108116774Y-75542210D01*
X107962455Y-75488212D01*
X107800004Y-75469909D01*
X107799996Y-75469909D01*
X107637544Y-75488212D01*
X107483225Y-75542210D01*
X107344795Y-75629192D01*
X107229192Y-75744795D01*
X107142210Y-75883225D01*
X107088212Y-76037544D01*
X107069909Y-76199996D01*
X105008739Y-76199996D01*
X104916774Y-76142210D01*
X104762455Y-76088212D01*
X104600004Y-76069909D01*
X104599996Y-76069909D01*
X104437544Y-76088212D01*
X104283225Y-76142210D01*
X104144795Y-76229192D01*
X104029192Y-76344795D01*
X103942210Y-76483225D01*
X103888212Y-76637544D01*
X103869909Y-76799996D01*
X103869909Y-76800003D01*
X103888212Y-76962455D01*
X103942210Y-77116774D01*
X103942211Y-77116775D01*
X104029192Y-77255204D01*
X104144796Y-77370808D01*
X104175340Y-77390000D01*
X104283224Y-77457789D01*
X104283227Y-77457790D01*
X104294970Y-77461899D01*
X104351747Y-77502619D01*
X104377238Y-77565057D01*
X104388213Y-77662458D01*
X104400925Y-77698788D01*
X104404486Y-77768567D01*
X104371565Y-77827423D01*
X104254191Y-77944797D01*
X104167210Y-78083225D01*
X104113212Y-78237544D01*
X104094909Y-78399996D01*
X104094909Y-78400003D01*
X104113212Y-78562455D01*
X104167210Y-78716774D01*
X104254192Y-78855204D01*
X104261307Y-78862319D01*
X104294792Y-78923642D01*
X104289808Y-78993334D01*
X104261307Y-79037681D01*
X104254192Y-79044795D01*
X104167210Y-79183225D01*
X104113213Y-79337541D01*
X104111665Y-79344327D01*
X104108636Y-79343635D01*
X104086747Y-79395441D01*
X104031707Y-79433993D01*
X104008233Y-79442207D01*
X104008225Y-79442211D01*
X103869795Y-79529192D01*
X103754192Y-79644795D01*
X103667210Y-79783225D01*
X103613212Y-79937544D01*
X103594909Y-80099996D01*
X100381218Y-80099996D01*
X100379171Y-75139996D01*
X146419435Y-75139996D01*
X146419435Y-75140003D01*
X146439630Y-75319249D01*
X146439631Y-75319254D01*
X146499211Y-75489523D01*
X146558592Y-75584027D01*
X146595184Y-75642262D01*
X146722738Y-75769816D01*
X146813080Y-75826582D01*
X146851110Y-75850478D01*
X146875478Y-75865789D01*
X147045745Y-75925368D01*
X147045750Y-75925369D01*
X147224996Y-75945565D01*
X147225000Y-75945565D01*
X147225004Y-75945565D01*
X147404249Y-75925369D01*
X147404252Y-75925368D01*
X147404255Y-75925368D01*
X147574522Y-75865789D01*
X147727262Y-75769816D01*
X147854816Y-75642262D01*
X147950789Y-75489522D01*
X148010368Y-75319255D01*
X148030565Y-75140000D01*
X148026058Y-75100003D01*
X148026057Y-75099996D01*
X154094435Y-75099996D01*
X154094435Y-75100003D01*
X154114630Y-75279249D01*
X154114631Y-75279254D01*
X154174211Y-75449523D01*
X154258727Y-75584028D01*
X154277727Y-75651264D01*
X154258727Y-75715972D01*
X154174211Y-75850476D01*
X154114631Y-76020745D01*
X154114630Y-76020750D01*
X154094435Y-76199996D01*
X154094435Y-76200003D01*
X154114630Y-76379249D01*
X154114631Y-76379254D01*
X154174211Y-76549523D01*
X154229516Y-76637539D01*
X154270184Y-76702262D01*
X154397738Y-76829816D01*
X154550478Y-76925789D01*
X154655281Y-76962461D01*
X154720745Y-76985368D01*
X154720750Y-76985369D01*
X154899996Y-77005565D01*
X154900000Y-77005565D01*
X154900004Y-77005565D01*
X155079249Y-76985369D01*
X155079252Y-76985368D01*
X155079255Y-76985368D01*
X155249522Y-76925789D01*
X155402262Y-76829816D01*
X155529816Y-76702262D01*
X155625789Y-76549522D01*
X155685368Y-76379255D01*
X155685369Y-76379249D01*
X155705565Y-76200003D01*
X155705565Y-76199996D01*
X155685369Y-76020750D01*
X155685368Y-76020745D01*
X155625788Y-75850475D01*
X155575105Y-75769815D01*
X155541272Y-75715970D01*
X155522272Y-75648736D01*
X155541273Y-75584028D01*
X155625789Y-75449522D01*
X155685368Y-75279255D01*
X155705565Y-75100000D01*
X155689875Y-74960750D01*
X155685369Y-74920750D01*
X155685368Y-74920745D01*
X155625789Y-74750478D01*
X155529816Y-74597738D01*
X155402262Y-74470184D01*
X155313182Y-74414211D01*
X155249523Y-74374211D01*
X155079254Y-74314631D01*
X155079249Y-74314630D01*
X154900004Y-74294435D01*
X154899996Y-74294435D01*
X154720750Y-74314630D01*
X154720745Y-74314631D01*
X154550476Y-74374211D01*
X154397737Y-74470184D01*
X154270184Y-74597737D01*
X154174211Y-74750476D01*
X154114631Y-74920745D01*
X154114630Y-74920750D01*
X154094435Y-75099996D01*
X148026057Y-75099996D01*
X148010369Y-74960750D01*
X148010368Y-74960745D01*
X147950788Y-74790476D01*
X147854815Y-74637737D01*
X147727262Y-74510184D01*
X147574523Y-74414211D01*
X147404254Y-74354631D01*
X147404249Y-74354630D01*
X147225004Y-74334435D01*
X147224996Y-74334435D01*
X147045750Y-74354630D01*
X147045745Y-74354631D01*
X146875476Y-74414211D01*
X146722737Y-74510184D01*
X146595184Y-74637737D01*
X146499211Y-74790476D01*
X146439631Y-74960745D01*
X146439630Y-74960750D01*
X146419435Y-75139996D01*
X100379171Y-75139996D01*
X100378257Y-72924996D01*
X135044909Y-72924996D01*
X135044909Y-72925003D01*
X135063212Y-73087455D01*
X135117210Y-73241774D01*
X135165285Y-73318284D01*
X135204192Y-73380204D01*
X135319796Y-73495808D01*
X135458225Y-73582789D01*
X135612539Y-73636786D01*
X135612542Y-73636786D01*
X135612544Y-73636787D01*
X135774996Y-73655091D01*
X135775000Y-73655091D01*
X135775004Y-73655091D01*
X135937455Y-73636787D01*
X135937456Y-73636786D01*
X135937461Y-73636786D01*
X136091775Y-73582789D01*
X136230204Y-73495808D01*
X136345808Y-73380204D01*
X136432789Y-73241775D01*
X136486786Y-73087461D01*
X136486787Y-73087455D01*
X136505091Y-72925003D01*
X136505091Y-72924996D01*
X136486787Y-72762544D01*
X136486786Y-72762542D01*
X136486786Y-72762539D01*
X136432789Y-72608225D01*
X136345808Y-72469796D01*
X136230204Y-72354192D01*
X136119327Y-72284523D01*
X136091774Y-72267210D01*
X135937455Y-72213212D01*
X135775004Y-72194909D01*
X135774996Y-72194909D01*
X135612544Y-72213212D01*
X135458225Y-72267210D01*
X135319795Y-72354192D01*
X135204192Y-72469795D01*
X135117210Y-72608225D01*
X135063212Y-72762544D01*
X135044909Y-72924996D01*
X100378257Y-72924996D01*
X100377855Y-71949996D01*
X137294909Y-71949996D01*
X137294909Y-71950003D01*
X137313212Y-72112455D01*
X137367210Y-72266774D01*
X137378362Y-72284522D01*
X137454192Y-72405204D01*
X137569796Y-72520808D01*
X137708225Y-72607789D01*
X137862539Y-72661786D01*
X137862542Y-72661786D01*
X137862544Y-72661787D01*
X138024996Y-72680091D01*
X138025000Y-72680091D01*
X138025004Y-72680091D01*
X138187455Y-72661787D01*
X138187456Y-72661786D01*
X138187461Y-72661786D01*
X138341775Y-72607789D01*
X138480204Y-72520808D01*
X138595808Y-72405204D01*
X138682789Y-72266775D01*
X138736786Y-72112461D01*
X138736787Y-72112455D01*
X138755091Y-71950003D01*
X138755091Y-71949996D01*
X138753401Y-71934996D01*
X149609435Y-71934996D01*
X149609435Y-71935003D01*
X149629630Y-72114249D01*
X149629631Y-72114254D01*
X149689211Y-72284523D01*
X149772945Y-72417784D01*
X149785184Y-72437262D01*
X149912738Y-72564816D01*
X150065478Y-72660789D01*
X150235745Y-72720368D01*
X150235750Y-72720369D01*
X150414996Y-72740565D01*
X150415000Y-72740565D01*
X150415004Y-72740565D01*
X150594249Y-72720369D01*
X150594252Y-72720368D01*
X150594255Y-72720368D01*
X150764522Y-72660789D01*
X150917262Y-72564816D01*
X151044816Y-72437262D01*
X151140789Y-72284522D01*
X151200368Y-72114255D01*
X151200571Y-72112455D01*
X151220565Y-71935003D01*
X151220565Y-71934996D01*
X151200369Y-71755750D01*
X151200368Y-71755745D01*
X151157143Y-71632216D01*
X151140789Y-71585478D01*
X151121993Y-71555565D01*
X151067151Y-71468284D01*
X151044816Y-71432738D01*
X150917262Y-71305184D01*
X150890321Y-71288256D01*
X150764523Y-71209211D01*
X150594254Y-71149631D01*
X150594249Y-71149630D01*
X150415004Y-71129435D01*
X150414996Y-71129435D01*
X150235750Y-71149630D01*
X150235745Y-71149631D01*
X150065476Y-71209211D01*
X149912737Y-71305184D01*
X149785184Y-71432737D01*
X149689211Y-71585476D01*
X149629631Y-71755745D01*
X149629630Y-71755750D01*
X149609435Y-71934996D01*
X138753401Y-71934996D01*
X138736787Y-71787544D01*
X138736786Y-71787542D01*
X138736786Y-71787539D01*
X138682789Y-71633225D01*
X138595808Y-71494796D01*
X138480204Y-71379192D01*
X138341774Y-71292210D01*
X138187455Y-71238212D01*
X138025004Y-71219909D01*
X138024996Y-71219909D01*
X137862544Y-71238212D01*
X137708225Y-71292210D01*
X137569795Y-71379192D01*
X137454192Y-71494795D01*
X137367210Y-71633225D01*
X137313212Y-71787544D01*
X137294909Y-71949996D01*
X100377855Y-71949996D01*
X100377360Y-70749996D01*
X153194435Y-70749996D01*
X153194435Y-70750003D01*
X153214630Y-70929249D01*
X153214631Y-70929254D01*
X153274211Y-71099523D01*
X153305697Y-71149632D01*
X153370184Y-71252262D01*
X153497738Y-71379816D01*
X153581961Y-71432737D01*
X153638522Y-71468277D01*
X153650478Y-71475789D01*
X153704797Y-71494796D01*
X153820745Y-71535368D01*
X153820750Y-71535369D01*
X153999996Y-71555565D01*
X154000000Y-71555565D01*
X154000004Y-71555565D01*
X154179249Y-71535369D01*
X154179252Y-71535368D01*
X154179255Y-71535368D01*
X154349522Y-71475789D01*
X154502262Y-71379816D01*
X154629816Y-71252262D01*
X154725489Y-71100000D01*
X167599540Y-71100000D01*
X167619326Y-71288256D01*
X167619327Y-71288259D01*
X167677818Y-71468277D01*
X167677821Y-71468284D01*
X167772467Y-71632216D01*
X167773376Y-71633225D01*
X167899129Y-71772888D01*
X168052265Y-71884148D01*
X168052270Y-71884151D01*
X168225192Y-71961142D01*
X168225193Y-71961142D01*
X168225197Y-71961144D01*
X168385114Y-71995135D01*
X168446596Y-72028327D01*
X168480373Y-72089490D01*
X168475721Y-72159204D01*
X168434117Y-72215337D01*
X168432220Y-72216743D01*
X168349127Y-72277113D01*
X168222466Y-72417785D01*
X168127821Y-72581715D01*
X168127818Y-72581722D01*
X168069327Y-72761740D01*
X168069326Y-72761744D01*
X168049540Y-72950000D01*
X168069326Y-73138256D01*
X168069327Y-73138259D01*
X168127818Y-73318277D01*
X168127821Y-73318284D01*
X168222467Y-73482216D01*
X168313024Y-73582789D01*
X168349129Y-73622888D01*
X168502265Y-73734148D01*
X168502270Y-73734151D01*
X168675192Y-73811142D01*
X168675197Y-73811144D01*
X168860354Y-73850500D01*
X168860355Y-73850500D01*
X169049644Y-73850500D01*
X169049646Y-73850500D01*
X169234803Y-73811144D01*
X169407730Y-73734151D01*
X169560871Y-73622888D01*
X169687533Y-73482216D01*
X169782179Y-73318284D01*
X169840674Y-73138256D01*
X169860460Y-72950000D01*
X169840674Y-72761744D01*
X169782179Y-72581716D01*
X169687533Y-72417784D01*
X169560871Y-72277112D01*
X169560870Y-72277111D01*
X169407734Y-72165851D01*
X169407729Y-72165848D01*
X169234807Y-72088857D01*
X169234802Y-72088855D01*
X169074884Y-72054864D01*
X169013402Y-72021672D01*
X168979626Y-71960509D01*
X168984278Y-71890794D01*
X169025883Y-71834662D01*
X169027701Y-71833313D01*
X169110871Y-71772888D01*
X169237533Y-71632216D01*
X169332179Y-71468284D01*
X169390674Y-71288256D01*
X169410460Y-71100000D01*
X169390674Y-70911744D01*
X169332179Y-70731716D01*
X169237533Y-70567784D01*
X169110871Y-70427112D01*
X169110870Y-70427111D01*
X168957734Y-70315851D01*
X168957729Y-70315848D01*
X168784807Y-70238857D01*
X168784802Y-70238855D01*
X168639001Y-70207865D01*
X168599646Y-70199500D01*
X168410354Y-70199500D01*
X168377897Y-70206398D01*
X168225197Y-70238855D01*
X168225192Y-70238857D01*
X168052270Y-70315848D01*
X168052265Y-70315851D01*
X167899129Y-70427111D01*
X167772466Y-70567785D01*
X167677821Y-70731715D01*
X167677818Y-70731722D01*
X167619327Y-70911740D01*
X167619326Y-70911744D01*
X167599540Y-71100000D01*
X154725489Y-71100000D01*
X154725789Y-71099522D01*
X154785368Y-70929255D01*
X154787341Y-70911744D01*
X154805565Y-70750003D01*
X154805565Y-70749996D01*
X154785369Y-70570750D01*
X154785368Y-70570745D01*
X154784332Y-70567784D01*
X154725789Y-70400478D01*
X154629816Y-70247738D01*
X154502262Y-70120184D01*
X154349523Y-70024211D01*
X154179254Y-69964631D01*
X154179249Y-69964630D01*
X154000004Y-69944435D01*
X153999996Y-69944435D01*
X153820750Y-69964630D01*
X153820745Y-69964631D01*
X153650476Y-70024211D01*
X153497737Y-70120184D01*
X153370184Y-70247737D01*
X153274211Y-70400476D01*
X153214631Y-70570745D01*
X153214630Y-70570750D01*
X153194435Y-70749996D01*
X100377360Y-70749996D01*
X100375837Y-67059996D01*
X135819435Y-67059996D01*
X135819435Y-67060003D01*
X135839630Y-67239249D01*
X135839631Y-67239254D01*
X135899211Y-67409523D01*
X135941454Y-67476752D01*
X135995184Y-67562262D01*
X136122738Y-67689816D01*
X136275478Y-67785789D01*
X136445745Y-67845368D01*
X136445750Y-67845369D01*
X136624996Y-67865565D01*
X136625000Y-67865565D01*
X136625004Y-67865565D01*
X136804249Y-67845369D01*
X136804252Y-67845368D01*
X136804255Y-67845368D01*
X136974522Y-67785789D01*
X137127262Y-67689816D01*
X137254816Y-67562262D01*
X137350789Y-67409522D01*
X137410368Y-67239255D01*
X137410369Y-67239249D01*
X137430565Y-67060003D01*
X137430565Y-67059996D01*
X137410369Y-66880750D01*
X137410368Y-66880745D01*
X137350788Y-66710476D01*
X137254815Y-66557737D01*
X137127262Y-66430184D01*
X136974523Y-66334211D01*
X136804254Y-66274631D01*
X136804249Y-66274630D01*
X136625004Y-66254435D01*
X136624996Y-66254435D01*
X136445750Y-66274630D01*
X136445745Y-66274631D01*
X136275476Y-66334211D01*
X136122737Y-66430184D01*
X135995184Y-66557737D01*
X135899211Y-66710476D01*
X135839631Y-66880745D01*
X135839630Y-66880750D01*
X135819435Y-67059996D01*
X100375837Y-67059996D01*
X100375094Y-65259996D01*
X137019435Y-65259996D01*
X137019435Y-65260003D01*
X137039630Y-65439249D01*
X137039631Y-65439254D01*
X137099211Y-65609523D01*
X137143611Y-65680184D01*
X137195184Y-65762262D01*
X137322738Y-65889816D01*
X137413080Y-65946582D01*
X137435192Y-65960476D01*
X137475478Y-65985789D01*
X137615758Y-66034875D01*
X137645745Y-66045368D01*
X137645750Y-66045369D01*
X137824996Y-66065565D01*
X137825000Y-66065565D01*
X137825003Y-66065565D01*
X137919163Y-66054955D01*
X137996602Y-66046230D01*
X138065424Y-66058284D01*
X138116804Y-66105633D01*
X138134428Y-66173244D01*
X138133706Y-66183333D01*
X138119435Y-66309996D01*
X138119435Y-66310003D01*
X138139630Y-66489249D01*
X138139631Y-66489254D01*
X138199211Y-66659523D01*
X138265463Y-66764962D01*
X138295184Y-66812262D01*
X138422738Y-66939816D01*
X138575478Y-67035789D01*
X138706801Y-67081741D01*
X138745745Y-67095368D01*
X138745750Y-67095369D01*
X138924996Y-67115565D01*
X138925000Y-67115565D01*
X138925004Y-67115565D01*
X139104249Y-67095369D01*
X139104252Y-67095368D01*
X139104255Y-67095368D01*
X139274522Y-67035789D01*
X139427262Y-66939816D01*
X139554816Y-66812262D01*
X139584537Y-66764962D01*
X178344909Y-66764962D01*
X178344909Y-66764969D01*
X178363212Y-66927421D01*
X178417210Y-67081740D01*
X178417211Y-67081741D01*
X178504192Y-67220170D01*
X178619796Y-67335774D01*
X178758225Y-67422755D01*
X178912539Y-67476752D01*
X178912542Y-67476752D01*
X178912544Y-67476753D01*
X179074996Y-67495057D01*
X179075000Y-67495057D01*
X179075004Y-67495057D01*
X179237455Y-67476753D01*
X179237456Y-67476752D01*
X179237461Y-67476752D01*
X179391775Y-67422755D01*
X179530204Y-67335774D01*
X179645808Y-67220170D01*
X179732789Y-67081741D01*
X179786786Y-66927427D01*
X179786787Y-66927421D01*
X179805091Y-66764969D01*
X179805091Y-66764962D01*
X179786787Y-66602510D01*
X179786786Y-66602508D01*
X179786786Y-66602505D01*
X179732789Y-66448191D01*
X179645808Y-66309762D01*
X179530204Y-66194158D01*
X179496920Y-66173244D01*
X179391774Y-66107176D01*
X179237455Y-66053178D01*
X179075004Y-66034875D01*
X179074996Y-66034875D01*
X178912544Y-66053178D01*
X178758225Y-66107176D01*
X178619795Y-66194158D01*
X178504192Y-66309761D01*
X178417210Y-66448191D01*
X178363212Y-66602510D01*
X178344909Y-66764962D01*
X139584537Y-66764962D01*
X139650789Y-66659522D01*
X139710368Y-66489255D01*
X139730565Y-66310000D01*
X139730538Y-66309762D01*
X139710369Y-66130750D01*
X139710368Y-66130745D01*
X139701581Y-66105633D01*
X139650789Y-65960478D01*
X139554816Y-65807738D01*
X139427262Y-65680184D01*
X139388081Y-65655565D01*
X139274523Y-65584211D01*
X139104254Y-65524631D01*
X139104249Y-65524630D01*
X138925004Y-65504435D01*
X138924996Y-65504435D01*
X138753396Y-65523769D01*
X138684574Y-65511714D01*
X138633195Y-65464365D01*
X138615571Y-65396755D01*
X138616293Y-65386665D01*
X138620170Y-65352262D01*
X138628248Y-65280565D01*
X138630565Y-65260002D01*
X138630565Y-65259996D01*
X138610369Y-65080750D01*
X138610368Y-65080745D01*
X138592351Y-65029255D01*
X138550789Y-64910478D01*
X138454816Y-64757738D01*
X138327262Y-64630184D01*
X138321816Y-64625841D01*
X138322935Y-64624437D01*
X138282675Y-64578920D01*
X138272027Y-64509867D01*
X138300402Y-64446018D01*
X138353983Y-64409219D01*
X138449522Y-64375789D01*
X138602262Y-64279816D01*
X138729816Y-64152262D01*
X138825789Y-63999522D01*
X138885368Y-63829255D01*
X138894244Y-63750478D01*
X138905565Y-63650003D01*
X138905565Y-63649996D01*
X138885369Y-63470750D01*
X138885368Y-63470745D01*
X138870152Y-63427259D01*
X138825789Y-63300478D01*
X138809480Y-63274523D01*
X138784111Y-63234148D01*
X138729816Y-63147738D01*
X138602262Y-63020184D01*
X138449522Y-62924211D01*
X138389839Y-62903327D01*
X138333063Y-62862605D01*
X138326970Y-62847235D01*
X138262885Y-62862553D01*
X138255322Y-62861934D01*
X138100004Y-62844435D01*
X138099996Y-62844435D01*
X137920750Y-62864630D01*
X137920745Y-62864631D01*
X137750476Y-62924211D01*
X137597737Y-63020184D01*
X137470184Y-63147737D01*
X137374211Y-63300476D01*
X137314631Y-63470745D01*
X137314630Y-63470750D01*
X137294435Y-63649996D01*
X137294435Y-63650003D01*
X137314630Y-63829249D01*
X137314631Y-63829254D01*
X137374211Y-63999523D01*
X137470184Y-64152262D01*
X137597737Y-64279815D01*
X137603184Y-64284159D01*
X137602063Y-64285564D01*
X137642321Y-64331071D01*
X137652974Y-64400124D01*
X137624603Y-64463975D01*
X137571016Y-64500779D01*
X137475480Y-64534208D01*
X137322737Y-64630184D01*
X137195184Y-64757737D01*
X137099211Y-64910476D01*
X137039631Y-65080745D01*
X137039630Y-65080750D01*
X137019435Y-65259996D01*
X100375094Y-65259996D01*
X100374615Y-64099996D01*
X104319435Y-64099996D01*
X104319435Y-64100003D01*
X104339630Y-64279249D01*
X104339631Y-64279254D01*
X104399211Y-64449523D01*
X104480517Y-64578920D01*
X104495184Y-64602262D01*
X104622738Y-64729816D01*
X104667174Y-64757737D01*
X104773461Y-64824522D01*
X104775478Y-64825789D01*
X104844678Y-64850003D01*
X104945745Y-64885368D01*
X104945750Y-64885369D01*
X105124996Y-64905565D01*
X105125000Y-64905565D01*
X105125004Y-64905565D01*
X105304249Y-64885369D01*
X105304252Y-64885368D01*
X105304255Y-64885368D01*
X105474522Y-64825789D01*
X105627262Y-64729816D01*
X105754816Y-64602262D01*
X105850789Y-64449522D01*
X105910368Y-64279255D01*
X105924677Y-64152262D01*
X105930565Y-64100003D01*
X105930565Y-64099996D01*
X105910369Y-63920750D01*
X105910368Y-63920745D01*
X105850788Y-63750476D01*
X105754815Y-63597737D01*
X105627262Y-63470184D01*
X105474523Y-63374211D01*
X105304254Y-63314631D01*
X105304249Y-63314630D01*
X105125004Y-63294435D01*
X105124996Y-63294435D01*
X104945750Y-63314630D01*
X104945745Y-63314631D01*
X104775476Y-63374211D01*
X104622737Y-63470184D01*
X104495184Y-63597737D01*
X104399211Y-63750476D01*
X104339631Y-63920745D01*
X104339630Y-63920750D01*
X104319435Y-64099996D01*
X100374615Y-64099996D01*
X100373728Y-61950000D01*
X103244540Y-61950000D01*
X103264326Y-62138256D01*
X103264327Y-62138259D01*
X103322818Y-62318277D01*
X103322821Y-62318284D01*
X103417467Y-62482216D01*
X103501439Y-62575476D01*
X103544129Y-62622888D01*
X103697265Y-62734148D01*
X103697270Y-62734151D01*
X103870192Y-62811142D01*
X103870197Y-62811144D01*
X104055354Y-62850500D01*
X104055355Y-62850500D01*
X104244644Y-62850500D01*
X104244646Y-62850500D01*
X104429803Y-62811144D01*
X104602730Y-62734151D01*
X104755871Y-62622888D01*
X104882533Y-62482216D01*
X104977179Y-62318284D01*
X105035674Y-62138256D01*
X105055460Y-61950000D01*
X105035674Y-61761744D01*
X104977179Y-61581716D01*
X104882533Y-61417784D01*
X104821500Y-61350000D01*
X106844540Y-61350000D01*
X106864326Y-61538256D01*
X106864327Y-61538259D01*
X106922818Y-61718277D01*
X106922821Y-61718284D01*
X107017466Y-61882215D01*
X107021285Y-61887471D01*
X107019489Y-61888775D01*
X107045280Y-61942544D01*
X107036641Y-62011877D01*
X107020514Y-62036969D01*
X107021285Y-62037529D01*
X107017466Y-62042784D01*
X106922821Y-62206715D01*
X106922818Y-62206722D01*
X106881731Y-62333177D01*
X106864326Y-62386744D01*
X106844540Y-62575000D01*
X106864326Y-62763256D01*
X106864327Y-62763259D01*
X106922818Y-62943277D01*
X106922821Y-62943284D01*
X107017467Y-63107216D01*
X107094607Y-63192888D01*
X107144129Y-63247888D01*
X107297265Y-63359148D01*
X107297270Y-63359151D01*
X107470192Y-63436142D01*
X107470197Y-63436144D01*
X107655354Y-63475500D01*
X107655355Y-63475500D01*
X107844644Y-63475500D01*
X107844646Y-63475500D01*
X108029803Y-63436144D01*
X108202730Y-63359151D01*
X108355871Y-63247888D01*
X108482533Y-63107216D01*
X108577179Y-62943284D01*
X108635674Y-62763256D01*
X108655460Y-62575000D01*
X108635674Y-62386744D01*
X108577179Y-62206716D01*
X108482533Y-62042784D01*
X108478715Y-62037529D01*
X108480515Y-62036221D01*
X108454725Y-61982488D01*
X108463345Y-61913152D01*
X108479488Y-61888032D01*
X108478715Y-61887471D01*
X108482529Y-61882220D01*
X108482533Y-61882216D01*
X108486701Y-61874996D01*
X137794435Y-61874996D01*
X137794435Y-61875003D01*
X137814630Y-62054249D01*
X137814631Y-62054254D01*
X137874211Y-62224523D01*
X137968462Y-62374522D01*
X137970184Y-62377262D01*
X138097738Y-62504816D01*
X138250478Y-62600789D01*
X138310159Y-62621672D01*
X138366935Y-62662393D01*
X138373028Y-62677763D01*
X138437115Y-62662446D01*
X138444677Y-62663065D01*
X138599996Y-62680565D01*
X138600000Y-62680565D01*
X138600004Y-62680565D01*
X138779249Y-62660369D01*
X138779252Y-62660368D01*
X138779255Y-62660368D01*
X138949522Y-62600789D01*
X139102262Y-62504816D01*
X139229816Y-62377262D01*
X139325789Y-62224522D01*
X139385368Y-62054255D01*
X139385368Y-62054254D01*
X139385482Y-62053929D01*
X139426204Y-61997153D01*
X139491157Y-61971405D01*
X139559718Y-61984861D01*
X139610121Y-62033248D01*
X139625744Y-62081000D01*
X139639630Y-62204249D01*
X139639631Y-62204254D01*
X139699211Y-62374523D01*
X139795184Y-62527262D01*
X139829649Y-62561727D01*
X139863134Y-62623050D01*
X139859010Y-62690361D01*
X139839633Y-62745738D01*
X139839630Y-62745750D01*
X139819435Y-62924996D01*
X139819435Y-62925003D01*
X139839630Y-63104249D01*
X139839631Y-63104254D01*
X139899211Y-63274523D01*
X139946951Y-63350500D01*
X139995184Y-63427262D01*
X140122738Y-63554816D01*
X140191048Y-63597738D01*
X140275478Y-63650789D01*
X140342300Y-63674171D01*
X140399076Y-63714893D01*
X140424824Y-63779845D01*
X140411368Y-63848407D01*
X140389028Y-63878894D01*
X140295183Y-63972739D01*
X140199211Y-64125476D01*
X140139631Y-64295745D01*
X140139630Y-64295750D01*
X140119435Y-64474996D01*
X140119435Y-64475003D01*
X140139630Y-64654249D01*
X140139631Y-64654254D01*
X140199211Y-64824523D01*
X140253221Y-64910478D01*
X140295184Y-64977262D01*
X140422738Y-65104816D01*
X140513080Y-65161582D01*
X140573461Y-65199522D01*
X140575478Y-65200789D01*
X140744682Y-65259996D01*
X140745745Y-65260368D01*
X140745750Y-65260369D01*
X140924996Y-65280565D01*
X140925000Y-65280565D01*
X140925004Y-65280565D01*
X141104249Y-65260369D01*
X141104252Y-65260368D01*
X141104255Y-65260368D01*
X141274522Y-65200789D01*
X141427262Y-65104816D01*
X141554816Y-64977262D01*
X141634783Y-64849996D01*
X185769435Y-64849996D01*
X185769435Y-64850003D01*
X185789630Y-65029249D01*
X185789631Y-65029254D01*
X185849211Y-65199523D01*
X185945184Y-65352262D01*
X186072738Y-65479816D01*
X186225478Y-65575789D01*
X186395745Y-65635368D01*
X186395750Y-65635369D01*
X186574996Y-65655565D01*
X186575000Y-65655565D01*
X186575004Y-65655565D01*
X186754249Y-65635369D01*
X186754252Y-65635368D01*
X186754255Y-65635368D01*
X186924522Y-65575789D01*
X187077262Y-65479816D01*
X187204816Y-65352262D01*
X187300789Y-65199522D01*
X187360368Y-65029255D01*
X187373751Y-64910476D01*
X187380565Y-64850003D01*
X187380565Y-64849996D01*
X187360369Y-64670750D01*
X187360368Y-64670745D01*
X187328237Y-64578920D01*
X187300789Y-64500478D01*
X187266569Y-64446018D01*
X187237732Y-64400124D01*
X187204816Y-64347738D01*
X187077262Y-64220184D01*
X186924523Y-64124211D01*
X186754254Y-64064631D01*
X186754249Y-64064630D01*
X186575004Y-64044435D01*
X186574996Y-64044435D01*
X186395750Y-64064630D01*
X186395745Y-64064631D01*
X186225476Y-64124211D01*
X186072737Y-64220184D01*
X185945184Y-64347737D01*
X185849211Y-64500476D01*
X185789631Y-64670745D01*
X185789630Y-64670750D01*
X185769435Y-64849996D01*
X141634783Y-64849996D01*
X141650789Y-64824522D01*
X141710368Y-64654255D01*
X141713080Y-64630184D01*
X141730565Y-64475003D01*
X141730565Y-64474996D01*
X141710369Y-64295750D01*
X141710368Y-64295745D01*
X141650789Y-64125478D01*
X141554816Y-63972738D01*
X141427262Y-63845184D01*
X141323276Y-63779845D01*
X141274519Y-63749209D01*
X141207698Y-63725827D01*
X141150922Y-63685106D01*
X141125175Y-63620153D01*
X141138631Y-63551591D01*
X141160966Y-63521111D01*
X141254816Y-63427262D01*
X141350789Y-63274522D01*
X141410368Y-63104255D01*
X141410369Y-63104249D01*
X141430565Y-62925003D01*
X141430565Y-62924996D01*
X141410369Y-62745750D01*
X141410368Y-62745745D01*
X141390988Y-62690361D01*
X141350789Y-62575478D01*
X141315930Y-62520000D01*
X182369540Y-62520000D01*
X182389326Y-62708256D01*
X182389327Y-62708259D01*
X182447818Y-62888277D01*
X182447821Y-62888284D01*
X182542467Y-63052216D01*
X182606101Y-63122888D01*
X182669129Y-63192888D01*
X182822265Y-63304148D01*
X182822270Y-63304151D01*
X182995192Y-63381142D01*
X182995197Y-63381144D01*
X183180354Y-63420500D01*
X183180355Y-63420500D01*
X183369644Y-63420500D01*
X183369646Y-63420500D01*
X183554803Y-63381144D01*
X183727730Y-63304151D01*
X183880871Y-63192888D01*
X184007533Y-63052216D01*
X184102179Y-62888284D01*
X184160674Y-62708256D01*
X184180460Y-62520000D01*
X184679540Y-62520000D01*
X184699326Y-62708256D01*
X184699327Y-62708259D01*
X184757818Y-62888277D01*
X184757821Y-62888284D01*
X184852467Y-63052216D01*
X184916101Y-63122888D01*
X184979129Y-63192888D01*
X185132265Y-63304148D01*
X185132270Y-63304151D01*
X185305192Y-63381142D01*
X185305197Y-63381144D01*
X185490354Y-63420500D01*
X185490355Y-63420500D01*
X185679644Y-63420500D01*
X185679646Y-63420500D01*
X185864803Y-63381144D01*
X186037730Y-63304151D01*
X186190871Y-63192888D01*
X186317533Y-63052216D01*
X186412179Y-62888284D01*
X186470674Y-62708256D01*
X186490460Y-62520000D01*
X186470674Y-62331744D01*
X186412179Y-62151716D01*
X186317533Y-61987784D01*
X186190871Y-61847112D01*
X186190870Y-61847111D01*
X186088291Y-61772583D01*
X186045625Y-61717253D01*
X186039646Y-61647640D01*
X186072252Y-61585845D01*
X186088291Y-61571947D01*
X186106689Y-61558580D01*
X186210871Y-61482888D01*
X186337533Y-61342216D01*
X186432179Y-61178284D01*
X186490674Y-60998256D01*
X186507307Y-60840000D01*
X186919540Y-60840000D01*
X186939326Y-61028256D01*
X186939327Y-61028259D01*
X186997818Y-61208277D01*
X186997821Y-61208284D01*
X187092467Y-61372216D01*
X187219129Y-61512888D01*
X187262890Y-61544682D01*
X187305555Y-61600012D01*
X187311534Y-61669626D01*
X187278928Y-61731421D01*
X187262890Y-61745318D01*
X187219127Y-61777113D01*
X187092466Y-61917785D01*
X186997821Y-62081715D01*
X186997818Y-62081722D01*
X186939327Y-62261740D01*
X186939326Y-62261744D01*
X186919540Y-62450000D01*
X186939326Y-62638256D01*
X186939327Y-62638259D01*
X186997818Y-62818277D01*
X186997821Y-62818284D01*
X187092467Y-62982216D01*
X187202346Y-63104249D01*
X187219129Y-63122888D01*
X187372265Y-63234148D01*
X187372270Y-63234151D01*
X187545192Y-63311142D01*
X187545197Y-63311144D01*
X187730354Y-63350500D01*
X187730355Y-63350500D01*
X187919644Y-63350500D01*
X187919646Y-63350500D01*
X188104803Y-63311144D01*
X188277730Y-63234151D01*
X188430871Y-63122888D01*
X188557533Y-62982216D01*
X188652179Y-62818284D01*
X188710674Y-62638256D01*
X188730460Y-62450000D01*
X188710674Y-62261744D01*
X188652179Y-62081716D01*
X188557533Y-61917784D01*
X188430871Y-61777112D01*
X188424637Y-61772583D01*
X188387110Y-61745318D01*
X188344444Y-61689989D01*
X188338465Y-61620375D01*
X188371070Y-61558580D01*
X188387110Y-61544682D01*
X188430871Y-61512888D01*
X188557533Y-61372216D01*
X188652179Y-61208284D01*
X188710674Y-61028256D01*
X188729409Y-60850000D01*
X189919540Y-60850000D01*
X189939326Y-61038256D01*
X189939327Y-61038259D01*
X189997818Y-61218277D01*
X189997821Y-61218284D01*
X190092467Y-61382216D01*
X190124493Y-61417784D01*
X190219129Y-61522888D01*
X190372265Y-61634148D01*
X190372270Y-61634151D01*
X190545192Y-61711142D01*
X190545197Y-61711144D01*
X190730354Y-61750500D01*
X190730355Y-61750500D01*
X190919644Y-61750500D01*
X190919646Y-61750500D01*
X191104803Y-61711144D01*
X191277730Y-61634151D01*
X191430871Y-61522888D01*
X191557533Y-61382216D01*
X191652179Y-61218284D01*
X191710674Y-61038256D01*
X191730460Y-60850000D01*
X191710674Y-60661744D01*
X191652179Y-60481716D01*
X191557533Y-60317784D01*
X191430871Y-60177112D01*
X191430870Y-60177111D01*
X191277734Y-60065851D01*
X191277729Y-60065848D01*
X191104807Y-59988857D01*
X191104802Y-59988855D01*
X190959001Y-59957865D01*
X190919646Y-59949500D01*
X190730354Y-59949500D01*
X190697897Y-59956398D01*
X190545197Y-59988855D01*
X190545192Y-59988857D01*
X190372270Y-60065848D01*
X190372265Y-60065851D01*
X190219129Y-60177111D01*
X190092466Y-60317785D01*
X189997821Y-60481715D01*
X189997818Y-60481722D01*
X189942575Y-60651744D01*
X189939326Y-60661744D01*
X189919540Y-60850000D01*
X188729409Y-60850000D01*
X188730460Y-60840000D01*
X188710674Y-60651744D01*
X188652179Y-60471716D01*
X188557533Y-60307784D01*
X188430871Y-60167112D01*
X188422654Y-60161142D01*
X188277734Y-60055851D01*
X188277729Y-60055848D01*
X188104807Y-59978857D01*
X188104802Y-59978855D01*
X187959001Y-59947865D01*
X187919646Y-59939500D01*
X187730354Y-59939500D01*
X187697897Y-59946398D01*
X187545197Y-59978855D01*
X187545192Y-59978857D01*
X187372270Y-60055848D01*
X187372265Y-60055851D01*
X187219129Y-60167111D01*
X187092466Y-60307785D01*
X186997821Y-60471715D01*
X186997818Y-60471722D01*
X186948272Y-60624211D01*
X186939326Y-60651744D01*
X186919540Y-60840000D01*
X186507307Y-60840000D01*
X186510460Y-60810000D01*
X186490674Y-60621744D01*
X186432179Y-60441716D01*
X186337533Y-60277784D01*
X186210871Y-60137112D01*
X186210870Y-60137111D01*
X186057734Y-60025851D01*
X186057729Y-60025848D01*
X185884807Y-59948857D01*
X185884802Y-59948855D01*
X185739001Y-59917865D01*
X185699646Y-59909500D01*
X185510354Y-59909500D01*
X185477897Y-59916398D01*
X185325197Y-59948855D01*
X185325192Y-59948857D01*
X185152270Y-60025848D01*
X185152265Y-60025851D01*
X184999129Y-60137111D01*
X184872466Y-60277785D01*
X184777821Y-60441715D01*
X184777818Y-60441722D01*
X184719327Y-60621740D01*
X184719326Y-60621744D01*
X184699540Y-60810000D01*
X184719326Y-60998256D01*
X184719327Y-60998259D01*
X184777818Y-61178277D01*
X184777821Y-61178284D01*
X184872467Y-61342216D01*
X184920160Y-61395184D01*
X184999129Y-61482888D01*
X185101708Y-61557416D01*
X185144374Y-61612746D01*
X185150353Y-61682359D01*
X185117747Y-61744154D01*
X185101709Y-61758052D01*
X184979127Y-61847113D01*
X184852466Y-61987785D01*
X184757821Y-62151715D01*
X184757818Y-62151722D01*
X184703699Y-62318284D01*
X184699326Y-62331744D01*
X184679540Y-62520000D01*
X184180460Y-62520000D01*
X184160674Y-62331744D01*
X184102179Y-62151716D01*
X184007533Y-61987784D01*
X183880871Y-61847112D01*
X183880870Y-61847111D01*
X183778291Y-61772583D01*
X183735625Y-61717253D01*
X183729646Y-61647640D01*
X183762252Y-61585845D01*
X183778291Y-61571947D01*
X183796689Y-61558580D01*
X183900871Y-61482888D01*
X184027533Y-61342216D01*
X184122179Y-61178284D01*
X184180674Y-60998256D01*
X184200460Y-60810000D01*
X184180674Y-60621744D01*
X184122179Y-60441716D01*
X184027533Y-60277784D01*
X183900871Y-60137112D01*
X183900870Y-60137111D01*
X183747734Y-60025851D01*
X183747729Y-60025848D01*
X183574807Y-59948857D01*
X183574802Y-59948855D01*
X183429001Y-59917865D01*
X183389646Y-59909500D01*
X183200354Y-59909500D01*
X183167897Y-59916398D01*
X183015197Y-59948855D01*
X183015192Y-59948857D01*
X182842270Y-60025848D01*
X182842265Y-60025851D01*
X182689129Y-60137111D01*
X182562466Y-60277785D01*
X182467821Y-60441715D01*
X182467818Y-60441722D01*
X182409327Y-60621740D01*
X182409326Y-60621744D01*
X182389540Y-60810000D01*
X182409326Y-60998256D01*
X182409327Y-60998259D01*
X182467818Y-61178277D01*
X182467821Y-61178284D01*
X182562467Y-61342216D01*
X182610160Y-61395184D01*
X182689129Y-61482888D01*
X182791708Y-61557416D01*
X182834374Y-61612746D01*
X182840353Y-61682359D01*
X182807747Y-61744154D01*
X182791709Y-61758052D01*
X182669127Y-61847113D01*
X182542466Y-61987785D01*
X182447821Y-62151715D01*
X182447818Y-62151722D01*
X182393699Y-62318284D01*
X182389326Y-62331744D01*
X182369540Y-62520000D01*
X141315930Y-62520000D01*
X141254816Y-62422738D01*
X141220349Y-62388271D01*
X141186864Y-62326948D01*
X141190988Y-62259635D01*
X141210368Y-62204255D01*
X141217804Y-62138259D01*
X141230565Y-62025003D01*
X141230565Y-62024996D01*
X141210369Y-61845750D01*
X141210368Y-61845745D01*
X141150789Y-61675478D01*
X141131638Y-61645000D01*
X141111372Y-61612746D01*
X141054816Y-61522738D01*
X140927262Y-61395184D01*
X140906624Y-61382216D01*
X140855346Y-61349996D01*
X166481535Y-61349996D01*
X166481535Y-61350003D01*
X166501730Y-61529249D01*
X166501731Y-61529254D01*
X166561311Y-61699523D01*
X166619574Y-61792247D01*
X166657284Y-61852262D01*
X166784838Y-61979816D01*
X166937578Y-62075789D01*
X166954534Y-62081722D01*
X167107845Y-62135368D01*
X167107850Y-62135369D01*
X167287096Y-62155565D01*
X167287100Y-62155565D01*
X167287104Y-62155565D01*
X167466349Y-62135369D01*
X167466352Y-62135368D01*
X167466355Y-62135368D01*
X167636622Y-62075789D01*
X167789362Y-61979816D01*
X167916916Y-61852262D01*
X168012889Y-61699522D01*
X168072468Y-61529255D01*
X168072894Y-61525476D01*
X168092665Y-61350003D01*
X168092665Y-61349996D01*
X168072469Y-61170750D01*
X168072468Y-61170745D01*
X168035854Y-61066109D01*
X168012889Y-61000478D01*
X168001099Y-60981715D01*
X167916915Y-60847737D01*
X167789362Y-60720184D01*
X167636623Y-60624211D01*
X167466354Y-60564631D01*
X167466349Y-60564630D01*
X167287104Y-60544435D01*
X167287096Y-60544435D01*
X167107850Y-60564630D01*
X167107845Y-60564631D01*
X166937576Y-60624211D01*
X166784837Y-60720184D01*
X166657284Y-60847737D01*
X166561311Y-61000476D01*
X166501731Y-61170745D01*
X166501730Y-61170750D01*
X166481535Y-61349996D01*
X140855346Y-61349996D01*
X140774523Y-61299211D01*
X140604254Y-61239631D01*
X140604249Y-61239630D01*
X140425004Y-61219435D01*
X140424996Y-61219435D01*
X140245750Y-61239630D01*
X140245735Y-61239634D01*
X140221814Y-61248004D01*
X140152035Y-61251565D01*
X140091409Y-61216834D01*
X140059183Y-61154840D01*
X140057642Y-61117079D01*
X140070058Y-61006882D01*
X140070058Y-61006875D01*
X140049862Y-60827629D01*
X140049861Y-60827624D01*
X140047129Y-60819816D01*
X139990282Y-60657357D01*
X139894309Y-60504617D01*
X139766755Y-60377063D01*
X139754319Y-60369249D01*
X139614016Y-60281090D01*
X139443747Y-60221510D01*
X139443742Y-60221509D01*
X139264497Y-60201314D01*
X139264489Y-60201314D01*
X139085243Y-60221509D01*
X139085238Y-60221510D01*
X138914969Y-60281090D01*
X138762230Y-60377063D01*
X138634677Y-60504616D01*
X138538704Y-60657355D01*
X138479124Y-60827624D01*
X138479123Y-60827628D01*
X138459511Y-61001695D01*
X138432444Y-61066109D01*
X138377246Y-61104853D01*
X138250476Y-61149211D01*
X138097737Y-61245184D01*
X137970184Y-61372737D01*
X137874211Y-61525476D01*
X137814631Y-61695745D01*
X137814630Y-61695750D01*
X137794435Y-61874996D01*
X108486701Y-61874996D01*
X108577179Y-61718284D01*
X108635674Y-61538256D01*
X108655460Y-61350000D01*
X108635674Y-61161744D01*
X108577179Y-60981716D01*
X108482533Y-60817784D01*
X108355871Y-60677112D01*
X108334719Y-60661744D01*
X108202734Y-60565851D01*
X108202729Y-60565848D01*
X108029807Y-60488857D01*
X108029802Y-60488855D01*
X107884001Y-60457865D01*
X107844646Y-60449500D01*
X107655354Y-60449500D01*
X107622897Y-60456398D01*
X107470197Y-60488855D01*
X107470192Y-60488857D01*
X107297270Y-60565848D01*
X107297265Y-60565851D01*
X107144129Y-60677111D01*
X107017466Y-60817785D01*
X106922821Y-60981715D01*
X106922818Y-60981722D01*
X106868398Y-61149211D01*
X106864326Y-61161744D01*
X106844540Y-61350000D01*
X104821500Y-61350000D01*
X104755871Y-61277112D01*
X104755870Y-61277111D01*
X104602734Y-61165851D01*
X104602729Y-61165848D01*
X104429807Y-61088857D01*
X104429802Y-61088855D01*
X104284001Y-61057865D01*
X104244646Y-61049500D01*
X104055354Y-61049500D01*
X104022897Y-61056398D01*
X103870197Y-61088855D01*
X103870192Y-61088857D01*
X103697270Y-61165848D01*
X103697265Y-61165851D01*
X103544129Y-61277111D01*
X103417466Y-61417785D01*
X103322821Y-61581715D01*
X103322818Y-61581722D01*
X103264327Y-61761740D01*
X103264326Y-61761744D01*
X103244540Y-61950000D01*
X100373728Y-61950000D01*
X100372800Y-59700000D01*
X114944540Y-59700000D01*
X114964326Y-59888256D01*
X114964327Y-59888259D01*
X115022818Y-60068277D01*
X115022821Y-60068284D01*
X115117467Y-60232216D01*
X115185509Y-60307784D01*
X115244129Y-60372888D01*
X115397265Y-60484148D01*
X115397270Y-60484151D01*
X115570192Y-60561142D01*
X115570197Y-60561144D01*
X115755354Y-60600500D01*
X115755355Y-60600500D01*
X115944644Y-60600500D01*
X115944646Y-60600500D01*
X116129803Y-60561144D01*
X116302730Y-60484151D01*
X116455871Y-60372888D01*
X116582533Y-60232216D01*
X116677179Y-60068284D01*
X116735674Y-59888256D01*
X116755460Y-59700000D01*
X116735674Y-59511744D01*
X116720310Y-59464458D01*
X116718315Y-59394617D01*
X116754396Y-59334784D01*
X116817097Y-59303956D01*
X116886511Y-59311921D01*
X116940600Y-59356149D01*
X116943224Y-59360151D01*
X116969684Y-59402262D01*
X117097238Y-59529816D01*
X117249978Y-59625789D01*
X117371402Y-59668277D01*
X117420245Y-59685368D01*
X117420250Y-59685369D01*
X117599496Y-59705565D01*
X117599500Y-59705565D01*
X117599504Y-59705565D01*
X117778749Y-59685369D01*
X117778752Y-59685368D01*
X117778755Y-59685368D01*
X117949022Y-59625789D01*
X118101762Y-59529816D01*
X118229316Y-59402262D01*
X118262502Y-59349446D01*
X118314833Y-59303158D01*
X118381377Y-59292200D01*
X118499996Y-59305565D01*
X118500000Y-59305565D01*
X118500004Y-59305565D01*
X118679249Y-59285369D01*
X118679252Y-59285368D01*
X118679255Y-59285368D01*
X118849522Y-59225789D01*
X119002262Y-59129816D01*
X119129816Y-59002262D01*
X119225789Y-58849522D01*
X119285368Y-58679255D01*
X119285369Y-58679249D01*
X119305565Y-58500003D01*
X119305565Y-58499996D01*
X119285369Y-58320750D01*
X119285368Y-58320745D01*
X119281607Y-58309996D01*
X119604435Y-58309996D01*
X119604435Y-58310003D01*
X119624630Y-58489249D01*
X119624631Y-58489254D01*
X119684211Y-58659523D01*
X119759444Y-58779254D01*
X119780184Y-58812262D01*
X119907738Y-58939816D01*
X119978779Y-58984454D01*
X120046668Y-59027112D01*
X120060478Y-59035789D01*
X120184697Y-59079255D01*
X120230745Y-59095368D01*
X120230750Y-59095369D01*
X120409996Y-59115565D01*
X120410000Y-59115565D01*
X120410004Y-59115565D01*
X120589249Y-59095369D01*
X120589252Y-59095368D01*
X120589255Y-59095368D01*
X120759522Y-59035789D01*
X120912262Y-58939816D01*
X121039816Y-58812262D01*
X121135789Y-58659522D01*
X121195368Y-58489255D01*
X121199376Y-58453685D01*
X121215565Y-58310003D01*
X121215565Y-58309996D01*
X121212185Y-58280000D01*
X122364540Y-58280000D01*
X122384326Y-58468256D01*
X122384327Y-58468259D01*
X122442818Y-58648277D01*
X122442821Y-58648284D01*
X122537467Y-58812216D01*
X122630778Y-58915848D01*
X122664129Y-58952888D01*
X122817265Y-59064148D01*
X122817270Y-59064151D01*
X122990192Y-59141142D01*
X122990197Y-59141144D01*
X123175354Y-59180500D01*
X123175355Y-59180500D01*
X123364644Y-59180500D01*
X123364646Y-59180500D01*
X123549803Y-59141144D01*
X123722730Y-59064151D01*
X123722730Y-59064150D01*
X123728666Y-59061508D01*
X123729346Y-59063036D01*
X123789157Y-59048520D01*
X123855186Y-59071365D01*
X123898383Y-59126281D01*
X123906590Y-59185340D01*
X123894540Y-59300000D01*
X123914326Y-59488256D01*
X123914327Y-59488259D01*
X123972818Y-59668277D01*
X123972821Y-59668284D01*
X124067467Y-59832216D01*
X124172491Y-59948857D01*
X124194129Y-59972888D01*
X124347265Y-60084148D01*
X124347270Y-60084151D01*
X124520192Y-60161142D01*
X124520197Y-60161144D01*
X124705354Y-60200500D01*
X124705355Y-60200500D01*
X124894644Y-60200500D01*
X124894646Y-60200500D01*
X124944064Y-60189996D01*
X140494435Y-60189996D01*
X140494435Y-60190003D01*
X140514630Y-60369249D01*
X140514631Y-60369254D01*
X140574211Y-60539523D01*
X140644722Y-60651740D01*
X140670184Y-60692262D01*
X140797738Y-60819816D01*
X140950478Y-60915789D01*
X141120745Y-60975368D01*
X141120750Y-60975369D01*
X141299996Y-60995565D01*
X141300000Y-60995565D01*
X141300004Y-60995565D01*
X141479249Y-60975369D01*
X141479252Y-60975368D01*
X141479255Y-60975368D01*
X141649522Y-60915789D01*
X141802262Y-60819816D01*
X141929816Y-60692262D01*
X142025789Y-60539522D01*
X142085368Y-60369255D01*
X142085369Y-60369249D01*
X142105565Y-60190003D01*
X142105565Y-60189996D01*
X142085369Y-60010750D01*
X142085368Y-60010745D01*
X142042507Y-59888256D01*
X142025789Y-59840478D01*
X142020596Y-59832214D01*
X141941017Y-59705565D01*
X141931235Y-59689996D01*
X165359435Y-59689996D01*
X165359435Y-59690003D01*
X165379630Y-59869249D01*
X165379631Y-59869254D01*
X165439211Y-60039523D01*
X165519381Y-60167112D01*
X165535184Y-60192262D01*
X165662738Y-60319816D01*
X165815478Y-60415789D01*
X165911819Y-60449500D01*
X165985745Y-60475368D01*
X165985750Y-60475369D01*
X166164996Y-60495565D01*
X166165000Y-60495565D01*
X166165004Y-60495565D01*
X166344249Y-60475369D01*
X166344252Y-60475368D01*
X166344255Y-60475368D01*
X166514522Y-60415789D01*
X166667262Y-60319816D01*
X166794816Y-60192262D01*
X166890789Y-60039522D01*
X166950368Y-59869255D01*
X166950369Y-59869249D01*
X166970565Y-59690003D01*
X166970565Y-59689996D01*
X166950369Y-59510750D01*
X166950366Y-59510737D01*
X166909473Y-59393872D01*
X166905911Y-59324093D01*
X166940639Y-59263466D01*
X166960533Y-59247930D01*
X166989362Y-59229816D01*
X167116916Y-59102262D01*
X167212889Y-58949522D01*
X167272468Y-58779255D01*
X167272469Y-58779249D01*
X167292665Y-58600003D01*
X167292665Y-58599996D01*
X167272469Y-58420750D01*
X167272468Y-58420745D01*
X167233718Y-58310003D01*
X167212889Y-58250478D01*
X167116916Y-58097738D01*
X166989362Y-57970184D01*
X166973912Y-57960476D01*
X166836623Y-57874211D01*
X166666354Y-57814631D01*
X166666349Y-57814630D01*
X166487104Y-57794435D01*
X166487096Y-57794435D01*
X166307850Y-57814630D01*
X166307845Y-57814631D01*
X166137576Y-57874211D01*
X165984837Y-57970184D01*
X165857284Y-58097737D01*
X165761311Y-58250476D01*
X165701731Y-58420745D01*
X165701730Y-58420750D01*
X165681535Y-58599996D01*
X165681535Y-58600003D01*
X165701730Y-58779249D01*
X165701731Y-58779254D01*
X165742627Y-58896126D01*
X165746188Y-58965905D01*
X165711459Y-59026533D01*
X165691558Y-59042074D01*
X165662741Y-59060181D01*
X165662739Y-59060182D01*
X165535184Y-59187737D01*
X165439211Y-59340476D01*
X165379631Y-59510745D01*
X165379630Y-59510750D01*
X165359435Y-59689996D01*
X141931235Y-59689996D01*
X141929816Y-59687738D01*
X141802262Y-59560184D01*
X141753930Y-59529815D01*
X141649523Y-59464211D01*
X141479254Y-59404631D01*
X141479249Y-59404630D01*
X141300004Y-59384435D01*
X141299996Y-59384435D01*
X141120750Y-59404630D01*
X141120745Y-59404631D01*
X140950476Y-59464211D01*
X140797737Y-59560184D01*
X140670184Y-59687737D01*
X140574211Y-59840476D01*
X140514631Y-60010745D01*
X140514630Y-60010750D01*
X140494435Y-60189996D01*
X124944064Y-60189996D01*
X125079803Y-60161144D01*
X125252730Y-60084151D01*
X125405871Y-59972888D01*
X125532533Y-59832216D01*
X125627179Y-59668284D01*
X125685674Y-59488256D01*
X125705460Y-59300000D01*
X125685674Y-59111744D01*
X125627179Y-58931716D01*
X125532533Y-58767784D01*
X125405871Y-58627112D01*
X125368559Y-58600003D01*
X125252734Y-58515851D01*
X125252729Y-58515848D01*
X125079807Y-58438857D01*
X125079802Y-58438855D01*
X124934001Y-58407865D01*
X124894646Y-58399500D01*
X124705354Y-58399500D01*
X124672897Y-58406398D01*
X124520197Y-58438855D01*
X124520192Y-58438857D01*
X124341334Y-58518492D01*
X124340656Y-58516969D01*
X124280807Y-58531478D01*
X124214784Y-58508614D01*
X124171603Y-58453685D01*
X124163408Y-58394662D01*
X124163898Y-58389996D01*
X141494435Y-58389996D01*
X141494435Y-58390003D01*
X141514630Y-58569249D01*
X141514631Y-58569254D01*
X141574211Y-58739523D01*
X141643329Y-58849523D01*
X141670184Y-58892262D01*
X141797738Y-59019816D01*
X141866522Y-59063036D01*
X141950121Y-59115565D01*
X141950478Y-59115789D01*
X142099071Y-59167784D01*
X142120745Y-59175368D01*
X142120750Y-59175369D01*
X142299996Y-59195565D01*
X142300000Y-59195565D01*
X142300004Y-59195565D01*
X142479249Y-59175369D01*
X142479252Y-59175368D01*
X142479255Y-59175368D01*
X142649522Y-59115789D01*
X142802262Y-59019816D01*
X142929816Y-58892262D01*
X143025789Y-58739522D01*
X143085368Y-58569255D01*
X143085369Y-58569249D01*
X143105565Y-58390003D01*
X143105565Y-58389996D01*
X143085369Y-58210750D01*
X143085368Y-58210745D01*
X143064279Y-58150476D01*
X143025789Y-58040478D01*
X143006993Y-58010565D01*
X142944882Y-57911716D01*
X142929816Y-57887738D01*
X142802262Y-57760184D01*
X142752234Y-57728749D01*
X142649523Y-57664211D01*
X142608899Y-57649996D01*
X172119435Y-57649996D01*
X172119435Y-57650003D01*
X172139630Y-57829249D01*
X172139631Y-57829254D01*
X172199211Y-57999523D01*
X172260924Y-58097738D01*
X172295184Y-58152262D01*
X172422738Y-58279816D01*
X172487876Y-58320745D01*
X172558076Y-58364855D01*
X172575478Y-58375789D01*
X172703955Y-58420745D01*
X172745745Y-58435368D01*
X172745750Y-58435369D01*
X172924996Y-58455565D01*
X172925000Y-58455565D01*
X172925004Y-58455565D01*
X173104249Y-58435369D01*
X173104252Y-58435368D01*
X173104255Y-58435368D01*
X173274522Y-58375789D01*
X173291924Y-58364855D01*
X173309027Y-58354108D01*
X173376263Y-58335107D01*
X173440973Y-58354108D01*
X173475475Y-58375788D01*
X173645745Y-58435368D01*
X173645750Y-58435369D01*
X173824996Y-58455565D01*
X173825000Y-58455565D01*
X173825004Y-58455565D01*
X174004249Y-58435369D01*
X174004252Y-58435368D01*
X174004255Y-58435368D01*
X174174522Y-58375789D01*
X174327262Y-58279816D01*
X174454816Y-58152262D01*
X174550789Y-57999522D01*
X174610368Y-57829255D01*
X174612041Y-57814409D01*
X174630565Y-57650003D01*
X174630565Y-57649996D01*
X174610369Y-57470750D01*
X174610368Y-57470745D01*
X174580102Y-57384249D01*
X174550789Y-57300478D01*
X174454816Y-57147738D01*
X174327262Y-57020184D01*
X174256608Y-56975789D01*
X174174523Y-56924211D01*
X174004254Y-56864631D01*
X174004249Y-56864630D01*
X173825004Y-56844435D01*
X173824996Y-56844435D01*
X173645750Y-56864630D01*
X173645737Y-56864633D01*
X173475480Y-56924209D01*
X173440970Y-56945893D01*
X173373733Y-56964892D01*
X173309030Y-56945893D01*
X173274519Y-56924209D01*
X173104262Y-56864633D01*
X173104249Y-56864630D01*
X172925004Y-56844435D01*
X172924996Y-56844435D01*
X172745750Y-56864630D01*
X172745745Y-56864631D01*
X172575476Y-56924211D01*
X172422737Y-57020184D01*
X172295184Y-57147737D01*
X172199211Y-57300476D01*
X172139631Y-57470745D01*
X172139630Y-57470750D01*
X172119435Y-57649996D01*
X142608899Y-57649996D01*
X142479254Y-57604631D01*
X142479249Y-57604630D01*
X142300004Y-57584435D01*
X142299996Y-57584435D01*
X142120750Y-57604630D01*
X142120745Y-57604631D01*
X141950476Y-57664211D01*
X141797737Y-57760184D01*
X141670184Y-57887737D01*
X141574211Y-58040476D01*
X141514631Y-58210745D01*
X141514630Y-58210750D01*
X141494435Y-58389996D01*
X124163898Y-58389996D01*
X124175460Y-58280000D01*
X124155674Y-58091744D01*
X124097179Y-57911716D01*
X124002533Y-57747784D01*
X123875871Y-57607112D01*
X123872458Y-57604632D01*
X123722734Y-57495851D01*
X123722729Y-57495848D01*
X123549807Y-57418857D01*
X123549802Y-57418855D01*
X123392949Y-57385516D01*
X123364646Y-57379500D01*
X123175354Y-57379500D01*
X123147051Y-57385516D01*
X122990197Y-57418855D01*
X122990192Y-57418857D01*
X122817270Y-57495848D01*
X122817265Y-57495851D01*
X122664129Y-57607111D01*
X122537466Y-57747785D01*
X122442821Y-57911715D01*
X122442818Y-57911722D01*
X122400984Y-58040476D01*
X122384326Y-58091744D01*
X122364540Y-58280000D01*
X121212185Y-58280000D01*
X121195369Y-58130750D01*
X121195368Y-58130745D01*
X121181721Y-58091744D01*
X121135789Y-57960478D01*
X121039816Y-57807738D01*
X120912262Y-57680184D01*
X120886841Y-57664211D01*
X120759523Y-57584211D01*
X120589254Y-57524631D01*
X120589249Y-57524630D01*
X120410004Y-57504435D01*
X120409996Y-57504435D01*
X120230750Y-57524630D01*
X120230745Y-57524631D01*
X120060476Y-57584211D01*
X119907737Y-57680184D01*
X119780184Y-57807737D01*
X119684211Y-57960476D01*
X119624631Y-58130745D01*
X119624630Y-58130750D01*
X119604435Y-58309996D01*
X119281607Y-58309996D01*
X119271046Y-58279815D01*
X119225789Y-58150478D01*
X119129816Y-57997738D01*
X119007810Y-57875732D01*
X118974325Y-57814409D01*
X118978450Y-57747095D01*
X118984868Y-57728755D01*
X118991960Y-57665810D01*
X119005065Y-57549503D01*
X119005065Y-57549496D01*
X118984869Y-57370250D01*
X118984868Y-57370245D01*
X118935782Y-57229965D01*
X118925289Y-57199978D01*
X118829316Y-57047238D01*
X118701762Y-56919684D01*
X118614149Y-56864633D01*
X118549023Y-56823711D01*
X118378754Y-56764131D01*
X118378749Y-56764130D01*
X118199504Y-56743935D01*
X118199496Y-56743935D01*
X118020250Y-56764130D01*
X118020245Y-56764131D01*
X117849976Y-56823711D01*
X117697237Y-56919684D01*
X117569684Y-57047237D01*
X117473711Y-57199976D01*
X117461731Y-57234215D01*
X117421009Y-57290991D01*
X117356056Y-57316738D01*
X117287495Y-57303282D01*
X117278723Y-57298257D01*
X117264854Y-57289543D01*
X117264852Y-57289542D01*
X117264850Y-57289541D01*
X117094594Y-57229965D01*
X117094581Y-57229962D01*
X116915336Y-57209767D01*
X116915328Y-57209767D01*
X116736082Y-57229962D01*
X116736077Y-57229963D01*
X116565808Y-57289543D01*
X116413069Y-57385516D01*
X116285516Y-57513069D01*
X116189543Y-57665808D01*
X116129963Y-57836077D01*
X116129962Y-57836082D01*
X116109767Y-58015328D01*
X116109767Y-58015335D01*
X116129962Y-58194581D01*
X116129963Y-58194586D01*
X116189543Y-58364855D01*
X116254515Y-58468256D01*
X116285516Y-58517594D01*
X116413070Y-58645148D01*
X116467351Y-58679255D01*
X116565810Y-58741121D01*
X116711119Y-58791967D01*
X116767896Y-58832689D01*
X116793385Y-58895125D01*
X116814130Y-59079250D01*
X116815682Y-59086047D01*
X116812991Y-59086660D01*
X116815901Y-59143972D01*
X116781155Y-59204589D01*
X116719152Y-59236799D01*
X116649578Y-59230374D01*
X116594523Y-59187354D01*
X116587918Y-59177111D01*
X116582534Y-59167785D01*
X116485647Y-59060182D01*
X116455871Y-59027112D01*
X116421668Y-59002262D01*
X116302734Y-58915851D01*
X116302729Y-58915848D01*
X116129807Y-58838857D01*
X116129802Y-58838855D01*
X115984001Y-58807865D01*
X115944646Y-58799500D01*
X115755354Y-58799500D01*
X115722897Y-58806398D01*
X115570197Y-58838855D01*
X115570192Y-58838857D01*
X115397270Y-58915848D01*
X115397265Y-58915851D01*
X115244129Y-59027111D01*
X115117466Y-59167785D01*
X115022821Y-59331715D01*
X115022818Y-59331722D01*
X114964649Y-59510750D01*
X114964326Y-59511744D01*
X114944540Y-59700000D01*
X100372800Y-59700000D01*
X100371770Y-57204996D01*
X111489435Y-57204996D01*
X111489435Y-57205003D01*
X111509630Y-57384249D01*
X111509631Y-57384254D01*
X111569211Y-57554523D01*
X111629201Y-57649996D01*
X111665184Y-57707262D01*
X111792738Y-57834816D01*
X111876961Y-57887737D01*
X111915123Y-57911716D01*
X111945478Y-57930789D01*
X112115745Y-57990368D01*
X112115750Y-57990369D01*
X112294996Y-58010565D01*
X112295000Y-58010565D01*
X112295004Y-58010565D01*
X112474249Y-57990369D01*
X112474252Y-57990368D01*
X112474255Y-57990368D01*
X112644522Y-57930789D01*
X112797262Y-57834816D01*
X112924816Y-57707262D01*
X113020789Y-57554522D01*
X113080368Y-57384255D01*
X113081947Y-57370245D01*
X113100565Y-57205003D01*
X113100565Y-57204996D01*
X113080369Y-57025750D01*
X113080368Y-57025745D01*
X113059075Y-56964892D01*
X113020789Y-56855478D01*
X113000828Y-56823711D01*
X112924815Y-56702737D01*
X112797262Y-56575184D01*
X112644523Y-56479211D01*
X112474254Y-56419631D01*
X112474249Y-56419630D01*
X112295004Y-56399435D01*
X112294996Y-56399435D01*
X112115750Y-56419630D01*
X112115745Y-56419631D01*
X111945476Y-56479211D01*
X111792737Y-56575184D01*
X111665184Y-56702737D01*
X111569211Y-56855476D01*
X111509631Y-57025745D01*
X111509630Y-57025750D01*
X111489435Y-57204996D01*
X100371770Y-57204996D01*
X100371520Y-56599523D01*
X100371376Y-56249996D01*
X165666535Y-56249996D01*
X165666535Y-56250003D01*
X165686730Y-56429249D01*
X165686731Y-56429254D01*
X165746311Y-56599523D01*
X165811165Y-56702737D01*
X165842284Y-56752262D01*
X165969838Y-56879816D01*
X166040489Y-56924209D01*
X166105235Y-56964892D01*
X166122578Y-56975789D01*
X166249452Y-57020184D01*
X166292845Y-57035368D01*
X166292850Y-57035369D01*
X166472096Y-57055565D01*
X166472100Y-57055565D01*
X166472104Y-57055565D01*
X166651349Y-57035369D01*
X166651352Y-57035368D01*
X166651355Y-57035368D01*
X166821622Y-56975789D01*
X166974362Y-56879816D01*
X167101916Y-56752262D01*
X167197889Y-56599522D01*
X167257468Y-56429255D01*
X167257469Y-56429249D01*
X167277665Y-56250003D01*
X167277665Y-56249996D01*
X167257469Y-56070750D01*
X167257468Y-56070745D01*
X167197888Y-55900476D01*
X167101915Y-55747737D01*
X166974362Y-55620184D01*
X166821623Y-55524211D01*
X166651354Y-55464631D01*
X166651349Y-55464630D01*
X166472104Y-55444435D01*
X166472096Y-55444435D01*
X166292850Y-55464630D01*
X166292845Y-55464631D01*
X166122576Y-55524211D01*
X165969837Y-55620184D01*
X165842284Y-55747737D01*
X165746311Y-55900476D01*
X165686731Y-56070745D01*
X165686730Y-56070750D01*
X165666535Y-56249996D01*
X100371376Y-56249996D01*
X100370107Y-53174996D01*
X108969435Y-53174996D01*
X108969435Y-53175003D01*
X108989630Y-53354249D01*
X108989631Y-53354254D01*
X109049211Y-53524523D01*
X109110924Y-53622738D01*
X109145184Y-53677262D01*
X109272738Y-53804816D01*
X109343887Y-53849522D01*
X109415365Y-53894435D01*
X109425478Y-53900789D01*
X109553955Y-53945745D01*
X109595745Y-53960368D01*
X109595750Y-53960369D01*
X109774996Y-53980565D01*
X109775000Y-53980565D01*
X109775004Y-53980565D01*
X109954249Y-53960369D01*
X109954252Y-53960368D01*
X109954255Y-53960368D01*
X110124522Y-53900789D01*
X110277262Y-53804816D01*
X110404816Y-53677262D01*
X110500789Y-53524522D01*
X110560368Y-53354255D01*
X110560369Y-53354249D01*
X110580565Y-53175003D01*
X110580565Y-53174996D01*
X110565173Y-53038383D01*
X110577228Y-52969561D01*
X110624577Y-52918182D01*
X110688393Y-52900500D01*
X110744644Y-52900500D01*
X110744646Y-52900500D01*
X110929803Y-52861144D01*
X111102730Y-52784151D01*
X111255871Y-52672888D01*
X111382533Y-52532216D01*
X111477179Y-52368284D01*
X111535674Y-52188256D01*
X111555460Y-52000000D01*
X111535674Y-51811744D01*
X111477179Y-51631716D01*
X111382533Y-51467784D01*
X111255871Y-51327112D01*
X111255870Y-51327111D01*
X111102734Y-51215851D01*
X111102729Y-51215848D01*
X110929807Y-51138857D01*
X110929802Y-51138855D01*
X110747012Y-51100003D01*
X110746979Y-51099996D01*
X115594435Y-51099996D01*
X115594435Y-51100003D01*
X115614630Y-51279249D01*
X115614633Y-51279262D01*
X115676510Y-51456094D01*
X115674364Y-51456844D01*
X115683962Y-51515144D01*
X115675609Y-51543590D01*
X115676510Y-51543906D01*
X115614633Y-51720737D01*
X115614630Y-51720750D01*
X115594435Y-51899996D01*
X115594435Y-51900003D01*
X115614630Y-52079249D01*
X115614633Y-52079262D01*
X115676510Y-52256094D01*
X115674364Y-52256844D01*
X115683962Y-52315144D01*
X115675609Y-52343590D01*
X115676510Y-52343906D01*
X115614633Y-52520737D01*
X115614630Y-52520750D01*
X115594435Y-52699996D01*
X115594435Y-52700003D01*
X115614630Y-52879249D01*
X115614633Y-52879262D01*
X115676510Y-53056094D01*
X115674364Y-53056844D01*
X115683962Y-53115144D01*
X115675609Y-53143590D01*
X115676510Y-53143906D01*
X115614633Y-53320737D01*
X115614630Y-53320750D01*
X115594435Y-53499996D01*
X115594435Y-53500003D01*
X115614630Y-53679249D01*
X115614633Y-53679262D01*
X115676510Y-53856094D01*
X115674364Y-53856844D01*
X115683962Y-53915144D01*
X115675609Y-53943590D01*
X115676510Y-53943906D01*
X115614633Y-54120737D01*
X115614630Y-54120750D01*
X115594435Y-54299996D01*
X115594435Y-54300003D01*
X115614630Y-54479249D01*
X115614631Y-54479254D01*
X115674211Y-54649523D01*
X115756080Y-54779815D01*
X115770184Y-54802262D01*
X115897738Y-54929816D01*
X115988080Y-54986582D01*
X116048254Y-55024392D01*
X116050478Y-55025789D01*
X116118306Y-55049523D01*
X116220745Y-55085368D01*
X116220750Y-55085369D01*
X116399996Y-55105565D01*
X116400000Y-55105565D01*
X116400004Y-55105565D01*
X116579249Y-55085369D01*
X116579251Y-55085368D01*
X116579255Y-55085368D01*
X116579258Y-55085366D01*
X116579262Y-55085366D01*
X116756095Y-55023489D01*
X116756846Y-55025637D01*
X116815128Y-55016035D01*
X116843588Y-55024392D01*
X116843905Y-55023489D01*
X117020737Y-55085366D01*
X117020743Y-55085367D01*
X117020745Y-55085368D01*
X117020746Y-55085368D01*
X117020750Y-55085369D01*
X117199996Y-55105565D01*
X117200000Y-55105565D01*
X117200004Y-55105565D01*
X117379249Y-55085369D01*
X117379251Y-55085368D01*
X117379255Y-55085368D01*
X117379258Y-55085366D01*
X117379262Y-55085366D01*
X117556095Y-55023489D01*
X117556846Y-55025637D01*
X117615128Y-55016035D01*
X117643588Y-55024392D01*
X117643905Y-55023489D01*
X117820737Y-55085366D01*
X117820743Y-55085367D01*
X117820745Y-55085368D01*
X117820746Y-55085368D01*
X117820750Y-55085369D01*
X117999996Y-55105565D01*
X118000000Y-55105565D01*
X118000004Y-55105565D01*
X118179249Y-55085369D01*
X118179251Y-55085368D01*
X118179255Y-55085368D01*
X118179258Y-55085366D01*
X118179262Y-55085366D01*
X118356095Y-55023489D01*
X118356846Y-55025637D01*
X118415128Y-55016035D01*
X118443588Y-55024392D01*
X118443905Y-55023489D01*
X118620737Y-55085366D01*
X118620743Y-55085367D01*
X118620745Y-55085368D01*
X118620746Y-55085368D01*
X118620750Y-55085369D01*
X118799996Y-55105565D01*
X118800000Y-55105565D01*
X118800004Y-55105565D01*
X118979249Y-55085369D01*
X118979251Y-55085368D01*
X118979255Y-55085368D01*
X118979258Y-55085366D01*
X118979262Y-55085366D01*
X119156095Y-55023489D01*
X119156846Y-55025637D01*
X119215128Y-55016035D01*
X119243588Y-55024392D01*
X119243905Y-55023489D01*
X119420737Y-55085366D01*
X119420743Y-55085367D01*
X119420745Y-55085368D01*
X119420746Y-55085368D01*
X119420750Y-55085369D01*
X119599996Y-55105565D01*
X119600000Y-55105565D01*
X119600004Y-55105565D01*
X119779249Y-55085369D01*
X119779252Y-55085368D01*
X119779255Y-55085368D01*
X119949522Y-55025789D01*
X120102262Y-54929816D01*
X120229816Y-54802262D01*
X120294074Y-54699996D01*
X121594435Y-54699996D01*
X121594435Y-54700003D01*
X121614630Y-54879249D01*
X121614631Y-54879254D01*
X121674211Y-55049523D01*
X121696735Y-55085369D01*
X121770184Y-55202262D01*
X121897738Y-55329816D01*
X122050478Y-55425789D01*
X122161479Y-55464630D01*
X122220745Y-55485368D01*
X122220750Y-55485369D01*
X122399996Y-55505565D01*
X122400000Y-55505565D01*
X122400004Y-55505565D01*
X122579249Y-55485369D01*
X122579252Y-55485368D01*
X122579255Y-55485368D01*
X122749522Y-55425789D01*
X122902262Y-55329816D01*
X123029816Y-55202262D01*
X123125789Y-55049522D01*
X123185368Y-54879255D01*
X123185759Y-54875788D01*
X123205565Y-54700003D01*
X123205565Y-54699996D01*
X124894435Y-54699996D01*
X124894435Y-54700003D01*
X124914630Y-54879249D01*
X124914631Y-54879254D01*
X124974211Y-55049523D01*
X124996735Y-55085369D01*
X125070184Y-55202262D01*
X125197738Y-55329816D01*
X125350478Y-55425789D01*
X125461479Y-55464630D01*
X125520745Y-55485368D01*
X125520750Y-55485369D01*
X125699996Y-55505565D01*
X125700000Y-55505565D01*
X125700004Y-55505565D01*
X125879249Y-55485369D01*
X125879252Y-55485368D01*
X125879255Y-55485368D01*
X126049522Y-55425789D01*
X126202262Y-55329816D01*
X126329816Y-55202262D01*
X126425789Y-55049522D01*
X126485368Y-54879255D01*
X126485759Y-54875788D01*
X126505565Y-54700003D01*
X126505565Y-54699996D01*
X126485369Y-54520750D01*
X126485368Y-54520745D01*
X126443909Y-54402262D01*
X126425789Y-54350478D01*
X126329816Y-54197738D01*
X126202262Y-54070184D01*
X126191001Y-54063108D01*
X126049523Y-53974211D01*
X125879254Y-53914631D01*
X125879249Y-53914630D01*
X125749362Y-53899996D01*
X130144435Y-53899996D01*
X130144435Y-53900003D01*
X130164630Y-54079249D01*
X130164631Y-54079254D01*
X130224211Y-54249523D01*
X130290019Y-54354255D01*
X130320184Y-54402262D01*
X130447738Y-54529816D01*
X130600478Y-54625789D01*
X130711331Y-54664578D01*
X130770745Y-54685368D01*
X130770750Y-54685369D01*
X130949996Y-54705565D01*
X130950000Y-54705565D01*
X130950004Y-54705565D01*
X131129249Y-54685369D01*
X131129252Y-54685368D01*
X131129255Y-54685368D01*
X131299522Y-54625789D01*
X131452262Y-54529816D01*
X131579816Y-54402262D01*
X131675789Y-54249522D01*
X131701867Y-54174996D01*
X162481535Y-54174996D01*
X162481535Y-54175003D01*
X162501730Y-54354249D01*
X162501731Y-54354254D01*
X162561311Y-54524523D01*
X162624941Y-54625789D01*
X162657284Y-54677262D01*
X162784838Y-54804816D01*
X162858002Y-54850788D01*
X162913035Y-54885368D01*
X162937578Y-54900789D01*
X163022673Y-54930565D01*
X163107845Y-54960368D01*
X163107850Y-54960369D01*
X163287096Y-54980565D01*
X163287100Y-54980565D01*
X163287104Y-54980565D01*
X163466349Y-54960369D01*
X163466352Y-54960368D01*
X163466355Y-54960368D01*
X163636622Y-54900789D01*
X163789362Y-54804816D01*
X163916916Y-54677262D01*
X164005669Y-54536011D01*
X164058002Y-54489721D01*
X164127056Y-54479072D01*
X164190904Y-54507447D01*
X164215655Y-54536011D01*
X164257282Y-54602260D01*
X164257284Y-54602262D01*
X164384838Y-54729816D01*
X164537578Y-54825789D01*
X164609024Y-54850789D01*
X164707845Y-54885368D01*
X164707850Y-54885369D01*
X164887096Y-54905565D01*
X164887100Y-54905565D01*
X164887104Y-54905565D01*
X165066349Y-54885369D01*
X165066352Y-54885368D01*
X165066355Y-54885368D01*
X165236622Y-54825789D01*
X165389362Y-54729816D01*
X165516916Y-54602262D01*
X165574252Y-54511011D01*
X165626585Y-54464721D01*
X165695638Y-54454072D01*
X165759487Y-54482447D01*
X165784239Y-54511012D01*
X165799947Y-54536011D01*
X165857284Y-54627262D01*
X165984838Y-54754816D01*
X166137578Y-54850789D01*
X166236399Y-54885368D01*
X166307845Y-54910368D01*
X166307850Y-54910369D01*
X166487096Y-54930565D01*
X166487100Y-54930565D01*
X166487104Y-54930565D01*
X166666349Y-54910369D01*
X166666352Y-54910368D01*
X166666355Y-54910368D01*
X166836622Y-54850789D01*
X166989362Y-54754816D01*
X166991919Y-54752259D01*
X166993977Y-54751135D01*
X166994805Y-54750475D01*
X166994920Y-54750619D01*
X167053242Y-54718774D01*
X167122934Y-54723758D01*
X167167281Y-54752259D01*
X167194838Y-54779816D01*
X167347578Y-54875789D01*
X167501978Y-54929816D01*
X167517845Y-54935368D01*
X167517850Y-54935369D01*
X167697096Y-54955565D01*
X167697100Y-54955565D01*
X167697104Y-54955565D01*
X167876349Y-54935369D01*
X167876352Y-54935368D01*
X167876355Y-54935368D01*
X168046622Y-54875789D01*
X168199362Y-54779816D01*
X168326916Y-54652262D01*
X168422889Y-54499522D01*
X168482468Y-54329255D01*
X168485764Y-54300003D01*
X168502665Y-54150003D01*
X168502665Y-54149996D01*
X168482469Y-53970750D01*
X168482468Y-53970745D01*
X168462833Y-53914631D01*
X168422889Y-53800478D01*
X168407180Y-53775478D01*
X168383682Y-53738080D01*
X168326916Y-53647738D01*
X168199362Y-53520184D01*
X168167244Y-53500003D01*
X168046623Y-53424211D01*
X167876354Y-53364631D01*
X167876349Y-53364630D01*
X167697104Y-53344435D01*
X167697096Y-53344435D01*
X167517850Y-53364630D01*
X167517845Y-53364631D01*
X167347576Y-53424211D01*
X167194837Y-53520184D01*
X167192281Y-53522741D01*
X167190222Y-53523864D01*
X167189395Y-53524525D01*
X167189279Y-53524380D01*
X167130958Y-53556226D01*
X167061266Y-53551242D01*
X167016919Y-53522741D01*
X166989362Y-53495184D01*
X166836623Y-53399211D01*
X166666354Y-53339631D01*
X166666349Y-53339630D01*
X166487104Y-53319435D01*
X166487096Y-53319435D01*
X166307850Y-53339630D01*
X166307845Y-53339631D01*
X166137576Y-53399211D01*
X165984837Y-53495184D01*
X165857282Y-53622739D01*
X165799947Y-53713988D01*
X165747613Y-53760278D01*
X165678559Y-53770926D01*
X165614711Y-53742551D01*
X165589960Y-53713987D01*
X165568141Y-53679262D01*
X165516916Y-53597738D01*
X165389362Y-53470184D01*
X165355984Y-53449211D01*
X165236623Y-53374211D01*
X165066354Y-53314631D01*
X165066349Y-53314630D01*
X164887104Y-53294435D01*
X164887096Y-53294435D01*
X164707850Y-53314630D01*
X164707845Y-53314631D01*
X164537576Y-53374211D01*
X164384837Y-53470184D01*
X164257284Y-53597737D01*
X164168531Y-53738987D01*
X164116196Y-53785278D01*
X164047142Y-53795926D01*
X163983294Y-53767551D01*
X163958543Y-53738987D01*
X163921007Y-53679249D01*
X163916916Y-53672738D01*
X163789362Y-53545184D01*
X163636623Y-53449211D01*
X163466354Y-53389631D01*
X163466349Y-53389630D01*
X163287104Y-53369435D01*
X163287096Y-53369435D01*
X163107850Y-53389630D01*
X163107845Y-53389631D01*
X162937576Y-53449211D01*
X162784837Y-53545184D01*
X162657284Y-53672737D01*
X162561311Y-53825476D01*
X162501731Y-53995745D01*
X162501730Y-53995750D01*
X162481535Y-54174996D01*
X131701867Y-54174996D01*
X131735368Y-54079255D01*
X131736390Y-54070184D01*
X131755565Y-53900003D01*
X131755565Y-53899996D01*
X131735369Y-53720750D01*
X131735368Y-53720745D01*
X131692326Y-53597738D01*
X131675789Y-53550478D01*
X131659480Y-53524523D01*
X131596450Y-53424211D01*
X131579816Y-53397738D01*
X131452262Y-53270184D01*
X131299523Y-53174211D01*
X131129254Y-53114631D01*
X131129249Y-53114630D01*
X130950004Y-53094435D01*
X130949996Y-53094435D01*
X130770750Y-53114630D01*
X130770745Y-53114631D01*
X130600476Y-53174211D01*
X130447737Y-53270184D01*
X130320184Y-53397737D01*
X130224211Y-53550476D01*
X130164631Y-53720745D01*
X130164630Y-53720750D01*
X130144435Y-53899996D01*
X125749362Y-53899996D01*
X125700004Y-53894435D01*
X125699996Y-53894435D01*
X125520750Y-53914630D01*
X125520745Y-53914631D01*
X125350476Y-53974211D01*
X125197737Y-54070184D01*
X125070184Y-54197737D01*
X124974211Y-54350476D01*
X124914631Y-54520745D01*
X124914630Y-54520750D01*
X124894435Y-54699996D01*
X123205565Y-54699996D01*
X123185369Y-54520750D01*
X123185368Y-54520745D01*
X123143909Y-54402262D01*
X123125789Y-54350478D01*
X123029816Y-54197738D01*
X122902262Y-54070184D01*
X122891001Y-54063108D01*
X122749523Y-53974211D01*
X122579254Y-53914631D01*
X122579249Y-53914630D01*
X122400004Y-53894435D01*
X122399996Y-53894435D01*
X122220750Y-53914630D01*
X122220745Y-53914631D01*
X122050476Y-53974211D01*
X121897737Y-54070184D01*
X121770184Y-54197737D01*
X121674211Y-54350476D01*
X121614631Y-54520745D01*
X121614630Y-54520750D01*
X121594435Y-54699996D01*
X120294074Y-54699996D01*
X120325789Y-54649522D01*
X120385368Y-54479255D01*
X120385389Y-54479072D01*
X120405565Y-54300003D01*
X120405565Y-54299996D01*
X120385369Y-54120750D01*
X120385366Y-54120737D01*
X120323489Y-53943905D01*
X120325637Y-53943153D01*
X120316035Y-53884872D01*
X120324392Y-53856411D01*
X120323489Y-53856095D01*
X120385366Y-53679262D01*
X120385369Y-53679249D01*
X120405565Y-53500003D01*
X120405565Y-53499996D01*
X120385369Y-53320750D01*
X120385366Y-53320737D01*
X120323489Y-53143905D01*
X120325637Y-53143153D01*
X120316035Y-53084872D01*
X120324392Y-53056411D01*
X120323489Y-53056095D01*
X120385366Y-52879262D01*
X120385369Y-52879249D01*
X120405565Y-52700003D01*
X120405565Y-52699996D01*
X120385369Y-52520750D01*
X120385366Y-52520737D01*
X120323489Y-52343905D01*
X120325637Y-52343153D01*
X120316035Y-52284872D01*
X120324392Y-52256411D01*
X120323489Y-52256095D01*
X120385366Y-52079262D01*
X120385369Y-52079249D01*
X120405565Y-51900003D01*
X120405565Y-51899996D01*
X120385369Y-51720750D01*
X120385366Y-51720737D01*
X120323489Y-51543905D01*
X120325637Y-51543153D01*
X120316035Y-51484872D01*
X120324392Y-51456411D01*
X120323489Y-51456095D01*
X120340390Y-51407796D01*
X130044435Y-51407796D01*
X130044435Y-51407803D01*
X130064630Y-51587049D01*
X130064631Y-51587054D01*
X130124211Y-51757323D01*
X130215283Y-51902262D01*
X130220184Y-51910062D01*
X130347738Y-52037616D01*
X130414006Y-52079255D01*
X130488062Y-52125788D01*
X130500478Y-52133589D01*
X130648454Y-52185368D01*
X130670745Y-52193168D01*
X130670750Y-52193169D01*
X130849996Y-52213365D01*
X130850000Y-52213365D01*
X130850004Y-52213365D01*
X131029249Y-52193169D01*
X131029252Y-52193168D01*
X131029255Y-52193168D01*
X131199522Y-52133589D01*
X131352262Y-52037616D01*
X131479816Y-51910062D01*
X131575789Y-51757322D01*
X131635368Y-51587055D01*
X131636780Y-51574522D01*
X131655565Y-51407803D01*
X131655565Y-51407796D01*
X131635369Y-51228550D01*
X131635368Y-51228545D01*
X131634126Y-51224996D01*
X152294435Y-51224996D01*
X152294435Y-51225003D01*
X152314630Y-51404249D01*
X152314631Y-51404254D01*
X152374211Y-51574523D01*
X152410148Y-51631716D01*
X152470184Y-51727262D01*
X152597738Y-51854816D01*
X152750478Y-51950789D01*
X152891115Y-52000000D01*
X152920745Y-52010368D01*
X152920750Y-52010369D01*
X153099996Y-52030565D01*
X153100000Y-52030565D01*
X153100004Y-52030565D01*
X153279249Y-52010369D01*
X153279252Y-52010368D01*
X153279255Y-52010368D01*
X153449522Y-51950789D01*
X153602262Y-51854816D01*
X153729816Y-51727262D01*
X153825789Y-51574522D01*
X153885368Y-51404255D01*
X153885847Y-51400003D01*
X153885848Y-51399996D01*
X180919435Y-51399996D01*
X180919435Y-51400003D01*
X180939630Y-51579249D01*
X180939631Y-51579254D01*
X180999211Y-51749523D01*
X181093760Y-51899996D01*
X181095184Y-51902262D01*
X181222738Y-52029816D01*
X181375478Y-52125789D01*
X181545745Y-52185368D01*
X181545750Y-52185369D01*
X181724996Y-52205565D01*
X181725000Y-52205565D01*
X181725004Y-52205565D01*
X181904249Y-52185369D01*
X181904252Y-52185368D01*
X181904255Y-52185368D01*
X182074522Y-52125789D01*
X182227262Y-52029816D01*
X182354816Y-51902262D01*
X182450789Y-51749522D01*
X182510368Y-51579255D01*
X182510901Y-51574523D01*
X182530565Y-51400003D01*
X182530565Y-51399996D01*
X182510369Y-51220750D01*
X182510368Y-51220745D01*
X182481713Y-51138855D01*
X182450789Y-51050478D01*
X182354816Y-50897738D01*
X182227262Y-50770184D01*
X182195897Y-50750476D01*
X182074523Y-50674211D01*
X181904254Y-50614631D01*
X181904249Y-50614630D01*
X181725004Y-50594435D01*
X181724996Y-50594435D01*
X181545750Y-50614630D01*
X181545745Y-50614631D01*
X181375476Y-50674211D01*
X181222737Y-50770184D01*
X181095184Y-50897737D01*
X180999211Y-51050476D01*
X180939631Y-51220745D01*
X180939630Y-51220750D01*
X180919435Y-51399996D01*
X153885848Y-51399996D01*
X153905565Y-51225003D01*
X153905565Y-51224996D01*
X153885369Y-51045750D01*
X153885368Y-51045745D01*
X153841630Y-50920750D01*
X153825789Y-50875478D01*
X153729816Y-50722738D01*
X153602262Y-50595184D01*
X153577804Y-50579816D01*
X153449523Y-50499211D01*
X153279254Y-50439631D01*
X153279249Y-50439630D01*
X153100004Y-50419435D01*
X153099996Y-50419435D01*
X152920750Y-50439630D01*
X152920745Y-50439631D01*
X152750476Y-50499211D01*
X152597737Y-50595184D01*
X152470184Y-50722737D01*
X152374211Y-50875476D01*
X152314631Y-51045745D01*
X152314630Y-51045750D01*
X152294435Y-51224996D01*
X131634126Y-51224996D01*
X131575788Y-51058276D01*
X131479815Y-50905537D01*
X131352262Y-50777984D01*
X131199523Y-50682011D01*
X131029254Y-50622431D01*
X131029249Y-50622430D01*
X130850004Y-50602235D01*
X130849996Y-50602235D01*
X130670750Y-50622430D01*
X130670745Y-50622431D01*
X130500476Y-50682011D01*
X130347737Y-50777984D01*
X130220184Y-50905537D01*
X130124211Y-51058276D01*
X130064631Y-51228545D01*
X130064630Y-51228550D01*
X130044435Y-51407796D01*
X120340390Y-51407796D01*
X120385366Y-51279262D01*
X120385369Y-51279249D01*
X120405565Y-51100003D01*
X120405565Y-51099996D01*
X120385369Y-50920750D01*
X120385368Y-50920745D01*
X120380046Y-50905537D01*
X120325789Y-50750478D01*
X120316295Y-50735369D01*
X120245332Y-50622432D01*
X120229816Y-50597738D01*
X120102262Y-50470184D01*
X119949523Y-50374211D01*
X119779254Y-50314631D01*
X119779249Y-50314630D01*
X119600004Y-50294435D01*
X119599996Y-50294435D01*
X119420750Y-50314630D01*
X119420737Y-50314633D01*
X119243906Y-50376510D01*
X119243155Y-50374364D01*
X119184856Y-50383962D01*
X119156409Y-50375609D01*
X119156094Y-50376510D01*
X118979262Y-50314633D01*
X118979249Y-50314630D01*
X118800004Y-50294435D01*
X118799996Y-50294435D01*
X118620750Y-50314630D01*
X118620737Y-50314633D01*
X118443906Y-50376510D01*
X118443155Y-50374364D01*
X118384856Y-50383962D01*
X118356409Y-50375609D01*
X118356094Y-50376510D01*
X118179262Y-50314633D01*
X118179249Y-50314630D01*
X118000004Y-50294435D01*
X117999996Y-50294435D01*
X117820750Y-50314630D01*
X117820737Y-50314633D01*
X117643906Y-50376510D01*
X117643155Y-50374364D01*
X117584856Y-50383962D01*
X117556409Y-50375609D01*
X117556094Y-50376510D01*
X117379262Y-50314633D01*
X117379249Y-50314630D01*
X117200004Y-50294435D01*
X117199996Y-50294435D01*
X117020750Y-50314630D01*
X117020737Y-50314633D01*
X116843906Y-50376510D01*
X116843155Y-50374364D01*
X116784856Y-50383962D01*
X116756409Y-50375609D01*
X116756094Y-50376510D01*
X116579262Y-50314633D01*
X116579249Y-50314630D01*
X116400004Y-50294435D01*
X116399996Y-50294435D01*
X116220750Y-50314630D01*
X116220745Y-50314631D01*
X116050476Y-50374211D01*
X115897737Y-50470184D01*
X115770184Y-50597737D01*
X115674211Y-50750476D01*
X115614631Y-50920745D01*
X115614630Y-50920750D01*
X115594435Y-51099996D01*
X110746979Y-51099996D01*
X110744646Y-51099500D01*
X110555354Y-51099500D01*
X110552988Y-51100003D01*
X110370197Y-51138855D01*
X110370192Y-51138857D01*
X110197270Y-51215848D01*
X110197265Y-51215851D01*
X110044129Y-51327111D01*
X109917466Y-51467785D01*
X109822821Y-51631715D01*
X109822818Y-51631722D01*
X109764327Y-51811740D01*
X109764326Y-51811744D01*
X109753993Y-51910062D01*
X109744540Y-52000000D01*
X109764326Y-52188258D01*
X109774534Y-52219674D01*
X109776528Y-52289515D01*
X109740446Y-52349347D01*
X109677745Y-52380174D01*
X109670486Y-52381210D01*
X109595749Y-52389630D01*
X109595745Y-52389631D01*
X109425476Y-52449211D01*
X109272737Y-52545184D01*
X109145184Y-52672737D01*
X109049211Y-52825476D01*
X108989631Y-52995745D01*
X108989630Y-52995750D01*
X108969435Y-53174996D01*
X100370107Y-53174996D01*
X100368631Y-49599996D01*
X109044435Y-49599996D01*
X109044435Y-49600003D01*
X109064630Y-49779249D01*
X109064631Y-49779254D01*
X109124211Y-49949523D01*
X109124511Y-49950000D01*
X109220184Y-50102262D01*
X109347738Y-50229816D01*
X109438080Y-50286582D01*
X109482721Y-50314632D01*
X109500478Y-50325789D01*
X109645430Y-50376510D01*
X109670745Y-50385368D01*
X109670750Y-50385369D01*
X109849996Y-50405565D01*
X109850000Y-50405565D01*
X109850004Y-50405565D01*
X110029249Y-50385369D01*
X110029252Y-50385368D01*
X110029255Y-50385368D01*
X110199522Y-50325789D01*
X110352262Y-50229816D01*
X110479816Y-50102262D01*
X110575491Y-49949996D01*
X124544935Y-49949996D01*
X124544935Y-49950003D01*
X124565130Y-50129249D01*
X124565131Y-50129254D01*
X124624711Y-50299523D01*
X124678652Y-50385369D01*
X124720684Y-50452262D01*
X124848238Y-50579816D01*
X124916058Y-50622430D01*
X124998466Y-50674211D01*
X125000978Y-50675789D01*
X125135148Y-50722737D01*
X125171245Y-50735368D01*
X125171250Y-50735369D01*
X125350496Y-50755565D01*
X125350500Y-50755565D01*
X125350504Y-50755565D01*
X125529749Y-50735369D01*
X125529752Y-50735368D01*
X125529755Y-50735368D01*
X125700022Y-50675789D01*
X125852762Y-50579816D01*
X125980316Y-50452262D01*
X126076289Y-50299522D01*
X126135868Y-50129255D01*
X126135869Y-50129249D01*
X126156065Y-49950003D01*
X126156065Y-49949996D01*
X126135869Y-49770750D01*
X126135868Y-49770745D01*
X126076288Y-49600476D01*
X125980315Y-49447737D01*
X125852762Y-49320184D01*
X125700023Y-49224211D01*
X125529754Y-49164631D01*
X125529749Y-49164630D01*
X125350504Y-49144435D01*
X125350496Y-49144435D01*
X125171250Y-49164630D01*
X125171245Y-49164631D01*
X125000976Y-49224211D01*
X124848237Y-49320184D01*
X124720684Y-49447737D01*
X124624711Y-49600476D01*
X124565131Y-49770745D01*
X124565130Y-49770750D01*
X124544935Y-49949996D01*
X110575491Y-49949996D01*
X110575789Y-49949522D01*
X110635368Y-49779255D01*
X110635369Y-49779249D01*
X110655565Y-49600003D01*
X110655565Y-49599996D01*
X110635369Y-49420750D01*
X110635368Y-49420745D01*
X110575788Y-49250476D01*
X110479815Y-49097737D01*
X110352262Y-48970184D01*
X110199523Y-48874211D01*
X110029254Y-48814631D01*
X110029249Y-48814630D01*
X109850004Y-48794435D01*
X109849996Y-48794435D01*
X109670750Y-48814630D01*
X109670745Y-48814631D01*
X109500476Y-48874211D01*
X109347737Y-48970184D01*
X109220184Y-49097737D01*
X109124211Y-49250476D01*
X109064631Y-49420745D01*
X109064630Y-49420750D01*
X109044435Y-49599996D01*
X100368631Y-49599996D01*
X100367558Y-46999996D01*
X114544435Y-46999996D01*
X114544435Y-47000003D01*
X114564630Y-47179249D01*
X114564631Y-47179254D01*
X114624211Y-47349523D01*
X114716699Y-47496715D01*
X114720184Y-47502262D01*
X114847738Y-47629816D01*
X114924007Y-47677739D01*
X115000474Y-47725787D01*
X115000478Y-47725789D01*
X115068306Y-47749523D01*
X115170745Y-47785368D01*
X115170750Y-47785369D01*
X115349996Y-47805565D01*
X115350000Y-47805565D01*
X115350004Y-47805565D01*
X115529249Y-47785369D01*
X115529252Y-47785368D01*
X115529255Y-47785368D01*
X115699522Y-47725789D01*
X115745752Y-47696740D01*
X115812987Y-47677739D01*
X115879823Y-47698105D01*
X115919968Y-47743963D01*
X115920506Y-47743626D01*
X115922623Y-47746996D01*
X115923448Y-47747938D01*
X115924210Y-47749521D01*
X115959070Y-47805000D01*
X116020184Y-47902262D01*
X116147738Y-48029816D01*
X116300478Y-48125789D01*
X116382595Y-48154523D01*
X116470745Y-48185368D01*
X116470750Y-48185369D01*
X116649996Y-48205565D01*
X116650000Y-48205565D01*
X116650004Y-48205565D01*
X116829249Y-48185369D01*
X116829252Y-48185368D01*
X116829255Y-48185368D01*
X116999522Y-48125789D01*
X117152262Y-48029816D01*
X117279816Y-47902262D01*
X117340932Y-47804996D01*
X183769435Y-47804996D01*
X183769435Y-47805003D01*
X183789630Y-47984249D01*
X183789631Y-47984254D01*
X183849211Y-48154523D01*
X183868593Y-48185369D01*
X183945184Y-48307262D01*
X184072738Y-48434816D01*
X184137173Y-48475303D01*
X184202458Y-48516325D01*
X184225478Y-48530789D01*
X184278614Y-48549382D01*
X184395745Y-48590368D01*
X184395750Y-48590369D01*
X184574996Y-48610565D01*
X184575000Y-48610565D01*
X184575004Y-48610565D01*
X184754249Y-48590369D01*
X184754252Y-48590368D01*
X184754255Y-48590368D01*
X184924522Y-48530789D01*
X184982587Y-48494303D01*
X185049823Y-48475303D01*
X185116659Y-48495670D01*
X185140710Y-48516325D01*
X185169129Y-48547888D01*
X185322265Y-48659148D01*
X185322270Y-48659151D01*
X185495192Y-48736142D01*
X185495197Y-48736144D01*
X185680354Y-48775500D01*
X185680355Y-48775500D01*
X185869644Y-48775500D01*
X185869646Y-48775500D01*
X186054803Y-48736144D01*
X186227730Y-48659151D01*
X186346499Y-48572860D01*
X186412301Y-48549382D01*
X186480355Y-48565207D01*
X186492266Y-48572862D01*
X186597265Y-48649148D01*
X186597270Y-48649151D01*
X186770192Y-48726142D01*
X186770197Y-48726144D01*
X186955354Y-48765500D01*
X186955355Y-48765500D01*
X187144644Y-48765500D01*
X187144646Y-48765500D01*
X187329803Y-48726144D01*
X187502730Y-48649151D01*
X187655871Y-48537888D01*
X187782533Y-48397216D01*
X187877179Y-48233284D01*
X187935674Y-48053256D01*
X187955460Y-47865000D01*
X187935674Y-47676744D01*
X187877179Y-47496716D01*
X187782533Y-47332784D01*
X187655871Y-47192112D01*
X187655870Y-47192111D01*
X187502734Y-47080851D01*
X187502729Y-47080848D01*
X187329807Y-47003857D01*
X187329802Y-47003855D01*
X187184001Y-46972865D01*
X187144646Y-46964500D01*
X186955354Y-46964500D01*
X186922897Y-46971398D01*
X186770197Y-47003855D01*
X186770192Y-47003857D01*
X186597271Y-47080848D01*
X186478502Y-47167138D01*
X186412695Y-47190617D01*
X186344641Y-47174791D01*
X186332732Y-47167137D01*
X186227734Y-47090851D01*
X186227729Y-47090848D01*
X186054807Y-47013857D01*
X186054802Y-47013855D01*
X185909001Y-46982865D01*
X185869646Y-46974500D01*
X185680354Y-46974500D01*
X185647897Y-46981398D01*
X185495197Y-47013855D01*
X185495192Y-47013857D01*
X185322271Y-47090848D01*
X185214246Y-47169332D01*
X185148439Y-47192811D01*
X185080385Y-47176985D01*
X185075389Y-47174007D01*
X184924523Y-47079211D01*
X184754254Y-47019631D01*
X184754249Y-47019630D01*
X184575004Y-46999435D01*
X184574996Y-46999435D01*
X184395750Y-47019630D01*
X184395745Y-47019631D01*
X184225476Y-47079211D01*
X184072737Y-47175184D01*
X183945184Y-47302737D01*
X183849211Y-47455476D01*
X183789631Y-47625745D01*
X183789630Y-47625750D01*
X183769435Y-47804996D01*
X117340932Y-47804996D01*
X117375789Y-47749522D01*
X117435368Y-47579255D01*
X117444668Y-47496715D01*
X117455565Y-47400003D01*
X117455565Y-47399996D01*
X117435369Y-47220750D01*
X117435368Y-47220745D01*
X117425349Y-47192112D01*
X117375789Y-47050478D01*
X117352778Y-47013857D01*
X117279815Y-46897737D01*
X117152262Y-46770184D01*
X116999523Y-46674211D01*
X116829254Y-46614631D01*
X116829249Y-46614630D01*
X116650004Y-46594435D01*
X116649996Y-46594435D01*
X116470750Y-46614630D01*
X116470745Y-46614631D01*
X116300475Y-46674211D01*
X116254244Y-46703260D01*
X116187007Y-46722259D01*
X116120172Y-46701890D01*
X116080031Y-46656036D01*
X116079494Y-46656374D01*
X116077374Y-46653000D01*
X116076550Y-46652059D01*
X116075787Y-46650474D01*
X115979815Y-46497737D01*
X115852262Y-46370184D01*
X115699523Y-46274211D01*
X115529254Y-46214631D01*
X115529249Y-46214630D01*
X115350004Y-46194435D01*
X115349996Y-46194435D01*
X115170750Y-46214630D01*
X115170745Y-46214631D01*
X115000476Y-46274211D01*
X114847737Y-46370184D01*
X114720184Y-46497737D01*
X114624211Y-46650476D01*
X114564631Y-46820745D01*
X114564630Y-46820750D01*
X114544435Y-46999996D01*
X100367558Y-46999996D01*
X100365238Y-41378711D01*
X102149500Y-41378711D01*
X102149500Y-41621288D01*
X102181161Y-41861785D01*
X102243947Y-42096104D01*
X102301953Y-42236142D01*
X102336776Y-42320212D01*
X102458064Y-42530289D01*
X102458066Y-42530292D01*
X102458067Y-42530293D01*
X102605733Y-42722736D01*
X102605739Y-42722743D01*
X102777256Y-42894260D01*
X102777262Y-42894265D01*
X102969711Y-43041936D01*
X103179788Y-43163224D01*
X103403900Y-43256054D01*
X103638211Y-43318838D01*
X103818586Y-43342584D01*
X103878711Y-43350500D01*
X103878712Y-43350500D01*
X104121289Y-43350500D01*
X104169388Y-43344167D01*
X104361789Y-43318838D01*
X104432093Y-43300000D01*
X111794540Y-43300000D01*
X111814326Y-43488256D01*
X111814327Y-43488259D01*
X111872818Y-43668277D01*
X111872821Y-43668284D01*
X111967467Y-43832216D01*
X112094129Y-43972888D01*
X112247265Y-44084148D01*
X112247270Y-44084151D01*
X112420192Y-44161142D01*
X112420197Y-44161144D01*
X112605354Y-44200500D01*
X112605355Y-44200500D01*
X112794644Y-44200500D01*
X112794646Y-44200500D01*
X112979803Y-44161144D01*
X113152730Y-44084151D01*
X113305871Y-43972888D01*
X113432533Y-43832216D01*
X113527179Y-43668284D01*
X113585674Y-43488256D01*
X113605460Y-43300000D01*
X113585674Y-43111744D01*
X113527179Y-42931716D01*
X113432533Y-42767784D01*
X113305871Y-42627112D01*
X113305870Y-42627111D01*
X113152734Y-42515851D01*
X113152729Y-42515848D01*
X112979807Y-42438857D01*
X112979802Y-42438855D01*
X112834001Y-42407865D01*
X112794646Y-42399500D01*
X112605354Y-42399500D01*
X112572897Y-42406398D01*
X112420197Y-42438855D01*
X112420192Y-42438857D01*
X112247270Y-42515848D01*
X112247265Y-42515851D01*
X112094129Y-42627111D01*
X111967466Y-42767785D01*
X111872821Y-42931715D01*
X111872818Y-42931722D01*
X111837009Y-43041932D01*
X111814326Y-43111744D01*
X111794540Y-43300000D01*
X104432093Y-43300000D01*
X104596100Y-43256054D01*
X104820212Y-43163224D01*
X105030289Y-43041936D01*
X105222738Y-42894265D01*
X105394265Y-42722738D01*
X105541936Y-42530289D01*
X105663224Y-42320212D01*
X105756054Y-42096100D01*
X105818838Y-41861789D01*
X105850500Y-41621288D01*
X105850500Y-41378712D01*
X105850011Y-41375000D01*
X127144540Y-41375000D01*
X127164326Y-41563256D01*
X127164327Y-41563259D01*
X127222818Y-41743277D01*
X127222821Y-41743284D01*
X127317467Y-41907216D01*
X127444129Y-42047888D01*
X127597265Y-42159148D01*
X127597270Y-42159151D01*
X127770192Y-42236142D01*
X127770197Y-42236144D01*
X127955354Y-42275500D01*
X127955355Y-42275500D01*
X128144644Y-42275500D01*
X128144646Y-42275500D01*
X128329803Y-42236144D01*
X128502730Y-42159151D01*
X128539615Y-42132352D01*
X128605419Y-42108872D01*
X128673473Y-42124696D01*
X128685377Y-42132346D01*
X128722270Y-42159151D01*
X128836941Y-42210206D01*
X128895192Y-42236142D01*
X128895197Y-42236144D01*
X129080354Y-42275500D01*
X129080355Y-42275500D01*
X129269644Y-42275500D01*
X129269646Y-42275500D01*
X129454803Y-42236144D01*
X129627730Y-42159151D01*
X129780871Y-42047888D01*
X129907533Y-41907216D01*
X130002179Y-41743284D01*
X130060674Y-41563256D01*
X130080070Y-41378711D01*
X194149500Y-41378711D01*
X194149500Y-41621288D01*
X194181161Y-41861785D01*
X194243947Y-42096104D01*
X194301953Y-42236142D01*
X194336776Y-42320212D01*
X194458064Y-42530289D01*
X194458066Y-42530292D01*
X194458067Y-42530293D01*
X194605733Y-42722736D01*
X194605739Y-42722743D01*
X194777256Y-42894260D01*
X194777262Y-42894265D01*
X194969711Y-43041936D01*
X195179788Y-43163224D01*
X195403900Y-43256054D01*
X195638211Y-43318838D01*
X195818586Y-43342584D01*
X195878711Y-43350500D01*
X195878712Y-43350500D01*
X196121289Y-43350500D01*
X196169388Y-43344167D01*
X196361789Y-43318838D01*
X196596100Y-43256054D01*
X196820212Y-43163224D01*
X197030289Y-43041936D01*
X197222738Y-42894265D01*
X197394265Y-42722738D01*
X197541936Y-42530289D01*
X197663224Y-42320212D01*
X197756054Y-42096100D01*
X197818838Y-41861789D01*
X197850500Y-41621288D01*
X197850500Y-41378712D01*
X197818838Y-41138211D01*
X197756054Y-40903900D01*
X197663224Y-40679788D01*
X197541936Y-40469711D01*
X197394265Y-40277262D01*
X197394260Y-40277256D01*
X197222743Y-40105739D01*
X197222736Y-40105733D01*
X197030293Y-39958067D01*
X197030292Y-39958066D01*
X197030289Y-39958064D01*
X196858661Y-39858974D01*
X196820214Y-39836777D01*
X196820205Y-39836773D01*
X196596104Y-39743947D01*
X196405166Y-39692785D01*
X196361789Y-39681162D01*
X196361788Y-39681161D01*
X196361785Y-39681161D01*
X196121289Y-39649500D01*
X196121288Y-39649500D01*
X195878712Y-39649500D01*
X195878711Y-39649500D01*
X195638214Y-39681161D01*
X195403895Y-39743947D01*
X195179794Y-39836773D01*
X195179785Y-39836777D01*
X194969706Y-39958067D01*
X194777263Y-40105733D01*
X194777256Y-40105739D01*
X194605739Y-40277256D01*
X194605733Y-40277263D01*
X194458067Y-40469706D01*
X194336777Y-40679785D01*
X194336773Y-40679794D01*
X194243947Y-40903895D01*
X194181161Y-41138214D01*
X194149500Y-41378711D01*
X130080070Y-41378711D01*
X130080460Y-41375000D01*
X130060674Y-41186744D01*
X130002179Y-41006716D01*
X129907533Y-40842784D01*
X129780871Y-40702112D01*
X129750145Y-40679788D01*
X129627734Y-40590851D01*
X129627729Y-40590848D01*
X129454807Y-40513857D01*
X129454802Y-40513855D01*
X129309001Y-40482865D01*
X129269646Y-40474500D01*
X129080354Y-40474500D01*
X129047897Y-40481398D01*
X128895197Y-40513855D01*
X128895192Y-40513857D01*
X128722270Y-40590848D01*
X128722266Y-40590851D01*
X128685384Y-40617647D01*
X128619577Y-40641126D01*
X128551524Y-40625300D01*
X128539616Y-40617647D01*
X128502733Y-40590851D01*
X128502729Y-40590848D01*
X128329807Y-40513857D01*
X128329802Y-40513855D01*
X128184001Y-40482865D01*
X128144646Y-40474500D01*
X127955354Y-40474500D01*
X127922897Y-40481398D01*
X127770197Y-40513855D01*
X127770192Y-40513857D01*
X127597270Y-40590848D01*
X127597265Y-40590851D01*
X127444129Y-40702111D01*
X127317466Y-40842785D01*
X127222821Y-41006715D01*
X127222818Y-41006722D01*
X127180095Y-41138211D01*
X127164326Y-41186744D01*
X127144540Y-41375000D01*
X105850011Y-41375000D01*
X105818838Y-41138211D01*
X105756054Y-40903900D01*
X105663224Y-40679788D01*
X105541936Y-40469711D01*
X105394265Y-40277262D01*
X105394260Y-40277256D01*
X105342004Y-40225000D01*
X120269540Y-40225000D01*
X120289326Y-40413256D01*
X120289327Y-40413259D01*
X120347818Y-40593277D01*
X120347821Y-40593284D01*
X120442467Y-40757216D01*
X120519513Y-40842784D01*
X120569129Y-40897888D01*
X120722265Y-41009148D01*
X120722270Y-41009151D01*
X120895192Y-41086142D01*
X120895197Y-41086144D01*
X121080354Y-41125500D01*
X121080355Y-41125500D01*
X121269644Y-41125500D01*
X121269646Y-41125500D01*
X121454803Y-41086144D01*
X121627730Y-41009151D01*
X121681819Y-40969851D01*
X121747623Y-40946372D01*
X121815677Y-40962196D01*
X121827586Y-40969849D01*
X121847266Y-40984148D01*
X121847269Y-40984150D01*
X121847270Y-40984151D01*
X122020192Y-41061142D01*
X122020197Y-41061144D01*
X122205354Y-41100500D01*
X122205355Y-41100500D01*
X122394644Y-41100500D01*
X122394646Y-41100500D01*
X122579803Y-41061144D01*
X122752730Y-40984151D01*
X122789615Y-40957352D01*
X122855419Y-40933872D01*
X122923473Y-40949696D01*
X122935377Y-40957346D01*
X122972270Y-40984151D01*
X123031711Y-41010616D01*
X123145192Y-41061142D01*
X123145197Y-41061144D01*
X123330354Y-41100500D01*
X123330355Y-41100500D01*
X123519644Y-41100500D01*
X123519646Y-41100500D01*
X123704803Y-41061144D01*
X123877730Y-40984151D01*
X123914615Y-40957352D01*
X123980419Y-40933872D01*
X124048473Y-40949696D01*
X124060377Y-40957346D01*
X124097270Y-40984151D01*
X124156711Y-41010616D01*
X124270192Y-41061142D01*
X124270197Y-41061144D01*
X124455354Y-41100500D01*
X124455355Y-41100500D01*
X124644644Y-41100500D01*
X124644646Y-41100500D01*
X124829803Y-41061144D01*
X125002730Y-40984151D01*
X125155871Y-40872888D01*
X125282533Y-40732216D01*
X125377179Y-40568284D01*
X125435674Y-40388256D01*
X125455460Y-40200000D01*
X125435674Y-40011744D01*
X125377179Y-39831716D01*
X125282533Y-39667784D01*
X125155871Y-39527112D01*
X125155870Y-39527111D01*
X125002734Y-39415851D01*
X125002729Y-39415848D01*
X124829807Y-39338857D01*
X124829802Y-39338855D01*
X124684001Y-39307865D01*
X124644646Y-39299500D01*
X124455354Y-39299500D01*
X124422897Y-39306398D01*
X124270197Y-39338855D01*
X124270192Y-39338857D01*
X124097270Y-39415848D01*
X124097266Y-39415851D01*
X124060384Y-39442647D01*
X123994577Y-39466126D01*
X123926524Y-39450300D01*
X123914616Y-39442647D01*
X123877733Y-39415851D01*
X123877729Y-39415848D01*
X123704807Y-39338857D01*
X123704802Y-39338855D01*
X123559001Y-39307865D01*
X123519646Y-39299500D01*
X123330354Y-39299500D01*
X123297897Y-39306398D01*
X123145197Y-39338855D01*
X123145192Y-39338857D01*
X122972270Y-39415848D01*
X122972266Y-39415851D01*
X122935384Y-39442647D01*
X122869577Y-39466126D01*
X122801524Y-39450300D01*
X122789616Y-39442647D01*
X122752733Y-39415851D01*
X122752729Y-39415848D01*
X122579807Y-39338857D01*
X122579802Y-39338855D01*
X122434001Y-39307865D01*
X122394646Y-39299500D01*
X122205354Y-39299500D01*
X122172897Y-39306398D01*
X122020197Y-39338855D01*
X122020192Y-39338857D01*
X121847270Y-39415848D01*
X121847266Y-39415851D01*
X121793179Y-39455147D01*
X121727372Y-39478626D01*
X121659319Y-39462800D01*
X121647412Y-39455148D01*
X121627732Y-39440850D01*
X121627729Y-39440848D01*
X121454807Y-39363857D01*
X121454802Y-39363855D01*
X121309001Y-39332865D01*
X121269646Y-39324500D01*
X121080354Y-39324500D01*
X121047897Y-39331398D01*
X120895197Y-39363855D01*
X120895192Y-39363857D01*
X120722270Y-39440848D01*
X120722265Y-39440851D01*
X120569129Y-39552111D01*
X120442466Y-39692785D01*
X120347821Y-39856715D01*
X120347818Y-39856722D01*
X120297450Y-40011740D01*
X120289326Y-40036744D01*
X120269540Y-40225000D01*
X105342004Y-40225000D01*
X105222743Y-40105739D01*
X105222736Y-40105733D01*
X105030293Y-39958067D01*
X105030292Y-39958066D01*
X105030289Y-39958064D01*
X104858661Y-39858974D01*
X104820214Y-39836777D01*
X104820205Y-39836773D01*
X104596104Y-39743947D01*
X104405166Y-39692785D01*
X104361789Y-39681162D01*
X104361788Y-39681161D01*
X104361785Y-39681161D01*
X104121289Y-39649500D01*
X104121288Y-39649500D01*
X103878712Y-39649500D01*
X103878711Y-39649500D01*
X103638214Y-39681161D01*
X103403895Y-39743947D01*
X103179794Y-39836773D01*
X103179785Y-39836777D01*
X102969706Y-39958067D01*
X102777263Y-40105733D01*
X102777256Y-40105739D01*
X102605739Y-40277256D01*
X102605733Y-40277263D01*
X102458067Y-40469706D01*
X102336777Y-40679785D01*
X102336773Y-40679794D01*
X102243947Y-40903895D01*
X102181161Y-41138214D01*
X102149500Y-41378711D01*
X100365238Y-41378711D01*
X100365004Y-40811657D01*
X100367412Y-40787289D01*
X100399810Y-40625300D01*
X100560559Y-39821553D01*
X100576996Y-39780159D01*
X101057519Y-39011322D01*
X101074982Y-38989371D01*
X101749553Y-38314800D01*
X101784789Y-38290119D01*
X102505404Y-37953832D01*
X102525214Y-37946569D01*
X103048980Y-37803723D01*
X103081605Y-37799355D01*
X197040233Y-37800033D01*
G37*
G04 #@! TD.AperFunction*
M02*
