G04 #@! TF.GenerationSoftware,KiCad,Pcbnew,8.0.5*
G04 #@! TF.CreationDate,2025-06-09T21:24:26+03:00*
G04 #@! TF.ProjectId,Main Board,4d61696e-2042-46f6-9172-642e6b696361,rev?*
G04 #@! TF.SameCoordinates,Original*
G04 #@! TF.FileFunction,Soldermask,Top*
G04 #@! TF.FilePolarity,Negative*
%FSLAX46Y46*%
G04 Gerber Fmt 4.6, Leading zero omitted, Abs format (unit mm)*
G04 Created by KiCad (PCBNEW 8.0.5) date 2025-06-09 21:24:26*
%MOMM*%
%LPD*%
G01*
G04 APERTURE LIST*
G04 Aperture macros list*
%AMRoundRect*
0 Rectangle with rounded corners*
0 $1 Rounding radius*
0 $2 $3 $4 $5 $6 $7 $8 $9 X,Y pos of 4 corners*
0 Add a 4 corners polygon primitive as box body*
4,1,4,$2,$3,$4,$5,$6,$7,$8,$9,$2,$3,0*
0 Add four circle primitives for the rounded corners*
1,1,$1+$1,$2,$3*
1,1,$1+$1,$4,$5*
1,1,$1+$1,$6,$7*
1,1,$1+$1,$8,$9*
0 Add four rect primitives between the rounded corners*
20,1,$1+$1,$2,$3,$4,$5,0*
20,1,$1+$1,$4,$5,$6,$7,0*
20,1,$1+$1,$6,$7,$8,$9,0*
20,1,$1+$1,$8,$9,$2,$3,0*%
G04 Aperture macros list end*
%ADD10C,0.010000*%
%ADD11RoundRect,0.135000X0.135000X0.185000X-0.135000X0.185000X-0.135000X-0.185000X0.135000X-0.185000X0*%
%ADD12RoundRect,0.135000X0.185000X-0.135000X0.185000X0.135000X-0.185000X0.135000X-0.185000X-0.135000X0*%
%ADD13RoundRect,0.250000X-0.475000X0.250000X-0.475000X-0.250000X0.475000X-0.250000X0.475000X0.250000X0*%
%ADD14RoundRect,0.112500X-0.112500X0.187500X-0.112500X-0.187500X0.112500X-0.187500X0.112500X0.187500X0*%
%ADD15RoundRect,0.250000X0.475000X-0.250000X0.475000X0.250000X-0.475000X0.250000X-0.475000X-0.250000X0*%
%ADD16R,0.700000X0.200000*%
%ADD17R,1.000000X1.600000*%
%ADD18RoundRect,0.135000X-0.185000X0.135000X-0.185000X-0.135000X0.185000X-0.135000X0.185000X0.135000X0*%
%ADD19RoundRect,0.225000X-0.250000X0.225000X-0.250000X-0.225000X0.250000X-0.225000X0.250000X0.225000X0*%
%ADD20C,1.000000*%
%ADD21RoundRect,0.102000X-0.350000X-0.800000X0.350000X-0.800000X0.350000X0.800000X-0.350000X0.800000X0*%
%ADD22RoundRect,0.102000X-0.600000X-0.900000X0.600000X-0.900000X0.600000X0.900000X-0.600000X0.900000X0*%
%ADD23RoundRect,0.102000X-0.800000X-0.750000X0.800000X-0.750000X0.800000X0.750000X-0.800000X0.750000X0*%
%ADD24RoundRect,0.102000X-0.600000X-1.100000X0.600000X-1.100000X0.600000X1.100000X-0.600000X1.100000X0*%
%ADD25R,1.500000X0.900000*%
%ADD26R,0.900000X1.500000*%
%ADD27R,0.900000X0.900000*%
%ADD28RoundRect,0.135000X-0.135000X-0.185000X0.135000X-0.185000X0.135000X0.185000X-0.135000X0.185000X0*%
%ADD29R,0.406400X1.397000*%
%ADD30R,0.304800X0.508000*%
%ADD31RoundRect,0.250000X0.250000X0.475000X-0.250000X0.475000X-0.250000X-0.475000X0.250000X-0.475000X0*%
%ADD32R,1.244600X3.200400*%
%ADD33R,1.752600X5.359400*%
%ADD34R,3.600000X1.150000*%
%ADD35R,0.492000X0.300000*%
%ADD36R,0.900000X0.200000*%
%ADD37R,0.200000X0.900000*%
%ADD38R,4.500000X4.500000*%
%ADD39C,3.200000*%
%ADD40R,2.700000X0.800000*%
%ADD41RoundRect,0.225000X-0.225000X-0.250000X0.225000X-0.250000X0.225000X0.250000X-0.225000X0.250000X0*%
%ADD42RoundRect,0.112500X0.112500X-0.187500X0.112500X0.187500X-0.112500X0.187500X-0.112500X-0.187500X0*%
%ADD43R,3.700000X1.100000*%
%ADD44R,3.200400X1.244600*%
%ADD45R,5.359400X1.752600*%
%ADD46RoundRect,0.250000X-0.250000X-0.475000X0.250000X-0.475000X0.250000X0.475000X-0.250000X0.475000X0*%
%ADD47RoundRect,0.225000X0.225000X0.250000X-0.225000X0.250000X-0.225000X-0.250000X0.225000X-0.250000X0*%
%ADD48R,0.609600X1.574800*%
%ADD49RoundRect,0.225000X0.250000X-0.225000X0.250000X0.225000X-0.250000X0.225000X-0.250000X-0.225000X0*%
%ADD50R,0.900000X0.300000*%
%ADD51R,0.300000X0.900000*%
%ADD52R,2.150000X2.150000*%
%ADD53RoundRect,0.150000X-0.512500X-0.150000X0.512500X-0.150000X0.512500X0.150000X-0.512500X0.150000X0*%
%ADD54R,0.800000X0.300000*%
%ADD55R,0.650000X0.300000*%
%ADD56R,0.950000X0.400000*%
%ADD57RoundRect,0.150000X0.512500X0.150000X-0.512500X0.150000X-0.512500X-0.150000X0.512500X-0.150000X0*%
G04 APERTURE END LIST*
D10*
X180385000Y-44345680D02*
X179805000Y-44940681D01*
X179805000Y-46009319D01*
X180385000Y-46604320D01*
X180385000Y-47520000D01*
X179354110Y-47520000D01*
X178735000Y-46911950D01*
X178735000Y-44038050D01*
X179354110Y-43430000D01*
X180385000Y-43430000D01*
X180385000Y-44345680D01*
G36*
X180385000Y-44345680D02*
G01*
X179805000Y-44940681D01*
X179805000Y-46009319D01*
X180385000Y-46604320D01*
X180385000Y-47520000D01*
X179354110Y-47520000D01*
X178735000Y-46911950D01*
X178735000Y-44038050D01*
X179354110Y-43430000D01*
X180385000Y-43430000D01*
X180385000Y-44345680D01*
G37*
X183335000Y-44038050D02*
X183335000Y-46911950D01*
X182715890Y-47520000D01*
X181685000Y-47520000D01*
X181685000Y-46604320D01*
X182265000Y-46009319D01*
X182265000Y-44940681D01*
X181685000Y-44345680D01*
X181685000Y-43430000D01*
X182715890Y-43430000D01*
X183335000Y-44038050D01*
G36*
X183335000Y-44038050D02*
G01*
X183335000Y-46911950D01*
X182715890Y-47520000D01*
X181685000Y-47520000D01*
X181685000Y-46604320D01*
X182265000Y-46009319D01*
X182265000Y-44940681D01*
X181685000Y-44345680D01*
X181685000Y-43430000D01*
X182715890Y-43430000D01*
X183335000Y-44038050D01*
G37*
D11*
X113625000Y-75350000D03*
X112605000Y-75350000D03*
D12*
X142300000Y-60150000D03*
X142300000Y-59130000D03*
X137825000Y-67070000D03*
X137825000Y-66050000D03*
D13*
X116630000Y-42300000D03*
X116630000Y-44200000D03*
D14*
X119125000Y-43250000D03*
X119125000Y-45350000D03*
D11*
X111870000Y-44600000D03*
X110850000Y-44600000D03*
D15*
X117000000Y-62750000D03*
X117000000Y-60850000D03*
D16*
X182125000Y-67414966D03*
X182125000Y-67014966D03*
X182125000Y-66614966D03*
X182125000Y-66214966D03*
X182125000Y-65814966D03*
X180025000Y-65814966D03*
X180025000Y-66214966D03*
X180025000Y-66614966D03*
X180025000Y-67014966D03*
X180025000Y-67414966D03*
D17*
X181075000Y-66614966D03*
D11*
X169072100Y-61350000D03*
X168052100Y-61350000D03*
D18*
X140200000Y-59880000D03*
X140200000Y-60900000D03*
D19*
X181550000Y-54925000D03*
X181550000Y-56475000D03*
D11*
X134860000Y-53900000D03*
X133840000Y-53900000D03*
D13*
X162160000Y-89900000D03*
X162160000Y-91800000D03*
X123600000Y-59250000D03*
X123600000Y-61150000D03*
D11*
X151810000Y-55625000D03*
X150790000Y-55625000D03*
D20*
X171125000Y-89200000D03*
X179125000Y-89200000D03*
D21*
X178325000Y-78200000D03*
X177225000Y-78200000D03*
X176125000Y-78200000D03*
X175025000Y-78200000D03*
X173925000Y-78200000D03*
X172825000Y-78200000D03*
X171725000Y-78200000D03*
X170625000Y-78200000D03*
X169525000Y-78200000D03*
D22*
X168325000Y-79500000D03*
D23*
X182925000Y-79250000D03*
D24*
X168325000Y-88800000D03*
X183825000Y-88800000D03*
D11*
X149405000Y-48750000D03*
X148385000Y-48750000D03*
D25*
X153450000Y-91340000D03*
X153450000Y-90070000D03*
X153450000Y-88800000D03*
X153450000Y-87530000D03*
X153450000Y-86260000D03*
X153450000Y-84990000D03*
X153450000Y-83720000D03*
X153450000Y-82450000D03*
X153450000Y-81180000D03*
X153450000Y-79910000D03*
X153450000Y-78640000D03*
X153450000Y-77370000D03*
X153450000Y-76100000D03*
X153450000Y-74830000D03*
D26*
X151685000Y-73580000D03*
X150415000Y-73580000D03*
X149145000Y-73580000D03*
X147875000Y-73580000D03*
X146605000Y-73580000D03*
X145335000Y-73580000D03*
X144065000Y-73580000D03*
X142795000Y-73580000D03*
X141525000Y-73580000D03*
X140255000Y-73580000D03*
X138985000Y-73580000D03*
X137715000Y-73580000D03*
D25*
X135950000Y-74830000D03*
X135950000Y-76100000D03*
X135950000Y-77370000D03*
X135950000Y-78640000D03*
X135950000Y-79910000D03*
X135950000Y-81180000D03*
X135950000Y-82450000D03*
X135950000Y-83720000D03*
X135950000Y-84990000D03*
X135950000Y-86260000D03*
X135950000Y-87530000D03*
X135950000Y-88800000D03*
X135950000Y-90070000D03*
X135950000Y-91340000D03*
D27*
X146200000Y-83620000D03*
X146200000Y-85020000D03*
X147600000Y-85020000D03*
X147600000Y-83620000D03*
X147600000Y-82220000D03*
X146200000Y-82220000D03*
X144800000Y-82220000D03*
X144800000Y-83620000D03*
X144800000Y-85020000D03*
D28*
X131640000Y-53900000D03*
X132660000Y-53900000D03*
D29*
X158225000Y-82960000D03*
D30*
X157523974Y-82514001D03*
D29*
X156624998Y-82960000D03*
D30*
X157318999Y-83405999D03*
D31*
X177675000Y-66484966D03*
X175775000Y-66484966D03*
D15*
X112745000Y-87950000D03*
X112745000Y-86050000D03*
D12*
X139375000Y-63535000D03*
X139375000Y-62515000D03*
D32*
X167025001Y-46579000D03*
X165024999Y-46579000D03*
D33*
X168725000Y-41099001D03*
X163325000Y-41099001D03*
D15*
X112600000Y-62750000D03*
X112600000Y-60850000D03*
D12*
X186225000Y-56185000D03*
X186225000Y-55165000D03*
D34*
X127100000Y-60825000D03*
X127100000Y-63775000D03*
D35*
X169121100Y-58900000D03*
X169121100Y-58400000D03*
X169121100Y-57900000D03*
X167453100Y-57900000D03*
X167453100Y-58400000D03*
X167453100Y-58900000D03*
D36*
X115050000Y-50500000D03*
X115050000Y-50900000D03*
X115050000Y-51300000D03*
X115050000Y-51700000D03*
X115050000Y-52100000D03*
X115050000Y-52500000D03*
X115050000Y-52900000D03*
X115050000Y-53300000D03*
X115050000Y-53700000D03*
X115050000Y-54100000D03*
X115050000Y-54500000D03*
X115050000Y-54900000D03*
D37*
X115800000Y-55650000D03*
X116200000Y-55650000D03*
X116600000Y-55650000D03*
X117000000Y-55650000D03*
X117400000Y-55650000D03*
X117800000Y-55650000D03*
X118200000Y-55650000D03*
X118600000Y-55650000D03*
X119000000Y-55650000D03*
X119400000Y-55650000D03*
X119800000Y-55650000D03*
X120200000Y-55650000D03*
D36*
X120950000Y-54900000D03*
X120950000Y-54500000D03*
X120950000Y-54100000D03*
X120950000Y-53700000D03*
X120950000Y-53300000D03*
X120950000Y-52900000D03*
X120950000Y-52500000D03*
X120950000Y-52100000D03*
X120950000Y-51700000D03*
X120950000Y-51300000D03*
X120950000Y-50900000D03*
X120950000Y-50500000D03*
D37*
X120200000Y-49750000D03*
X119800000Y-49750000D03*
X119400000Y-49750000D03*
X119000000Y-49750000D03*
X118600000Y-49750000D03*
X118200000Y-49750000D03*
X117800000Y-49750000D03*
X117400000Y-49750000D03*
X117000000Y-49750000D03*
X116600000Y-49750000D03*
X116200000Y-49750000D03*
X115800000Y-49750000D03*
D38*
X118000000Y-52700000D03*
D39*
X104000000Y-41500000D03*
D40*
X164487100Y-57500000D03*
X164487100Y-55200000D03*
D41*
X175050000Y-73850000D03*
X176600000Y-73850000D03*
X127278000Y-48392200D03*
X128828000Y-48392200D03*
D11*
X186385000Y-67284966D03*
X185365000Y-67284966D03*
D42*
X119300000Y-62850000D03*
X119300000Y-60750000D03*
D43*
X122975000Y-44500000D03*
X122975000Y-41500000D03*
D44*
X190996000Y-87350000D03*
X190996000Y-85350001D03*
X190996000Y-83350000D03*
X190996000Y-81349999D03*
X190996000Y-79350000D03*
D45*
X196475999Y-89050001D03*
X196475999Y-77649999D03*
D31*
X107950000Y-53250000D03*
X106050000Y-53250000D03*
D46*
X105850000Y-57850000D03*
X107750000Y-57850000D03*
D28*
X155125000Y-55660000D03*
X156145000Y-55660000D03*
D44*
X190996000Y-66650001D03*
X190996000Y-64650000D03*
X190996000Y-62649999D03*
D45*
X196475999Y-68350000D03*
X196475999Y-60950000D03*
D13*
X116750000Y-80925000D03*
X116750000Y-82825000D03*
D28*
X107390000Y-68050000D03*
X108410000Y-68050000D03*
D31*
X107950000Y-50250000D03*
X106050000Y-50250000D03*
X182775000Y-69564966D03*
X180875000Y-69564966D03*
D39*
X196000000Y-96000000D03*
D47*
X128775000Y-53900000D03*
X127225000Y-53900000D03*
D28*
X110840000Y-45800000D03*
X111860000Y-45800000D03*
D31*
X103750000Y-69900000D03*
X101850000Y-69900000D03*
X128450000Y-44425000D03*
X126550000Y-44425000D03*
D13*
X114800000Y-60850000D03*
X114800000Y-62750000D03*
D28*
X189515000Y-52150000D03*
X190535000Y-52150000D03*
D39*
X104000000Y-96000000D03*
D48*
X156047500Y-53517200D03*
X157952500Y-53517200D03*
X157000000Y-51332800D03*
D46*
X167675000Y-55650000D03*
X169575000Y-55650000D03*
D11*
X102960000Y-68150000D03*
X101940000Y-68150000D03*
D49*
X159925000Y-88125000D03*
X159925000Y-86575000D03*
D13*
X180000000Y-50125000D03*
X180000000Y-52025000D03*
D48*
X156047500Y-46717200D03*
X157952500Y-46717200D03*
X157000000Y-44532800D03*
D12*
X183100000Y-56210000D03*
X183100000Y-55190000D03*
D11*
X151810000Y-48725000D03*
X150790000Y-48725000D03*
D31*
X107750000Y-60050000D03*
X105850000Y-60050000D03*
D46*
X106500000Y-69850000D03*
X108400000Y-69850000D03*
D11*
X186385000Y-66000000D03*
X185365000Y-66000000D03*
D48*
X133608000Y-56007800D03*
X131703000Y-56007800D03*
X132655500Y-58192200D03*
D11*
X175935000Y-72450000D03*
X174915000Y-72450000D03*
X190535000Y-50875000D03*
X189515000Y-50875000D03*
D50*
X183375000Y-50000000D03*
X183375000Y-50500000D03*
X183375000Y-51000000D03*
X183375000Y-51500000D03*
X183375000Y-52000000D03*
D51*
X184075000Y-52700000D03*
X184575000Y-52700000D03*
X185075000Y-52700000D03*
X185575000Y-52700000D03*
X186075000Y-52700000D03*
D50*
X186775000Y-52000000D03*
X186775000Y-51500000D03*
X186775000Y-51000000D03*
X186775000Y-50500000D03*
X186775000Y-50000000D03*
D51*
X186075000Y-49300000D03*
X185575000Y-49300000D03*
X185075000Y-49300000D03*
X184575000Y-49300000D03*
X184075000Y-49300000D03*
D52*
X185075000Y-51000000D03*
D15*
X126575000Y-41450000D03*
X126575000Y-39550000D03*
D41*
X184625000Y-46375000D03*
X186175000Y-46375000D03*
D12*
X153100000Y-53335000D03*
X153100000Y-52315000D03*
D13*
X114280000Y-42320000D03*
X114280000Y-44220000D03*
D46*
X174975000Y-75850000D03*
X176875000Y-75850000D03*
D28*
X131540000Y-51407800D03*
X132560000Y-51407800D03*
D12*
X141650000Y-62885000D03*
X141650000Y-61865000D03*
D13*
X136400000Y-47950000D03*
X136400000Y-49850000D03*
D15*
X121400000Y-61150000D03*
X121400000Y-59250000D03*
D11*
X149210000Y-55625000D03*
X148190000Y-55625000D03*
D12*
X153000000Y-45935000D03*
X153000000Y-44915000D03*
D46*
X107575000Y-48050000D03*
X109475000Y-48050000D03*
D49*
X158125000Y-88125000D03*
X158125000Y-86575000D03*
D53*
X170387500Y-71080000D03*
X170387500Y-72980000D03*
X172662500Y-72030000D03*
D13*
X136603000Y-55442200D03*
X136603000Y-57342200D03*
D39*
X196000000Y-41500000D03*
D54*
X103400000Y-75900000D03*
D55*
X106275000Y-76200000D03*
D54*
X103400000Y-76500000D03*
D55*
X106275000Y-76800000D03*
D54*
X103400000Y-77100000D03*
D55*
X106275000Y-77400000D03*
D54*
X103400000Y-77700000D03*
D55*
X106275000Y-78000000D03*
D54*
X103400000Y-78300000D03*
D55*
X106275000Y-78600000D03*
D54*
X103400000Y-78900000D03*
D55*
X106275000Y-79200000D03*
D54*
X103400000Y-79500000D03*
D55*
X106275000Y-79800000D03*
D54*
X103400000Y-80100000D03*
D55*
X106275000Y-80400000D03*
D54*
X103400000Y-80700000D03*
D55*
X106275000Y-81000000D03*
D54*
X103400000Y-81300000D03*
D55*
X106275000Y-81600000D03*
D54*
X103400000Y-81900000D03*
D55*
X106275000Y-82200000D03*
D54*
X103400000Y-82500000D03*
D55*
X106275000Y-82800000D03*
D54*
X103400000Y-83100000D03*
D55*
X106275000Y-83400000D03*
D54*
X103400000Y-83700000D03*
D55*
X106275000Y-84000000D03*
D54*
X103400000Y-84300000D03*
D55*
X106275000Y-84600000D03*
D54*
X103400000Y-84900000D03*
D55*
X106275000Y-85200000D03*
D54*
X103400000Y-85500000D03*
D55*
X106275000Y-85800000D03*
D54*
X103400000Y-86100000D03*
D55*
X106275000Y-86400000D03*
D54*
X103400000Y-86700000D03*
D55*
X106275000Y-87000000D03*
D54*
X103400000Y-87300000D03*
D56*
X103675000Y-75200000D03*
X103675000Y-88000000D03*
D18*
X115025000Y-81805000D03*
X115025000Y-82825000D03*
D19*
X159925000Y-90035000D03*
X159925000Y-91585000D03*
D48*
X131547500Y-49192200D03*
X133452500Y-49192200D03*
X132500000Y-47007800D03*
D41*
X127225000Y-56750000D03*
X128775000Y-56750000D03*
D11*
X134760000Y-51400000D03*
X133740000Y-51400000D03*
D13*
X171712100Y-57725000D03*
X171712100Y-59625000D03*
D31*
X105425000Y-72480000D03*
X103525000Y-72480000D03*
D18*
X184600000Y-55190000D03*
X184600000Y-56210000D03*
D46*
X106050000Y-55400000D03*
X107950000Y-55400000D03*
D12*
X114575000Y-87210000D03*
X114575000Y-86190000D03*
D57*
X150937500Y-53675000D03*
X150937500Y-51775000D03*
X148662500Y-52725000D03*
X150875000Y-46775000D03*
X150875000Y-44875000D03*
X148600000Y-45825000D03*
D31*
X114550000Y-73725000D03*
X112650000Y-73725000D03*
D28*
X168052100Y-60175000D03*
X169072100Y-60175000D03*
D18*
X139925000Y-65250000D03*
X139925000Y-66270000D03*
D41*
X127175000Y-51000000D03*
X128725000Y-51000000D03*
D18*
X156425000Y-88710000D03*
X156425000Y-89730000D03*
M02*
