M48
; DRILL file {KiCad 8.0.5} date 2025-06-09T21:24:32+0300
; FORMAT={-:-/ absolute / inch / decimal}
; #@! TF.CreationDate,2025-06-09T21:24:32+03:00
; #@! TF.GenerationSoftware,Kicad,Pcbnew,8.0.5
; #@! TF.FileFunction,Plated,1,4,PTH
FMAT,2
INCH
; #@! TA.AperFunction,Plated,PTH,ViaDrill
T1C0.0079
; #@! TA.AperFunction,Plated,PTH,ViaDrill
T2C0.0098
; #@! TA.AperFunction,Plated,PTH,ViaDrill
T3C0.0118
; #@! TA.AperFunction,Plated,PTH,ViaDrill
T4C0.0157
%
G90
G05
T1
X4.0325Y-3.4016
X4.0325Y-3.4291
X4.0335Y-3.0177
X4.0354Y-3.0827
X4.0354Y-3.3307
X4.1073Y-3.1535
X4.1181Y-3.0236
X4.122Y-3.374
X4.125Y-3.2185
X4.127Y-3.0866
X4.127Y-3.1299
X4.127Y-3.1772
X4.127Y-3.2717
X4.127Y-3.3307
X4.127Y-3.4331
X4.1378Y-3.0512
X4.2175Y-3.4252
X4.2283Y-3.2126
X4.2441Y-3.0
X4.2677Y-3.2008
X4.2992Y-3.0433
X4.313Y-3.1969
X4.3514Y-3.437
X4.3533Y-3.4961
X4.3898Y-3.0433
X4.3927Y-3.0827
X5.2292Y-3.2971
X5.2323Y-3.0469
X5.2323Y-3.1965
X5.2323Y-3.2476
X5.2333Y-2.9961
X5.2333Y-3.1457
X5.2352Y-3.0965
X5.2352Y-3.437
X5.2362Y-3.3472
X5.2362Y-3.3972
X5.2372Y-3.4961
X5.2441Y-3.5441
X5.3455Y-2.8711
X5.4341Y-2.8327
X6.1937Y-3.3084
X6.2017Y-3.224
X7.0502Y-2.6285
X7.3634Y-2.6488
X7.3638Y-2.5982
T2
X5.7008Y-3.2648
X5.7008Y-3.3199
X5.7283Y-3.2372
X5.7283Y-3.2923
X5.7283Y-3.3474
X5.7559Y-3.2648
X5.7559Y-3.3199
X5.7835Y-3.2372
X5.7835Y-3.2923
X5.7835Y-3.3474
X5.811Y-3.2648
X5.811Y-3.3199
T3
X3.9764Y-3.6024
X4.0833Y-2.8012
X4.0945Y-3.6024
X4.1388Y-2.5236
X4.1506Y-2.5906
X4.1545Y-2.4547
X4.1939Y-1.8996
X4.2126Y-3.6024
X4.3159Y-2.3248
X4.3159Y-2.3996
X4.3159Y-2.4665
X4.3159Y-2.5413
X4.3219Y-2.0935
X4.3248Y-1.9528
X4.3287Y-2.7815
X4.3307Y-3.6024
X4.3319Y-1.8039
X4.3327Y-1.7559
X4.377Y-3.3917
X4.3907Y-3.4626
X4.4211Y-2.2522
X4.4437Y-2.113
X4.4488Y-3.6024
X4.4498Y-2.6594
X4.4774Y-2.8051
X4.5026Y-2.9665
X4.5108Y-3.4646
X4.5285Y-3.1959
X4.5413Y-1.8504
X4.5433Y-2.6585
X4.5482Y-2.9035
X4.56Y-2.8051
X4.5669Y-3.6024
X4.5827Y-2.0118
X4.5827Y-2.0433
X4.5827Y-2.0748
X4.5827Y-2.1063
X4.5827Y-2.1378
X4.5925Y-1.8661
X4.5965Y-3.1476
X4.603Y-2.2841
X4.6142Y-2.0118
X4.6142Y-2.0433
X4.6142Y-2.0748
X4.6142Y-2.1063
X4.6142Y-2.1378
X4.6299Y-2.3189
X4.6339Y-2.6585
X4.6457Y-2.0118
X4.6457Y-2.0433
X4.6457Y-2.0748
X4.6457Y-2.1063
X4.6457Y-2.1378
X4.6535Y-2.2657
X4.6585Y-2.8051
X4.6654Y-2.3031
X4.6772Y-2.0118
X4.6772Y-2.0433
X4.6772Y-2.0748
X4.6772Y-2.1063
X4.6772Y-2.1378
X4.685Y-3.6024
X4.7067Y-1.5581
X4.7077Y-1.6368
X4.7087Y-2.0118
X4.7087Y-2.0433
X4.7087Y-2.0748
X4.7087Y-2.1063
X4.7087Y-2.1378
X4.7293Y-2.6594
X4.7406Y-2.2957
X4.7569Y-2.8051
X4.7628Y-1.5138
X4.8031Y-3.6024
X4.8189Y-2.1535
X4.8199Y-2.6594
X4.8474Y-2.8051
X4.873Y-1.5118
X4.8858Y-2.0531
X4.9213Y-3.6024
X4.9351Y-1.9665
X4.9419Y-2.6594
X4.9488Y-2.1535
X4.9537Y-2.8051
X5.0394Y-2.3376
X5.0591Y-3.6024
X5.0679Y-2.8051
X5.0778Y-1.5167
X5.1024Y-2.0079
X5.1063Y-2.122
X5.1329Y-2.3366
X5.1516Y-2.0239
X5.1555Y-2.122
X5.1654Y-1.5167
X5.1663Y-1.7205
X5.1742Y-2.8051
X5.1772Y-3.6024
X5.2215Y-2.6594
X5.251Y-1.7205
X5.2559Y-1.5157
X5.2805Y-2.8051
X5.3002Y-2.3356
X5.3268Y-1.7746
X5.3278Y-2.6594
X5.3327Y-2.0236
X5.3386Y-2.122
X5.3612Y-1.5157
X5.3789Y-2.6402
X5.3829Y-2.8051
X5.4262Y-2.5693
X5.437Y-2.5059
X5.438Y-1.5719
X5.4567Y-2.436
X5.4695Y-2.6106
X5.4705Y-2.5679
X5.4774Y-2.8051
X5.4829Y-2.4018
X5.4852Y-2.0148
X5.4872Y-1.9035
X5.4872Y-2.1348
X5.5128Y-1.6299
X5.5197Y-2.3303
X5.5285Y-2.4419
X5.5364Y-2.4774
X5.5447Y-1.5488
X5.5482Y-2.5384
X5.563Y-2.3697
X5.5837Y-1.689
X5.6024Y-2.2988
X5.6309Y-3.372
X5.6634Y-1.7539
X5.7343Y-2.0039
X5.7343Y-2.0896
X5.7362Y-1.9065
X5.7382Y-1.8278
X5.7963Y-2.9583
X5.8809Y-3.3701
X5.9219Y-2.8321
X5.975Y-3.2669
X6.0039Y-2.19
X6.0079Y-1.9183
X6.0195Y-2.7413
X6.0276Y-2.0167
X6.063Y-2.7854
X6.0797Y-2.1921
X6.0984Y-2.9567
X6.0984Y-3.0
X6.123Y-2.3878
X6.1781Y-3.4035
X6.1821Y-3.5976
X6.1939Y-3.4941
X6.2201Y-2.4575
X6.2478Y-3.6057
X6.248Y-2.1073
X6.252Y-1.8392
X6.2963Y-3.2657
X6.3331Y-3.6122
X6.3372Y-2.4575
X6.3514Y-3.4075
X6.3553Y-3.4705
X6.4286Y-2.1329
X6.435Y-3.5429
X6.4354Y-3.6122
X6.4419Y-3.4035
X6.4435Y-2.4575
X6.4656Y-3.4941
X6.4916Y-2.1299
X6.5167Y-3.6083
X6.5419Y-2.35
X6.5443Y-3.4035
X6.551Y-2.4563
X6.554Y-2.2146
X6.5546Y-2.1309
X6.5546Y-2.3071
X6.5851Y-2.3691
X6.5861Y-2.4154
X6.6022Y-2.1319
X6.61Y-3.3067
X6.6439Y-3.2311
X6.6537Y-2.4575
X6.6929Y-2.312
X6.7163Y-3.3067
X6.7215Y-2.3799
X6.7219Y-2.4205
X6.7502Y-3.2311
X6.8081Y-2.2697
X6.8222Y-2.2091
X6.8435Y-2.2697
X6.8947Y-2.2323
X6.9498Y-2.2756
X6.9577Y-2.8524
X6.9931Y-2.9075
X7.0089Y-2.3268
X7.0866Y-2.0906
X7.0955Y-2.3287
X7.1289Y-2.5655
X7.1289Y-2.6778
X7.1476Y-2.2589
X7.1545Y-2.0236
X7.1978Y-2.3287
X7.2087Y-2.2402
X7.2116Y-2.0827
X7.2126Y-1.94
X7.2337Y-2.5628
X7.2648Y-2.2795
X7.2657Y-2.025
X7.2667Y-1.8821
X7.2864Y-1.989
X7.3083Y-2.025
X7.3108Y-2.3303
X7.3455Y-2.5531
X7.3533Y-2.2776
X7.3701Y-1.8258
X7.4124Y-3.439
X7.4163Y-3.3425
X7.4183Y-3.2953
X7.5315Y-2.003
T4
X4.0175Y-1.8614
X4.0846Y-2.6949
X4.1004Y-2.439
X4.1089Y-1.7748
X4.126Y-2.2776
X4.126Y-2.3642
X4.1339Y-1.9783
X4.1339Y-2.0965
X4.1339Y-2.1791
X4.185Y-2.6909
X4.1927Y-2.802
X4.2421Y-2.4154
X4.2421Y-2.4636
X4.252Y-1.6142
X4.3307Y-1.5354
X4.3543Y-2.1201
X4.3563Y-2.0472
X4.3925Y-1.6142
X4.4331Y-2.5118
X4.437Y-1.7047
X4.4628Y-1.5362
X4.5Y-1.622
X4.5197Y-2.2067
X4.5197Y-2.5118
X4.5217Y-1.9193
X4.5441Y-1.6661
X4.561Y-2.3504
X4.5906Y-1.624
X4.6063Y-2.5118
X4.687Y-1.8681
X4.7323Y-2.436
X4.7707Y-1.5837
X4.8091Y-2.4449
X4.815Y-1.5827
X4.8531Y-2.2945
X4.8593Y-1.5827
X4.8681Y-2.4449
X4.9035Y-1.5827
X4.9134Y-2.3346
X4.9528Y-2.5571
X4.9823Y-1.5157
X5.0039Y-2.5551
X5.0413Y-1.6289
X5.063Y-2.5551
X5.0856Y-1.6289
X5.1014Y-1.749
X5.2919Y-3.5961
X5.3702Y-1.8422
X5.377Y-2.1417
X5.414Y-3.5961
X5.6713Y-2.3406
X5.7018Y-1.6476
X5.7726Y-1.7165
X5.787Y-1.5465
X5.8648Y-1.6459
X5.9445Y-1.5465
X5.9823Y-3.5961
X6.0118Y-2.2805
X6.0144Y-1.6409
X6.0823Y-1.5465
X6.0974Y-1.9429
X6.1043Y-3.5961
X6.1236Y-2.7002
X6.1581Y-1.6409
X6.1841Y-2.872
X6.212Y-2.2921
X6.2398Y-1.5465
X6.2795Y-2.7006
X6.2844Y-1.9232
X6.3061Y-2.2236
X6.3191Y-3.0933
X6.3234Y-1.637
X6.3356Y-3.5461
X6.3376Y-2.1083
X6.3388Y-2.3598
X6.3514Y-2.8622
X6.3671Y-1.9862
X6.438Y-2.7008
X6.4533Y-1.8477
X6.4616Y-2.0551
X6.4648Y-2.3693
X6.497Y-1.9193
X6.5049Y-3.0689
X6.5089Y-2.8425
X6.514Y-3.2114
X6.5709Y-3.4961
X6.5778Y-3.1289
X6.5955Y-2.0551
X6.5955Y-2.7008
X6.6341Y-2.7992
X6.6518Y-2.872
X6.7175Y-2.0354
X6.7224Y-2.1909
X6.7254Y-2.1181
X6.7321Y-3.1504
X6.7648Y-2.6988
X6.7726Y-1.5327
X6.7726Y-1.6969
X6.8041Y-3.0207
X6.8108Y-2.9311
X6.8612Y-2.0354
X6.8652Y-1.6122
X6.875Y-2.6179
X6.8789Y-2.1201
X6.8803Y-3.39
X6.9419Y-2.748
X6.9537Y-2.1791
X6.9734Y-1.5343
X6.9774Y-1.6555
X6.9795Y-3.2892
X6.9951Y-2.0354
X7.0344Y-2.2461
X7.0384Y-2.8209
X7.0549Y-3.3917
X7.0614Y-2.1734
X7.0675Y-3.1583
X7.0719Y-2.7388
X7.0876Y-2.9272
X7.1447Y-2.8228
X7.1585Y-1.5362
X7.1585Y-1.6594
X7.1624Y-3.2736
X7.1703Y-3.0295
X7.2136Y-2.9252
X7.2156Y-2.4614
X7.2163Y-2.3941
X7.2313Y-3.3543
X7.2618Y-3.1201
X7.2884Y-1.7421
X7.2963Y-3.0276
X7.2972Y-3.4961
X7.3065Y-2.4614
X7.3073Y-2.3941
X7.314Y-1.8848
X7.3278Y-1.6555
X7.3356Y-1.5362
X7.3415Y-3.1122
X7.3415Y-3.2106
X7.3455Y-3.5807
X7.3474Y-3.3878
X7.3642Y-1.8844
X7.3947Y-2.3953
X7.3947Y-2.4587
X7.4204Y-2.6239
X7.4222Y-1.7382
X7.4331Y-3.2028
X7.4498Y-1.8209
X7.4852Y-2.8031
X7.5128Y-2.3957
X7.5156Y-1.5362
X7.5156Y-1.6579
X7.5187Y-2.6713
X7.5187Y-3.5807
X7.5364Y-2.1358
X7.5404Y-1.9193
X7.5443Y-2.2906
X7.5624Y-2.9228
X7.564Y-1.7638
X7.6053Y-3.2028
X7.6172Y-2.6239
X7.6506Y-2.8012
X7.6545Y-1.8406
X7.6565Y-1.9882
X7.6624Y-2.1366
X7.6624Y-2.2933
X7.7274Y-2.9193
X7.7667Y-2.2205
X7.7687Y-2.0512
X7.7695Y-1.9094
X7.8081Y-2.7992
M30
