G04 #@! TF.GenerationSoftware,KiCad,Pcbnew,8.0.5*
G04 #@! TF.CreationDate,2025-06-09T21:24:26+03:00*
G04 #@! TF.ProjectId,Main Board,4d61696e-2042-46f6-9172-642e6b696361,rev?*
G04 #@! TF.SameCoordinates,Original*
G04 #@! TF.FileFunction,Copper,L4,Bot*
G04 #@! TF.FilePolarity,Positive*
%FSLAX46Y46*%
G04 Gerber Fmt 4.6, Leading zero omitted, Abs format (unit mm)*
G04 Created by KiCad (PCBNEW 8.0.5) date 2025-06-09 21:24:26*
%MOMM*%
%LPD*%
G01*
G04 APERTURE LIST*
G04 #@! TA.AperFunction,SMDPad,CuDef*
%ADD10R,1.700000X1.000000*%
G04 #@! TD*
G04 #@! TA.AperFunction,ViaPad*
%ADD11C,0.600000*%
G04 #@! TD*
G04 #@! TA.AperFunction,ViaPad*
%ADD12C,0.800000*%
G04 #@! TD*
G04 #@! TA.AperFunction,ViaPad*
%ADD13C,0.500000*%
G04 #@! TD*
G04 #@! TA.AperFunction,ViaPad*
%ADD14C,0.450000*%
G04 #@! TD*
G04 #@! TA.AperFunction,Conductor*
%ADD15C,0.250000*%
G04 #@! TD*
G04 #@! TA.AperFunction,Conductor*
%ADD16C,0.300000*%
G04 #@! TD*
G04 #@! TA.AperFunction,Conductor*
%ADD17C,0.400000*%
G04 #@! TD*
G04 #@! TA.AperFunction,Conductor*
%ADD18C,0.600000*%
G04 #@! TD*
G04 #@! TA.AperFunction,Conductor*
%ADD19C,0.200000*%
G04 #@! TD*
G04 APERTURE END LIST*
D10*
X143075000Y-90550000D03*
X149375000Y-90550000D03*
X143075000Y-86750000D03*
X149375000Y-86750000D03*
D11*
X136625000Y-67060000D03*
X109850000Y-49600000D03*
X125700000Y-54700000D03*
X130950000Y-53900000D03*
X138925000Y-66310000D03*
X109775000Y-53175000D03*
D12*
X179625000Y-69564966D03*
X164205000Y-60180000D03*
D11*
X125525000Y-67550000D03*
D12*
X105000000Y-50250000D03*
X104800000Y-60050000D03*
D11*
X145750000Y-46425000D03*
D12*
X146625000Y-43600000D03*
X172825000Y-76725000D03*
D13*
X146900000Y-85025000D03*
D12*
X181825000Y-42150000D03*
X165225000Y-77950000D03*
X172025000Y-38930000D03*
X165025000Y-48750000D03*
D11*
X158700000Y-53525000D03*
D12*
X180025000Y-74350000D03*
X194625000Y-54270000D03*
D11*
X166225000Y-86450000D03*
X183100000Y-56900000D03*
X136725000Y-71250000D03*
D12*
X161325000Y-72700000D03*
D11*
X131200000Y-38525000D03*
D12*
X125800000Y-64950000D03*
D14*
X104825000Y-87200000D03*
D11*
X166395000Y-62390000D03*
D12*
X189225000Y-46250000D03*
D11*
X185695000Y-59190000D03*
X125825000Y-71250000D03*
X170595000Y-83990000D03*
X139125000Y-71250000D03*
D12*
X156415000Y-41680000D03*
X170750000Y-55650000D03*
X185350000Y-88800000D03*
X117000000Y-63800000D03*
D11*
X119000000Y-91500000D03*
X154425000Y-55680000D03*
D12*
X176625000Y-55350000D03*
X186125000Y-42050000D03*
D11*
X135300000Y-45075000D03*
D14*
X109200000Y-77300000D03*
D11*
X133375000Y-43700000D03*
D14*
X102500000Y-84600000D03*
D11*
X120825000Y-71250000D03*
D12*
X108000000Y-41000000D03*
X136575000Y-54400000D03*
D11*
X109625000Y-60950000D03*
D13*
X147600000Y-82925000D03*
X145500000Y-85025000D03*
D12*
X185325000Y-76900000D03*
X155050000Y-91340000D03*
X181925000Y-83150000D03*
D13*
X146900000Y-82225000D03*
D12*
X144825000Y-41850000D03*
X186575000Y-90950000D03*
X134415000Y-91340000D03*
X110600000Y-53850000D03*
D13*
X146200000Y-84325000D03*
D12*
X122150000Y-62100000D03*
D11*
X128725000Y-71250000D03*
X168755000Y-82070000D03*
D12*
X157785000Y-58220000D03*
X179195000Y-86150000D03*
D11*
X160965000Y-62420000D03*
X143025000Y-85650000D03*
D12*
X106495000Y-71170000D03*
D11*
X159925000Y-82950000D03*
D12*
X171825000Y-68550000D03*
X167075000Y-79475000D03*
D11*
X134625000Y-59325000D03*
D12*
X194475000Y-50500000D03*
X190895000Y-39020000D03*
D11*
X181075000Y-68014966D03*
X183175000Y-52900000D03*
X136175000Y-38500000D03*
X110000000Y-91500000D03*
D12*
X165455000Y-81570000D03*
D11*
X109625000Y-59050000D03*
D12*
X157075000Y-72950000D03*
X114300000Y-41200000D03*
D13*
X145500000Y-82225000D03*
D12*
X166900000Y-88800000D03*
X192125000Y-44800000D03*
D11*
X125000000Y-91500000D03*
D12*
X154875000Y-49350000D03*
X137515000Y-91340000D03*
X190975000Y-90950000D03*
X114800000Y-63800000D03*
D11*
X111525000Y-87950000D03*
X120975000Y-38450000D03*
D12*
X111570000Y-41000000D03*
D11*
X116750000Y-79950000D03*
X131500000Y-91500000D03*
X176525000Y-57800000D03*
D12*
X154490000Y-39280000D03*
D11*
X140025000Y-41400000D03*
D12*
X159625000Y-48850000D03*
D11*
X184525000Y-57900000D03*
D12*
X170995000Y-80020000D03*
D11*
X145650000Y-50900000D03*
X131225000Y-43700000D03*
X128500000Y-91500000D03*
X177625000Y-73850000D03*
X105525000Y-62350000D03*
X139375000Y-54225000D03*
X135325000Y-67550000D03*
D12*
X152765000Y-41680000D03*
D11*
X185075000Y-50520000D03*
X139375000Y-48350000D03*
D12*
X119050000Y-47450000D03*
D11*
X138950000Y-65225000D03*
X131425000Y-71250000D03*
X158695000Y-91585000D03*
D12*
X165325000Y-72200000D03*
D11*
X163665000Y-62420000D03*
X165525000Y-91650000D03*
X115525000Y-73750000D03*
X181075000Y-65164966D03*
D12*
X186325000Y-39020000D03*
D11*
X164225000Y-88750000D03*
D12*
X160175000Y-56480000D03*
X197325000Y-52100000D03*
D13*
X144800000Y-84325000D03*
D12*
X177125000Y-38970000D03*
X197275000Y-56400000D03*
X120200000Y-61875000D03*
D11*
X183200000Y-49275000D03*
D12*
X128600000Y-64900000D03*
D11*
X119550000Y-39575000D03*
D12*
X113355000Y-39020000D03*
D14*
X107400000Y-81600000D03*
D12*
X114850000Y-48750000D03*
D11*
X130375000Y-59350000D03*
D12*
X190895000Y-42110000D03*
D11*
X170725000Y-60450000D03*
X118325000Y-71250000D03*
X113025000Y-67550000D03*
X157025000Y-91380000D03*
D14*
X102425000Y-87100000D03*
D11*
X110030000Y-45820000D03*
X101000000Y-91500000D03*
X184550000Y-51435000D03*
D12*
X174625000Y-66494966D03*
X112600000Y-63800000D03*
X186475000Y-79050000D03*
X114800000Y-56050000D03*
X161005000Y-59940000D03*
X193477702Y-66647300D03*
X188477701Y-66647299D03*
D11*
X175125000Y-56700000D03*
D12*
X155540000Y-68585000D03*
D11*
X117700000Y-67525000D03*
D12*
X159500000Y-68595000D03*
X179360000Y-55205000D03*
X160975000Y-53550000D03*
X177225000Y-42050000D03*
D11*
X143850000Y-44550000D03*
D12*
X186475000Y-81550000D03*
D11*
X141825000Y-42900000D03*
X122425000Y-67550000D03*
D12*
X104800000Y-57850000D03*
X178775000Y-71650000D03*
X174760000Y-86105000D03*
X174725000Y-53850000D03*
X191625000Y-58180000D03*
X161725000Y-50450000D03*
X188525000Y-44150000D03*
D11*
X112869622Y-53669622D03*
X123125000Y-71250000D03*
X104000000Y-91500000D03*
D12*
X191525000Y-48750000D03*
D11*
X173285000Y-56110000D03*
D12*
X182125000Y-76950000D03*
D11*
X135600000Y-53900000D03*
D12*
X127100000Y-64900000D03*
X126550000Y-38500000D03*
D11*
X180225000Y-59150000D03*
X182825000Y-59150000D03*
D12*
X184450000Y-79250000D03*
X191425000Y-54250000D03*
X136403000Y-46792200D03*
D11*
X132625000Y-67550000D03*
D12*
X190975000Y-67850000D03*
X196275000Y-74150000D03*
D14*
X107125000Y-87000000D03*
D11*
X109625000Y-62650000D03*
X152600000Y-48725000D03*
X115400000Y-67525000D03*
X122000000Y-91500000D03*
X167895000Y-83990000D03*
D12*
X163915000Y-46930902D03*
D14*
X187040000Y-65995000D03*
D12*
X160505000Y-78570000D03*
D11*
X138125000Y-39925000D03*
X110050000Y-44600000D03*
X152500000Y-55625000D03*
X191300000Y-50875000D03*
X140200000Y-59190000D03*
D14*
X104825000Y-84600000D03*
D13*
X144800000Y-82925000D03*
D11*
X161325000Y-86550000D03*
X140835000Y-39340000D03*
D12*
X110000000Y-39000000D03*
D11*
X115825000Y-71250000D03*
X128000000Y-59375000D03*
D12*
X170825000Y-53800000D03*
D13*
X145500000Y-83625000D03*
D12*
X170625000Y-51700000D03*
X188800000Y-81350000D03*
X146990000Y-39280000D03*
D11*
X183735000Y-65094966D03*
D12*
X148965000Y-41805000D03*
D11*
X156925000Y-86450000D03*
X170735000Y-61480000D03*
X149375000Y-85600000D03*
D12*
X106300000Y-68350000D03*
D11*
X107000000Y-91500000D03*
D12*
X105000000Y-55350000D03*
D11*
X113725000Y-71250000D03*
X163460000Y-91750000D03*
X114365000Y-75350000D03*
X119575000Y-41575000D03*
X186775000Y-57850000D03*
X181550000Y-57375000D03*
D12*
X152700000Y-57925000D03*
D14*
X102425000Y-86400000D03*
D12*
X183225000Y-74300000D03*
X151950000Y-91340000D03*
X172995000Y-74450000D03*
D11*
X114575000Y-88000000D03*
D14*
X157523974Y-81888975D03*
D12*
X190125000Y-71200000D03*
X103750000Y-68450000D03*
D11*
X124100000Y-52150000D03*
X135450000Y-51400000D03*
X178025000Y-59100000D03*
D12*
X178675000Y-57050000D03*
D13*
X146900000Y-83625000D03*
D12*
X172025000Y-43100000D03*
D11*
X167262100Y-60175000D03*
X170000000Y-58725000D03*
D12*
X123650000Y-62100000D03*
X160615000Y-41580000D03*
X177280000Y-83545000D03*
D11*
X128975000Y-38525000D03*
X171455000Y-82070000D03*
X145650000Y-53075000D03*
X120125000Y-67550000D03*
D12*
X198325000Y-71100000D03*
X194325000Y-71150000D03*
D11*
X106525000Y-48250000D03*
D12*
X197345000Y-48500000D03*
D11*
X176725000Y-72450000D03*
X134125000Y-71250000D03*
D12*
X167525000Y-68600000D03*
D11*
X163625000Y-86450000D03*
D12*
X102045000Y-47280000D03*
X104365000Y-45080000D03*
D11*
X187200000Y-46375000D03*
D12*
X164125000Y-52200000D03*
X181475000Y-71700000D03*
X116600000Y-41250000D03*
D11*
X158800000Y-46715000D03*
D12*
X186625000Y-86050000D03*
X194625000Y-58250000D03*
D11*
X160860000Y-91750000D03*
X123775000Y-38400000D03*
X157990000Y-62420000D03*
D12*
X183675000Y-85200000D03*
X144050000Y-59450000D03*
X185125000Y-44250000D03*
D11*
X105425000Y-65800000D03*
D13*
X147600000Y-84325000D03*
D11*
X129700000Y-53900000D03*
X139325000Y-51175000D03*
D12*
X129575000Y-44425000D03*
D11*
X185630000Y-51435000D03*
X109625000Y-64550000D03*
X109950000Y-70650000D03*
D12*
X176325000Y-69800000D03*
D11*
X113000000Y-91500000D03*
D12*
X163525000Y-68600000D03*
X194425000Y-46750000D03*
X174275000Y-51700000D03*
D11*
X115025000Y-81175000D03*
X133500000Y-38500000D03*
D14*
X187030000Y-67279966D03*
D12*
X192085000Y-74240000D03*
X177675000Y-51700000D03*
D14*
X102500000Y-78300000D03*
D12*
X179515000Y-80220000D03*
D11*
X152895000Y-69630000D03*
X116000000Y-91500000D03*
D14*
X102450000Y-76650000D03*
D11*
X155525000Y-60650000D03*
X180000000Y-53100000D03*
D12*
X167525000Y-52200000D03*
X115420000Y-42320000D03*
D11*
X169005000Y-62420000D03*
D12*
X150990000Y-39280000D03*
X105000000Y-53250000D03*
D11*
X129600000Y-51000000D03*
D12*
X158490000Y-39280000D03*
D11*
X103715000Y-71150000D03*
D13*
X146200000Y-82925000D03*
D11*
X145700000Y-48425000D03*
D12*
X181825000Y-39020000D03*
X174375000Y-40950000D03*
X193175000Y-81350000D03*
X112700000Y-43300000D03*
D11*
X118199500Y-57549500D03*
X105125000Y-64100000D03*
X137825000Y-65260000D03*
X163450000Y-89990000D03*
X167697100Y-54150000D03*
X166487100Y-54125000D03*
X164887100Y-54100000D03*
X163287100Y-54175000D03*
X166165000Y-59690000D03*
D14*
X157318999Y-84034000D03*
D11*
X138600000Y-61875000D03*
X166472100Y-56250000D03*
X140425000Y-62025000D03*
X116650000Y-47400000D03*
D12*
X168955000Y-72950000D03*
D11*
X142300000Y-58390000D03*
D12*
X160925000Y-90070000D03*
D11*
X167287100Y-61350000D03*
D14*
X104825000Y-83100000D03*
D11*
X130850000Y-51407800D03*
X111175000Y-86150000D03*
X125350500Y-49950000D03*
X140925000Y-64475000D03*
X112295000Y-57205000D03*
X118800000Y-51900000D03*
X117200000Y-52700000D03*
X116400000Y-52700000D03*
X116400000Y-54300000D03*
X117200000Y-54300000D03*
D12*
X110650000Y-52000000D03*
D11*
X116400000Y-51100000D03*
X118000000Y-52700000D03*
X119600000Y-51100000D03*
X119600000Y-52700000D03*
X116400000Y-53500000D03*
X119600000Y-54300000D03*
X119600000Y-53500000D03*
X122400000Y-54700000D03*
X117200000Y-51900000D03*
X118000000Y-53500000D03*
X118800000Y-52700000D03*
X119600000Y-51900000D03*
X117200000Y-53500000D03*
X118000000Y-51100000D03*
X118800000Y-54300000D03*
D12*
X115850000Y-59700000D03*
D11*
X117200000Y-51100000D03*
X118000000Y-54300000D03*
X116400000Y-51900000D03*
X118800000Y-51100000D03*
X118800000Y-53500000D03*
X118000000Y-51900000D03*
X138100000Y-63650000D03*
X116915332Y-58015332D03*
X117599500Y-58900000D03*
X140625000Y-62925000D03*
X139264493Y-61006879D03*
X118500000Y-58500000D03*
X141300000Y-60190000D03*
X120410000Y-58310000D03*
D12*
X187825000Y-62450000D03*
X107750000Y-61350000D03*
D11*
X173825000Y-57650000D03*
D12*
X185605000Y-60810000D03*
X123425000Y-40200000D03*
X124550000Y-40200000D03*
D11*
X184575000Y-47805000D03*
D12*
X185775000Y-47875000D03*
X122300000Y-40200000D03*
X187050000Y-47865000D03*
D11*
X166487100Y-58600000D03*
D12*
X187825000Y-60840000D03*
X128050000Y-41375000D03*
X183295000Y-60810000D03*
X185585000Y-62520000D03*
X183275000Y-62520000D03*
X190825000Y-60850000D03*
D11*
X153100000Y-51225000D03*
D12*
X124800000Y-59300000D03*
D11*
X181725000Y-51400000D03*
D12*
X121175000Y-40225000D03*
D11*
X172925000Y-57650000D03*
D12*
X107750000Y-62575000D03*
X123270000Y-58280000D03*
X129175000Y-41375000D03*
D11*
X186575000Y-64850000D03*
D14*
X179075000Y-66764966D03*
D11*
X154900000Y-75100000D03*
X188425000Y-83700000D03*
X188375000Y-84900000D03*
X154900000Y-76200000D03*
X161425000Y-88150000D03*
X188275000Y-87350000D03*
D14*
X138025000Y-71950000D03*
X104600000Y-76800000D03*
X135775000Y-72925000D03*
X107800000Y-76200000D03*
X105100000Y-77500000D03*
D11*
X151765000Y-82980000D03*
D14*
X132925000Y-76100000D03*
X104825000Y-78400000D03*
X111500000Y-77300000D03*
X132900000Y-77390000D03*
X104825000Y-79500000D03*
X132925000Y-79900000D03*
X132975000Y-78650000D03*
X111575000Y-78300000D03*
X132900000Y-81190000D03*
X104325000Y-80100000D03*
X132900000Y-82490000D03*
X109550000Y-81200000D03*
X133000000Y-85020000D03*
X104825000Y-80700000D03*
X108400000Y-81300000D03*
X132822500Y-83747500D03*
X104775000Y-81750000D03*
X133000000Y-86290000D03*
X132975000Y-87300000D03*
X110525000Y-87300000D03*
X133025000Y-88800000D03*
X110575000Y-88800000D03*
X104700000Y-85700000D03*
X133200000Y-90020000D03*
D11*
X154000000Y-70750000D03*
X150415000Y-71935000D03*
X157325000Y-88750000D03*
X115350000Y-47000000D03*
D12*
X104150000Y-61950000D03*
X168505000Y-71100000D03*
D11*
X147225000Y-75140000D03*
D15*
X112725000Y-66800000D02*
X136315000Y-66800000D01*
X108925000Y-50525000D02*
X108925000Y-53900000D01*
X108925000Y-53900000D02*
X110425000Y-55400000D01*
X110425000Y-64500000D02*
X112725000Y-66800000D01*
D16*
X136600000Y-67085000D02*
X136625000Y-67060000D01*
D15*
X136315000Y-66800000D02*
X136600000Y-67085000D01*
X109850000Y-49600000D02*
X108925000Y-50525000D01*
X110425000Y-55400000D02*
X110425000Y-64500000D01*
D17*
X130000000Y-54850000D02*
X125850000Y-54850000D01*
X130950000Y-53900000D02*
X130000000Y-54850000D01*
X125850000Y-54850000D02*
X125700000Y-54700000D01*
D15*
X109700000Y-53250000D02*
X109700000Y-53975305D01*
X110925000Y-64300000D02*
X112910000Y-66285000D01*
X112910000Y-66285000D02*
X138900000Y-66285000D01*
D16*
X109775000Y-53175000D02*
X109700000Y-53250000D01*
D15*
X109700000Y-53975305D02*
X110925000Y-55200305D01*
X110925000Y-55200305D02*
X110925000Y-64300000D01*
D16*
X138900000Y-66285000D02*
X138925000Y-66310000D01*
D18*
X149375000Y-85600000D02*
X149375000Y-86750000D01*
X143025000Y-85650000D02*
X143025000Y-86800000D01*
D16*
X118200000Y-57550000D02*
X122000000Y-57550000D01*
D17*
X123200000Y-49500000D02*
X123200000Y-56350000D01*
D18*
X112650000Y-43250000D02*
X112700000Y-43300000D01*
D17*
X123200000Y-56350000D02*
X122000000Y-57550000D01*
X113850000Y-44450000D02*
X118150000Y-44450000D01*
D18*
X105125000Y-64100000D02*
X104050000Y-64100000D01*
X104050000Y-64100000D02*
X102650000Y-62700000D01*
X102650000Y-62700000D02*
X102650000Y-49050000D01*
X108450000Y-43250000D02*
X112650000Y-43250000D01*
D17*
X112700000Y-43300000D02*
X113850000Y-44450000D01*
D16*
X118200000Y-57399500D02*
X118200500Y-57400000D01*
D18*
X102650000Y-49050000D02*
X108450000Y-43250000D01*
D17*
X118150000Y-44450000D02*
X123200000Y-49500000D01*
D16*
X111175000Y-86150000D02*
X107875000Y-86150000D01*
D17*
X130850000Y-50600000D02*
X130200000Y-49950000D01*
X130200000Y-49950000D02*
X125350500Y-49950000D01*
D16*
X107875000Y-86150000D02*
X104825000Y-83100000D01*
D17*
X130850000Y-51387300D02*
X130850000Y-50600000D01*
X130870500Y-51407800D02*
X130850000Y-51387300D01*
D15*
X111425000Y-64050000D02*
X111425000Y-58075000D01*
X135025000Y-65800000D02*
X113175000Y-65800000D01*
X140925000Y-64475000D02*
X136350000Y-64475000D01*
X136350000Y-64475000D02*
X135025000Y-65800000D01*
X113175000Y-65800000D02*
X111425000Y-64050000D01*
X111425000Y-58075000D02*
X112295000Y-57205000D01*
D18*
X115850000Y-58300000D02*
X115850000Y-58400000D01*
X122400000Y-55200000D02*
X122400000Y-54700000D01*
X117050000Y-56750000D02*
X120850000Y-56750000D01*
X115850000Y-59700000D02*
X115850000Y-58400000D01*
X114850000Y-57950000D02*
X111800000Y-54900000D01*
X115500000Y-57950000D02*
X115850000Y-58300000D01*
X111800000Y-54900000D02*
X111800000Y-53150000D01*
X115850000Y-58400000D02*
X115850000Y-57950000D01*
X115850000Y-57950000D02*
X115500000Y-57950000D01*
X111800000Y-53150000D02*
X110650000Y-52000000D01*
X115500000Y-57950000D02*
X114850000Y-57950000D01*
X120850000Y-56750000D02*
X122400000Y-55200000D01*
X115850000Y-57950000D02*
X117050000Y-56750000D01*
D16*
X138050000Y-63600000D02*
X119000000Y-63600000D01*
X119000000Y-63600000D02*
X116915332Y-61515332D01*
X138100000Y-63650000D02*
X138050000Y-63600000D01*
X116915332Y-61515332D02*
X116915332Y-58015332D01*
X140625000Y-62925000D02*
X119275000Y-62925000D01*
X119275000Y-62925000D02*
X117599500Y-61249500D01*
X117599500Y-61249500D02*
X117599500Y-58900000D01*
X139264493Y-61006879D02*
X139257614Y-61000000D01*
X139257614Y-61000000D02*
X121000000Y-61000000D01*
X121000000Y-61000000D02*
X118500000Y-58500000D01*
X139250000Y-60990000D02*
X139225000Y-61015000D01*
X139264493Y-61006879D02*
X139247614Y-60990000D01*
X120410000Y-58310000D02*
X122300000Y-60200000D01*
X141275000Y-60215000D02*
X141300000Y-60190000D01*
X141290000Y-60200000D02*
X141300000Y-60190000D01*
X122300000Y-60200000D02*
X141290000Y-60200000D01*
X168897100Y-57600000D02*
X167897100Y-58600000D01*
X167897100Y-58600000D02*
X166487100Y-58600000D01*
D15*
X184575000Y-47805000D02*
X183320000Y-47805000D01*
D16*
X149025000Y-56950000D02*
X153100000Y-52875000D01*
D15*
X183320000Y-47805000D02*
X181725000Y-49400000D01*
D16*
X153100000Y-52875000D02*
X153100000Y-51225000D01*
X172487100Y-57600000D02*
X168897100Y-57600000D01*
X172612100Y-57725000D02*
X172487100Y-57600000D01*
D15*
X181725000Y-49400000D02*
X181725000Y-51400000D01*
D16*
X172612100Y-57725000D02*
X172655000Y-57725000D01*
X184915034Y-66509966D02*
X179330000Y-66509966D01*
X186575000Y-64850000D02*
X184915034Y-66509966D01*
X179330000Y-66509966D02*
X179075000Y-66764966D01*
D15*
X155200000Y-75400000D02*
X154900000Y-75100000D01*
X188425000Y-83700000D02*
X188075000Y-84050000D01*
X178175000Y-75400000D02*
X155200000Y-75400000D01*
X186825000Y-84050000D02*
X178175000Y-75400000D01*
X188075000Y-84050000D02*
X186825000Y-84050000D01*
X177925000Y-75900000D02*
X155200000Y-75900000D01*
X188025000Y-84550000D02*
X186575000Y-84550000D01*
X188375000Y-84900000D02*
X188025000Y-84550000D01*
X155200000Y-75900000D02*
X154900000Y-76200000D01*
X186575000Y-84550000D02*
X177925000Y-75900000D01*
D16*
X188275000Y-87350000D02*
X162225000Y-87350000D01*
X162225000Y-87350000D02*
X161425000Y-88150000D01*
D19*
X104650000Y-76800000D02*
X104600000Y-76800000D01*
X138025000Y-71950000D02*
X109500000Y-71950000D01*
X109500000Y-71950000D02*
X104650000Y-76800000D01*
X135725000Y-72875000D02*
X111125000Y-72875000D01*
X111125000Y-72875000D02*
X107800000Y-76200000D01*
X135775000Y-72925000D02*
X135725000Y-72875000D01*
X110825000Y-74475000D02*
X107800000Y-77500000D01*
X107800000Y-77500000D02*
X105100000Y-77500000D01*
X143260000Y-74475000D02*
X110825000Y-74475000D01*
X151765000Y-82980000D02*
X143285000Y-74500000D01*
X143285000Y-74500000D02*
X143260000Y-74475000D01*
X111400000Y-76100000D02*
X109200000Y-78300000D01*
X104925000Y-78300000D02*
X104825000Y-78400000D01*
X132925000Y-76100000D02*
X111400000Y-76100000D01*
X109200000Y-78300000D02*
X104925000Y-78300000D01*
X132810000Y-77300000D02*
X132900000Y-77390000D01*
X111500000Y-77300000D02*
X132810000Y-77300000D01*
X119375000Y-79250000D02*
X120025000Y-79900000D01*
X120025000Y-79900000D02*
X132925000Y-79900000D01*
X104825000Y-79500000D02*
X105075000Y-79250000D01*
X105075000Y-79250000D02*
X119375000Y-79250000D01*
X111575000Y-78300000D02*
X132625000Y-78300000D01*
X132625000Y-78300000D02*
X132975000Y-78650000D01*
X116450000Y-81175000D02*
X132885000Y-81175000D01*
X115375000Y-80100000D02*
X116450000Y-81175000D01*
X132885000Y-81175000D02*
X132900000Y-81190000D01*
X104325000Y-80100000D02*
X115375000Y-80100000D01*
X113375000Y-81200000D02*
X114665000Y-82490000D01*
X132880000Y-82470000D02*
X132900000Y-82490000D01*
X109550000Y-81200000D02*
X113375000Y-81200000D01*
X114665000Y-82490000D02*
X132900000Y-82490000D01*
X111825000Y-83200000D02*
X107725000Y-83200000D01*
X105225000Y-80700000D02*
X104825000Y-80700000D01*
X133000000Y-85020000D02*
X113645000Y-85020000D01*
X113645000Y-85020000D02*
X111825000Y-83200000D01*
X107725000Y-83200000D02*
X105225000Y-80700000D01*
X108400000Y-81350000D02*
X108400000Y-81300000D01*
X132822500Y-83747500D02*
X114322500Y-83747500D01*
X109250000Y-82200000D02*
X108400000Y-81350000D01*
X114322500Y-83747500D02*
X112775000Y-82200000D01*
X112775000Y-82200000D02*
X109250000Y-82200000D01*
X107025000Y-84000000D02*
X111025000Y-84000000D01*
X113325000Y-86300000D02*
X132990000Y-86300000D01*
X104775000Y-81750000D02*
X107025000Y-84000000D01*
X132990000Y-86300000D02*
X133000000Y-86290000D01*
X111025000Y-84000000D02*
X113325000Y-86300000D01*
X132980000Y-86270000D02*
X133000000Y-86290000D01*
X110525000Y-87300000D02*
X132975000Y-87300000D01*
X110575000Y-88800000D02*
X133025000Y-88800000D01*
X133190000Y-90030000D02*
X133200000Y-90020000D01*
X133180000Y-90000000D02*
X133200000Y-90020000D01*
X104700000Y-85700000D02*
X109030000Y-90030000D01*
X109030000Y-90030000D02*
X133190000Y-90030000D01*
D16*
X154000000Y-70750000D02*
X153400000Y-71350000D01*
X151000000Y-71350000D02*
X150415000Y-71935000D01*
X153400000Y-71350000D02*
X151000000Y-71350000D01*
X143075000Y-90550000D02*
X149375000Y-90550000D01*
X150825000Y-88750000D02*
X157325000Y-88750000D01*
D15*
X149375000Y-90550000D02*
X149375000Y-90200000D01*
D16*
X149375000Y-90200000D02*
X150825000Y-88750000D01*
D17*
X103650000Y-61450000D02*
X104150000Y-61950000D01*
X103650000Y-49700000D02*
X103650000Y-61450000D01*
X106350000Y-47000000D02*
X103650000Y-49700000D01*
X115350000Y-47000000D02*
X106350000Y-47000000D01*
D16*
X147225000Y-75140000D02*
X147235000Y-75150000D01*
X155815000Y-71100000D02*
X169075000Y-71100000D01*
X151765000Y-75150000D02*
X155815000Y-71100000D01*
X147235000Y-75150000D02*
X151765000Y-75150000D01*
X147085000Y-75140000D02*
X147225000Y-75140000D01*
G04 #@! TA.AperFunction,Conductor*
G36*
X132597298Y-87919506D02*
G01*
X132662880Y-87960714D01*
X132709171Y-88013049D01*
X132719819Y-88082102D01*
X132691444Y-88145951D01*
X132662886Y-88170698D01*
X132647304Y-88180490D01*
X132581326Y-88199500D01*
X111018674Y-88199500D01*
X110952701Y-88180493D01*
X110887118Y-88139284D01*
X110840828Y-88086950D01*
X110830180Y-88017896D01*
X110858555Y-87954048D01*
X110887121Y-87929296D01*
X110902704Y-87919505D01*
X110968674Y-87900500D01*
X132531326Y-87900500D01*
X132597298Y-87919506D01*
G37*
G04 #@! TD.AperFunction*
G04 #@! TA.AperFunction,Conductor*
G36*
X107762537Y-80720185D02*
G01*
X107808292Y-80772989D01*
X107818236Y-80842147D01*
X107800491Y-80890473D01*
X107742211Y-80983223D01*
X107688212Y-81137544D01*
X107669909Y-81299996D01*
X107669909Y-81300003D01*
X107688212Y-81462455D01*
X107742210Y-81616774D01*
X107742211Y-81616775D01*
X107829192Y-81755204D01*
X107944796Y-81870808D01*
X107963689Y-81882679D01*
X108035308Y-81927681D01*
X108083225Y-81957789D01*
X108172387Y-81988988D01*
X108219113Y-82018348D01*
X108588583Y-82387819D01*
X108622068Y-82449142D01*
X108617084Y-82518834D01*
X108575212Y-82574767D01*
X108509748Y-82599184D01*
X108500902Y-82599500D01*
X108025097Y-82599500D01*
X107958058Y-82579815D01*
X107937416Y-82563181D01*
X106286416Y-80912181D01*
X106252931Y-80850858D01*
X106257915Y-80781166D01*
X106299787Y-80725233D01*
X106365251Y-80700816D01*
X106374097Y-80700500D01*
X107695498Y-80700500D01*
X107762537Y-80720185D01*
G37*
G04 #@! TD.AperFunction*
G04 #@! TA.AperFunction,Conductor*
G36*
X115141942Y-80720185D02*
G01*
X115162583Y-80736818D01*
X116081284Y-81655520D01*
X116081285Y-81655521D01*
X116081287Y-81655522D01*
X116085773Y-81658112D01*
X116133990Y-81708678D01*
X116147214Y-81777285D01*
X116121247Y-81842150D01*
X116064333Y-81882679D01*
X116023775Y-81889500D01*
X114965097Y-81889500D01*
X114898058Y-81869815D01*
X114877416Y-81853181D01*
X113936416Y-80912181D01*
X113902931Y-80850858D01*
X113907915Y-80781166D01*
X113949787Y-80725233D01*
X114015251Y-80700816D01*
X114024097Y-80700500D01*
X115074903Y-80700500D01*
X115141942Y-80720185D01*
G37*
G04 #@! TD.AperFunction*
G04 #@! TA.AperFunction,Conductor*
G36*
X119141942Y-79870185D02*
G01*
X119162584Y-79886819D01*
X119540139Y-80264374D01*
X119540149Y-80264385D01*
X119544479Y-80268715D01*
X119544480Y-80268716D01*
X119638584Y-80362820D01*
X119672068Y-80424141D01*
X119667084Y-80493833D01*
X119625213Y-80549767D01*
X119559749Y-80574184D01*
X119550902Y-80574500D01*
X116750098Y-80574500D01*
X116683059Y-80554815D01*
X116662417Y-80538181D01*
X116479440Y-80355204D01*
X116186415Y-80062180D01*
X116152931Y-80000858D01*
X116157915Y-79931167D01*
X116199786Y-79875233D01*
X116265251Y-79850816D01*
X116274097Y-79850500D01*
X119074903Y-79850500D01*
X119141942Y-79870185D01*
G37*
G04 #@! TD.AperFunction*
G04 #@! TA.AperFunction,Conductor*
G36*
X135317724Y-73494506D02*
G01*
X135319795Y-73495807D01*
X135319796Y-73495808D01*
X135458225Y-73582789D01*
X135603031Y-73633459D01*
X135659806Y-73674180D01*
X135685554Y-73739132D01*
X135672098Y-73807694D01*
X135623711Y-73858097D01*
X135562076Y-73874500D01*
X111274097Y-73874500D01*
X111207058Y-73854815D01*
X111161303Y-73802011D01*
X111151359Y-73732853D01*
X111180384Y-73669297D01*
X111186416Y-73662819D01*
X111337416Y-73511819D01*
X111398739Y-73478334D01*
X111425097Y-73475500D01*
X135251752Y-73475500D01*
X135317724Y-73494506D01*
G37*
G04 #@! TD.AperFunction*
G04 #@! TA.AperFunction,Conductor*
G36*
X141461614Y-58075185D02*
G01*
X141507369Y-58127989D01*
X141517313Y-58197147D01*
X141515464Y-58207100D01*
X141514630Y-58210749D01*
X141494435Y-58389996D01*
X141494435Y-58390003D01*
X141514630Y-58569249D01*
X141514631Y-58569254D01*
X141574211Y-58739523D01*
X141626657Y-58822989D01*
X141670184Y-58892262D01*
X141797738Y-59019816D01*
X141861980Y-59060182D01*
X141927006Y-59101041D01*
X141950478Y-59115789D01*
X142094682Y-59166248D01*
X142120745Y-59175368D01*
X142120750Y-59175369D01*
X142299996Y-59195565D01*
X142300000Y-59195565D01*
X142300004Y-59195565D01*
X142479249Y-59175369D01*
X142479252Y-59175368D01*
X142479255Y-59175368D01*
X142649522Y-59115789D01*
X142802262Y-59019816D01*
X142929816Y-58892262D01*
X143025789Y-58739522D01*
X143085368Y-58569255D01*
X143085369Y-58569249D01*
X143105565Y-58390003D01*
X143105565Y-58389996D01*
X143085369Y-58210749D01*
X143084536Y-58207100D01*
X143084684Y-58204673D01*
X143084589Y-58203825D01*
X143084737Y-58203808D01*
X143088805Y-58137361D01*
X143130100Y-58081001D01*
X143195310Y-58055913D01*
X143205425Y-58055500D01*
X143279480Y-58055500D01*
X143346519Y-58075185D01*
X143363435Y-58088245D01*
X144850167Y-59456040D01*
X144886176Y-59515916D01*
X144890197Y-59549212D01*
X144824424Y-63802558D01*
X144803705Y-63869285D01*
X144773319Y-63900963D01*
X139618618Y-67645634D01*
X139552810Y-67669110D01*
X139545625Y-67669312D01*
X137413022Y-67667367D01*
X137346000Y-67647621D01*
X137300294Y-67594776D01*
X137290413Y-67525608D01*
X137308142Y-67477394D01*
X137308546Y-67476752D01*
X137324049Y-67452078D01*
X137350788Y-67409524D01*
X137370108Y-67354311D01*
X137410368Y-67239255D01*
X137412519Y-67220170D01*
X137430565Y-67060001D01*
X137429256Y-67048386D01*
X137441309Y-66979564D01*
X137488657Y-66928184D01*
X137552476Y-66910500D01*
X138342588Y-66910500D01*
X138409627Y-66930185D01*
X138419903Y-66937555D01*
X138422736Y-66939814D01*
X138422738Y-66939816D01*
X138575478Y-67035789D01*
X138745745Y-67095368D01*
X138745750Y-67095369D01*
X138924996Y-67115565D01*
X138925000Y-67115565D01*
X138925004Y-67115565D01*
X139104249Y-67095369D01*
X139104252Y-67095368D01*
X139104255Y-67095368D01*
X139274522Y-67035789D01*
X139427262Y-66939816D01*
X139554816Y-66812262D01*
X139650789Y-66659522D01*
X139710368Y-66489255D01*
X139730565Y-66310000D01*
X139730538Y-66309762D01*
X139710369Y-66130750D01*
X139710368Y-66130745D01*
X139683559Y-66054129D01*
X139650789Y-65960478D01*
X139650374Y-65959818D01*
X139554815Y-65807737D01*
X139427262Y-65680184D01*
X139274523Y-65584211D01*
X139104254Y-65524631D01*
X139104249Y-65524630D01*
X138925004Y-65504435D01*
X138924996Y-65504435D01*
X138753396Y-65523769D01*
X138684574Y-65511714D01*
X138633195Y-65464365D01*
X138615571Y-65396755D01*
X138616293Y-65386665D01*
X138620170Y-65352262D01*
X138628248Y-65280565D01*
X138630565Y-65260002D01*
X138630565Y-65259995D01*
X138628130Y-65238383D01*
X138640185Y-65169561D01*
X138687534Y-65118182D01*
X138751350Y-65100500D01*
X140380145Y-65100500D01*
X140446117Y-65119506D01*
X140573461Y-65199522D01*
X140575478Y-65200789D01*
X140744679Y-65259995D01*
X140745745Y-65260368D01*
X140745750Y-65260369D01*
X140924996Y-65280565D01*
X140925000Y-65280565D01*
X140925004Y-65280565D01*
X141104249Y-65260369D01*
X141104252Y-65260368D01*
X141104255Y-65260368D01*
X141274522Y-65200789D01*
X141427262Y-65104816D01*
X141554816Y-64977262D01*
X141650789Y-64824522D01*
X141710368Y-64654255D01*
X141712892Y-64631854D01*
X141730565Y-64475003D01*
X141730565Y-64474996D01*
X141710369Y-64295750D01*
X141710368Y-64295745D01*
X141685789Y-64225502D01*
X141650789Y-64125478D01*
X141554816Y-63972738D01*
X141427262Y-63845184D01*
X141365339Y-63806275D01*
X141274519Y-63749209D01*
X141207698Y-63725827D01*
X141150922Y-63685106D01*
X141125175Y-63620153D01*
X141138631Y-63551591D01*
X141160966Y-63521111D01*
X141254816Y-63427262D01*
X141350789Y-63274522D01*
X141410368Y-63104255D01*
X141413193Y-63079185D01*
X141430565Y-62925003D01*
X141430565Y-62924996D01*
X141410369Y-62745750D01*
X141410368Y-62745745D01*
X141392242Y-62693944D01*
X141350789Y-62575478D01*
X141254816Y-62422738D01*
X141220349Y-62388271D01*
X141186864Y-62326948D01*
X141190988Y-62259635D01*
X141210368Y-62204255D01*
X141215854Y-62155565D01*
X141230565Y-62025003D01*
X141230565Y-62024996D01*
X141210369Y-61845750D01*
X141210368Y-61845745D01*
X141202569Y-61823457D01*
X141150789Y-61675478D01*
X141054816Y-61522738D01*
X140927262Y-61395184D01*
X140855357Y-61350003D01*
X140774523Y-61299211D01*
X140604254Y-61239631D01*
X140604249Y-61239630D01*
X140425004Y-61219435D01*
X140424996Y-61219435D01*
X140245750Y-61239630D01*
X140245735Y-61239634D01*
X140221814Y-61248004D01*
X140152035Y-61251565D01*
X140091409Y-61216834D01*
X140059183Y-61154840D01*
X140057642Y-61117079D01*
X140070058Y-61006882D01*
X140070058Y-61006879D01*
X140069337Y-61000478D01*
X140067974Y-60988384D01*
X140080028Y-60919563D01*
X140127376Y-60868183D01*
X140191194Y-60850500D01*
X140810847Y-60850500D01*
X140876819Y-60869506D01*
X140950477Y-60915789D01*
X140950481Y-60915790D01*
X141120737Y-60975366D01*
X141120743Y-60975367D01*
X141120745Y-60975368D01*
X141120746Y-60975368D01*
X141120750Y-60975369D01*
X141299996Y-60995565D01*
X141300000Y-60995565D01*
X141300004Y-60995565D01*
X141479249Y-60975369D01*
X141479252Y-60975368D01*
X141479255Y-60975368D01*
X141649522Y-60915789D01*
X141802262Y-60819816D01*
X141929816Y-60692262D01*
X142025789Y-60539522D01*
X142085368Y-60369255D01*
X142090375Y-60324816D01*
X142105565Y-60190003D01*
X142105565Y-60189996D01*
X142085369Y-60010750D01*
X142085368Y-60010745D01*
X142042507Y-59888256D01*
X142025789Y-59840478D01*
X141929816Y-59687738D01*
X141802262Y-59560184D01*
X141731810Y-59515916D01*
X141649523Y-59464211D01*
X141479254Y-59404631D01*
X141479249Y-59404630D01*
X141300004Y-59384435D01*
X141299996Y-59384435D01*
X141120750Y-59404630D01*
X141120737Y-59404633D01*
X140950481Y-59464209D01*
X140950477Y-59464210D01*
X140844989Y-59530494D01*
X140779017Y-59549500D01*
X128530213Y-59549500D01*
X128463174Y-59529815D01*
X128417419Y-59477011D01*
X128407475Y-59407853D01*
X128436500Y-59344297D01*
X128495278Y-59306523D01*
X128529961Y-59301500D01*
X130127685Y-59298272D01*
X130127691Y-59298271D01*
X130127698Y-59298271D01*
X130207777Y-59290261D01*
X130225783Y-59288460D01*
X130272982Y-59279022D01*
X130329474Y-59261853D01*
X130349334Y-59257559D01*
X130358810Y-59256311D01*
X130391180Y-59256310D01*
X130402470Y-59257796D01*
X130422209Y-59262053D01*
X130475606Y-59278221D01*
X130523306Y-59287659D01*
X130622444Y-59297272D01*
X134337863Y-59289767D01*
X134337868Y-59289766D01*
X134337878Y-59289766D01*
X134399163Y-59283635D01*
X134435956Y-59279956D01*
X134483157Y-59270518D01*
X134577486Y-59241852D01*
X134577532Y-59241832D01*
X134577542Y-59241831D01*
X134580331Y-59240833D01*
X134580380Y-59240972D01*
X134580385Y-59240971D01*
X134580410Y-59241055D01*
X134580571Y-59241505D01*
X134646999Y-59234355D01*
X134666672Y-59240108D01*
X134666832Y-59239663D01*
X134669700Y-59240688D01*
X134669704Y-59240689D01*
X134669711Y-59240692D01*
X134729806Y-59258888D01*
X134765038Y-59269556D01*
X134765040Y-59269556D01*
X134765042Y-59269557D01*
X134812744Y-59278995D01*
X134911878Y-59288607D01*
X138893960Y-59280563D01*
X139020474Y-59264211D01*
X139080548Y-59248548D01*
X139198932Y-59201051D01*
X139198935Y-59201048D01*
X139198938Y-59201048D01*
X141228118Y-58071163D01*
X141288442Y-58055500D01*
X141394575Y-58055500D01*
X141461614Y-58075185D01*
G37*
G04 #@! TD.AperFunction*
G04 #@! TA.AperFunction,Conductor*
G36*
X113208035Y-57448261D02*
G01*
X113238525Y-57470603D01*
X114228211Y-58460289D01*
X114337171Y-58569249D01*
X114339712Y-58571790D01*
X114381936Y-58600003D01*
X114470821Y-58659394D01*
X114573833Y-58702062D01*
X114616502Y-58719737D01*
X114771152Y-58750499D01*
X114771155Y-58750500D01*
X114771157Y-58750500D01*
X114771158Y-58750500D01*
X114925500Y-58750500D01*
X114992539Y-58770185D01*
X115038294Y-58822989D01*
X115049500Y-58874500D01*
X115049500Y-59252279D01*
X115032888Y-59314277D01*
X115022821Y-59331713D01*
X114964649Y-59510750D01*
X114964326Y-59511744D01*
X114944540Y-59700000D01*
X114964326Y-59888256D01*
X114964327Y-59888259D01*
X115022818Y-60068277D01*
X115022821Y-60068284D01*
X115117467Y-60232216D01*
X115223070Y-60349500D01*
X115244129Y-60372888D01*
X115397265Y-60484148D01*
X115397270Y-60484151D01*
X115570192Y-60561142D01*
X115570197Y-60561144D01*
X115755354Y-60600500D01*
X115755355Y-60600500D01*
X115944644Y-60600500D01*
X115944646Y-60600500D01*
X116115053Y-60564279D01*
X116184718Y-60569595D01*
X116240452Y-60611732D01*
X116264557Y-60677312D01*
X116264832Y-60685569D01*
X116264832Y-61579401D01*
X116264832Y-61579403D01*
X116264831Y-61579403D01*
X116284431Y-61677930D01*
X116284431Y-61677931D01*
X116289829Y-61705069D01*
X116289830Y-61705074D01*
X116328128Y-61797532D01*
X116338867Y-61823459D01*
X116373303Y-61874997D01*
X116410058Y-61930005D01*
X118585328Y-64105275D01*
X118682906Y-64170474D01*
X118685185Y-64171996D01*
X118691873Y-64176465D01*
X118810256Y-64225501D01*
X118810260Y-64225501D01*
X118810261Y-64225502D01*
X118935928Y-64250500D01*
X118935931Y-64250500D01*
X119064069Y-64250500D01*
X135390548Y-64250500D01*
X135457587Y-64270185D01*
X135503342Y-64322989D01*
X135513286Y-64392147D01*
X135484261Y-64455703D01*
X135478229Y-64462181D01*
X134802229Y-65138181D01*
X134740906Y-65171666D01*
X134714548Y-65174500D01*
X113485452Y-65174500D01*
X113418413Y-65154815D01*
X113397771Y-65138181D01*
X112086819Y-63827229D01*
X112053334Y-63765906D01*
X112050500Y-63739548D01*
X112050500Y-58385451D01*
X112070185Y-58318412D01*
X112086815Y-58297774D01*
X112353379Y-58031209D01*
X112414700Y-57997726D01*
X112427156Y-57995674D01*
X112474255Y-57990368D01*
X112644522Y-57930789D01*
X112797262Y-57834816D01*
X112924816Y-57707262D01*
X113020789Y-57554522D01*
X113033802Y-57517330D01*
X113074521Y-57460556D01*
X113139473Y-57434806D01*
X113208035Y-57448261D01*
G37*
G04 #@! TD.AperFunction*
G04 #@! TA.AperFunction,Conductor*
G36*
X112227702Y-44070185D02*
G01*
X112233548Y-44074182D01*
X112247265Y-44084148D01*
X112247270Y-44084151D01*
X112420191Y-44161142D01*
X112420193Y-44161142D01*
X112420197Y-44161144D01*
X112575130Y-44194075D01*
X112636607Y-44227266D01*
X112637026Y-44227683D01*
X113403453Y-44994111D01*
X113403454Y-44994112D01*
X113518192Y-45070777D01*
X113645667Y-45123578D01*
X113645672Y-45123580D01*
X113645676Y-45123580D01*
X113645677Y-45123581D01*
X113781003Y-45150500D01*
X113781006Y-45150500D01*
X113781007Y-45150500D01*
X117808481Y-45150500D01*
X117875520Y-45170185D01*
X117896162Y-45186819D01*
X119623637Y-46914294D01*
X121192163Y-48482819D01*
X121225648Y-48544142D01*
X121220664Y-48613834D01*
X121178792Y-48669767D01*
X121113328Y-48694184D01*
X121104482Y-48694500D01*
X115292065Y-48694500D01*
X115271038Y-48694937D01*
X115260701Y-48695368D01*
X115239696Y-48696683D01*
X115239689Y-48696684D01*
X115099474Y-48728937D01*
X115034307Y-48754131D01*
X115034300Y-48754134D01*
X114907446Y-48825373D01*
X114839355Y-48841035D01*
X114799281Y-48831818D01*
X114764898Y-48817577D01*
X114705209Y-48797117D01*
X114705204Y-48797115D01*
X114705194Y-48797112D01*
X114705184Y-48797109D01*
X114705164Y-48797103D01*
X114675415Y-48788941D01*
X114675373Y-48788931D01*
X114628251Y-48779120D01*
X114613583Y-48776067D01*
X114613582Y-48776067D01*
X114469706Y-48776067D01*
X114438846Y-48780504D01*
X114400545Y-48786012D01*
X114400540Y-48786013D01*
X114400536Y-48786014D01*
X114262498Y-48826546D01*
X114262492Y-48826549D01*
X114141462Y-48904331D01*
X114141451Y-48904339D01*
X114088659Y-48950083D01*
X113994433Y-49058824D01*
X113994430Y-49058828D01*
X113934664Y-49189694D01*
X113914976Y-49256742D01*
X113894500Y-49399161D01*
X113894500Y-55380145D01*
X113898442Y-55443140D01*
X113902292Y-55473784D01*
X113902294Y-55473798D01*
X113905447Y-55490425D01*
X113914052Y-55535803D01*
X113914055Y-55535811D01*
X113920271Y-55550818D01*
X113927738Y-55620288D01*
X113896463Y-55682766D01*
X113836373Y-55718418D01*
X113766548Y-55715923D01*
X113718028Y-55685950D01*
X112636819Y-54604741D01*
X112603334Y-54543418D01*
X112600500Y-54517060D01*
X112600500Y-53071158D01*
X112599223Y-53064738D01*
X112599223Y-53064737D01*
X112574227Y-52939071D01*
X112569738Y-52916503D01*
X112509394Y-52770821D01*
X112509392Y-52770818D01*
X112509390Y-52770814D01*
X112421789Y-52639711D01*
X112421786Y-52639707D01*
X111528736Y-51746658D01*
X111498486Y-51697294D01*
X111497527Y-51694343D01*
X111477179Y-51631716D01*
X111477177Y-51631712D01*
X111382534Y-51467785D01*
X111255870Y-51327111D01*
X111102734Y-51215851D01*
X111102729Y-51215848D01*
X110929807Y-51138857D01*
X110929802Y-51138855D01*
X110784001Y-51107865D01*
X110744646Y-51099500D01*
X110555354Y-51099500D01*
X110522897Y-51106398D01*
X110370197Y-51138855D01*
X110370192Y-51138857D01*
X110197270Y-51215848D01*
X110197265Y-51215851D01*
X110044129Y-51327111D01*
X109917466Y-51467785D01*
X109822821Y-51631715D01*
X109822818Y-51631722D01*
X109792431Y-51725245D01*
X109752993Y-51782921D01*
X109688635Y-51810119D01*
X109619788Y-51798204D01*
X109568313Y-51750960D01*
X109550500Y-51686927D01*
X109550500Y-50835452D01*
X109570185Y-50768413D01*
X109586819Y-50747771D01*
X109739406Y-50595184D01*
X109908380Y-50426209D01*
X109969701Y-50392726D01*
X109982158Y-50390674D01*
X110029255Y-50385368D01*
X110199522Y-50325789D01*
X110352262Y-50229816D01*
X110479816Y-50102262D01*
X110575789Y-49949522D01*
X110635368Y-49779255D01*
X110635369Y-49779249D01*
X110655565Y-49600003D01*
X110655565Y-49599996D01*
X110635369Y-49420750D01*
X110635368Y-49420745D01*
X110594417Y-49303714D01*
X110575789Y-49250478D01*
X110575174Y-49249500D01*
X110509158Y-49144435D01*
X110479816Y-49097738D01*
X110352262Y-48970184D01*
X110199523Y-48874211D01*
X110029254Y-48814631D01*
X110029249Y-48814630D01*
X109850004Y-48794435D01*
X109849996Y-48794435D01*
X109670750Y-48814630D01*
X109670745Y-48814631D01*
X109500476Y-48874211D01*
X109347737Y-48970184D01*
X109220184Y-49097737D01*
X109124210Y-49250478D01*
X109064630Y-49420750D01*
X109059326Y-49467825D01*
X109032258Y-49532238D01*
X109023787Y-49541620D01*
X108615887Y-49949522D01*
X108526269Y-50039140D01*
X108526267Y-50039142D01*
X108482705Y-50082703D01*
X108439144Y-50126264D01*
X108407527Y-50173581D01*
X108370688Y-50228714D01*
X108370685Y-50228719D01*
X108323540Y-50342538D01*
X108323535Y-50342554D01*
X108302264Y-50449497D01*
X108302263Y-50449502D01*
X108299500Y-50463389D01*
X108299500Y-53961607D01*
X108301318Y-53970750D01*
X108323535Y-54082445D01*
X108323538Y-54082455D01*
X108336063Y-54112691D01*
X108336064Y-54112695D01*
X108370686Y-54196283D01*
X108370688Y-54196287D01*
X108371658Y-54197738D01*
X108390400Y-54225786D01*
X108390401Y-54225789D01*
X108390402Y-54225789D01*
X108439140Y-54298731D01*
X108439141Y-54298732D01*
X108439142Y-54298733D01*
X108526267Y-54385858D01*
X108526268Y-54385858D01*
X108533335Y-54392925D01*
X108533334Y-54392925D01*
X108533338Y-54392928D01*
X109763181Y-55622771D01*
X109796666Y-55684094D01*
X109799500Y-55710452D01*
X109799500Y-64561606D01*
X109821208Y-64670745D01*
X109823537Y-64682451D01*
X109870688Y-64796286D01*
X109870689Y-64796288D01*
X109870690Y-64796289D01*
X109870690Y-64796290D01*
X109885786Y-64818882D01*
X109906665Y-64885559D01*
X109888181Y-64952940D01*
X109836203Y-64999630D01*
X109767233Y-65010807D01*
X109703169Y-64982922D01*
X109697619Y-64977995D01*
X109615427Y-64900500D01*
X109425886Y-64721789D01*
X109369434Y-64668563D01*
X109334161Y-64608251D01*
X109330500Y-64578342D01*
X109330500Y-61187571D01*
X109330494Y-61186134D01*
X109330481Y-61183178D01*
X109330463Y-61181094D01*
X109330411Y-61176967D01*
X109307545Y-61034916D01*
X109286737Y-60968217D01*
X109286736Y-60968215D01*
X109286734Y-60968210D01*
X109286684Y-60968085D01*
X109286253Y-60967203D01*
X109261721Y-60915790D01*
X109224775Y-60838360D01*
X108882412Y-60324816D01*
X108816233Y-60244780D01*
X108803454Y-60232214D01*
X108780104Y-60209253D01*
X108780098Y-60209248D01*
X108698973Y-60144433D01*
X108698971Y-60144432D01*
X108568099Y-60084663D01*
X108501054Y-60064976D01*
X108453581Y-60058150D01*
X108358637Y-60044500D01*
X106883078Y-60044500D01*
X106806320Y-60050362D01*
X106806315Y-60050362D01*
X106769100Y-60056080D01*
X106769075Y-60056085D01*
X106694138Y-60073523D01*
X106694130Y-60073525D01*
X106564431Y-60135801D01*
X106551552Y-60144433D01*
X106506390Y-60174701D01*
X106506388Y-60174703D01*
X106505470Y-60175457D01*
X106503986Y-60176866D01*
X106399488Y-60270997D01*
X106399481Y-60271004D01*
X105965408Y-60791892D01*
X105946143Y-60816520D01*
X105937102Y-60828844D01*
X105919432Y-60854557D01*
X105859663Y-60985430D01*
X105839976Y-61052475D01*
X105819500Y-61194894D01*
X105819500Y-63366613D01*
X105799815Y-63433652D01*
X105747011Y-63479407D01*
X105677853Y-63489351D01*
X105629529Y-63471608D01*
X105609486Y-63459014D01*
X105561844Y-63429079D01*
X105558982Y-63427223D01*
X105504179Y-63390605D01*
X105504173Y-63390603D01*
X105503365Y-63390268D01*
X105484865Y-63380709D01*
X105474524Y-63374212D01*
X105474523Y-63374211D01*
X105474522Y-63374211D01*
X105413867Y-63352986D01*
X105407377Y-63350509D01*
X105358496Y-63330262D01*
X105344860Y-63327550D01*
X105328104Y-63322976D01*
X105304260Y-63314633D01*
X105304256Y-63314632D01*
X105304255Y-63314632D01*
X105283575Y-63312301D01*
X105253303Y-63308890D01*
X105243003Y-63307288D01*
X105203844Y-63299500D01*
X105203842Y-63299500D01*
X105176915Y-63299500D01*
X105163031Y-63298720D01*
X105125002Y-63294435D01*
X105124998Y-63294435D01*
X105086969Y-63298720D01*
X105073085Y-63299500D01*
X104432940Y-63299500D01*
X104365901Y-63279815D01*
X104345259Y-63263181D01*
X104144259Y-63062181D01*
X104110774Y-63000858D01*
X104115758Y-62931166D01*
X104157630Y-62875233D01*
X104223094Y-62850816D01*
X104231940Y-62850500D01*
X104244644Y-62850500D01*
X104244646Y-62850500D01*
X104429803Y-62811144D01*
X104602730Y-62734151D01*
X104755871Y-62622888D01*
X104882533Y-62482216D01*
X104977179Y-62318284D01*
X105035674Y-62138256D01*
X105055460Y-61950000D01*
X105035674Y-61761744D01*
X104977179Y-61581716D01*
X104882533Y-61417784D01*
X104755871Y-61277112D01*
X104755870Y-61277111D01*
X104602734Y-61165851D01*
X104602729Y-61165848D01*
X104424064Y-61086300D01*
X104370827Y-61041050D01*
X104350506Y-60974200D01*
X104350500Y-60973021D01*
X104350500Y-50041519D01*
X104370185Y-49974480D01*
X104386819Y-49953838D01*
X106603838Y-47736819D01*
X106665161Y-47703334D01*
X106691519Y-47700500D01*
X114924506Y-47700500D01*
X114990477Y-47719506D01*
X115000474Y-47725787D01*
X115000475Y-47725787D01*
X115000478Y-47725789D01*
X115170745Y-47785368D01*
X115170750Y-47785369D01*
X115349996Y-47805565D01*
X115350000Y-47805565D01*
X115350004Y-47805565D01*
X115529249Y-47785369D01*
X115529252Y-47785368D01*
X115529255Y-47785368D01*
X115699522Y-47725789D01*
X115745752Y-47696740D01*
X115812987Y-47677739D01*
X115879823Y-47698105D01*
X115919968Y-47743963D01*
X115920506Y-47743626D01*
X115922623Y-47746996D01*
X115923448Y-47747938D01*
X115924210Y-47749521D01*
X115946735Y-47785369D01*
X116020184Y-47902262D01*
X116147738Y-48029816D01*
X116300478Y-48125789D01*
X116470745Y-48185368D01*
X116470750Y-48185369D01*
X116649996Y-48205565D01*
X116650000Y-48205565D01*
X116650004Y-48205565D01*
X116829249Y-48185369D01*
X116829252Y-48185368D01*
X116829255Y-48185368D01*
X116999522Y-48125789D01*
X117152262Y-48029816D01*
X117279816Y-47902262D01*
X117375789Y-47749522D01*
X117435368Y-47579255D01*
X117455565Y-47400000D01*
X117446454Y-47319141D01*
X117435369Y-47220750D01*
X117435368Y-47220745D01*
X117420935Y-47179499D01*
X117375789Y-47050478D01*
X117372662Y-47045502D01*
X117312188Y-46949258D01*
X117279816Y-46897738D01*
X117152262Y-46770184D01*
X117075990Y-46722259D01*
X116999523Y-46674211D01*
X116829254Y-46614631D01*
X116829249Y-46614630D01*
X116650004Y-46594435D01*
X116649996Y-46594435D01*
X116470750Y-46614630D01*
X116470745Y-46614631D01*
X116300475Y-46674211D01*
X116254244Y-46703260D01*
X116187007Y-46722259D01*
X116120172Y-46701890D01*
X116080031Y-46656036D01*
X116079494Y-46656374D01*
X116077374Y-46653000D01*
X116076550Y-46652059D01*
X116075787Y-46650474D01*
X115995961Y-46523433D01*
X115979816Y-46497738D01*
X115852262Y-46370184D01*
X115800690Y-46337779D01*
X115699523Y-46274211D01*
X115529254Y-46214631D01*
X115529249Y-46214630D01*
X115350004Y-46194435D01*
X115349996Y-46194435D01*
X115170750Y-46214630D01*
X115170745Y-46214631D01*
X115000474Y-46274212D01*
X114990477Y-46280494D01*
X114924506Y-46299500D01*
X106831940Y-46299500D01*
X106764901Y-46279815D01*
X106719146Y-46227011D01*
X106709202Y-46157853D01*
X106738227Y-46094297D01*
X106744259Y-46087819D01*
X108745259Y-44086819D01*
X108806582Y-44053334D01*
X108832940Y-44050500D01*
X112160663Y-44050500D01*
X112227702Y-44070185D01*
G37*
G04 #@! TD.AperFunction*
G04 #@! TA.AperFunction,Conductor*
G36*
X118455203Y-59375595D02*
G01*
X118461681Y-59381627D01*
X120585325Y-61505272D01*
X120585332Y-61505278D01*
X120663680Y-61557628D01*
X120663681Y-61557628D01*
X120691872Y-61576464D01*
X120691875Y-61576466D01*
X120704550Y-61581716D01*
X120810256Y-61625501D01*
X120810260Y-61625501D01*
X120810261Y-61625502D01*
X120935928Y-61650500D01*
X120935931Y-61650500D01*
X137680974Y-61650500D01*
X137748013Y-61670185D01*
X137793768Y-61722989D01*
X137804194Y-61788384D01*
X137794435Y-61874997D01*
X137794435Y-61875003D01*
X137814630Y-62054249D01*
X137814633Y-62054262D01*
X137833978Y-62109545D01*
X137837540Y-62179324D01*
X137802812Y-62239951D01*
X137740818Y-62272179D01*
X137716937Y-62274500D01*
X119595808Y-62274500D01*
X119528769Y-62254815D01*
X119508127Y-62238181D01*
X118286319Y-61016373D01*
X118252834Y-60955050D01*
X118250000Y-60928692D01*
X118250000Y-59469308D01*
X118269685Y-59402269D01*
X118322489Y-59356514D01*
X118391647Y-59346570D01*
X118455203Y-59375595D01*
G37*
G04 #@! TD.AperFunction*
G04 #@! TA.AperFunction,Conductor*
G36*
X128084196Y-59290263D02*
G01*
X128091436Y-59291435D01*
X128104783Y-59294007D01*
X128105149Y-59293998D01*
X128120093Y-59294538D01*
X128197963Y-59302077D01*
X128262793Y-59328130D01*
X128303247Y-59385097D01*
X128306480Y-59454891D01*
X128271467Y-59515355D01*
X128209322Y-59547290D01*
X128186014Y-59549500D01*
X127822597Y-59549500D01*
X127755558Y-59529815D01*
X127709803Y-59477011D01*
X127699859Y-59407853D01*
X127728884Y-59344297D01*
X127787662Y-59306523D01*
X127810257Y-59302115D01*
X127899760Y-59293167D01*
X127907360Y-59291647D01*
X127915430Y-59290311D01*
X127983816Y-59281309D01*
X128016176Y-59281309D01*
X128084196Y-59290263D01*
G37*
G04 #@! TD.AperFunction*
G04 #@! TA.AperFunction,Conductor*
G36*
X114814772Y-55969295D02*
G01*
X114872165Y-56009143D01*
X114898553Y-56070766D01*
X114903300Y-56106825D01*
X114904356Y-56121890D01*
X114904471Y-56134725D01*
X114904472Y-56134733D01*
X114914618Y-56202437D01*
X114954713Y-56337498D01*
X114954717Y-56337506D01*
X115032499Y-56458537D01*
X115032508Y-56458548D01*
X115078252Y-56511340D01*
X115078255Y-56511343D01*
X115078259Y-56511347D01*
X115186993Y-56605567D01*
X115186996Y-56605568D01*
X115186997Y-56605569D01*
X115300987Y-56657628D01*
X115317870Y-56665338D01*
X115384909Y-56685023D01*
X115384913Y-56685024D01*
X115527329Y-56705500D01*
X115663061Y-56705500D01*
X115730100Y-56725185D01*
X115775855Y-56777989D01*
X115785799Y-56847147D01*
X115756774Y-56910703D01*
X115750748Y-56917174D01*
X115644392Y-57023530D01*
X115554741Y-57113181D01*
X115493418Y-57146666D01*
X115467060Y-57149500D01*
X115232940Y-57149500D01*
X115165901Y-57129815D01*
X115145259Y-57113181D01*
X114212920Y-56180842D01*
X114179435Y-56119519D01*
X114184419Y-56049827D01*
X114226291Y-55993894D01*
X114291755Y-55969477D01*
X114339758Y-55975506D01*
X114412232Y-55999628D01*
X114556021Y-56004762D01*
X114625490Y-55997293D01*
X114744951Y-55966802D01*
X114814772Y-55969295D01*
G37*
G04 #@! TD.AperFunction*
G04 #@! TA.AperFunction,Conductor*
G36*
X110774014Y-53256092D02*
G01*
X110963181Y-53445259D01*
X110996666Y-53506582D01*
X110999500Y-53532940D01*
X110999500Y-54090852D01*
X110979815Y-54157891D01*
X110927011Y-54203646D01*
X110857853Y-54213590D01*
X110794297Y-54184565D01*
X110787819Y-54178533D01*
X110429102Y-53819817D01*
X110395617Y-53758494D01*
X110400601Y-53688803D01*
X110411789Y-53666164D01*
X110500789Y-53524522D01*
X110560368Y-53354255D01*
X110563113Y-53329890D01*
X110590177Y-53265478D01*
X110647771Y-53225922D01*
X110717608Y-53223782D01*
X110774014Y-53256092D01*
G37*
G04 #@! TD.AperFunction*
G04 #@! TA.AperFunction,Conductor*
G36*
X197040233Y-37800033D02*
G01*
X197087862Y-37809547D01*
X198242798Y-38290117D01*
X198246256Y-38291556D01*
X198280274Y-38312721D01*
X198688702Y-38670095D01*
X198993466Y-38936764D01*
X199048374Y-38984808D01*
X199075578Y-39018750D01*
X199649991Y-40071841D01*
X199665131Y-40130694D01*
X199810540Y-74496577D01*
X199810541Y-74497101D01*
X199810666Y-88247737D01*
X199810687Y-90677789D01*
X199810702Y-92276033D01*
X199791018Y-92343073D01*
X199738214Y-92388828D01*
X199686702Y-92400034D01*
X159158191Y-92400034D01*
X159114785Y-92392189D01*
X158978982Y-92341441D01*
X158978981Y-92341440D01*
X158978979Y-92341440D01*
X158840624Y-92308124D01*
X158720608Y-92279224D01*
X158720598Y-92279222D01*
X158456606Y-92248734D01*
X158331445Y-92249496D01*
X158330691Y-92249498D01*
X131314869Y-92249461D01*
X131312440Y-92249461D01*
X131272554Y-92249461D01*
X131260819Y-92249461D01*
X131260686Y-92249473D01*
X131179559Y-92249492D01*
X130915759Y-92281648D01*
X130915743Y-92281651D01*
X130657772Y-92345498D01*
X130535923Y-92391912D01*
X130491784Y-92400034D01*
X100510243Y-92400034D01*
X100443204Y-92380349D01*
X100397449Y-92327545D01*
X100386243Y-92276085D01*
X100371511Y-56580006D01*
X100368371Y-48971153D01*
X101849500Y-48971153D01*
X101849500Y-62778846D01*
X101880261Y-62933489D01*
X101880264Y-62933501D01*
X101940602Y-63079172D01*
X101940609Y-63079185D01*
X102028210Y-63210288D01*
X102028213Y-63210292D01*
X103539707Y-64721786D01*
X103539711Y-64721789D01*
X103670814Y-64809390D01*
X103670827Y-64809397D01*
X103816498Y-64869735D01*
X103816503Y-64869737D01*
X103962275Y-64898733D01*
X103971153Y-64900499D01*
X103971156Y-64900500D01*
X103971158Y-64900500D01*
X104128842Y-64900500D01*
X105073085Y-64900500D01*
X105086969Y-64901280D01*
X105124998Y-64905565D01*
X105125000Y-64905565D01*
X105125002Y-64905565D01*
X105163031Y-64901280D01*
X105176915Y-64900500D01*
X105203841Y-64900500D01*
X105203842Y-64900500D01*
X105243017Y-64892707D01*
X105253283Y-64891110D01*
X105304255Y-64885368D01*
X105328100Y-64877023D01*
X105344862Y-64872448D01*
X105358497Y-64869737D01*
X105407389Y-64849484D01*
X105413837Y-64847023D01*
X105474522Y-64825789D01*
X105484868Y-64819287D01*
X105503390Y-64809720D01*
X105504179Y-64809394D01*
X105558987Y-64772771D01*
X105561793Y-64770951D01*
X105627262Y-64729816D01*
X105627266Y-64729811D01*
X105629529Y-64728390D01*
X105696766Y-64709391D01*
X105763601Y-64729760D01*
X105808815Y-64783028D01*
X105819500Y-64833385D01*
X105819500Y-65895709D01*
X105823584Y-65959818D01*
X105827574Y-65991017D01*
X105839765Y-66054129D01*
X105839766Y-66054132D01*
X105862021Y-66107178D01*
X105895427Y-66186805D01*
X105930155Y-66244737D01*
X105931182Y-66246526D01*
X106022141Y-66358357D01*
X106639768Y-66928184D01*
X110856836Y-70818881D01*
X110889522Y-70846568D01*
X110906104Y-70859448D01*
X110906108Y-70859451D01*
X110941014Y-70884267D01*
X110941015Y-70884267D01*
X110941016Y-70884268D01*
X111071627Y-70944618D01*
X111138579Y-70964600D01*
X111138580Y-70964600D01*
X111280903Y-70985708D01*
X137382114Y-71101501D01*
X137449065Y-71121483D01*
X137494585Y-71174489D01*
X137504221Y-71243691D01*
X137474915Y-71307118D01*
X137415970Y-71344631D01*
X137381563Y-71349500D01*
X109586670Y-71349500D01*
X109586654Y-71349499D01*
X109579058Y-71349499D01*
X109420943Y-71349499D01*
X109344579Y-71369961D01*
X109268214Y-71390423D01*
X109268209Y-71390426D01*
X109131290Y-71469475D01*
X109131282Y-71469481D01*
X104552755Y-76048007D01*
X104491432Y-76081492D01*
X104478961Y-76083546D01*
X104454285Y-76086326D01*
X104437539Y-76088214D01*
X104437538Y-76088214D01*
X104283225Y-76142210D01*
X104144795Y-76229192D01*
X104029192Y-76344795D01*
X103942210Y-76483225D01*
X103888212Y-76637544D01*
X103869909Y-76799996D01*
X103869909Y-76800003D01*
X103888212Y-76962455D01*
X103942210Y-77116774D01*
X103942211Y-77116775D01*
X104029192Y-77255204D01*
X104144796Y-77370808D01*
X104175340Y-77390000D01*
X104283224Y-77457789D01*
X104283227Y-77457790D01*
X104294970Y-77461899D01*
X104351747Y-77502619D01*
X104377238Y-77565057D01*
X104388213Y-77662458D01*
X104400925Y-77698788D01*
X104404486Y-77768567D01*
X104371565Y-77827423D01*
X104254191Y-77944797D01*
X104167210Y-78083225D01*
X104113212Y-78237544D01*
X104094909Y-78399996D01*
X104094909Y-78400003D01*
X104113212Y-78562455D01*
X104167210Y-78716774D01*
X104254192Y-78855204D01*
X104261307Y-78862319D01*
X104294792Y-78923642D01*
X104289808Y-78993334D01*
X104261307Y-79037681D01*
X104254192Y-79044795D01*
X104167210Y-79183225D01*
X104113213Y-79337541D01*
X104111665Y-79344327D01*
X104108636Y-79343635D01*
X104086747Y-79395441D01*
X104031707Y-79433993D01*
X104008233Y-79442207D01*
X104008225Y-79442211D01*
X103869795Y-79529192D01*
X103754192Y-79644795D01*
X103667210Y-79783225D01*
X103613212Y-79937544D01*
X103594909Y-80099996D01*
X103594909Y-80100003D01*
X103613212Y-80262455D01*
X103667210Y-80416774D01*
X103694105Y-80459577D01*
X103754192Y-80555204D01*
X103869796Y-80670808D01*
X103917050Y-80700500D01*
X104008221Y-80757787D01*
X104008222Y-80757787D01*
X104008225Y-80757789D01*
X104031704Y-80766004D01*
X104088478Y-80806724D01*
X104108756Y-80856328D01*
X104111662Y-80855665D01*
X104113211Y-80862452D01*
X104167211Y-81016776D01*
X104236152Y-81126493D01*
X104255153Y-81193730D01*
X104234786Y-81260565D01*
X104218842Y-81280145D01*
X104204193Y-81294793D01*
X104204192Y-81294795D01*
X104117210Y-81433225D01*
X104063212Y-81587544D01*
X104044909Y-81749996D01*
X104044909Y-81750003D01*
X104063212Y-81912455D01*
X104117210Y-82066774D01*
X104197548Y-82194630D01*
X104204192Y-82205204D01*
X104319796Y-82320808D01*
X104346817Y-82337787D01*
X104393108Y-82390120D01*
X104403757Y-82459174D01*
X104375382Y-82523022D01*
X104368527Y-82530461D01*
X104254191Y-82644797D01*
X104167210Y-82783225D01*
X104113212Y-82937544D01*
X104094909Y-83099996D01*
X104094909Y-83100003D01*
X104113212Y-83262455D01*
X104167210Y-83416774D01*
X104167211Y-83416775D01*
X104254192Y-83555204D01*
X104369796Y-83670808D01*
X104416248Y-83699996D01*
X104508224Y-83757789D01*
X104565526Y-83777839D01*
X104612254Y-83807200D01*
X107460324Y-86655271D01*
X107460327Y-86655274D01*
X107554624Y-86718281D01*
X107554625Y-86718281D01*
X107554626Y-86718282D01*
X107566873Y-86726465D01*
X107685256Y-86775501D01*
X107685260Y-86775501D01*
X107685261Y-86775502D01*
X107810928Y-86800500D01*
X107810931Y-86800500D01*
X109757861Y-86800500D01*
X109824900Y-86820185D01*
X109870655Y-86872989D01*
X109880599Y-86942147D01*
X109869582Y-86978300D01*
X109867211Y-86983222D01*
X109813212Y-87137544D01*
X109794909Y-87299996D01*
X109794909Y-87300003D01*
X109813212Y-87462455D01*
X109867210Y-87616774D01*
X109919205Y-87699523D01*
X109954192Y-87755204D01*
X110069796Y-87870808D01*
X110186972Y-87944435D01*
X110212880Y-87960714D01*
X110259171Y-88013049D01*
X110269819Y-88082103D01*
X110241444Y-88145951D01*
X110212881Y-88170701D01*
X110119798Y-88229190D01*
X110119795Y-88229192D01*
X110004192Y-88344795D01*
X109917210Y-88483225D01*
X109863212Y-88637544D01*
X109844909Y-88799996D01*
X109844909Y-88800003D01*
X109863212Y-88962455D01*
X109917210Y-89116774D01*
X109994342Y-89239528D01*
X110013342Y-89306764D01*
X109992974Y-89373600D01*
X109939707Y-89418814D01*
X109889348Y-89429500D01*
X109330098Y-89429500D01*
X109263059Y-89409815D01*
X109242417Y-89393181D01*
X105444443Y-85595207D01*
X105415861Y-85543489D01*
X105414085Y-85544111D01*
X105411786Y-85537541D01*
X105411786Y-85537539D01*
X105357789Y-85383225D01*
X105270808Y-85244796D01*
X105155204Y-85129192D01*
X105075730Y-85079255D01*
X105016774Y-85042210D01*
X104862455Y-84988212D01*
X104700004Y-84969909D01*
X104699996Y-84969909D01*
X104537544Y-84988212D01*
X104383225Y-85042210D01*
X104244795Y-85129192D01*
X104129192Y-85244795D01*
X104042210Y-85383225D01*
X103988212Y-85537544D01*
X103969909Y-85699996D01*
X103969909Y-85700003D01*
X103988212Y-85862455D01*
X104042210Y-86016774D01*
X104102742Y-86113110D01*
X104129192Y-86155204D01*
X104244796Y-86270808D01*
X104383225Y-86357789D01*
X104537539Y-86411786D01*
X104537541Y-86411786D01*
X104544111Y-86414085D01*
X104543489Y-86415861D01*
X104595207Y-86444443D01*
X108661284Y-90510520D01*
X108661286Y-90510521D01*
X108661290Y-90510524D01*
X108798209Y-90589573D01*
X108798216Y-90589577D01*
X108950943Y-90630501D01*
X108950945Y-90630501D01*
X109116654Y-90630501D01*
X109116670Y-90630500D01*
X132772241Y-90630500D01*
X132838214Y-90649507D01*
X132883225Y-90677789D01*
X133037539Y-90731786D01*
X133037542Y-90731786D01*
X133037544Y-90731787D01*
X133199996Y-90750091D01*
X133200000Y-90750091D01*
X133200004Y-90750091D01*
X133362455Y-90731787D01*
X133362456Y-90731786D01*
X133362461Y-90731786D01*
X133516775Y-90677789D01*
X133655204Y-90590808D01*
X133770808Y-90475204D01*
X133857789Y-90336775D01*
X133911786Y-90182461D01*
X133913275Y-90169249D01*
X133930091Y-90020003D01*
X133930091Y-90019996D01*
X133928079Y-90002135D01*
X141724500Y-90002135D01*
X141724500Y-91097870D01*
X141724501Y-91097876D01*
X141730908Y-91157483D01*
X141781202Y-91292328D01*
X141781206Y-91292335D01*
X141867452Y-91407544D01*
X141867455Y-91407547D01*
X141982664Y-91493793D01*
X141982671Y-91493797D01*
X142117517Y-91544091D01*
X142117516Y-91544091D01*
X142124444Y-91544835D01*
X142177127Y-91550500D01*
X143972872Y-91550499D01*
X144032483Y-91544091D01*
X144167331Y-91493796D01*
X144282546Y-91407546D01*
X144368796Y-91292331D01*
X144372960Y-91281165D01*
X144414829Y-91225234D01*
X144480293Y-91200816D01*
X144489141Y-91200500D01*
X147960859Y-91200500D01*
X148027898Y-91220185D01*
X148073653Y-91272989D01*
X148077030Y-91281140D01*
X148081204Y-91292331D01*
X148081205Y-91292332D01*
X148081206Y-91292335D01*
X148167452Y-91407544D01*
X148167455Y-91407547D01*
X148282664Y-91493793D01*
X148282671Y-91493797D01*
X148417517Y-91544091D01*
X148417516Y-91544091D01*
X148424444Y-91544835D01*
X148477127Y-91550500D01*
X150272872Y-91550499D01*
X150332483Y-91544091D01*
X150467331Y-91493796D01*
X150582546Y-91407546D01*
X150668796Y-91292331D01*
X150719091Y-91157483D01*
X150725500Y-91097873D01*
X150725499Y-90070000D01*
X160019540Y-90070000D01*
X160039326Y-90258256D01*
X160039327Y-90258259D01*
X160097818Y-90438277D01*
X160097821Y-90438284D01*
X160192467Y-90602216D01*
X160294728Y-90715788D01*
X160319129Y-90742888D01*
X160472265Y-90854148D01*
X160472270Y-90854151D01*
X160645192Y-90931142D01*
X160645197Y-90931144D01*
X160830354Y-90970500D01*
X160830355Y-90970500D01*
X161019644Y-90970500D01*
X161019646Y-90970500D01*
X161204803Y-90931144D01*
X161377730Y-90854151D01*
X161530871Y-90742888D01*
X161657533Y-90602216D01*
X161752179Y-90438284D01*
X161810674Y-90258256D01*
X161830460Y-90070000D01*
X161822051Y-89989996D01*
X162644435Y-89989996D01*
X162644435Y-89990003D01*
X162664630Y-90169249D01*
X162664631Y-90169254D01*
X162724211Y-90339523D01*
X162786263Y-90438277D01*
X162820184Y-90492262D01*
X162947738Y-90619816D01*
X163100478Y-90715789D01*
X163270745Y-90775368D01*
X163270750Y-90775369D01*
X163449996Y-90795565D01*
X163450000Y-90795565D01*
X163450004Y-90795565D01*
X163629249Y-90775369D01*
X163629252Y-90775368D01*
X163629255Y-90775368D01*
X163799522Y-90715789D01*
X163952262Y-90619816D01*
X164079816Y-90492262D01*
X164175789Y-90339522D01*
X164235368Y-90169255D01*
X164235369Y-90169249D01*
X164255565Y-89990003D01*
X164255565Y-89989996D01*
X164235369Y-89810750D01*
X164235368Y-89810745D01*
X164197217Y-89701715D01*
X164175789Y-89640478D01*
X164154254Y-89606206D01*
X164122650Y-89555908D01*
X164079816Y-89487738D01*
X163952262Y-89360184D01*
X163814975Y-89273920D01*
X170374499Y-89273920D01*
X170403340Y-89418907D01*
X170403343Y-89418917D01*
X170459912Y-89555488D01*
X170459919Y-89555501D01*
X170542048Y-89678415D01*
X170542051Y-89678419D01*
X170646580Y-89782948D01*
X170646584Y-89782951D01*
X170769498Y-89865080D01*
X170769511Y-89865087D01*
X170906082Y-89921656D01*
X170906087Y-89921658D01*
X170906091Y-89921658D01*
X170906092Y-89921659D01*
X171051079Y-89950500D01*
X171051082Y-89950500D01*
X171198920Y-89950500D01*
X171296462Y-89931096D01*
X171343913Y-89921658D01*
X171480495Y-89865084D01*
X171603416Y-89782951D01*
X171707951Y-89678416D01*
X171790084Y-89555495D01*
X171846658Y-89418913D01*
X171867923Y-89312008D01*
X171875500Y-89273920D01*
X178374499Y-89273920D01*
X178403340Y-89418907D01*
X178403343Y-89418917D01*
X178459912Y-89555488D01*
X178459919Y-89555501D01*
X178542048Y-89678415D01*
X178542051Y-89678419D01*
X178646580Y-89782948D01*
X178646584Y-89782951D01*
X178769498Y-89865080D01*
X178769511Y-89865087D01*
X178906082Y-89921656D01*
X178906087Y-89921658D01*
X178906091Y-89921658D01*
X178906092Y-89921659D01*
X179051079Y-89950500D01*
X179051082Y-89950500D01*
X179198920Y-89950500D01*
X179296462Y-89931096D01*
X179343913Y-89921658D01*
X179480495Y-89865084D01*
X179603416Y-89782951D01*
X179707951Y-89678416D01*
X179790084Y-89555495D01*
X179846658Y-89418913D01*
X179867923Y-89312008D01*
X179875500Y-89273920D01*
X179875500Y-89126079D01*
X179846659Y-88981092D01*
X179846658Y-88981091D01*
X179846658Y-88981087D01*
X179838943Y-88962461D01*
X179790087Y-88844511D01*
X179790080Y-88844498D01*
X179707951Y-88721584D01*
X179707948Y-88721580D01*
X179603419Y-88617051D01*
X179603415Y-88617048D01*
X179480501Y-88534919D01*
X179480488Y-88534912D01*
X179343917Y-88478343D01*
X179343907Y-88478340D01*
X179198920Y-88449500D01*
X179198918Y-88449500D01*
X179051082Y-88449500D01*
X179051080Y-88449500D01*
X178906092Y-88478340D01*
X178906082Y-88478343D01*
X178769511Y-88534912D01*
X178769498Y-88534919D01*
X178646584Y-88617048D01*
X178646580Y-88617051D01*
X178542051Y-88721580D01*
X178542048Y-88721584D01*
X178459919Y-88844498D01*
X178459912Y-88844511D01*
X178403343Y-88981082D01*
X178403340Y-88981092D01*
X178374500Y-89126079D01*
X178374500Y-89126082D01*
X178374500Y-89273918D01*
X178374500Y-89273920D01*
X178374499Y-89273920D01*
X171875500Y-89273920D01*
X171875500Y-89126079D01*
X171846659Y-88981092D01*
X171846658Y-88981091D01*
X171846658Y-88981087D01*
X171838943Y-88962461D01*
X171790087Y-88844511D01*
X171790080Y-88844498D01*
X171707951Y-88721584D01*
X171707948Y-88721580D01*
X171603419Y-88617051D01*
X171603415Y-88617048D01*
X171480501Y-88534919D01*
X171480488Y-88534912D01*
X171343917Y-88478343D01*
X171343907Y-88478340D01*
X171198920Y-88449500D01*
X171198918Y-88449500D01*
X171051082Y-88449500D01*
X171051080Y-88449500D01*
X170906092Y-88478340D01*
X170906082Y-88478343D01*
X170769511Y-88534912D01*
X170769498Y-88534919D01*
X170646584Y-88617048D01*
X170646580Y-88617051D01*
X170542051Y-88721580D01*
X170542048Y-88721584D01*
X170459919Y-88844498D01*
X170459912Y-88844511D01*
X170403343Y-88981082D01*
X170403340Y-88981092D01*
X170374500Y-89126079D01*
X170374500Y-89126082D01*
X170374500Y-89273918D01*
X170374500Y-89273920D01*
X170374499Y-89273920D01*
X163814975Y-89273920D01*
X163799523Y-89264211D01*
X163629254Y-89204631D01*
X163629249Y-89204630D01*
X163450004Y-89184435D01*
X163449996Y-89184435D01*
X163270750Y-89204630D01*
X163270745Y-89204631D01*
X163100476Y-89264211D01*
X162947737Y-89360184D01*
X162820184Y-89487737D01*
X162724211Y-89640476D01*
X162664631Y-89810745D01*
X162664630Y-89810750D01*
X162644435Y-89989996D01*
X161822051Y-89989996D01*
X161810674Y-89881744D01*
X161752179Y-89701716D01*
X161657533Y-89537784D01*
X161530871Y-89397112D01*
X161530870Y-89397111D01*
X161377734Y-89285851D01*
X161377729Y-89285848D01*
X161204807Y-89208857D01*
X161204802Y-89208855D01*
X161059001Y-89177865D01*
X161019646Y-89169500D01*
X160830354Y-89169500D01*
X160797897Y-89176398D01*
X160645197Y-89208855D01*
X160645192Y-89208857D01*
X160472270Y-89285848D01*
X160472265Y-89285851D01*
X160319129Y-89397111D01*
X160192466Y-89537785D01*
X160097821Y-89701715D01*
X160097818Y-89701722D01*
X160039327Y-89881740D01*
X160039326Y-89881744D01*
X160019540Y-90070000D01*
X150725499Y-90070000D01*
X150725499Y-90002128D01*
X150719091Y-89942517D01*
X150701663Y-89895792D01*
X150696680Y-89826102D01*
X150730163Y-89764781D01*
X151058129Y-89436816D01*
X151119450Y-89403334D01*
X151145808Y-89400500D01*
X156819932Y-89400500D01*
X156885904Y-89419506D01*
X156975477Y-89475789D01*
X156975481Y-89475790D01*
X157145737Y-89535366D01*
X157145743Y-89535367D01*
X157145745Y-89535368D01*
X157145746Y-89535368D01*
X157145750Y-89535369D01*
X157324996Y-89555565D01*
X157325000Y-89555565D01*
X157325004Y-89555565D01*
X157504249Y-89535369D01*
X157504252Y-89535368D01*
X157504255Y-89535368D01*
X157674522Y-89475789D01*
X157827262Y-89379816D01*
X157954816Y-89252262D01*
X158050789Y-89099522D01*
X158110368Y-88929255D01*
X158116392Y-88875789D01*
X158130565Y-88750003D01*
X158130565Y-88749996D01*
X158110369Y-88570750D01*
X158110368Y-88570745D01*
X158078034Y-88478340D01*
X158050789Y-88400478D01*
X157954816Y-88247738D01*
X157857074Y-88149996D01*
X160619435Y-88149996D01*
X160619435Y-88150003D01*
X160639630Y-88329249D01*
X160639631Y-88329254D01*
X160699211Y-88499523D01*
X160773058Y-88617049D01*
X160795184Y-88652262D01*
X160922738Y-88779816D01*
X161075478Y-88875789D01*
X161228258Y-88929249D01*
X161245745Y-88935368D01*
X161245750Y-88935369D01*
X161424996Y-88955565D01*
X161425000Y-88955565D01*
X161425004Y-88955565D01*
X161604249Y-88935369D01*
X161604252Y-88935368D01*
X161604255Y-88935368D01*
X161774522Y-88875789D01*
X161927262Y-88779816D01*
X162054816Y-88652262D01*
X162150789Y-88499522D01*
X162210368Y-88329255D01*
X162211182Y-88322025D01*
X162238245Y-88257611D01*
X162246702Y-88248242D01*
X162458128Y-88036816D01*
X162519450Y-88003334D01*
X162545808Y-88000500D01*
X187769932Y-88000500D01*
X187835904Y-88019506D01*
X187925477Y-88075789D01*
X187925481Y-88075790D01*
X188095737Y-88135366D01*
X188095743Y-88135367D01*
X188095745Y-88135368D01*
X188095746Y-88135368D01*
X188095750Y-88135369D01*
X188274996Y-88155565D01*
X188275000Y-88155565D01*
X188275004Y-88155565D01*
X188454249Y-88135369D01*
X188454252Y-88135368D01*
X188454255Y-88135368D01*
X188624522Y-88075789D01*
X188777262Y-87979816D01*
X188904816Y-87852262D01*
X189000789Y-87699522D01*
X189060368Y-87529255D01*
X189067894Y-87462461D01*
X189080565Y-87350003D01*
X189080565Y-87349996D01*
X189060369Y-87170750D01*
X189060368Y-87170745D01*
X189000788Y-87000476D01*
X188961582Y-86938080D01*
X188904816Y-86847738D01*
X188777262Y-86720184D01*
X188714096Y-86680494D01*
X188624523Y-86624211D01*
X188454254Y-86564631D01*
X188454249Y-86564630D01*
X188275004Y-86544435D01*
X188274996Y-86544435D01*
X188095750Y-86564630D01*
X188095737Y-86564633D01*
X187925481Y-86624209D01*
X187925477Y-86624210D01*
X187835904Y-86680494D01*
X187769932Y-86699500D01*
X162160929Y-86699500D01*
X162035261Y-86724497D01*
X162035255Y-86724499D01*
X161916874Y-86773534D01*
X161810326Y-86844726D01*
X161326775Y-87328277D01*
X161265452Y-87361762D01*
X161252988Y-87363815D01*
X161245752Y-87364630D01*
X161245744Y-87364632D01*
X161075478Y-87424210D01*
X160922737Y-87520184D01*
X160795184Y-87647737D01*
X160699211Y-87800476D01*
X160639631Y-87970745D01*
X160639630Y-87970750D01*
X160619435Y-88149996D01*
X157857074Y-88149996D01*
X157827262Y-88120184D01*
X157776382Y-88088214D01*
X157674523Y-88024211D01*
X157504254Y-87964631D01*
X157504249Y-87964630D01*
X157325004Y-87944435D01*
X157324996Y-87944435D01*
X157145750Y-87964630D01*
X157145737Y-87964633D01*
X156975481Y-88024209D01*
X156975477Y-88024210D01*
X156885904Y-88080494D01*
X156819932Y-88099500D01*
X150760929Y-88099500D01*
X150635261Y-88124497D01*
X150635251Y-88124500D01*
X150609015Y-88135368D01*
X150516881Y-88173530D01*
X150516863Y-88173540D01*
X150410332Y-88244721D01*
X150410325Y-88244727D01*
X149141871Y-89513181D01*
X149080548Y-89546666D01*
X149054190Y-89549500D01*
X148477129Y-89549500D01*
X148477123Y-89549501D01*
X148417516Y-89555908D01*
X148282671Y-89606202D01*
X148282664Y-89606206D01*
X148167455Y-89692452D01*
X148167452Y-89692455D01*
X148081206Y-89807664D01*
X148081204Y-89807668D01*
X148081204Y-89807669D01*
X148077039Y-89818834D01*
X148035171Y-89874766D01*
X147969707Y-89899184D01*
X147960859Y-89899500D01*
X144489141Y-89899500D01*
X144422102Y-89879815D01*
X144376347Y-89827011D01*
X144372969Y-89818859D01*
X144368796Y-89807669D01*
X144368793Y-89807665D01*
X144368793Y-89807664D01*
X144282547Y-89692455D01*
X144282544Y-89692452D01*
X144167335Y-89606206D01*
X144167328Y-89606202D01*
X144032482Y-89555908D01*
X144032483Y-89555908D01*
X143972883Y-89549501D01*
X143972881Y-89549500D01*
X143972873Y-89549500D01*
X143972864Y-89549500D01*
X142177129Y-89549500D01*
X142177123Y-89549501D01*
X142117516Y-89555908D01*
X141982671Y-89606202D01*
X141982664Y-89606206D01*
X141867455Y-89692452D01*
X141867452Y-89692455D01*
X141781206Y-89807664D01*
X141781202Y-89807671D01*
X141730908Y-89942517D01*
X141724501Y-90002116D01*
X141724501Y-90002123D01*
X141724500Y-90002135D01*
X133928079Y-90002135D01*
X133911787Y-89857544D01*
X133911786Y-89857542D01*
X133911786Y-89857539D01*
X133857789Y-89703225D01*
X133770808Y-89564796D01*
X133655204Y-89449192D01*
X133655201Y-89449189D01*
X133630065Y-89433396D01*
X133583773Y-89381062D01*
X133573124Y-89312008D01*
X133594259Y-89262456D01*
X133592103Y-89261101D01*
X133640275Y-89184435D01*
X133682789Y-89116775D01*
X133736786Y-88962461D01*
X133739839Y-88935368D01*
X133755091Y-88800003D01*
X133755091Y-88799996D01*
X133736787Y-88637544D01*
X133736786Y-88637542D01*
X133736786Y-88637539D01*
X133682789Y-88483225D01*
X133595808Y-88344796D01*
X133480204Y-88229192D01*
X133480198Y-88229187D01*
X133337119Y-88139284D01*
X133290828Y-88086950D01*
X133280180Y-88017896D01*
X133308555Y-87954048D01*
X133337117Y-87929298D01*
X133430204Y-87870808D01*
X133545808Y-87755204D01*
X133632789Y-87616775D01*
X133686786Y-87462461D01*
X133699457Y-87350003D01*
X133705091Y-87300003D01*
X133705091Y-87299996D01*
X133704849Y-87297844D01*
X141725000Y-87297844D01*
X141731401Y-87357372D01*
X141731403Y-87357379D01*
X141781645Y-87492086D01*
X141781649Y-87492093D01*
X141867809Y-87607187D01*
X141867812Y-87607190D01*
X141982906Y-87693350D01*
X141982913Y-87693354D01*
X142117620Y-87743596D01*
X142117627Y-87743598D01*
X142177155Y-87749999D01*
X142177172Y-87750000D01*
X142825000Y-87750000D01*
X143325000Y-87750000D01*
X143972828Y-87750000D01*
X143972844Y-87749999D01*
X144032372Y-87743598D01*
X144032379Y-87743596D01*
X144167086Y-87693354D01*
X144167093Y-87693350D01*
X144282187Y-87607190D01*
X144282190Y-87607187D01*
X144368350Y-87492093D01*
X144368354Y-87492086D01*
X144418596Y-87357379D01*
X144418598Y-87357372D01*
X144424999Y-87297844D01*
X148025000Y-87297844D01*
X148031401Y-87357372D01*
X148031403Y-87357379D01*
X148081645Y-87492086D01*
X148081649Y-87492093D01*
X148167809Y-87607187D01*
X148167812Y-87607190D01*
X148282906Y-87693350D01*
X148282913Y-87693354D01*
X148417620Y-87743596D01*
X148417627Y-87743598D01*
X148477155Y-87749999D01*
X148477172Y-87750000D01*
X149125000Y-87750000D01*
X149625000Y-87750000D01*
X150272828Y-87750000D01*
X150272844Y-87749999D01*
X150332372Y-87743598D01*
X150332379Y-87743596D01*
X150467086Y-87693354D01*
X150467093Y-87693350D01*
X150582187Y-87607190D01*
X150582190Y-87607187D01*
X150668350Y-87492093D01*
X150668354Y-87492086D01*
X150718596Y-87357379D01*
X150718598Y-87357372D01*
X150724999Y-87297844D01*
X150725000Y-87297827D01*
X150725000Y-87000000D01*
X149625000Y-87000000D01*
X149625000Y-87750000D01*
X149125000Y-87750000D01*
X149125000Y-87000000D01*
X148025000Y-87000000D01*
X148025000Y-87297844D01*
X144424999Y-87297844D01*
X144425000Y-87297827D01*
X144425000Y-87000000D01*
X143325000Y-87000000D01*
X143325000Y-87750000D01*
X142825000Y-87750000D01*
X142825000Y-87000000D01*
X141725000Y-87000000D01*
X141725000Y-87297844D01*
X133704849Y-87297844D01*
X133686787Y-87137544D01*
X133686786Y-87137542D01*
X133686786Y-87137539D01*
X133632789Y-86983225D01*
X133629694Y-86978300D01*
X133568472Y-86880866D01*
X133549471Y-86813629D01*
X133568472Y-86748920D01*
X133570805Y-86745206D01*
X133570808Y-86745204D01*
X133657789Y-86606775D01*
X133711786Y-86452461D01*
X133711787Y-86452455D01*
X133730091Y-86290003D01*
X133730091Y-86289996D01*
X133720194Y-86202155D01*
X141725000Y-86202155D01*
X141725000Y-86500000D01*
X142825000Y-86500000D01*
X143325000Y-86500000D01*
X144425000Y-86500000D01*
X144425000Y-86202172D01*
X144424999Y-86202155D01*
X148025000Y-86202155D01*
X148025000Y-86500000D01*
X149125000Y-86500000D01*
X149625000Y-86500000D01*
X150725000Y-86500000D01*
X150725000Y-86202172D01*
X150724999Y-86202155D01*
X150718598Y-86142627D01*
X150718596Y-86142620D01*
X150668354Y-86007913D01*
X150668350Y-86007906D01*
X150582190Y-85892812D01*
X150582187Y-85892809D01*
X150467093Y-85806649D01*
X150467086Y-85806645D01*
X150332379Y-85756403D01*
X150332372Y-85756401D01*
X150272844Y-85750000D01*
X149625000Y-85750000D01*
X149625000Y-86500000D01*
X149125000Y-86500000D01*
X149125000Y-85750000D01*
X148477155Y-85750000D01*
X148417627Y-85756401D01*
X148417620Y-85756403D01*
X148282913Y-85806645D01*
X148282906Y-85806649D01*
X148167812Y-85892809D01*
X148167809Y-85892812D01*
X148081649Y-86007906D01*
X148081645Y-86007913D01*
X148031403Y-86142620D01*
X148031401Y-86142627D01*
X148025000Y-86202155D01*
X144424999Y-86202155D01*
X144418598Y-86142627D01*
X144418596Y-86142620D01*
X144368354Y-86007913D01*
X144368350Y-86007906D01*
X144282190Y-85892812D01*
X144282187Y-85892809D01*
X144167093Y-85806649D01*
X144167086Y-85806645D01*
X144032379Y-85756403D01*
X144032372Y-85756401D01*
X143972844Y-85750000D01*
X143325000Y-85750000D01*
X143325000Y-86500000D01*
X142825000Y-86500000D01*
X142825000Y-85750000D01*
X142177155Y-85750000D01*
X142117627Y-85756401D01*
X142117620Y-85756403D01*
X141982913Y-85806645D01*
X141982906Y-85806649D01*
X141867812Y-85892809D01*
X141867809Y-85892812D01*
X141781649Y-86007906D01*
X141781645Y-86007913D01*
X141731403Y-86142620D01*
X141731401Y-86142627D01*
X141725000Y-86202155D01*
X133720194Y-86202155D01*
X133711787Y-86127544D01*
X133711786Y-86127542D01*
X133711786Y-86127539D01*
X133657789Y-85973225D01*
X133570808Y-85834796D01*
X133478693Y-85742681D01*
X133445208Y-85681358D01*
X133450192Y-85611666D01*
X133478693Y-85567319D01*
X133516197Y-85529815D01*
X133570808Y-85475204D01*
X133657789Y-85336775D01*
X133711786Y-85182461D01*
X133711787Y-85182455D01*
X133730091Y-85020003D01*
X133730091Y-85019996D01*
X133711787Y-84857544D01*
X133711786Y-84857542D01*
X133711786Y-84857539D01*
X133657789Y-84703225D01*
X133570808Y-84564796D01*
X133455204Y-84449192D01*
X133397475Y-84412918D01*
X133351185Y-84360584D01*
X133340537Y-84291530D01*
X133368912Y-84227682D01*
X133375757Y-84220254D01*
X133393308Y-84202704D01*
X133480289Y-84064275D01*
X133490884Y-84033996D01*
X156588908Y-84033996D01*
X156588908Y-84034003D01*
X156607211Y-84196455D01*
X156661209Y-84350774D01*
X156700258Y-84412919D01*
X156748191Y-84489204D01*
X156863795Y-84604808D01*
X157002224Y-84691789D01*
X157156538Y-84745786D01*
X157156541Y-84745786D01*
X157156543Y-84745787D01*
X157318995Y-84764091D01*
X157318999Y-84764091D01*
X157319003Y-84764091D01*
X157481454Y-84745787D01*
X157481455Y-84745786D01*
X157481460Y-84745786D01*
X157635774Y-84691789D01*
X157774203Y-84604808D01*
X157889807Y-84489204D01*
X157976788Y-84350775D01*
X158030785Y-84196461D01*
X158030786Y-84196455D01*
X158049090Y-84034003D01*
X158049090Y-84033996D01*
X158030786Y-83871544D01*
X158030785Y-83871542D01*
X158030785Y-83871539D01*
X157976788Y-83717225D01*
X157889807Y-83578796D01*
X157774203Y-83463192D01*
X157722532Y-83430725D01*
X157635773Y-83376210D01*
X157481454Y-83322212D01*
X157319003Y-83303909D01*
X157318995Y-83303909D01*
X157156543Y-83322212D01*
X157002224Y-83376210D01*
X156863794Y-83463192D01*
X156748191Y-83578795D01*
X156661209Y-83717225D01*
X156607211Y-83871544D01*
X156588908Y-84033996D01*
X133490884Y-84033996D01*
X133534286Y-83909961D01*
X133537746Y-83879254D01*
X133552591Y-83747503D01*
X133552591Y-83747496D01*
X133534287Y-83585044D01*
X133534286Y-83585042D01*
X133534286Y-83585039D01*
X133480289Y-83430725D01*
X133393308Y-83292296D01*
X133345732Y-83244720D01*
X133312247Y-83183397D01*
X133317231Y-83113705D01*
X133351285Y-83066737D01*
X133350280Y-83065732D01*
X133386797Y-83029215D01*
X133470808Y-82945204D01*
X133557789Y-82806775D01*
X133611786Y-82652461D01*
X133614263Y-82630476D01*
X133630091Y-82490003D01*
X133630091Y-82489996D01*
X133611787Y-82327544D01*
X133611786Y-82327542D01*
X133611786Y-82327539D01*
X133557789Y-82173225D01*
X133470808Y-82034796D01*
X133363693Y-81927681D01*
X133330208Y-81866358D01*
X133335192Y-81796666D01*
X133363693Y-81752319D01*
X133407334Y-81708678D01*
X133470808Y-81645204D01*
X133557789Y-81506775D01*
X133611786Y-81352461D01*
X133617697Y-81300000D01*
X133630091Y-81190003D01*
X133630091Y-81189996D01*
X133611787Y-81027544D01*
X133611786Y-81027542D01*
X133611786Y-81027539D01*
X133557789Y-80873225D01*
X133470808Y-80734796D01*
X133381193Y-80645181D01*
X133347708Y-80583858D01*
X133352692Y-80514166D01*
X133381193Y-80469819D01*
X133434238Y-80416774D01*
X133495808Y-80355204D01*
X133582789Y-80216775D01*
X133636786Y-80062461D01*
X133650861Y-79937544D01*
X133655091Y-79900003D01*
X133655091Y-79899996D01*
X133636787Y-79737544D01*
X133636786Y-79737542D01*
X133636786Y-79737539D01*
X133582789Y-79583225D01*
X133495808Y-79444796D01*
X133438693Y-79387681D01*
X133405208Y-79326358D01*
X133410192Y-79256666D01*
X133438693Y-79212319D01*
X133474248Y-79176764D01*
X133545808Y-79105204D01*
X133632789Y-78966775D01*
X133686786Y-78812461D01*
X133686787Y-78812455D01*
X133705091Y-78650003D01*
X133705091Y-78649996D01*
X133686787Y-78487544D01*
X133686786Y-78487542D01*
X133686786Y-78487539D01*
X133632789Y-78333225D01*
X133545808Y-78194796D01*
X133430204Y-78079192D01*
X133425280Y-78074268D01*
X133426373Y-78073174D01*
X133390959Y-78022717D01*
X133388110Y-77952906D01*
X133420731Y-77895280D01*
X133470808Y-77845204D01*
X133557789Y-77706775D01*
X133611786Y-77552461D01*
X133611787Y-77552455D01*
X133630091Y-77390003D01*
X133630091Y-77389996D01*
X133611787Y-77227544D01*
X133611786Y-77227542D01*
X133611786Y-77227539D01*
X133557789Y-77073225D01*
X133470808Y-76934796D01*
X133381193Y-76845181D01*
X133347708Y-76783858D01*
X133352692Y-76714166D01*
X133381193Y-76669819D01*
X133413473Y-76637539D01*
X133495808Y-76555204D01*
X133582789Y-76416775D01*
X133636786Y-76262461D01*
X133640535Y-76229192D01*
X133655091Y-76100003D01*
X133655091Y-76099996D01*
X133636787Y-75937544D01*
X133636786Y-75937542D01*
X133636786Y-75937539D01*
X133582789Y-75783225D01*
X133495808Y-75644796D01*
X133380204Y-75529192D01*
X133332948Y-75499499D01*
X133241774Y-75442210D01*
X133087455Y-75388212D01*
X132925004Y-75369909D01*
X132924996Y-75369909D01*
X132762544Y-75388212D01*
X132608225Y-75442210D01*
X132547298Y-75480494D01*
X132481326Y-75499500D01*
X111486669Y-75499500D01*
X111486653Y-75499499D01*
X111479057Y-75499499D01*
X111320943Y-75499499D01*
X111213587Y-75528265D01*
X111168210Y-75540424D01*
X111168209Y-75540425D01*
X111126221Y-75564668D01*
X111126219Y-75564669D01*
X111031290Y-75619475D01*
X111031282Y-75619481D01*
X110953026Y-75697738D01*
X110919480Y-75731284D01*
X110919478Y-75731286D01*
X109936599Y-76714166D01*
X108987584Y-77663181D01*
X108926261Y-77696666D01*
X108899903Y-77699500D01*
X108749097Y-77699500D01*
X108682058Y-77679815D01*
X108636303Y-77627011D01*
X108626359Y-77557853D01*
X108655384Y-77494297D01*
X108661416Y-77487819D01*
X111037416Y-75111819D01*
X111098739Y-75078334D01*
X111125097Y-75075500D01*
X142959903Y-75075500D01*
X143026942Y-75095185D01*
X143047584Y-75111819D01*
X150934298Y-82998533D01*
X150967783Y-83059856D01*
X150969837Y-83072330D01*
X150979630Y-83159249D01*
X151039210Y-83329521D01*
X151135184Y-83482262D01*
X151262738Y-83609816D01*
X151353080Y-83666582D01*
X151406269Y-83700003D01*
X151415478Y-83705789D01*
X151585745Y-83765368D01*
X151585750Y-83765369D01*
X151764996Y-83785565D01*
X151765000Y-83785565D01*
X151765004Y-83785565D01*
X151944249Y-83765369D01*
X151944252Y-83765368D01*
X151944255Y-83765368D01*
X152114522Y-83705789D01*
X152267262Y-83609816D01*
X152394816Y-83482262D01*
X152490789Y-83329522D01*
X152550368Y-83159255D01*
X152551749Y-83147000D01*
X152570565Y-82980003D01*
X152570565Y-82979996D01*
X152550369Y-82800750D01*
X152550368Y-82800745D01*
X152490788Y-82630476D01*
X152420638Y-82518834D01*
X152394816Y-82477738D01*
X152267262Y-82350184D01*
X152231223Y-82327539D01*
X152114521Y-82254210D01*
X151944249Y-82194630D01*
X151857330Y-82184837D01*
X151792916Y-82157770D01*
X151783533Y-82149298D01*
X143747590Y-74113355D01*
X143747588Y-74113352D01*
X143628717Y-73994481D01*
X143628709Y-73994475D01*
X143535087Y-73940423D01*
X143535085Y-73940422D01*
X143491790Y-73915425D01*
X143491789Y-73915424D01*
X143479263Y-73912067D01*
X143339057Y-73874499D01*
X143180943Y-73874499D01*
X143173347Y-73874499D01*
X143173331Y-73874500D01*
X135987924Y-73874500D01*
X135920885Y-73854815D01*
X135875130Y-73802011D01*
X135865186Y-73732853D01*
X135894211Y-73669297D01*
X135946968Y-73633459D01*
X136091775Y-73582789D01*
X136230204Y-73495808D01*
X136345808Y-73380204D01*
X136432789Y-73241775D01*
X136486786Y-73087461D01*
X136486787Y-73087455D01*
X136505091Y-72925003D01*
X136505091Y-72924996D01*
X136486787Y-72762544D01*
X136486786Y-72762542D01*
X136486786Y-72762539D01*
X136470309Y-72715453D01*
X136466749Y-72645675D01*
X136501478Y-72585048D01*
X136563472Y-72552821D01*
X136587352Y-72550500D01*
X137581326Y-72550500D01*
X137647297Y-72569505D01*
X137708225Y-72607789D01*
X137862539Y-72661786D01*
X137862542Y-72661786D01*
X137862544Y-72661787D01*
X138024996Y-72680091D01*
X138025000Y-72680091D01*
X138025004Y-72680091D01*
X138187455Y-72661787D01*
X138187456Y-72661786D01*
X138187461Y-72661786D01*
X138341775Y-72607789D01*
X138480204Y-72520808D01*
X138595808Y-72405204D01*
X138682789Y-72266775D01*
X138736786Y-72112461D01*
X138737240Y-72108434D01*
X138755091Y-71950003D01*
X138755091Y-71949996D01*
X138736787Y-71787544D01*
X138736786Y-71787542D01*
X138736786Y-71787539D01*
X138682789Y-71633225D01*
X138595808Y-71494796D01*
X138480204Y-71379192D01*
X138410430Y-71335350D01*
X138364140Y-71283016D01*
X138353492Y-71213963D01*
X138381867Y-71150114D01*
X138440256Y-71111742D01*
X138476949Y-71106358D01*
X149516600Y-71155334D01*
X149658200Y-71135750D01*
X149724934Y-71116611D01*
X149808723Y-71079076D01*
X149877951Y-71069634D01*
X149925335Y-71091689D01*
X149930173Y-71039151D01*
X149973177Y-70984084D01*
X149979244Y-70979998D01*
X150316532Y-70767114D01*
X150383730Y-70747979D01*
X150450607Y-70768211D01*
X150495928Y-70821388D01*
X150505305Y-70890625D01*
X150475762Y-70953942D01*
X150470402Y-70959650D01*
X150390902Y-71039151D01*
X150316775Y-71113278D01*
X150255452Y-71146762D01*
X150242988Y-71148815D01*
X150235752Y-71149630D01*
X150235741Y-71149633D01*
X150086399Y-71201889D01*
X150016621Y-71205450D01*
X149978458Y-71183589D01*
X149978137Y-71228036D01*
X149939938Y-71286539D01*
X149925391Y-71297233D01*
X149912739Y-71305182D01*
X149785184Y-71432737D01*
X149689211Y-71585476D01*
X149629631Y-71755745D01*
X149629630Y-71755750D01*
X149609435Y-71934996D01*
X149609435Y-71935003D01*
X149629630Y-72114249D01*
X149629631Y-72114254D01*
X149689211Y-72284523D01*
X149772945Y-72417784D01*
X149785184Y-72437262D01*
X149912738Y-72564816D01*
X150065478Y-72660789D01*
X150155094Y-72692147D01*
X150235745Y-72720368D01*
X150235750Y-72720369D01*
X150414996Y-72740565D01*
X150415000Y-72740565D01*
X150415004Y-72740565D01*
X150594249Y-72720369D01*
X150594252Y-72720368D01*
X150594255Y-72720368D01*
X150764522Y-72660789D01*
X150917262Y-72564816D01*
X151044816Y-72437262D01*
X151140789Y-72284522D01*
X151200368Y-72114255D01*
X151200777Y-72110622D01*
X151201696Y-72108434D01*
X151201917Y-72107468D01*
X151202086Y-72107506D01*
X151227840Y-72046208D01*
X151285433Y-72006650D01*
X151323998Y-72000500D01*
X153464071Y-72000500D01*
X153548615Y-71983682D01*
X153589744Y-71975501D01*
X153708127Y-71926465D01*
X153747625Y-71900073D01*
X153814300Y-71879195D01*
X153881680Y-71897679D01*
X153928371Y-71949657D01*
X153939549Y-72018627D01*
X153911664Y-72082691D01*
X153904196Y-72090856D01*
X151531873Y-74463181D01*
X151470550Y-74496666D01*
X151444192Y-74499500D01*
X147745983Y-74499500D01*
X147680011Y-74480494D01*
X147574522Y-74414210D01*
X147574518Y-74414209D01*
X147404262Y-74354633D01*
X147404249Y-74354630D01*
X147225004Y-74334435D01*
X147224996Y-74334435D01*
X147045750Y-74354630D01*
X147045745Y-74354631D01*
X146875476Y-74414211D01*
X146722737Y-74510184D01*
X146595184Y-74637737D01*
X146499211Y-74790476D01*
X146439631Y-74960745D01*
X146439630Y-74960750D01*
X146419435Y-75139996D01*
X146419435Y-75140003D01*
X146439630Y-75319249D01*
X146439631Y-75319254D01*
X146499211Y-75489523D01*
X146546428Y-75564668D01*
X146595184Y-75642262D01*
X146722738Y-75769816D01*
X146801819Y-75819506D01*
X146851110Y-75850478D01*
X146875478Y-75865789D01*
X147045739Y-75925366D01*
X147045745Y-75925368D01*
X147045750Y-75925369D01*
X147224996Y-75945565D01*
X147225000Y-75945565D01*
X147225004Y-75945565D01*
X147404249Y-75925369D01*
X147404251Y-75925368D01*
X147404255Y-75925368D01*
X147404258Y-75925366D01*
X147404262Y-75925366D01*
X147494377Y-75893832D01*
X147574522Y-75865789D01*
X147648181Y-75819505D01*
X147714153Y-75800500D01*
X151829071Y-75800500D01*
X151915914Y-75783225D01*
X151954744Y-75775501D01*
X152073127Y-75726465D01*
X152093734Y-75712696D01*
X152179669Y-75655277D01*
X152734950Y-75099996D01*
X154094435Y-75099996D01*
X154094435Y-75100003D01*
X154114630Y-75279249D01*
X154114631Y-75279254D01*
X154174211Y-75449523D01*
X154258727Y-75584028D01*
X154277727Y-75651264D01*
X154258727Y-75715972D01*
X154174211Y-75850476D01*
X154114631Y-76020745D01*
X154114630Y-76020750D01*
X154094435Y-76199996D01*
X154094435Y-76200003D01*
X154114630Y-76379249D01*
X154114631Y-76379254D01*
X154174211Y-76549523D01*
X154195578Y-76583528D01*
X154270184Y-76702262D01*
X154397738Y-76829816D01*
X154550478Y-76925789D01*
X154655281Y-76962461D01*
X154720745Y-76985368D01*
X154720750Y-76985369D01*
X154899996Y-77005565D01*
X154900000Y-77005565D01*
X154900004Y-77005565D01*
X155079249Y-76985369D01*
X155079252Y-76985368D01*
X155079255Y-76985368D01*
X155249522Y-76925789D01*
X155402262Y-76829816D01*
X155529816Y-76702262D01*
X155604422Y-76583526D01*
X155656756Y-76537237D01*
X155709415Y-76525500D01*
X177614548Y-76525500D01*
X177681587Y-76545185D01*
X177702229Y-76561819D01*
X186086016Y-84945606D01*
X186086045Y-84945637D01*
X186176263Y-85035855D01*
X186176267Y-85035858D01*
X186278707Y-85104307D01*
X186278713Y-85104310D01*
X186278714Y-85104311D01*
X186392548Y-85151463D01*
X186452971Y-85163481D01*
X186513393Y-85175500D01*
X186513394Y-85175500D01*
X187535649Y-85175500D01*
X187602688Y-85195185D01*
X187647369Y-85245698D01*
X187649210Y-85249520D01*
X187649211Y-85249522D01*
X187745184Y-85402262D01*
X187872738Y-85529816D01*
X187932424Y-85567319D01*
X188017060Y-85620500D01*
X188025478Y-85625789D01*
X188184285Y-85681358D01*
X188195745Y-85685368D01*
X188195750Y-85685369D01*
X188374996Y-85705565D01*
X188375000Y-85705565D01*
X188375004Y-85705565D01*
X188554249Y-85685369D01*
X188554252Y-85685368D01*
X188554255Y-85685368D01*
X188724522Y-85625789D01*
X188877262Y-85529816D01*
X189004816Y-85402262D01*
X189100789Y-85249522D01*
X189160368Y-85079255D01*
X189167044Y-85020003D01*
X189180565Y-84900003D01*
X189180565Y-84899996D01*
X189160369Y-84720750D01*
X189160368Y-84720745D01*
X189126947Y-84625233D01*
X189100789Y-84550478D01*
X189004816Y-84397738D01*
X189004815Y-84397737D01*
X189001290Y-84392127D01*
X188982290Y-84324891D01*
X189002658Y-84258055D01*
X189018599Y-84238478D01*
X189054816Y-84202262D01*
X189150789Y-84049522D01*
X189210368Y-83879255D01*
X189211237Y-83871544D01*
X189230565Y-83700003D01*
X189230565Y-83699996D01*
X189210369Y-83520750D01*
X189210368Y-83520745D01*
X189190229Y-83463192D01*
X189150789Y-83350478D01*
X189137621Y-83329522D01*
X189054815Y-83197737D01*
X188927262Y-83070184D01*
X188774523Y-82974211D01*
X188604254Y-82914631D01*
X188604249Y-82914630D01*
X188425004Y-82894435D01*
X188424996Y-82894435D01*
X188245750Y-82914630D01*
X188245745Y-82914631D01*
X188075476Y-82974211D01*
X187922737Y-83070184D01*
X187795184Y-83197737D01*
X187699210Y-83350479D01*
X187697369Y-83354302D01*
X187695523Y-83356345D01*
X187695506Y-83356374D01*
X187695501Y-83356370D01*
X187650546Y-83406162D01*
X187585649Y-83424500D01*
X187135452Y-83424500D01*
X187068413Y-83404815D01*
X187047771Y-83388181D01*
X178665198Y-75005608D01*
X178665178Y-75005586D01*
X178573733Y-74914141D01*
X178522509Y-74879915D01*
X178471286Y-74845688D01*
X178471283Y-74845686D01*
X178471282Y-74845686D01*
X178471281Y-74845685D01*
X178369951Y-74803714D01*
X178357455Y-74798538D01*
X178357453Y-74798537D01*
X178357452Y-74798537D01*
X178297029Y-74786518D01*
X178236610Y-74774500D01*
X178236607Y-74774500D01*
X178236606Y-74774500D01*
X155709415Y-74774500D01*
X155642376Y-74754815D01*
X155604422Y-74716473D01*
X155529816Y-74597738D01*
X155402262Y-74470184D01*
X155313182Y-74414211D01*
X155249523Y-74374211D01*
X155079254Y-74314631D01*
X155079249Y-74314630D01*
X154900004Y-74294435D01*
X154899996Y-74294435D01*
X154720750Y-74314630D01*
X154720745Y-74314631D01*
X154550476Y-74374211D01*
X154397737Y-74470184D01*
X154270184Y-74597737D01*
X154174211Y-74750476D01*
X154114631Y-74920745D01*
X154114630Y-74920750D01*
X154094435Y-75099996D01*
X152734950Y-75099996D01*
X156048127Y-71786819D01*
X156109450Y-71753334D01*
X156135808Y-71750500D01*
X167828025Y-71750500D01*
X167895064Y-71770185D01*
X167900910Y-71774182D01*
X168052265Y-71884148D01*
X168052270Y-71884151D01*
X168225192Y-71961142D01*
X168225193Y-71961142D01*
X168225197Y-71961144D01*
X168385114Y-71995135D01*
X168446596Y-72028327D01*
X168480373Y-72089490D01*
X168475721Y-72159204D01*
X168434117Y-72215337D01*
X168432220Y-72216743D01*
X168349127Y-72277113D01*
X168222466Y-72417785D01*
X168127821Y-72581715D01*
X168127818Y-72581722D01*
X168071289Y-72755703D01*
X168069326Y-72761744D01*
X168049540Y-72950000D01*
X168069326Y-73138256D01*
X168069327Y-73138259D01*
X168127818Y-73318277D01*
X168127821Y-73318284D01*
X168222467Y-73482216D01*
X168249122Y-73511819D01*
X168349129Y-73622888D01*
X168502265Y-73734148D01*
X168502270Y-73734151D01*
X168675192Y-73811142D01*
X168675197Y-73811144D01*
X168860354Y-73850500D01*
X168860355Y-73850500D01*
X169049644Y-73850500D01*
X169049646Y-73850500D01*
X169234803Y-73811144D01*
X169407730Y-73734151D01*
X169560871Y-73622888D01*
X169687533Y-73482216D01*
X169782179Y-73318284D01*
X169840674Y-73138256D01*
X169860460Y-72950000D01*
X169840674Y-72761744D01*
X169782179Y-72581716D01*
X169687533Y-72417784D01*
X169560871Y-72277112D01*
X169560870Y-72277111D01*
X169407734Y-72165851D01*
X169407729Y-72165848D01*
X169234807Y-72088857D01*
X169234802Y-72088855D01*
X169074884Y-72054864D01*
X169013402Y-72021672D01*
X168979626Y-71960509D01*
X168984278Y-71890794D01*
X169025883Y-71834662D01*
X169027701Y-71833313D01*
X169110871Y-71772888D01*
X169110871Y-71772887D01*
X169116130Y-71769067D01*
X169117066Y-71770355D01*
X169168230Y-71744699D01*
X169264744Y-71725501D01*
X169383127Y-71676465D01*
X169489669Y-71605276D01*
X169580276Y-71514669D01*
X169651465Y-71408127D01*
X169700501Y-71289744D01*
X169712776Y-71228036D01*
X169725500Y-71164071D01*
X169725500Y-71035928D01*
X169700502Y-70910261D01*
X169700501Y-70910260D01*
X169700501Y-70910256D01*
X169651465Y-70791873D01*
X169651464Y-70791872D01*
X169651461Y-70791866D01*
X169580276Y-70685331D01*
X169580273Y-70685327D01*
X169489672Y-70594726D01*
X169489668Y-70594723D01*
X169383133Y-70523538D01*
X169383124Y-70523533D01*
X169264744Y-70474499D01*
X169264738Y-70474497D01*
X169168230Y-70455300D01*
X169117062Y-70429647D01*
X169116129Y-70430932D01*
X168957734Y-70315851D01*
X168957729Y-70315848D01*
X168784807Y-70238857D01*
X168784802Y-70238855D01*
X168639001Y-70207865D01*
X168599646Y-70199500D01*
X168410354Y-70199500D01*
X168377897Y-70206398D01*
X168225197Y-70238855D01*
X168225192Y-70238857D01*
X168052270Y-70315848D01*
X168052265Y-70315851D01*
X167900910Y-70425818D01*
X167835104Y-70449298D01*
X167828025Y-70449500D01*
X155750929Y-70449500D01*
X155625261Y-70474497D01*
X155625255Y-70474499D01*
X155506874Y-70523534D01*
X155400326Y-70594726D01*
X155000337Y-70994715D01*
X154939014Y-71028200D01*
X154869322Y-71023216D01*
X154813389Y-70981344D01*
X154788972Y-70915880D01*
X154789436Y-70893150D01*
X154805565Y-70750002D01*
X154805565Y-70749996D01*
X154785369Y-70570750D01*
X154785368Y-70570745D01*
X154772805Y-70534841D01*
X154725789Y-70400478D01*
X154629816Y-70247738D01*
X154502262Y-70120184D01*
X154349523Y-70024211D01*
X154179254Y-69964631D01*
X154179249Y-69964630D01*
X154000004Y-69944435D01*
X153999996Y-69944435D01*
X153820750Y-69964630D01*
X153820745Y-69964631D01*
X153650476Y-70024211D01*
X153497737Y-70120184D01*
X153370184Y-70247737D01*
X153274210Y-70400478D01*
X153214632Y-70570744D01*
X153214630Y-70570752D01*
X153213815Y-70577988D01*
X153186742Y-70642400D01*
X153178285Y-70651767D01*
X153166880Y-70663174D01*
X153105560Y-70696664D01*
X153079191Y-70699500D01*
X150935926Y-70699500D01*
X150843836Y-70717818D01*
X150774244Y-70711591D01*
X150719067Y-70668728D01*
X150695823Y-70602838D01*
X150711891Y-70534841D01*
X150753459Y-70491342D01*
X154740861Y-67974639D01*
X154807045Y-67955500D01*
X171480941Y-67955500D01*
X171509165Y-67954710D01*
X171509181Y-67954709D01*
X171509184Y-67954709D01*
X171523025Y-67953934D01*
X171551193Y-67951566D01*
X171690433Y-67915320D01*
X171754856Y-67888275D01*
X171878242Y-67814270D01*
X172712433Y-67135467D01*
X173167752Y-66764962D01*
X178344909Y-66764962D01*
X178344909Y-66764969D01*
X178363212Y-66927421D01*
X178417210Y-67081740D01*
X178425773Y-67095368D01*
X178504192Y-67220170D01*
X178619796Y-67335774D01*
X178758225Y-67422755D01*
X178912539Y-67476752D01*
X178912542Y-67476752D01*
X178912544Y-67476753D01*
X179074996Y-67495057D01*
X179075000Y-67495057D01*
X179075004Y-67495057D01*
X179237455Y-67476753D01*
X179237456Y-67476752D01*
X179237461Y-67476752D01*
X179391775Y-67422755D01*
X179530204Y-67335774D01*
X179645808Y-67220170D01*
X179646859Y-67218498D01*
X179647819Y-67217648D01*
X179650155Y-67214720D01*
X179650667Y-67215128D01*
X179699191Y-67172205D01*
X179751855Y-67160466D01*
X184979105Y-67160466D01*
X185063649Y-67143648D01*
X185104778Y-67135467D01*
X185223161Y-67086431D01*
X185262718Y-67060000D01*
X185329703Y-67015243D01*
X186673224Y-65671720D01*
X186734545Y-65638237D01*
X186747019Y-65636183D01*
X186754255Y-65635368D01*
X186924522Y-65575789D01*
X187077262Y-65479816D01*
X187204816Y-65352262D01*
X187300789Y-65199522D01*
X187360368Y-65029255D01*
X187363706Y-64999630D01*
X187380565Y-64850003D01*
X187380565Y-64849996D01*
X187361687Y-64682451D01*
X187360368Y-64670745D01*
X187300789Y-64500478D01*
X187204816Y-64347738D01*
X187077262Y-64220184D01*
X187007684Y-64176465D01*
X186924523Y-64124211D01*
X186754254Y-64064631D01*
X186754249Y-64064630D01*
X186648537Y-64052720D01*
X186584123Y-64025654D01*
X186576132Y-64014019D01*
X186522515Y-64048477D01*
X186501463Y-64052720D01*
X186395750Y-64064630D01*
X186395745Y-64064631D01*
X186225476Y-64124211D01*
X186072737Y-64220184D01*
X185945184Y-64347737D01*
X185849210Y-64500478D01*
X185803387Y-64631433D01*
X185795403Y-64654254D01*
X185789633Y-64670743D01*
X185789630Y-64670752D01*
X185788815Y-64677988D01*
X185761743Y-64742400D01*
X185753277Y-64751775D01*
X184681907Y-65823147D01*
X184620584Y-65856632D01*
X184594226Y-65859466D01*
X179265929Y-65859466D01*
X179140261Y-65884463D01*
X179140255Y-65884465D01*
X179021870Y-65933501D01*
X178915335Y-66004686D01*
X178915331Y-66004689D01*
X178862250Y-66057768D01*
X178815528Y-66087125D01*
X178758222Y-66107178D01*
X178619795Y-66194158D01*
X178504192Y-66309761D01*
X178417210Y-66448191D01*
X178363212Y-66602510D01*
X178344909Y-66764962D01*
X173167752Y-66764962D01*
X176770492Y-63833320D01*
X176834915Y-63806275D01*
X176848756Y-63805500D01*
X186487580Y-63805500D01*
X186554619Y-63825185D01*
X186573317Y-63846763D01*
X186578388Y-63838316D01*
X186641026Y-63807360D01*
X186662420Y-63805500D01*
X189374028Y-63805500D01*
X189374040Y-63805500D01*
X189378150Y-63805483D01*
X189380118Y-63805467D01*
X189384031Y-63805420D01*
X192410991Y-63757373D01*
X192514337Y-63745016D01*
X192563880Y-63733826D01*
X192662504Y-63700566D01*
X192783543Y-63622778D01*
X192836347Y-63577023D01*
X192930567Y-63468289D01*
X192990338Y-63337412D01*
X193010023Y-63270373D01*
X193010024Y-63270369D01*
X193030500Y-63127953D01*
X193030500Y-60904261D01*
X193026908Y-60847737D01*
X193026436Y-60840297D01*
X193026435Y-60840293D01*
X193026435Y-60840285D01*
X193022463Y-60809153D01*
X193019137Y-60791892D01*
X193010337Y-60746216D01*
X192999435Y-60720184D01*
X192954760Y-60613501D01*
X192946978Y-60600500D01*
X192918876Y-60553553D01*
X192828163Y-60441876D01*
X192828160Y-60441872D01*
X192828156Y-60441868D01*
X192828153Y-60441865D01*
X192208310Y-59869249D01*
X191853536Y-59541505D01*
X191820289Y-59513347D01*
X191803410Y-59500258D01*
X191770420Y-59476881D01*
X191746562Y-59454738D01*
X190954195Y-58496692D01*
X190926637Y-58432486D01*
X190925775Y-58420273D01*
X190925042Y-58385451D01*
X190731437Y-49189188D01*
X190728054Y-49140491D01*
X190725247Y-49116743D01*
X190717190Y-49068628D01*
X190666908Y-48933819D01*
X190633423Y-48872496D01*
X190547199Y-48757315D01*
X190547194Y-48757310D01*
X190547189Y-48757304D01*
X188739143Y-46949258D01*
X188739133Y-46949249D01*
X188739125Y-46949241D01*
X188697473Y-46911959D01*
X188697467Y-46911954D01*
X188697459Y-46911947D01*
X188676101Y-46894860D01*
X188676096Y-46894856D01*
X188630584Y-46862403D01*
X188630582Y-46862402D01*
X188630579Y-46862400D01*
X188499281Y-46803557D01*
X188434668Y-46785080D01*
X188432877Y-46784526D01*
X188432103Y-46784346D01*
X188432099Y-46784345D01*
X188432098Y-46784345D01*
X188328386Y-46770184D01*
X188289542Y-46764880D01*
X188289541Y-46764880D01*
X188268691Y-46765027D01*
X185578961Y-46784103D01*
X185578947Y-46784104D01*
X185503991Y-46790229D01*
X185481598Y-46793751D01*
X185467655Y-46795945D01*
X185467649Y-46795946D01*
X185467645Y-46795947D01*
X185394478Y-46813112D01*
X185264770Y-46875391D01*
X185264764Y-46875395D01*
X185206738Y-46914284D01*
X185206726Y-46914294D01*
X185099834Y-47010581D01*
X185099825Y-47010590D01*
X185070732Y-47045502D01*
X185012692Y-47084401D01*
X184942835Y-47085745D01*
X184931140Y-47081376D01*
X184931094Y-47081510D01*
X184754262Y-47019633D01*
X184754249Y-47019630D01*
X184575004Y-46999435D01*
X184574996Y-46999435D01*
X184395750Y-47019630D01*
X184395745Y-47019631D01*
X184225476Y-47079211D01*
X184096117Y-47160494D01*
X184030145Y-47179500D01*
X183387741Y-47179500D01*
X183387721Y-47179499D01*
X183381607Y-47179499D01*
X183258394Y-47179499D01*
X183157597Y-47199548D01*
X183157592Y-47199548D01*
X183137553Y-47203535D01*
X183137545Y-47203537D01*
X183096003Y-47220744D01*
X183096004Y-47220745D01*
X183023711Y-47250689D01*
X182921267Y-47319141D01*
X182921263Y-47319144D01*
X181709621Y-48530788D01*
X181326269Y-48914140D01*
X181326267Y-48914142D01*
X181290326Y-48950083D01*
X181239142Y-49001266D01*
X181224252Y-49023551D01*
X181209461Y-49045688D01*
X181170690Y-49103710D01*
X181170685Y-49103719D01*
X181143983Y-49168186D01*
X181123538Y-49217543D01*
X181123538Y-49217545D01*
X181123537Y-49217548D01*
X181101324Y-49329225D01*
X181099500Y-49338396D01*
X181099500Y-50855145D01*
X181080494Y-50921117D01*
X180999211Y-51050476D01*
X180939631Y-51220745D01*
X180939630Y-51220750D01*
X180919435Y-51399996D01*
X180919435Y-51400003D01*
X180939630Y-51579249D01*
X180939631Y-51579254D01*
X180999211Y-51749523D01*
X181095184Y-51902262D01*
X181222738Y-52029816D01*
X181375478Y-52125789D01*
X181545745Y-52185368D01*
X181545750Y-52185369D01*
X181724996Y-52205565D01*
X181725000Y-52205565D01*
X181725004Y-52205565D01*
X181904249Y-52185369D01*
X181904252Y-52185368D01*
X181904255Y-52185368D01*
X182074522Y-52125789D01*
X182227262Y-52029816D01*
X182354816Y-51902262D01*
X182450789Y-51749522D01*
X182510368Y-51579255D01*
X182510901Y-51574524D01*
X182530565Y-51400003D01*
X182530565Y-51399996D01*
X182510369Y-51220750D01*
X182510368Y-51220745D01*
X182481713Y-51138855D01*
X182450789Y-51050478D01*
X182369505Y-50921116D01*
X182350500Y-50855145D01*
X182350500Y-49710452D01*
X182370185Y-49643413D01*
X182386819Y-49622771D01*
X183542772Y-48466819D01*
X183604095Y-48433334D01*
X183630453Y-48430500D01*
X184030145Y-48430500D01*
X184096116Y-48449505D01*
X184225478Y-48530789D01*
X184263639Y-48544142D01*
X184395745Y-48590368D01*
X184395750Y-48590369D01*
X184574996Y-48610565D01*
X184575000Y-48610565D01*
X184575003Y-48610565D01*
X184715772Y-48594704D01*
X184784594Y-48606758D01*
X184827081Y-48641215D01*
X184900126Y-48733986D01*
X184914862Y-48752702D01*
X184914866Y-48752706D01*
X184914868Y-48752708D01*
X186789409Y-50537985D01*
X186824379Y-50598473D01*
X186827831Y-50623896D01*
X187071766Y-58411046D01*
X187054190Y-58478668D01*
X187039548Y-58498374D01*
X186289768Y-59322512D01*
X186230094Y-59358853D01*
X186197778Y-59363066D01*
X177858867Y-59345004D01*
X177791871Y-59325174D01*
X177778258Y-59314997D01*
X177754482Y-59294539D01*
X177534527Y-59105275D01*
X174764580Y-56721831D01*
X174737116Y-56699817D01*
X174737099Y-56699804D01*
X174723260Y-56689482D01*
X174710529Y-56680659D01*
X174694332Y-56669433D01*
X174563457Y-56609663D01*
X174550100Y-56605741D01*
X174496415Y-56589977D01*
X174496417Y-56589977D01*
X174496412Y-56589976D01*
X174427067Y-56580006D01*
X174353995Y-56569500D01*
X172574108Y-56569500D01*
X172574105Y-56569500D01*
X172527937Y-56571613D01*
X172527924Y-56571613D01*
X172527922Y-56571614D01*
X172527918Y-56571614D01*
X172527881Y-56571617D01*
X172505393Y-56573680D01*
X172505356Y-56573684D01*
X172459580Y-56580006D01*
X172459577Y-56580006D01*
X172459577Y-56580007D01*
X172323264Y-56626052D01*
X172323256Y-56626055D01*
X172323256Y-56626056D01*
X172260878Y-56657628D01*
X172260132Y-56658161D01*
X172143107Y-56740187D01*
X171956083Y-56915877D01*
X171893743Y-56947430D01*
X171871183Y-56949500D01*
X168833029Y-56949500D01*
X168707361Y-56974497D01*
X168707351Y-56974500D01*
X168658320Y-56994810D01*
X168588981Y-57023530D01*
X168588963Y-57023540D01*
X168482432Y-57094721D01*
X168482425Y-57094727D01*
X167663973Y-57913181D01*
X167602650Y-57946666D01*
X167576292Y-57949500D01*
X166992168Y-57949500D01*
X166926196Y-57930494D01*
X166836622Y-57874210D01*
X166836618Y-57874209D01*
X166666362Y-57814633D01*
X166666349Y-57814630D01*
X166487104Y-57794435D01*
X166487096Y-57794435D01*
X166307850Y-57814630D01*
X166307845Y-57814631D01*
X166137576Y-57874211D01*
X165984837Y-57970184D01*
X165857284Y-58097737D01*
X165761311Y-58250476D01*
X165701731Y-58420745D01*
X165701730Y-58420750D01*
X165681535Y-58599996D01*
X165681535Y-58600003D01*
X165701730Y-58779249D01*
X165701731Y-58779254D01*
X165742627Y-58896126D01*
X165746188Y-58965905D01*
X165711459Y-59026533D01*
X165691558Y-59042074D01*
X165662741Y-59060181D01*
X165662739Y-59060182D01*
X165535184Y-59187737D01*
X165439211Y-59340476D01*
X165379631Y-59510745D01*
X165379630Y-59510750D01*
X165359435Y-59689996D01*
X165359435Y-59690003D01*
X165379630Y-59869249D01*
X165379631Y-59869254D01*
X165439211Y-60039523D01*
X165467574Y-60084662D01*
X165535184Y-60192262D01*
X165662738Y-60319816D01*
X165815478Y-60415789D01*
X165985745Y-60475368D01*
X165985750Y-60475369D01*
X166164996Y-60495565D01*
X166165000Y-60495565D01*
X166165004Y-60495565D01*
X166344249Y-60475369D01*
X166344252Y-60475368D01*
X166344255Y-60475368D01*
X166514522Y-60415789D01*
X166667262Y-60319816D01*
X166794816Y-60192262D01*
X166890789Y-60039522D01*
X166950368Y-59869255D01*
X166950369Y-59869249D01*
X166970565Y-59690003D01*
X166970565Y-59689996D01*
X166950369Y-59510750D01*
X166950367Y-59510742D01*
X166917025Y-59415454D01*
X166913464Y-59345675D01*
X166948193Y-59285048D01*
X167010186Y-59252821D01*
X167034067Y-59250500D01*
X167961171Y-59250500D01*
X168051940Y-59232444D01*
X168086844Y-59225501D01*
X168205227Y-59176465D01*
X168243762Y-59150717D01*
X168311769Y-59105277D01*
X169130227Y-58286819D01*
X169191550Y-58253334D01*
X169217908Y-58250500D01*
X171061146Y-58250500D01*
X171128185Y-58270185D01*
X171173940Y-58322989D01*
X171185127Y-58376688D01*
X171124856Y-61792005D01*
X171103991Y-61858687D01*
X171077485Y-61887320D01*
X170739605Y-62152797D01*
X170739597Y-62152801D01*
X170083890Y-62668003D01*
X170019014Y-62693944D01*
X170007280Y-62694500D01*
X157643491Y-62694500D01*
X157576452Y-62674815D01*
X157566668Y-62667835D01*
X157509720Y-62622888D01*
X155896963Y-61349996D01*
X166481535Y-61349996D01*
X166481535Y-61350003D01*
X166501730Y-61529249D01*
X166501731Y-61529254D01*
X166561311Y-61699523D01*
X166639186Y-61823459D01*
X166657284Y-61852262D01*
X166784838Y-61979816D01*
X166937578Y-62075789D01*
X167034047Y-62109545D01*
X167107845Y-62135368D01*
X167107850Y-62135369D01*
X167287096Y-62155565D01*
X167287100Y-62155565D01*
X167287104Y-62155565D01*
X167466349Y-62135369D01*
X167466352Y-62135368D01*
X167466355Y-62135368D01*
X167636622Y-62075789D01*
X167789362Y-61979816D01*
X167916916Y-61852262D01*
X168012889Y-61699522D01*
X168072468Y-61529255D01*
X168072469Y-61529249D01*
X168092665Y-61350003D01*
X168092665Y-61349996D01*
X168072469Y-61170750D01*
X168072468Y-61170745D01*
X168031084Y-61052477D01*
X168012889Y-61000478D01*
X167996377Y-60974200D01*
X167952428Y-60904255D01*
X167916916Y-60847738D01*
X167789362Y-60720184D01*
X167636623Y-60624211D01*
X167466354Y-60564631D01*
X167466349Y-60564630D01*
X167287104Y-60544435D01*
X167287096Y-60544435D01*
X167107850Y-60564630D01*
X167107845Y-60564631D01*
X166937576Y-60624211D01*
X166784837Y-60720184D01*
X166657284Y-60847737D01*
X166561311Y-61000476D01*
X166501731Y-61170745D01*
X166501730Y-61170750D01*
X166481535Y-61349996D01*
X155896963Y-61349996D01*
X150220808Y-56870008D01*
X150180381Y-56813024D01*
X150177179Y-56743228D01*
X150209949Y-56684995D01*
X150644948Y-56249996D01*
X165666535Y-56249996D01*
X165666535Y-56250003D01*
X165686730Y-56429249D01*
X165686731Y-56429254D01*
X165746311Y-56599523D01*
X165811166Y-56702738D01*
X165842284Y-56752262D01*
X165969838Y-56879816D01*
X166027229Y-56915877D01*
X166120526Y-56974500D01*
X166122578Y-56975789D01*
X166259043Y-57023540D01*
X166292845Y-57035368D01*
X166292850Y-57035369D01*
X166472096Y-57055565D01*
X166472100Y-57055565D01*
X166472104Y-57055565D01*
X166651349Y-57035369D01*
X166651352Y-57035368D01*
X166651355Y-57035368D01*
X166821622Y-56975789D01*
X166974362Y-56879816D01*
X167101916Y-56752262D01*
X167197889Y-56599522D01*
X167257468Y-56429255D01*
X167257469Y-56429249D01*
X167277665Y-56250003D01*
X167277665Y-56249996D01*
X167257469Y-56070750D01*
X167257468Y-56070745D01*
X167237927Y-56014901D01*
X167197889Y-55900478D01*
X167101916Y-55747738D01*
X166974362Y-55620184D01*
X166863461Y-55550500D01*
X166821623Y-55524211D01*
X166651354Y-55464631D01*
X166651349Y-55464630D01*
X166472104Y-55444435D01*
X166472096Y-55444435D01*
X166292850Y-55464630D01*
X166292845Y-55464631D01*
X166122576Y-55524211D01*
X165969837Y-55620184D01*
X165842284Y-55747737D01*
X165746311Y-55900476D01*
X165686731Y-56070745D01*
X165686730Y-56070750D01*
X165666535Y-56249996D01*
X150644948Y-56249996D01*
X152719949Y-54174996D01*
X162481535Y-54174996D01*
X162481535Y-54175003D01*
X162501730Y-54354249D01*
X162501731Y-54354254D01*
X162561311Y-54524523D01*
X162568531Y-54536013D01*
X162657284Y-54677262D01*
X162784838Y-54804816D01*
X162858002Y-54850788D01*
X162913035Y-54885368D01*
X162937578Y-54900789D01*
X163022673Y-54930565D01*
X163107845Y-54960368D01*
X163107850Y-54960369D01*
X163287096Y-54980565D01*
X163287100Y-54980565D01*
X163287104Y-54980565D01*
X163466349Y-54960369D01*
X163466352Y-54960368D01*
X163466355Y-54960368D01*
X163636622Y-54900789D01*
X163789362Y-54804816D01*
X163916916Y-54677262D01*
X164005669Y-54536011D01*
X164058002Y-54489721D01*
X164127056Y-54479072D01*
X164190904Y-54507447D01*
X164215655Y-54536011D01*
X164257282Y-54602260D01*
X164257284Y-54602262D01*
X164384838Y-54729816D01*
X164537578Y-54825789D01*
X164609024Y-54850789D01*
X164707845Y-54885368D01*
X164707850Y-54885369D01*
X164887096Y-54905565D01*
X164887100Y-54905565D01*
X164887104Y-54905565D01*
X165066349Y-54885369D01*
X165066352Y-54885368D01*
X165066355Y-54885368D01*
X165236622Y-54825789D01*
X165389362Y-54729816D01*
X165516916Y-54602262D01*
X165574252Y-54511011D01*
X165626585Y-54464721D01*
X165695638Y-54454072D01*
X165759487Y-54482447D01*
X165784239Y-54511012D01*
X165799947Y-54536011D01*
X165857284Y-54627262D01*
X165984838Y-54754816D01*
X166137578Y-54850789D01*
X166236399Y-54885368D01*
X166307845Y-54910368D01*
X166307850Y-54910369D01*
X166487096Y-54930565D01*
X166487100Y-54930565D01*
X166487104Y-54930565D01*
X166666349Y-54910369D01*
X166666352Y-54910368D01*
X166666355Y-54910368D01*
X166836622Y-54850789D01*
X166989362Y-54754816D01*
X166991919Y-54752259D01*
X166993977Y-54751135D01*
X166994805Y-54750475D01*
X166994920Y-54750619D01*
X167053242Y-54718774D01*
X167122934Y-54723758D01*
X167167281Y-54752259D01*
X167194838Y-54779816D01*
X167347578Y-54875789D01*
X167419024Y-54900789D01*
X167517845Y-54935368D01*
X167517850Y-54935369D01*
X167697096Y-54955565D01*
X167697100Y-54955565D01*
X167697104Y-54955565D01*
X167876349Y-54935369D01*
X167876352Y-54935368D01*
X167876355Y-54935368D01*
X168046622Y-54875789D01*
X168199362Y-54779816D01*
X168326916Y-54652262D01*
X168422889Y-54499522D01*
X168482468Y-54329255D01*
X168485907Y-54298733D01*
X168502665Y-54150003D01*
X168502665Y-54149996D01*
X168482469Y-53970750D01*
X168482468Y-53970745D01*
X168462833Y-53914631D01*
X168422889Y-53800478D01*
X168407180Y-53775478D01*
X168382624Y-53736396D01*
X168326916Y-53647738D01*
X168199362Y-53520184D01*
X168119788Y-53470184D01*
X168046623Y-53424211D01*
X167876354Y-53364631D01*
X167876349Y-53364630D01*
X167697104Y-53344435D01*
X167697096Y-53344435D01*
X167517850Y-53364630D01*
X167517845Y-53364631D01*
X167347576Y-53424211D01*
X167194837Y-53520184D01*
X167192281Y-53522741D01*
X167190222Y-53523864D01*
X167189395Y-53524525D01*
X167189279Y-53524380D01*
X167130958Y-53556226D01*
X167061266Y-53551242D01*
X167016919Y-53522741D01*
X166989362Y-53495184D01*
X166836623Y-53399211D01*
X166666354Y-53339631D01*
X166666349Y-53339630D01*
X166487104Y-53319435D01*
X166487096Y-53319435D01*
X166307850Y-53339630D01*
X166307845Y-53339631D01*
X166137576Y-53399211D01*
X165984837Y-53495184D01*
X165857282Y-53622739D01*
X165799947Y-53713988D01*
X165747613Y-53760278D01*
X165678559Y-53770926D01*
X165614711Y-53742551D01*
X165589960Y-53713987D01*
X165574136Y-53688803D01*
X165516916Y-53597738D01*
X165389362Y-53470184D01*
X165349694Y-53445259D01*
X165236623Y-53374211D01*
X165066354Y-53314631D01*
X165066349Y-53314630D01*
X164887104Y-53294435D01*
X164887096Y-53294435D01*
X164707850Y-53314630D01*
X164707845Y-53314631D01*
X164537576Y-53374211D01*
X164384837Y-53470184D01*
X164257284Y-53597737D01*
X164168531Y-53738987D01*
X164116196Y-53785278D01*
X164047142Y-53795926D01*
X163983294Y-53767551D01*
X163958543Y-53738987D01*
X163921917Y-53680697D01*
X163916916Y-53672738D01*
X163789362Y-53545184D01*
X163769876Y-53532940D01*
X163636623Y-53449211D01*
X163466354Y-53389631D01*
X163466349Y-53389630D01*
X163287104Y-53369435D01*
X163287096Y-53369435D01*
X163107850Y-53389630D01*
X163107845Y-53389631D01*
X162937576Y-53449211D01*
X162784837Y-53545184D01*
X162657284Y-53672737D01*
X162561311Y-53825476D01*
X162501731Y-53995745D01*
X162501730Y-53995750D01*
X162481535Y-54174996D01*
X152719949Y-54174996D01*
X153605276Y-53289670D01*
X153647871Y-53225922D01*
X153676464Y-53183129D01*
X153680158Y-53174211D01*
X153725501Y-53064744D01*
X153725503Y-53064738D01*
X153728528Y-53049525D01*
X153728529Y-53049522D01*
X153750500Y-52939071D01*
X153750500Y-51730067D01*
X153769507Y-51664094D01*
X153825788Y-51574524D01*
X153863138Y-51467784D01*
X153885368Y-51404255D01*
X153885847Y-51400003D01*
X153905565Y-51225003D01*
X153905565Y-51224996D01*
X153885369Y-51045750D01*
X153885368Y-51045745D01*
X153841759Y-50921117D01*
X153825789Y-50875478D01*
X153729816Y-50722738D01*
X153602262Y-50595184D01*
X153577804Y-50579816D01*
X153449523Y-50499211D01*
X153279254Y-50439631D01*
X153279249Y-50439630D01*
X153100004Y-50419435D01*
X153099996Y-50419435D01*
X152920750Y-50439630D01*
X152920745Y-50439631D01*
X152750476Y-50499211D01*
X152597737Y-50595184D01*
X152470184Y-50722737D01*
X152374211Y-50875476D01*
X152314631Y-51045745D01*
X152314630Y-51045750D01*
X152294435Y-51224996D01*
X152294435Y-51225003D01*
X152314630Y-51404249D01*
X152314631Y-51404254D01*
X152374211Y-51574524D01*
X152430493Y-51664094D01*
X152449500Y-51730067D01*
X152449500Y-52554191D01*
X152429815Y-52621230D01*
X152413181Y-52641872D01*
X149161002Y-55894050D01*
X149099679Y-55927535D01*
X149029987Y-55922551D01*
X148996498Y-55903704D01*
X145407655Y-53071158D01*
X145397091Y-53062820D01*
X145356664Y-53005836D01*
X145349936Y-52967765D01*
X145346316Y-52770814D01*
X145231476Y-46523433D01*
X145224400Y-46447939D01*
X145218178Y-46411368D01*
X145207943Y-46370184D01*
X145199890Y-46337781D01*
X145180854Y-46299500D01*
X145135825Y-46208949D01*
X145104375Y-46163397D01*
X145096127Y-46151450D01*
X145095722Y-46150964D01*
X145094522Y-46149718D01*
X144998362Y-46045888D01*
X140383867Y-42307232D01*
X139537230Y-41621288D01*
X139237826Y-41378711D01*
X194149500Y-41378711D01*
X194149500Y-41621288D01*
X194181161Y-41861785D01*
X194243947Y-42096104D01*
X194336773Y-42320205D01*
X194336776Y-42320212D01*
X194458064Y-42530289D01*
X194458066Y-42530292D01*
X194458067Y-42530293D01*
X194605733Y-42722736D01*
X194605739Y-42722743D01*
X194777256Y-42894260D01*
X194777262Y-42894265D01*
X194969711Y-43041936D01*
X195179788Y-43163224D01*
X195403900Y-43256054D01*
X195638211Y-43318838D01*
X195818586Y-43342584D01*
X195878711Y-43350500D01*
X195878712Y-43350500D01*
X196121289Y-43350500D01*
X196169388Y-43344167D01*
X196361789Y-43318838D01*
X196596100Y-43256054D01*
X196820212Y-43163224D01*
X197030289Y-43041936D01*
X197222738Y-42894265D01*
X197394265Y-42722738D01*
X197541936Y-42530289D01*
X197663224Y-42320212D01*
X197756054Y-42096100D01*
X197818838Y-41861789D01*
X197850500Y-41621288D01*
X197850500Y-41378712D01*
X197818838Y-41138211D01*
X197756054Y-40903900D01*
X197663224Y-40679788D01*
X197541936Y-40469711D01*
X197394265Y-40277262D01*
X197394260Y-40277256D01*
X197222743Y-40105739D01*
X197222736Y-40105733D01*
X197030293Y-39958067D01*
X197030292Y-39958066D01*
X197030289Y-39958064D01*
X196820212Y-39836776D01*
X196820205Y-39836773D01*
X196596104Y-39743947D01*
X196361785Y-39681161D01*
X196121289Y-39649500D01*
X196121288Y-39649500D01*
X195878712Y-39649500D01*
X195878711Y-39649500D01*
X195638214Y-39681161D01*
X195403895Y-39743947D01*
X195179794Y-39836773D01*
X195179785Y-39836777D01*
X194969706Y-39958067D01*
X194777263Y-40105733D01*
X194777256Y-40105739D01*
X194605739Y-40277256D01*
X194605733Y-40277263D01*
X194458067Y-40469706D01*
X194336777Y-40679785D01*
X194336773Y-40679794D01*
X194243947Y-40903895D01*
X194181161Y-41138214D01*
X194149500Y-41378711D01*
X139237826Y-41378711D01*
X136251802Y-38959440D01*
X136245836Y-38954848D01*
X136231819Y-38944059D01*
X136221834Y-38936764D01*
X136201145Y-38922423D01*
X136070872Y-38861346D01*
X136004038Y-38840993D01*
X135861824Y-38819091D01*
X123294180Y-38693416D01*
X120962068Y-38670095D01*
X120962065Y-38670095D01*
X120962050Y-38670095D01*
X120888786Y-38674694D01*
X120888780Y-38674695D01*
X120853189Y-38679544D01*
X120853180Y-38679545D01*
X120781336Y-38694714D01*
X120650180Y-38753849D01*
X120650160Y-38753860D01*
X120591214Y-38791342D01*
X120482025Y-38885037D01*
X120200257Y-39207058D01*
X120176730Y-39236037D01*
X120165724Y-39250668D01*
X120144434Y-39281253D01*
X120084663Y-39412129D01*
X120064976Y-39479174D01*
X120044500Y-39621593D01*
X120044500Y-41657239D01*
X120049615Y-41728957D01*
X120054607Y-41763785D01*
X120069846Y-41834053D01*
X120069853Y-41834078D01*
X120339067Y-42753897D01*
X120339072Y-42753911D01*
X120349493Y-42785599D01*
X120355110Y-42800952D01*
X120355111Y-42800954D01*
X120367593Y-42831873D01*
X120367595Y-42831876D01*
X120443963Y-42953817D01*
X120489098Y-43007152D01*
X120489102Y-43007155D01*
X120491230Y-43009161D01*
X120492903Y-43010527D01*
X120596732Y-43102640D01*
X120726903Y-43163933D01*
X120726907Y-43163934D01*
X120726909Y-43163935D01*
X120750005Y-43171010D01*
X120793709Y-43184399D01*
X120793710Y-43184399D01*
X120935877Y-43206537D01*
X133483916Y-43353011D01*
X133550719Y-43373477D01*
X133558122Y-43378757D01*
X139996156Y-48336514D01*
X140037261Y-48393012D01*
X140044500Y-48434758D01*
X140044500Y-54117120D01*
X140024815Y-54184159D01*
X139996629Y-54215000D01*
X138154576Y-55647707D01*
X138089573Y-55673327D01*
X138080940Y-55673802D01*
X124656474Y-55943763D01*
X124636951Y-55944533D01*
X124627498Y-55945088D01*
X124608119Y-55946601D01*
X124468363Y-55980785D01*
X124468361Y-55980785D01*
X124468360Y-55980786D01*
X124407052Y-56005464D01*
X124405001Y-56006218D01*
X124403543Y-56006875D01*
X124279075Y-56079052D01*
X124101336Y-56219373D01*
X124036520Y-56245463D01*
X123967888Y-56232370D01*
X123917230Y-56184250D01*
X123900500Y-56122047D01*
X123900500Y-54699996D01*
X124894435Y-54699996D01*
X124894435Y-54700003D01*
X124914630Y-54879249D01*
X124914631Y-54879254D01*
X124974211Y-55049523D01*
X125070184Y-55202262D01*
X125197738Y-55329816D01*
X125277811Y-55380129D01*
X125300067Y-55394114D01*
X125350478Y-55425789D01*
X125520745Y-55485368D01*
X125548235Y-55488465D01*
X125581799Y-55497123D01*
X125645672Y-55523580D01*
X125645676Y-55523580D01*
X125645677Y-55523581D01*
X125781003Y-55550500D01*
X125781006Y-55550500D01*
X130068996Y-55550500D01*
X130160040Y-55532389D01*
X130204328Y-55523580D01*
X130289106Y-55488464D01*
X130331807Y-55470777D01*
X130331808Y-55470776D01*
X130331811Y-55470775D01*
X130446543Y-55394114D01*
X131149290Y-54691365D01*
X131196013Y-54662007D01*
X131299522Y-54625789D01*
X131452262Y-54529816D01*
X131579816Y-54402262D01*
X131675789Y-54249522D01*
X131735368Y-54079255D01*
X131736390Y-54070184D01*
X131755565Y-53900003D01*
X131755565Y-53899996D01*
X131735369Y-53720750D01*
X131735368Y-53720745D01*
X131692326Y-53597738D01*
X131675789Y-53550478D01*
X131579816Y-53397738D01*
X131452262Y-53270184D01*
X131299523Y-53174211D01*
X131129254Y-53114631D01*
X131129249Y-53114630D01*
X130950004Y-53094435D01*
X130949996Y-53094435D01*
X130770750Y-53114630D01*
X130770745Y-53114631D01*
X130600476Y-53174211D01*
X130447737Y-53270184D01*
X130320184Y-53397737D01*
X130224212Y-53550475D01*
X130224211Y-53550476D01*
X130187992Y-53653984D01*
X130158632Y-53700709D01*
X129746162Y-54113181D01*
X129684839Y-54146666D01*
X129658481Y-54149500D01*
X126332940Y-54149500D01*
X126265901Y-54129815D01*
X126245259Y-54113181D01*
X126202262Y-54070184D01*
X126049523Y-53974211D01*
X125879254Y-53914631D01*
X125879249Y-53914630D01*
X125700004Y-53894435D01*
X125699996Y-53894435D01*
X125520750Y-53914630D01*
X125520745Y-53914631D01*
X125350476Y-53974211D01*
X125197737Y-54070184D01*
X125070184Y-54197737D01*
X124974211Y-54350476D01*
X124914631Y-54520745D01*
X124914630Y-54520750D01*
X124894435Y-54699996D01*
X123900500Y-54699996D01*
X123900500Y-49949996D01*
X124544935Y-49949996D01*
X124544935Y-49950003D01*
X124565130Y-50129249D01*
X124565131Y-50129254D01*
X124624711Y-50299523D01*
X124700057Y-50419435D01*
X124720684Y-50452262D01*
X124848238Y-50579816D01*
X124918391Y-50623896D01*
X125000974Y-50675787D01*
X125000978Y-50675789D01*
X125135148Y-50722737D01*
X125171245Y-50735368D01*
X125171250Y-50735369D01*
X125350496Y-50755565D01*
X125350500Y-50755565D01*
X125350504Y-50755565D01*
X125529749Y-50735369D01*
X125529752Y-50735368D01*
X125529755Y-50735368D01*
X125700022Y-50675789D01*
X125700988Y-50675181D01*
X125710023Y-50669506D01*
X125775994Y-50650500D01*
X129858481Y-50650500D01*
X129925520Y-50670185D01*
X129946162Y-50686819D01*
X130113181Y-50853838D01*
X130146666Y-50915161D01*
X130149500Y-50941519D01*
X130149500Y-50982307D01*
X130130494Y-51048278D01*
X130124209Y-51058279D01*
X130064633Y-51228537D01*
X130064630Y-51228550D01*
X130044435Y-51407796D01*
X130044435Y-51407803D01*
X130064630Y-51587049D01*
X130064631Y-51587054D01*
X130124211Y-51757323D01*
X130215283Y-51902262D01*
X130220184Y-51910062D01*
X130347738Y-52037616D01*
X130438080Y-52094382D01*
X130488062Y-52125788D01*
X130500478Y-52133589D01*
X130648454Y-52185368D01*
X130670745Y-52193168D01*
X130670750Y-52193169D01*
X130849996Y-52213365D01*
X130850000Y-52213365D01*
X130850004Y-52213365D01*
X131029249Y-52193169D01*
X131029252Y-52193168D01*
X131029255Y-52193168D01*
X131199522Y-52133589D01*
X131352262Y-52037616D01*
X131479816Y-51910062D01*
X131575789Y-51757322D01*
X131635368Y-51587055D01*
X131636780Y-51574522D01*
X131655565Y-51407803D01*
X131655565Y-51407796D01*
X131635369Y-51228550D01*
X131635366Y-51228537D01*
X131575790Y-51058279D01*
X131569506Y-51048278D01*
X131550500Y-50982307D01*
X131550500Y-50531006D01*
X131543161Y-50494115D01*
X131543161Y-50494112D01*
X131529654Y-50426211D01*
X131523580Y-50395672D01*
X131501576Y-50342549D01*
X131470777Y-50268192D01*
X131394112Y-50153454D01*
X130646545Y-49405887D01*
X130531807Y-49329222D01*
X130404332Y-49276421D01*
X130404322Y-49276418D01*
X130268996Y-49249500D01*
X130268994Y-49249500D01*
X130268993Y-49249500D01*
X125775994Y-49249500D01*
X125710023Y-49230494D01*
X125700025Y-49224212D01*
X125529754Y-49164631D01*
X125529749Y-49164630D01*
X125350504Y-49144435D01*
X125350496Y-49144435D01*
X125171250Y-49164630D01*
X125171245Y-49164631D01*
X125000976Y-49224211D01*
X124848237Y-49320184D01*
X124720684Y-49447737D01*
X124624711Y-49600476D01*
X124565131Y-49770745D01*
X124565130Y-49770750D01*
X124544935Y-49949996D01*
X123900500Y-49949996D01*
X123900500Y-49431006D01*
X123900499Y-49431003D01*
X123894165Y-49399160D01*
X123875180Y-49303714D01*
X123873580Y-49295671D01*
X123843980Y-49224211D01*
X123843980Y-49224210D01*
X123820778Y-49168195D01*
X123820771Y-49168182D01*
X123744115Y-49053459D01*
X123736342Y-49045686D01*
X123646542Y-48955886D01*
X122387397Y-47696741D01*
X118596546Y-43905888D01*
X118596545Y-43905887D01*
X118481807Y-43829222D01*
X118354332Y-43776421D01*
X118354322Y-43776418D01*
X118218996Y-43749500D01*
X118218994Y-43749500D01*
X118218993Y-43749500D01*
X114191519Y-43749500D01*
X114124480Y-43729815D01*
X114103838Y-43713181D01*
X113626503Y-43235846D01*
X113593018Y-43174523D01*
X113590865Y-43161143D01*
X113585674Y-43111744D01*
X113534360Y-42953818D01*
X113527181Y-42931722D01*
X113527180Y-42931721D01*
X113527179Y-42931716D01*
X113432533Y-42767784D01*
X113305871Y-42627112D01*
X113305870Y-42627111D01*
X113152734Y-42515851D01*
X113152729Y-42515848D01*
X112979807Y-42438857D01*
X112979802Y-42438855D01*
X112834001Y-42407865D01*
X112794646Y-42399500D01*
X112605354Y-42399500D01*
X112565999Y-42407865D01*
X112420198Y-42438855D01*
X112414014Y-42440865D01*
X112413790Y-42440178D01*
X112369933Y-42449500D01*
X108371153Y-42449500D01*
X108216510Y-42480260D01*
X108216502Y-42480262D01*
X108070824Y-42540604D01*
X108070814Y-42540609D01*
X107939711Y-42628210D01*
X107939707Y-42628213D01*
X103568487Y-46999435D01*
X102139711Y-48428211D01*
X102101103Y-48466819D01*
X102028209Y-48539712D01*
X101940609Y-48670814D01*
X101940602Y-48670827D01*
X101880264Y-48816498D01*
X101880261Y-48816510D01*
X101849500Y-48971153D01*
X100368371Y-48971153D01*
X100365238Y-41378711D01*
X102149500Y-41378711D01*
X102149500Y-41621288D01*
X102181161Y-41861785D01*
X102243947Y-42096104D01*
X102336773Y-42320205D01*
X102336776Y-42320212D01*
X102458064Y-42530289D01*
X102458066Y-42530292D01*
X102458067Y-42530293D01*
X102605733Y-42722736D01*
X102605739Y-42722743D01*
X102777256Y-42894260D01*
X102777262Y-42894265D01*
X102969711Y-43041936D01*
X103179788Y-43163224D01*
X103403900Y-43256054D01*
X103638211Y-43318838D01*
X103818586Y-43342584D01*
X103878711Y-43350500D01*
X103878712Y-43350500D01*
X104121289Y-43350500D01*
X104169388Y-43344167D01*
X104361789Y-43318838D01*
X104596100Y-43256054D01*
X104820212Y-43163224D01*
X105030289Y-43041936D01*
X105222738Y-42894265D01*
X105394265Y-42722738D01*
X105541936Y-42530289D01*
X105663224Y-42320212D01*
X105756054Y-42096100D01*
X105818838Y-41861789D01*
X105850500Y-41621288D01*
X105850500Y-41378712D01*
X105818838Y-41138211D01*
X105756054Y-40903900D01*
X105663224Y-40679788D01*
X105541936Y-40469711D01*
X105394265Y-40277262D01*
X105394260Y-40277256D01*
X105222743Y-40105739D01*
X105222736Y-40105733D01*
X105030293Y-39958067D01*
X105030292Y-39958066D01*
X105030289Y-39958064D01*
X104820212Y-39836776D01*
X104820205Y-39836773D01*
X104596104Y-39743947D01*
X104361785Y-39681161D01*
X104121289Y-39649500D01*
X104121288Y-39649500D01*
X103878712Y-39649500D01*
X103878711Y-39649500D01*
X103638214Y-39681161D01*
X103403895Y-39743947D01*
X103179794Y-39836773D01*
X103179785Y-39836777D01*
X102969706Y-39958067D01*
X102777263Y-40105733D01*
X102777256Y-40105739D01*
X102605739Y-40277256D01*
X102605733Y-40277263D01*
X102458067Y-40469706D01*
X102336777Y-40679785D01*
X102336773Y-40679794D01*
X102243947Y-40903895D01*
X102181161Y-41138214D01*
X102149500Y-41378711D01*
X100365238Y-41378711D01*
X100365004Y-40811657D01*
X100367412Y-40787289D01*
X100388913Y-40679785D01*
X100560559Y-39821553D01*
X100576996Y-39780159D01*
X101057519Y-39011322D01*
X101074982Y-38989371D01*
X101749553Y-38314800D01*
X101784789Y-38290119D01*
X102505404Y-37953832D01*
X102525214Y-37946569D01*
X103048980Y-37803723D01*
X103081605Y-37799355D01*
X197040233Y-37800033D01*
G37*
G04 #@! TD.AperFunction*
G04 #@! TA.AperFunction,Conductor*
G36*
X188360300Y-47289576D02*
G01*
X188381683Y-47306683D01*
X190189757Y-49114757D01*
X190223242Y-49176080D01*
X190226049Y-49199828D01*
X190425000Y-58650000D01*
X191433335Y-59869170D01*
X191442234Y-59879929D01*
X191525000Y-59980000D01*
X186375000Y-59980000D01*
X187585000Y-58650000D01*
X187325000Y-50350000D01*
X187324999Y-50349998D01*
X185263483Y-48386650D01*
X185228513Y-48326162D01*
X185225000Y-48296857D01*
X185225000Y-47694893D01*
X185244685Y-47627854D01*
X185253727Y-47615526D01*
X185488165Y-47334201D01*
X185546200Y-47295306D01*
X185582534Y-47289591D01*
X188293126Y-47270367D01*
X188360300Y-47289576D01*
G37*
G04 #@! TD.AperFunction*
G04 #@! TA.AperFunction,Conductor*
G36*
X135856772Y-39324567D02*
G01*
X135923609Y-39344921D01*
X135933582Y-39352208D01*
X140065647Y-42700000D01*
X144680142Y-46438656D01*
X144719839Y-46496153D01*
X144726061Y-46532724D01*
X144849999Y-53274999D01*
X144850000Y-53275000D01*
X157424997Y-63199999D01*
X157424999Y-63200000D01*
X170225000Y-63200000D01*
X170225001Y-63200000D01*
X171035525Y-62563158D01*
X171625000Y-62100000D01*
X171699076Y-57902343D01*
X171719941Y-57835662D01*
X171738154Y-57814157D01*
X172489208Y-57108623D01*
X172551547Y-57077070D01*
X172574108Y-57075000D01*
X174353995Y-57075000D01*
X174421034Y-57094685D01*
X174434873Y-57105007D01*
X177625000Y-59850000D01*
X177624998Y-59850000D01*
X177706447Y-59850176D01*
X186475829Y-59869171D01*
X186375000Y-59980000D01*
X191525000Y-59980000D01*
X191442234Y-59879928D01*
X191442235Y-59879929D01*
X191467241Y-59891732D01*
X191467166Y-59891888D01*
X191493640Y-59899724D01*
X191510519Y-59912813D01*
X192485143Y-60813180D01*
X192521028Y-60873129D01*
X192525000Y-60904261D01*
X192525000Y-63127953D01*
X192505315Y-63194992D01*
X192452511Y-63240747D01*
X192402968Y-63251937D01*
X189376008Y-63299984D01*
X189374040Y-63300000D01*
X176625000Y-63300000D01*
X176624996Y-63300001D01*
X171559188Y-67422180D01*
X171494765Y-67449225D01*
X171480924Y-67450000D01*
X154625000Y-67450000D01*
X149585577Y-70630700D01*
X149518843Y-70649839D01*
X111283146Y-70480213D01*
X111216194Y-70460231D01*
X111199612Y-70447351D01*
X106364916Y-65986826D01*
X106328992Y-65926899D01*
X106325000Y-65895689D01*
X106325000Y-61194893D01*
X106344685Y-61127854D01*
X106353736Y-61115516D01*
X106787819Y-60594616D01*
X106845858Y-60555718D01*
X106883078Y-60550000D01*
X108358637Y-60550000D01*
X108425676Y-60569685D01*
X108461811Y-60605217D01*
X108804174Y-61118761D01*
X108824982Y-61185460D01*
X108825000Y-61187544D01*
X108825000Y-64850000D01*
X112325000Y-68150000D01*
X112978371Y-68150595D01*
X112994400Y-68151653D01*
X113025000Y-68155682D01*
X113054953Y-68151738D01*
X113071215Y-68150680D01*
X139730553Y-68174982D01*
X139749999Y-68175000D01*
X139749999Y-68174999D01*
X139750000Y-68175000D01*
X145325000Y-64125000D01*
X145400000Y-59275000D01*
X145264130Y-59150000D01*
X143525000Y-57550000D01*
X141125000Y-57550000D01*
X141124999Y-57550000D01*
X141124996Y-57550001D01*
X138953013Y-58759401D01*
X138892939Y-58775064D01*
X134910857Y-58783108D01*
X134863155Y-58773670D01*
X134828706Y-58759401D01*
X134781762Y-58739956D01*
X134781759Y-58739955D01*
X134781760Y-58739955D01*
X134625001Y-58719318D01*
X134624999Y-58719318D01*
X134468239Y-58739955D01*
X134468238Y-58739956D01*
X134384043Y-58774830D01*
X134336842Y-58784268D01*
X130621423Y-58791773D01*
X130573723Y-58782335D01*
X130531764Y-58764956D01*
X130531765Y-58764956D01*
X130375001Y-58744318D01*
X130374999Y-58744318D01*
X130218235Y-58764956D01*
X130173863Y-58783335D01*
X130126664Y-58792773D01*
X128197888Y-58796670D01*
X128165112Y-58790195D01*
X128164613Y-58792060D01*
X128156760Y-58789955D01*
X128000001Y-58769318D01*
X127999999Y-58769318D01*
X127843240Y-58789954D01*
X127835397Y-58792057D01*
X127835009Y-58790610D01*
X127800679Y-58797472D01*
X126549999Y-58800000D01*
X125460242Y-59720240D01*
X125396322Y-59748453D01*
X125380240Y-59749500D01*
X123470288Y-59749500D01*
X123403249Y-59729815D01*
X123389590Y-59719648D01*
X122768302Y-59187115D01*
X122730212Y-59128540D01*
X122725000Y-59092967D01*
X122725000Y-58010090D01*
X122744685Y-57943051D01*
X122772164Y-57912765D01*
X122785364Y-57902344D01*
X124592305Y-56475811D01*
X124657120Y-56449721D01*
X124666634Y-56449162D01*
X138300000Y-56175000D01*
X140550000Y-54425000D01*
X140550000Y-48125000D01*
X140549998Y-48124998D01*
X133700001Y-42850000D01*
X133700002Y-42850000D01*
X120941777Y-42701071D01*
X120874971Y-42680605D01*
X120829836Y-42627270D01*
X120824219Y-42611917D01*
X120554993Y-41692059D01*
X120550000Y-41657228D01*
X120550000Y-39621592D01*
X120569685Y-39554553D01*
X120580680Y-39539938D01*
X120862454Y-39217910D01*
X120921414Y-39180419D01*
X120957013Y-39175570D01*
X135856772Y-39324567D01*
G37*
G04 #@! TD.AperFunction*
G04 #@! TA.AperFunction,Conductor*
G36*
X121543039Y-49219685D02*
G01*
X121588794Y-49272489D01*
X121600000Y-49324000D01*
X121600000Y-54848638D01*
X121580315Y-54915677D01*
X121563681Y-54936319D01*
X120336319Y-56163681D01*
X120274996Y-56197166D01*
X120248638Y-56200000D01*
X115527329Y-56200000D01*
X115460290Y-56180315D01*
X115414535Y-56127511D01*
X115404390Y-56059815D01*
X115405682Y-56050001D01*
X115405682Y-56049998D01*
X115385044Y-55893239D01*
X115385044Y-55893238D01*
X115324536Y-55747159D01*
X115228282Y-55621718D01*
X115102841Y-55525464D01*
X114956762Y-55464956D01*
X114956760Y-55464955D01*
X114800001Y-55444318D01*
X114799999Y-55444318D01*
X114643239Y-55464955D01*
X114643234Y-55464957D01*
X114571452Y-55494690D01*
X114501983Y-55502159D01*
X114439504Y-55470883D01*
X114403852Y-55410794D01*
X114400000Y-55380129D01*
X114400000Y-49399160D01*
X114419685Y-49332121D01*
X114472489Y-49286366D01*
X114541647Y-49276422D01*
X114571452Y-49284599D01*
X114643303Y-49314360D01*
X114693238Y-49335044D01*
X114771619Y-49345363D01*
X114849999Y-49355682D01*
X114850000Y-49355682D01*
X114850001Y-49355682D01*
X114902254Y-49348802D01*
X115006762Y-49335044D01*
X115152841Y-49274536D01*
X115216585Y-49225624D01*
X115281754Y-49200430D01*
X115292071Y-49200000D01*
X121476000Y-49200000D01*
X121543039Y-49219685D01*
G37*
G04 #@! TD.AperFunction*
M02*
