G04 #@! TF.GenerationSoftware,KiCad,Pcbnew,8.0.5*
G04 #@! TF.CreationDate,2025-06-09T21:24:26+03:00*
G04 #@! TF.ProjectId,Main Board,4d61696e-2042-46f6-9172-642e6b696361,rev?*
G04 #@! TF.SameCoordinates,Original*
G04 #@! TF.FileFunction,Legend,Bot*
G04 #@! TF.FilePolarity,Positive*
%FSLAX46Y46*%
G04 Gerber Fmt 4.6, Leading zero omitted, Abs format (unit mm)*
G04 Created by KiCad (PCBNEW 8.0.5) date 2025-06-09 21:24:26*
%MOMM*%
%LPD*%
G01*
G04 APERTURE LIST*
%ADD10C,0.254000*%
%ADD11C,0.508000*%
%ADD12C,0.100000*%
%ADD13C,0.200000*%
%ADD14C,1.000000*%
%ADD15C,3.200000*%
%ADD16R,1.700000X1.000000*%
G04 APERTURE END LIST*
D10*
X147192619Y-89163842D02*
X147011190Y-89224318D01*
X147011190Y-89224318D02*
X146708809Y-89224318D01*
X146708809Y-89224318D02*
X146587857Y-89163842D01*
X146587857Y-89163842D02*
X146527381Y-89103365D01*
X146527381Y-89103365D02*
X146466904Y-88982413D01*
X146466904Y-88982413D02*
X146466904Y-88861461D01*
X146466904Y-88861461D02*
X146527381Y-88740508D01*
X146527381Y-88740508D02*
X146587857Y-88680032D01*
X146587857Y-88680032D02*
X146708809Y-88619556D01*
X146708809Y-88619556D02*
X146950714Y-88559080D01*
X146950714Y-88559080D02*
X147071666Y-88498603D01*
X147071666Y-88498603D02*
X147132143Y-88438127D01*
X147132143Y-88438127D02*
X147192619Y-88317175D01*
X147192619Y-88317175D02*
X147192619Y-88196222D01*
X147192619Y-88196222D02*
X147132143Y-88075270D01*
X147132143Y-88075270D02*
X147071666Y-88014794D01*
X147071666Y-88014794D02*
X146950714Y-87954318D01*
X146950714Y-87954318D02*
X146648333Y-87954318D01*
X146648333Y-87954318D02*
X146466904Y-88014794D01*
X145257380Y-89224318D02*
X145983095Y-89224318D01*
X145620238Y-89224318D02*
X145620238Y-87954318D01*
X145620238Y-87954318D02*
X145741190Y-88135746D01*
X145741190Y-88135746D02*
X145862142Y-88256699D01*
X145862142Y-88256699D02*
X145983095Y-88317175D01*
D11*
X171168500Y-46579000D02*
G75*
G02*
X170406500Y-46579000I-381000J0D01*
G01*
X170406500Y-46579000D02*
G75*
G02*
X171168500Y-46579000I381000J0D01*
G01*
X191377000Y-91109700D02*
G75*
G02*
X190615000Y-91109700I-381000J0D01*
G01*
X190615000Y-91109700D02*
G75*
G02*
X191377000Y-91109700I381000J0D01*
G01*
X191377000Y-70415800D02*
G75*
G02*
X190615000Y-70415800I-381000J0D01*
G01*
X190615000Y-70415800D02*
G75*
G02*
X191377000Y-70415800I381000J0D01*
G01*
D12*
X141725000Y-90550000D02*
X141725000Y-90550000D01*
X141825000Y-90550000D02*
X141825000Y-90550000D01*
D13*
X143625000Y-87750000D02*
X143625000Y-89650000D01*
X147725000Y-86050000D02*
X144725000Y-86050000D01*
X147725000Y-91250000D02*
X144725000Y-91250000D01*
X148825000Y-87750000D02*
X148825000Y-89650000D01*
D12*
X141725000Y-90550000D02*
G75*
G02*
X141825000Y-90550000I50000J0D01*
G01*
X141825000Y-90550000D02*
G75*
G02*
X141725000Y-90550000I-50000J0D01*
G01*
%LPC*%
D14*
X171125000Y-89200000D03*
X179125000Y-89200000D03*
D15*
X104000000Y-41500000D03*
X196000000Y-96000000D03*
X104000000Y-96000000D03*
X196000000Y-41500000D03*
D16*
X143075000Y-90550000D03*
X149375000Y-90550000D03*
X143075000Y-86750000D03*
X149375000Y-86750000D03*
%LPD*%
M02*
