%TF.GenerationSoftware,KiCad,Pcbnew,8.0.5*%
%TF.CreationDate,2025-06-09T13:31:45+03:00*%
%TF.ProjectId,Secondary Board,5365636f-6e64-4617-9279-20426f617264,rev?*%
%TF.SameCoordinates,Original*%
%TF.FileFunction,Copper,L1,Top*%
%TF.FilePolarity,Positive*%
%FSLAX46Y46*%
G04 Gerber Fmt 4.6, Leading zero omitted, Abs format (unit mm)*
G04 Created by KiCad (PCBNEW 8.0.5) date 2025-06-09 13:31:45*
%MOMM*%
%LPD*%
G01*
G04 APERTURE LIST*
G04 Aperture macros list*
%AMRoundRect*
0 Rectangle with rounded corners*
0 $1 Rounding radius*
0 $2 $3 $4 $5 $6 $7 $8 $9 X,Y pos of 4 corners*
0 Add a 4 corners polygon primitive as box body*
4,1,4,$2,$3,$4,$5,$6,$7,$8,$9,$2,$3,0*
0 Add four circle primitives for the rounded corners*
1,1,$1+$1,$2,$3*
1,1,$1+$1,$4,$5*
1,1,$1+$1,$6,$7*
1,1,$1+$1,$8,$9*
0 Add four rect primitives between the rounded corners*
20,1,$1+$1,$2,$3,$4,$5,0*
20,1,$1+$1,$4,$5,$6,$7,0*
20,1,$1+$1,$6,$7,$8,$9,0*
20,1,$1+$1,$8,$9,$2,$3,0*%
G04 Aperture macros list end*
%TA.AperFunction,SMDPad,CuDef*%
%ADD10R,1.244600X3.200400*%
%TD*%
%TA.AperFunction,SMDPad,CuDef*%
%ADD11R,1.752600X5.359400*%
%TD*%
%TA.AperFunction,SMDPad,CuDef*%
%ADD12RoundRect,0.135000X0.185000X-0.135000X0.185000X0.135000X-0.185000X0.135000X-0.185000X-0.135000X0*%
%TD*%
%TA.AperFunction,SMDPad,CuDef*%
%ADD13R,0.300000X1.150000*%
%TD*%
%TA.AperFunction,ComponentPad*%
%ADD14C,1.875000*%
%TD*%
%TA.AperFunction,ComponentPad*%
%ADD15C,1.600000*%
%TD*%
%TA.AperFunction,SMDPad,CuDef*%
%ADD16R,1.200000X1.000000*%
%TD*%
%TA.AperFunction,SMDPad,CuDef*%
%ADD17RoundRect,0.150000X-0.512500X-0.150000X0.512500X-0.150000X0.512500X0.150000X-0.512500X0.150000X0*%
%TD*%
%TA.AperFunction,SMDPad,CuDef*%
%ADD18RoundRect,0.135000X-0.185000X0.135000X-0.185000X-0.135000X0.185000X-0.135000X0.185000X0.135000X0*%
%TD*%
%TA.AperFunction,ViaPad*%
%ADD19C,0.600000*%
%TD*%
%TA.AperFunction,ViaPad*%
%ADD20C,0.800000*%
%TD*%
%TA.AperFunction,Conductor*%
%ADD21C,0.300000*%
%TD*%
%TA.AperFunction,Conductor*%
%ADD22C,0.500000*%
%TD*%
%TA.AperFunction,Conductor*%
%ADD23C,0.600000*%
%TD*%
%TA.AperFunction,Conductor*%
%ADD24C,0.200000*%
%TD*%
%TA.AperFunction,Conductor*%
%ADD25C,0.700000*%
%TD*%
G04 APERTURE END LIST*
D10*
%TO.P,J3,1,1*%
%TO.N,/SIG*%
X132366600Y-97929999D03*
%TO.P,J3,2,2*%
%TO.N,/USB_N*%
X130366601Y-97929999D03*
%TO.P,J3,3,3*%
%TO.N,/USB_P*%
X128366600Y-97929999D03*
%TO.P,J3,4,4*%
%TO.N,GND*%
X126366599Y-97929999D03*
%TO.P,J3,5,5*%
%TO.N,/VBUS*%
X124366600Y-97929999D03*
D11*
%TO.P,J3,6*%
%TO.N,N/C*%
X134066601Y-92450000D03*
%TO.P,J3,7*%
X122666599Y-92450000D03*
%TD*%
D12*
%TO.P,R2,1,1*%
%TO.N,/CC2*%
X175925000Y-96935000D03*
%TO.P,R2,2,2*%
%TO.N,GND*%
X175925000Y-95915000D03*
%TD*%
D13*
%TO.P,J1,A1,GND_1*%
%TO.N,GND*%
X166625000Y-93465000D03*
%TO.P,J1,A4,VBUS_1*%
%TO.N,/VBUS*%
X168125000Y-93465000D03*
%TO.P,J1,A5,CC1*%
%TO.N,/CC1*%
X168625000Y-93465000D03*
%TO.P,J1,A6,DP1*%
%TO.N,/USB_C_P*%
X169125000Y-93465000D03*
%TO.P,J1,A7,DN1*%
%TO.N,/USB_C_N*%
X169625000Y-93465000D03*
%TO.P,J1,A8,SBU1*%
%TO.N,unconnected-(J1-SBU1-PadA8)*%
X170125000Y-93465000D03*
%TO.P,J1,A9,VBUS_2*%
%TO.N,/VBUS*%
X170625000Y-93465000D03*
%TO.P,J1,A12,GND_2*%
%TO.N,GND*%
X172125000Y-93465000D03*
%TO.P,J1,B1,GND_3*%
X172125000Y-96435000D03*
%TO.P,J1,B4,VBUS_3*%
%TO.N,/VBUS*%
X170625000Y-96435000D03*
%TO.P,J1,B5,CC2*%
%TO.N,/CC2*%
X170125000Y-96435000D03*
%TO.P,J1,B6,DP2*%
%TO.N,/USB_C_P*%
X169625000Y-96435000D03*
%TO.P,J1,B7,DN2*%
%TO.N,/USB_C_N*%
X169125000Y-96435000D03*
%TO.P,J1,B8,SBU2*%
%TO.N,unconnected-(J1-SBU2-PadB8)*%
X168625000Y-96435000D03*
%TO.P,J1,B9,VBUS_4*%
%TO.N,/VBUS*%
X168125000Y-96435000D03*
%TO.P,J1,B12,GND_4*%
%TO.N,GND*%
X166625000Y-96435000D03*
D14*
%TO.P,J1,MH1,MH1*%
%TO.N,unconnected-(J1-PadMH1)*%
X165375000Y-93520000D03*
D15*
%TO.P,J1,MH2,MH2*%
%TO.N,unconnected-(J1-PadMH2)*%
X173375000Y-93520000D03*
%TO.P,J1,MH3,MH3*%
%TO.N,unconnected-(J1-PadMH3)*%
X173375000Y-96380000D03*
D14*
%TO.P,J1,MH4,MH4*%
%TO.N,unconnected-(J1-PadMH4)*%
X165375000Y-96380000D03*
%TD*%
D16*
%TO.P,S2,1,1*%
%TO.N,/SIG*%
X150100000Y-94100000D03*
%TO.P,S2,2,2*%
%TO.N,GND*%
X150100000Y-95800000D03*
%TO.P,S2,3,3*%
%TO.N,/SIG*%
X144500000Y-94100000D03*
%TO.P,S2,4,4*%
%TO.N,GND*%
X144500000Y-95800000D03*
%TD*%
D17*
%TO.P,B1,1,I/O1_1*%
%TO.N,/USB_N*%
X158237500Y-93898000D03*
%TO.P,B1,2,GND*%
%TO.N,GND*%
X158237500Y-94848000D03*
%TO.P,B1,3,I/O2_1*%
%TO.N,/USB_P*%
X158237500Y-95798000D03*
%TO.P,B1,4,I/O2_2*%
%TO.N,/USB_C_P*%
X160512500Y-95798000D03*
%TO.P,B1,5,VBUS*%
%TO.N,/VBUS*%
X160512500Y-94848000D03*
%TO.P,B1,6,I/O1_2*%
%TO.N,/USB_C_N*%
X160512500Y-93898000D03*
%TD*%
D18*
%TO.P,R1,1,1*%
%TO.N,/CC1*%
X175925000Y-93015000D03*
%TO.P,R1,2,2*%
%TO.N,GND*%
X175925000Y-94035000D03*
%TD*%
D19*
%TO.N,/USB_C_P*%
X169415380Y-91788380D03*
X167275000Y-99048000D03*
%TO.N,/USB_C_N*%
X170389944Y-91953896D03*
X168337000Y-98348000D03*
%TO.N,/USB_N*%
X156162932Y-94433492D03*
X129000000Y-94500000D03*
%TO.N,GND*%
X175925000Y-95025000D03*
D20*
X113050000Y-91550000D03*
D19*
X154675000Y-93400000D03*
D20*
X179900000Y-98700000D03*
X163039944Y-93603896D03*
X111450000Y-96400000D03*
D19*
X166575000Y-97548000D03*
D20*
X147700000Y-98650000D03*
X139950000Y-98200000D03*
X113800000Y-98100000D03*
D19*
X166775000Y-94848000D03*
D20*
X120500000Y-91150000D03*
X117550000Y-91450000D03*
X134750000Y-98150000D03*
D19*
X144775000Y-96775000D03*
D20*
X137000000Y-98150000D03*
X182650000Y-91550000D03*
X159789944Y-97253896D03*
X155675000Y-98725000D03*
D19*
X129200000Y-93300000D03*
D20*
X161439944Y-98803896D03*
X111550000Y-93600000D03*
X177425000Y-98075000D03*
D19*
X139500000Y-93450000D03*
X171975000Y-94848000D03*
D20*
X119550000Y-93625000D03*
X150400000Y-98675000D03*
X182450000Y-97900000D03*
X126350000Y-95599998D03*
X152675000Y-98650000D03*
D19*
X157120840Y-94848000D03*
D20*
X119400000Y-96400000D03*
X177900000Y-91275000D03*
D19*
X124700000Y-90800000D03*
D20*
X142350000Y-98475000D03*
X144925000Y-98550000D03*
D19*
X172575000Y-97748000D03*
D20*
X138500000Y-96600000D03*
X120525000Y-98475000D03*
D19*
X153050000Y-93400000D03*
X137250000Y-93450000D03*
D20*
X154200000Y-97350000D03*
X156989944Y-97253896D03*
X179950000Y-90800000D03*
D19*
X172575000Y-91948000D03*
D20*
X141300000Y-96750000D03*
D19*
X142150000Y-93450000D03*
X131500000Y-93450000D03*
X127450000Y-94300000D03*
D20*
X117150000Y-97950000D03*
X158389944Y-98753896D03*
X183400000Y-94950000D03*
D19*
X150300000Y-96875000D03*
%TO.N,/USB_P*%
X156154234Y-95277449D03*
X128200000Y-95800000D03*
%TO.N,/VBUS*%
X171375000Y-92548000D03*
D20*
X125075000Y-93875000D03*
D19*
X171075000Y-97548000D03*
X167275000Y-92048000D03*
X161450000Y-95150000D03*
X162150000Y-95750000D03*
X170655000Y-95028000D03*
D20*
X124525000Y-95100000D03*
%TD*%
D21*
%TO.N,/CC1*%
X173594048Y-90748000D02*
X175864944Y-93018896D01*
X168625000Y-91518840D02*
X169395840Y-90748000D01*
X169395840Y-90748000D02*
X173594048Y-90748000D01*
X168625000Y-93465000D02*
X168625000Y-91518840D01*
%TO.N,/USB_C_P*%
X164123000Y-99048000D02*
X160873000Y-95798000D01*
X169415380Y-91788380D02*
X169125000Y-92078760D01*
X168575000Y-99048000D02*
X164123000Y-99048000D01*
X169125000Y-92078760D02*
X169125000Y-93465000D01*
X160873000Y-95798000D02*
X160512500Y-95798000D01*
X169625000Y-97998000D02*
X168575000Y-99048000D01*
X169625000Y-96435000D02*
X169625000Y-97998000D01*
%TO.N,/USB_C_N*%
X168337000Y-98348000D02*
X169125000Y-97560000D01*
X169625000Y-92590000D02*
X169625000Y-93465000D01*
X163075000Y-96938000D02*
X163075000Y-95475000D01*
X163075000Y-95475000D02*
X161498000Y-93898000D01*
X170389944Y-91953896D02*
X170261104Y-91953896D01*
X164485000Y-98348000D02*
X163075000Y-96938000D01*
X170261104Y-91953896D02*
X169625000Y-92590000D01*
X161498000Y-93898000D02*
X160512500Y-93898000D01*
X169125000Y-97560000D02*
X169125000Y-96435000D01*
X168337000Y-98348000D02*
X164485000Y-98348000D01*
%TO.N,/CC2*%
X170125000Y-96435000D02*
X170125000Y-97798000D01*
X170125000Y-97798000D02*
X170975000Y-98648000D01*
X170975000Y-98648000D02*
X174212000Y-98648000D01*
X174212000Y-98648000D02*
X175925000Y-96935000D01*
%TO.N,/USB_N*%
X129950000Y-96626423D02*
X130425000Y-97101423D01*
X129950000Y-95450000D02*
X129950000Y-96626423D01*
X156162932Y-94433492D02*
X156698424Y-93898000D01*
X156698424Y-93898000D02*
X158237500Y-93898000D01*
X129000000Y-94500000D02*
X129950000Y-95450000D01*
%TO.N,GND*%
X172125000Y-92398000D02*
X172575000Y-91948000D01*
D22*
X150300000Y-95800000D02*
X150300000Y-96875000D01*
D21*
X172125000Y-93465000D02*
X172125000Y-92398000D01*
X172125000Y-94698000D02*
X172125000Y-93465000D01*
X166625000Y-96435000D02*
X166625000Y-94998000D01*
D23*
X175925000Y-94035000D02*
X175925000Y-95025000D01*
D21*
X172125000Y-96435000D02*
X172125000Y-97298000D01*
D24*
X166625000Y-94998000D02*
X166775000Y-94848000D01*
X166625000Y-94698000D02*
X166775000Y-94848000D01*
D21*
X166662500Y-97460500D02*
X166662500Y-96435000D01*
D22*
X158450000Y-94848000D02*
X157120840Y-94848000D01*
D21*
X171975000Y-94848000D02*
X172125000Y-94998000D01*
X166625000Y-93465000D02*
X166625000Y-94698000D01*
X166575000Y-97548000D02*
X166662500Y-97460500D01*
D22*
X144775000Y-95700000D02*
X144775000Y-96775000D01*
D21*
X171975000Y-94848000D02*
X172125000Y-94698000D01*
D23*
X175925000Y-95915000D02*
X175925000Y-95025000D01*
D25*
X126350000Y-95650000D02*
X126350000Y-98024996D01*
D21*
X172125000Y-97298000D02*
X172575000Y-97748000D01*
X172125000Y-94998000D02*
X172125000Y-96435000D01*
%TO.N,/USB_P*%
X128200000Y-95800000D02*
X128000000Y-96000000D01*
X128000000Y-96000000D02*
X128000000Y-97346523D01*
X156593181Y-95716396D02*
X158596194Y-95716396D01*
X128625000Y-96801423D02*
X128825000Y-97001423D01*
X156154234Y-95277449D02*
X156593181Y-95716396D01*
%TO.N,/VBUS*%
X170625000Y-96435000D02*
X170625000Y-97098000D01*
D23*
X124525000Y-96978600D02*
X124525000Y-94425000D01*
X124525000Y-94425000D02*
X125125001Y-93824999D01*
D21*
X168125000Y-92898000D02*
X167275000Y-92048000D01*
X161550000Y-95150000D02*
X161562500Y-95150000D01*
X161148000Y-94848000D02*
X161450000Y-95150000D01*
X161475000Y-95125000D02*
X161475000Y-95048000D01*
X170625000Y-97098000D02*
X171075000Y-97548000D01*
X162150000Y-95737500D02*
X162150000Y-95750000D01*
X161450000Y-95150000D02*
X161475000Y-95125000D01*
X160300000Y-94848000D02*
X161148000Y-94848000D01*
X171375000Y-92548000D02*
X170625000Y-93298000D01*
X161562500Y-95150000D02*
X162150000Y-95737500D01*
X170625000Y-93298000D02*
X170625000Y-93465000D01*
X168125000Y-96435000D02*
X168125000Y-93465000D01*
X170625000Y-96435000D02*
X170625000Y-93465000D01*
X168125000Y-93465000D02*
X168125000Y-92898000D01*
%TO.N,/SIG*%
X149000000Y-92250000D02*
X150100000Y-93350000D01*
X145500000Y-92250000D02*
X149000000Y-92250000D01*
X144500000Y-93250000D02*
X145500000Y-92250000D01*
X137700000Y-94250000D02*
X144350000Y-94250000D01*
X132098577Y-97001423D02*
X134948577Y-97001423D01*
X144500000Y-94100000D02*
X144675000Y-94100000D01*
X144675000Y-94100000D02*
X144925000Y-94350000D01*
X150100000Y-93350000D02*
X150100000Y-94100000D01*
X144500000Y-94100000D02*
X144500000Y-93250000D01*
X144350000Y-94250000D02*
X144500000Y-94100000D01*
X134948577Y-97001423D02*
X137700000Y-94250000D01*
%TD*%
%TA.AperFunction,Conductor*%
%TO.N,GND*%
G36*
X182125875Y-89599903D02*
G01*
X182172327Y-89609134D01*
X183233828Y-90043384D01*
X183263714Y-90060827D01*
X184166333Y-90773421D01*
X184206754Y-90830411D01*
X184210047Y-90841698D01*
X184596307Y-92444675D01*
X184599740Y-92475766D01*
X184575762Y-93931229D01*
X184575056Y-93974104D01*
X184575510Y-94023889D01*
X184599874Y-96696257D01*
X184597112Y-96723437D01*
X184346733Y-97888664D01*
X184318925Y-97944148D01*
X183398974Y-98998258D01*
X183353374Y-99031130D01*
X182183032Y-99520371D01*
X182135035Y-99529965D01*
X174424870Y-99519295D01*
X174357858Y-99499518D01*
X174312176Y-99446650D01*
X174302329Y-99377478D01*
X174331442Y-99313963D01*
X174390272Y-99276270D01*
X174400851Y-99273678D01*
X174401744Y-99273501D01*
X174520127Y-99224465D01*
X174549531Y-99204818D01*
X174626669Y-99153277D01*
X176038127Y-97741817D01*
X176099450Y-97708333D01*
X176125808Y-97705499D01*
X176174168Y-97705499D01*
X176174180Y-97705499D01*
X176210204Y-97702665D01*
X176364393Y-97657869D01*
X176502598Y-97576135D01*
X176616135Y-97462598D01*
X176697869Y-97324393D01*
X176742665Y-97170204D01*
X176745500Y-97134181D01*
X176745499Y-96735820D01*
X176742665Y-96699796D01*
X176697869Y-96545607D01*
X176663581Y-96487629D01*
X176646398Y-96419905D01*
X176663582Y-96361386D01*
X176697404Y-96304196D01*
X176697405Y-96304194D01*
X176737844Y-96165000D01*
X176185409Y-96165000D01*
X176175682Y-96164618D01*
X176174182Y-96164500D01*
X175675831Y-96164500D01*
X175675806Y-96164501D01*
X175674332Y-96164618D01*
X175664607Y-96165000D01*
X175112156Y-96165000D01*
X175152594Y-96304193D01*
X175186419Y-96361388D01*
X175203601Y-96429112D01*
X175186419Y-96487628D01*
X175152130Y-96545607D01*
X175152129Y-96545611D01*
X175107335Y-96699791D01*
X175107334Y-96699797D01*
X175104500Y-96735811D01*
X175104500Y-96784191D01*
X175084815Y-96851230D01*
X175068181Y-96871872D01*
X174569424Y-97370628D01*
X174508101Y-97404113D01*
X174438409Y-97399129D01*
X174382476Y-97357257D01*
X174358059Y-97291793D01*
X174372911Y-97223520D01*
X174380160Y-97211836D01*
X174505568Y-97032734D01*
X174601739Y-96826496D01*
X174660635Y-96606692D01*
X174680468Y-96380000D01*
X174678839Y-96361386D01*
X174671888Y-96281926D01*
X174660635Y-96153308D01*
X174601739Y-95933504D01*
X174505568Y-95727266D01*
X174461969Y-95665000D01*
X175112156Y-95665000D01*
X175675000Y-95665000D01*
X176175000Y-95665000D01*
X176737844Y-95665000D01*
X176697404Y-95525805D01*
X176615738Y-95387714D01*
X176615731Y-95387705D01*
X176502294Y-95274268D01*
X176502285Y-95274261D01*
X176364191Y-95192593D01*
X176364188Y-95192592D01*
X176210130Y-95147834D01*
X176175000Y-95145068D01*
X176175000Y-95665000D01*
X175675000Y-95665000D01*
X175675000Y-95145068D01*
X175674999Y-95145068D01*
X175639869Y-95147834D01*
X175639868Y-95147834D01*
X175485811Y-95192592D01*
X175485808Y-95192593D01*
X175347714Y-95274261D01*
X175347705Y-95274268D01*
X175234268Y-95387705D01*
X175234261Y-95387714D01*
X175152595Y-95525805D01*
X175112156Y-95665000D01*
X174461969Y-95665000D01*
X174377972Y-95545038D01*
X174375045Y-95540858D01*
X174214140Y-95379953D01*
X174170394Y-95349322D01*
X174126769Y-95294745D01*
X174119576Y-95225247D01*
X174126957Y-95200293D01*
X174135119Y-95180588D01*
X174135119Y-95180585D01*
X174135122Y-95180580D01*
X174165500Y-95027857D01*
X174165500Y-94872143D01*
X174135122Y-94719420D01*
X174126955Y-94699705D01*
X174119486Y-94630238D01*
X174150759Y-94567758D01*
X174170386Y-94550682D01*
X174214139Y-94520047D01*
X174375047Y-94359139D01*
X174426959Y-94285000D01*
X175112156Y-94285000D01*
X175152595Y-94424194D01*
X175234261Y-94562285D01*
X175234268Y-94562294D01*
X175347705Y-94675731D01*
X175347714Y-94675738D01*
X175485808Y-94757406D01*
X175485811Y-94757407D01*
X175639871Y-94802166D01*
X175639877Y-94802167D01*
X175675000Y-94804931D01*
X175675000Y-94804930D01*
X176175000Y-94804930D01*
X176210122Y-94802167D01*
X176210128Y-94802166D01*
X176364188Y-94757407D01*
X176364191Y-94757406D01*
X176422682Y-94722815D01*
X178134556Y-94722815D01*
X178134556Y-94965392D01*
X178166217Y-95205889D01*
X178229003Y-95440208D01*
X178307700Y-95630198D01*
X178321832Y-95664316D01*
X178443120Y-95874393D01*
X178443122Y-95874396D01*
X178443123Y-95874397D01*
X178590789Y-96066840D01*
X178590795Y-96066847D01*
X178762312Y-96238364D01*
X178762319Y-96238370D01*
X178833335Y-96292862D01*
X178954767Y-96386040D01*
X179164844Y-96507328D01*
X179388956Y-96600158D01*
X179623267Y-96662942D01*
X179803642Y-96686688D01*
X179863767Y-96694604D01*
X179863768Y-96694604D01*
X180106345Y-96694604D01*
X180154444Y-96688271D01*
X180346845Y-96662942D01*
X180581156Y-96600158D01*
X180805268Y-96507328D01*
X181015345Y-96386040D01*
X181207794Y-96238369D01*
X181379321Y-96066842D01*
X181526992Y-95874393D01*
X181648280Y-95664316D01*
X181741110Y-95440204D01*
X181803894Y-95205893D01*
X181835556Y-94965392D01*
X181835556Y-94722816D01*
X181833537Y-94707483D01*
X181821065Y-94612747D01*
X181803894Y-94482315D01*
X181741110Y-94248004D01*
X181737499Y-94239286D01*
X181648281Y-94023894D01*
X181648278Y-94023889D01*
X181633179Y-93997737D01*
X181526992Y-93813815D01*
X181399226Y-93647307D01*
X181379322Y-93621367D01*
X181379316Y-93621360D01*
X181207799Y-93449843D01*
X181207792Y-93449837D01*
X181015349Y-93302171D01*
X181015348Y-93302170D01*
X181015345Y-93302168D01*
X180805268Y-93180880D01*
X180797217Y-93177545D01*
X180581160Y-93088051D01*
X180442355Y-93050858D01*
X180346845Y-93025266D01*
X180346844Y-93025265D01*
X180346841Y-93025265D01*
X180106345Y-92993604D01*
X180106344Y-92993604D01*
X179863768Y-92993604D01*
X179863767Y-92993604D01*
X179623270Y-93025265D01*
X179388951Y-93088051D01*
X179164850Y-93180877D01*
X179164841Y-93180881D01*
X178954762Y-93302171D01*
X178762319Y-93449837D01*
X178762312Y-93449843D01*
X178590795Y-93621360D01*
X178590789Y-93621367D01*
X178443123Y-93813810D01*
X178321833Y-94023889D01*
X178321831Y-94023894D01*
X178229003Y-94247999D01*
X178166217Y-94482318D01*
X178134556Y-94722815D01*
X176422682Y-94722815D01*
X176502285Y-94675738D01*
X176502294Y-94675731D01*
X176615731Y-94562294D01*
X176615738Y-94562285D01*
X176697404Y-94424194D01*
X176737844Y-94285000D01*
X176175000Y-94285000D01*
X176175000Y-94804930D01*
X175675000Y-94804930D01*
X175675000Y-94285000D01*
X175112156Y-94285000D01*
X174426959Y-94285000D01*
X174505568Y-94172734D01*
X174601739Y-93966496D01*
X174660635Y-93746692D01*
X174680468Y-93520000D01*
X174680467Y-93519994D01*
X174670354Y-93404393D01*
X174660635Y-93293308D01*
X174609944Y-93104124D01*
X174601741Y-93073511D01*
X174601738Y-93073502D01*
X174589351Y-93046939D01*
X174551306Y-92965352D01*
X174540815Y-92896277D01*
X174569334Y-92832493D01*
X174627811Y-92794253D01*
X174697678Y-92793698D01*
X174751370Y-92825268D01*
X175069096Y-93142994D01*
X175102581Y-93204317D01*
X175105033Y-93220948D01*
X175107335Y-93250205D01*
X175152129Y-93404388D01*
X175152130Y-93404391D01*
X175186419Y-93462371D01*
X175203601Y-93530095D01*
X175186419Y-93588611D01*
X175152594Y-93645806D01*
X175112156Y-93785000D01*
X175664591Y-93785000D01*
X175674318Y-93785382D01*
X175674516Y-93785397D01*
X175675819Y-93785500D01*
X176174180Y-93785499D01*
X176174193Y-93785498D01*
X176175668Y-93785382D01*
X176185393Y-93785000D01*
X176737844Y-93785000D01*
X176697404Y-93645805D01*
X176663581Y-93588612D01*
X176646398Y-93520888D01*
X176663582Y-93462369D01*
X176697869Y-93404393D01*
X176742665Y-93250204D01*
X176745500Y-93214181D01*
X176745499Y-92815820D01*
X176742665Y-92779796D01*
X176697869Y-92625607D01*
X176616135Y-92487402D01*
X176616133Y-92487400D01*
X176616130Y-92487396D01*
X176502603Y-92373869D01*
X176502595Y-92373863D01*
X176364393Y-92292131D01*
X176364388Y-92292129D01*
X176210208Y-92247335D01*
X176210202Y-92247334D01*
X176174188Y-92244500D01*
X176174181Y-92244500D01*
X176061856Y-92244500D01*
X175994817Y-92224815D01*
X175974175Y-92208181D01*
X174008722Y-90242727D01*
X174008721Y-90242726D01*
X174008717Y-90242723D01*
X173902175Y-90171535D01*
X173783792Y-90122499D01*
X173783786Y-90122497D01*
X173658119Y-90097500D01*
X173658117Y-90097500D01*
X169331771Y-90097500D01*
X169331769Y-90097500D01*
X169206101Y-90122497D01*
X169206095Y-90122499D01*
X169087710Y-90171535D01*
X168981171Y-90242722D01*
X168981164Y-90242728D01*
X168119726Y-91104166D01*
X168048534Y-91210714D01*
X167999499Y-91329095D01*
X167999498Y-91329099D01*
X167993104Y-91361241D01*
X167960717Y-91423152D01*
X167900000Y-91457724D01*
X167830231Y-91453983D01*
X167783806Y-91424728D01*
X167777262Y-91418184D01*
X167624523Y-91322211D01*
X167454254Y-91262631D01*
X167454249Y-91262630D01*
X167275004Y-91242435D01*
X167274996Y-91242435D01*
X167095750Y-91262630D01*
X167095745Y-91262631D01*
X166925476Y-91322211D01*
X166772737Y-91418184D01*
X166645184Y-91545737D01*
X166549211Y-91698476D01*
X166489631Y-91868745D01*
X166489630Y-91868750D01*
X166469435Y-92047996D01*
X166469435Y-92048003D01*
X166489630Y-92227246D01*
X166489632Y-92227254D01*
X166490626Y-92230095D01*
X166490725Y-92232043D01*
X166491181Y-92234039D01*
X166490831Y-92234118D01*
X166494185Y-92299874D01*
X166459454Y-92360500D01*
X166397460Y-92392725D01*
X166386843Y-92394335D01*
X166367622Y-92396402D01*
X166360073Y-92398186D01*
X166359740Y-92396779D01*
X166298543Y-92401146D01*
X166248759Y-92377838D01*
X166204888Y-92343692D01*
X166164207Y-92312029D01*
X166044661Y-92247334D01*
X165954619Y-92198605D01*
X165954610Y-92198602D01*
X165729220Y-92121225D01*
X165572510Y-92095075D01*
X165494156Y-92082000D01*
X165255844Y-92082000D01*
X165197078Y-92091806D01*
X165020779Y-92121225D01*
X164795389Y-92198602D01*
X164795380Y-92198605D01*
X164585790Y-92312030D01*
X164585784Y-92312034D01*
X164397737Y-92458397D01*
X164397734Y-92458400D01*
X164236322Y-92633740D01*
X164105982Y-92833242D01*
X164010254Y-93051481D01*
X163951751Y-93282505D01*
X163932072Y-93519994D01*
X163932072Y-93520005D01*
X163951751Y-93757494D01*
X164010254Y-93988518D01*
X164105982Y-94206757D01*
X164236322Y-94406259D01*
X164236325Y-94406262D01*
X164236327Y-94406265D01*
X164397731Y-94581597D01*
X164397734Y-94581599D01*
X164397737Y-94581602D01*
X164585784Y-94727965D01*
X164585791Y-94727969D01*
X164585793Y-94727971D01*
X164729518Y-94805751D01*
X164779108Y-94854969D01*
X164794500Y-94914805D01*
X164794500Y-94985194D01*
X164774815Y-95052233D01*
X164729518Y-95094248D01*
X164701260Y-95109540D01*
X164585790Y-95172030D01*
X164585784Y-95172034D01*
X164397737Y-95318397D01*
X164397734Y-95318400D01*
X164397731Y-95318402D01*
X164397731Y-95318403D01*
X164356052Y-95363679D01*
X164236322Y-95493740D01*
X164105982Y-95693242D01*
X164010254Y-95911481D01*
X163969706Y-96071603D01*
X163934166Y-96131759D01*
X163871746Y-96163151D01*
X163802263Y-96155813D01*
X163747777Y-96112074D01*
X163725588Y-96045822D01*
X163725500Y-96041163D01*
X163725500Y-95410928D01*
X163700502Y-95285261D01*
X163700501Y-95285260D01*
X163700501Y-95285256D01*
X163653601Y-95172029D01*
X163651466Y-95166875D01*
X163651463Y-95166870D01*
X163651290Y-95166611D01*
X163638521Y-95147501D01*
X163580277Y-95060331D01*
X163580275Y-95060329D01*
X163580273Y-95060326D01*
X161912673Y-93392726D01*
X161912669Y-93392723D01*
X161806127Y-93321535D01*
X161759378Y-93302171D01*
X161687744Y-93272499D01*
X161687738Y-93272497D01*
X161562071Y-93247500D01*
X161562069Y-93247500D01*
X161490516Y-93247500D01*
X161427395Y-93230232D01*
X161321228Y-93167446D01*
X161285398Y-93146256D01*
X161285397Y-93146255D01*
X161285396Y-93146255D01*
X161285393Y-93146254D01*
X161127573Y-93100402D01*
X161127567Y-93100401D01*
X161090701Y-93097500D01*
X161090694Y-93097500D01*
X159934306Y-93097500D01*
X159934298Y-93097500D01*
X159897432Y-93100401D01*
X159897426Y-93100402D01*
X159739606Y-93146254D01*
X159739603Y-93146255D01*
X159598137Y-93229917D01*
X159598129Y-93229923D01*
X159481923Y-93346129D01*
X159481914Y-93346140D01*
X159481729Y-93346455D01*
X159481519Y-93346650D01*
X159477139Y-93352298D01*
X159476227Y-93351591D01*
X159430657Y-93394136D01*
X159361915Y-93406637D01*
X159297327Y-93379988D01*
X159273143Y-93352078D01*
X159272861Y-93352298D01*
X159268823Y-93347092D01*
X159268271Y-93346455D01*
X159268085Y-93346140D01*
X159268076Y-93346129D01*
X159151870Y-93229923D01*
X159151862Y-93229917D01*
X159046228Y-93167446D01*
X159010398Y-93146256D01*
X159010397Y-93146255D01*
X159010396Y-93146255D01*
X159010393Y-93146254D01*
X158852573Y-93100402D01*
X158852567Y-93100401D01*
X158815701Y-93097500D01*
X158815694Y-93097500D01*
X157659306Y-93097500D01*
X157659298Y-93097500D01*
X157622432Y-93100401D01*
X157622426Y-93100402D01*
X157464606Y-93146254D01*
X157464603Y-93146255D01*
X157322605Y-93230232D01*
X157259484Y-93247500D01*
X156634353Y-93247500D01*
X156508685Y-93272497D01*
X156508679Y-93272499D01*
X156390298Y-93321534D01*
X156283755Y-93392723D01*
X156064707Y-93611770D01*
X156003384Y-93645254D01*
X155990920Y-93647307D01*
X155983684Y-93648122D01*
X155983676Y-93648124D01*
X155813410Y-93707702D01*
X155660669Y-93803676D01*
X155533116Y-93931229D01*
X155437143Y-94083968D01*
X155377563Y-94254237D01*
X155377562Y-94254242D01*
X155357367Y-94433488D01*
X155357367Y-94433495D01*
X155377562Y-94612741D01*
X155377565Y-94612754D01*
X155437142Y-94783013D01*
X155440163Y-94789286D01*
X155438931Y-94789878D01*
X155455868Y-94849815D01*
X155436871Y-94914514D01*
X155428445Y-94927924D01*
X155428444Y-94927927D01*
X155368867Y-95098186D01*
X155368864Y-95098199D01*
X155348669Y-95277445D01*
X155348669Y-95277452D01*
X155368864Y-95456698D01*
X155368865Y-95456703D01*
X155428445Y-95626972D01*
X155491465Y-95727267D01*
X155524418Y-95779711D01*
X155651972Y-95907265D01*
X155706102Y-95941277D01*
X155755396Y-95972251D01*
X155804712Y-96003238D01*
X155974979Y-96062817D01*
X155982208Y-96063631D01*
X156046622Y-96090695D01*
X156056000Y-96099161D01*
X156119990Y-96163151D01*
X156178512Y-96221673D01*
X156178513Y-96221674D01*
X156268685Y-96281925D01*
X156268689Y-96281926D01*
X156268690Y-96281927D01*
X156285054Y-96292861D01*
X156285055Y-96292861D01*
X156285056Y-96292862D01*
X156306794Y-96301866D01*
X156403437Y-96341897D01*
X156403441Y-96341897D01*
X156403442Y-96341898D01*
X156529109Y-96366896D01*
X156529112Y-96366896D01*
X157172588Y-96366896D01*
X157239627Y-96386581D01*
X157260264Y-96403210D01*
X157323135Y-96466081D01*
X157464602Y-96549744D01*
X157506224Y-96561836D01*
X157622426Y-96595597D01*
X157622429Y-96595597D01*
X157622431Y-96595598D01*
X157659306Y-96598500D01*
X157659314Y-96598500D01*
X158815686Y-96598500D01*
X158815694Y-96598500D01*
X158852569Y-96595598D01*
X158852571Y-96595597D01*
X158852573Y-96595597D01*
X158894191Y-96583505D01*
X159010398Y-96549744D01*
X159151865Y-96466081D01*
X159268081Y-96349865D01*
X159268267Y-96349549D01*
X159268477Y-96349353D01*
X159272861Y-96343702D01*
X159273772Y-96344409D01*
X159319336Y-96301866D01*
X159388077Y-96289362D01*
X159452667Y-96316006D01*
X159476855Y-96343921D01*
X159477139Y-96343702D01*
X159481179Y-96348911D01*
X159481732Y-96349548D01*
X159481919Y-96349865D01*
X159481921Y-96349867D01*
X159481923Y-96349870D01*
X159598129Y-96466076D01*
X159598133Y-96466079D01*
X159598135Y-96466081D01*
X159739602Y-96549744D01*
X159781224Y-96561836D01*
X159897426Y-96595597D01*
X159897429Y-96595597D01*
X159897431Y-96595598D01*
X159934306Y-96598500D01*
X160702192Y-96598500D01*
X160769231Y-96618185D01*
X160789873Y-96634819D01*
X163447356Y-99292302D01*
X163480841Y-99353625D01*
X163475857Y-99423317D01*
X163433985Y-99479250D01*
X163368521Y-99503667D01*
X163359503Y-99503983D01*
X133613227Y-99462823D01*
X133546215Y-99443046D01*
X133500533Y-99390178D01*
X133489399Y-99338827D01*
X133489399Y-97775922D01*
X133509084Y-97708884D01*
X133561888Y-97663129D01*
X133613399Y-97651923D01*
X135012648Y-97651923D01*
X135097192Y-97635105D01*
X135138321Y-97626924D01*
X135256704Y-97577888D01*
X135278236Y-97563501D01*
X135288029Y-97556958D01*
X135352443Y-97513918D01*
X135363246Y-97506700D01*
X136522102Y-96347844D01*
X143400000Y-96347844D01*
X143406401Y-96407372D01*
X143406403Y-96407379D01*
X143456645Y-96542086D01*
X143456649Y-96542093D01*
X143542809Y-96657187D01*
X143542812Y-96657190D01*
X143657906Y-96743350D01*
X143657913Y-96743354D01*
X143792620Y-96793596D01*
X143792627Y-96793598D01*
X143852155Y-96799999D01*
X143852172Y-96800000D01*
X144250000Y-96800000D01*
X144750000Y-96800000D01*
X145147828Y-96800000D01*
X145147844Y-96799999D01*
X145207372Y-96793598D01*
X145207379Y-96793596D01*
X145342086Y-96743354D01*
X145342093Y-96743350D01*
X145457187Y-96657190D01*
X145457190Y-96657187D01*
X145543350Y-96542093D01*
X145543354Y-96542086D01*
X145593596Y-96407379D01*
X145593598Y-96407372D01*
X145599999Y-96347844D01*
X145600000Y-96347827D01*
X145600000Y-96263389D01*
X146674500Y-96263389D01*
X146674500Y-96386610D01*
X146698535Y-96507444D01*
X146698538Y-96507454D01*
X146745687Y-96621283D01*
X146745692Y-96621292D01*
X146814141Y-96723732D01*
X146814144Y-96723736D01*
X146901263Y-96810855D01*
X146901267Y-96810858D01*
X147003707Y-96879307D01*
X147003713Y-96879310D01*
X147003714Y-96879311D01*
X147117548Y-96926463D01*
X147221919Y-96947223D01*
X147238389Y-96950499D01*
X147238393Y-96950500D01*
X147238394Y-96950500D01*
X147361607Y-96950500D01*
X147361608Y-96950499D01*
X147482452Y-96926463D01*
X147596286Y-96879311D01*
X147698733Y-96810858D01*
X147785858Y-96723733D01*
X147854311Y-96621286D01*
X147901463Y-96507452D01*
X147925500Y-96386606D01*
X147925500Y-96347844D01*
X149000000Y-96347844D01*
X149006401Y-96407372D01*
X149006403Y-96407379D01*
X149056645Y-96542086D01*
X149056649Y-96542093D01*
X149142809Y-96657187D01*
X149142812Y-96657190D01*
X149257906Y-96743350D01*
X149257913Y-96743354D01*
X149392620Y-96793596D01*
X149392627Y-96793598D01*
X149452155Y-96799999D01*
X149452172Y-96800000D01*
X149850000Y-96800000D01*
X150350000Y-96800000D01*
X150747828Y-96800000D01*
X150747844Y-96799999D01*
X150807372Y-96793598D01*
X150807379Y-96793596D01*
X150942086Y-96743354D01*
X150942093Y-96743350D01*
X151057187Y-96657190D01*
X151057190Y-96657187D01*
X151143350Y-96542093D01*
X151143354Y-96542086D01*
X151193596Y-96407379D01*
X151193598Y-96407372D01*
X151199999Y-96347844D01*
X151200000Y-96347827D01*
X151200000Y-96050000D01*
X150350000Y-96050000D01*
X150350000Y-96800000D01*
X149850000Y-96800000D01*
X149850000Y-96050000D01*
X149000000Y-96050000D01*
X149000000Y-96347844D01*
X147925500Y-96347844D01*
X147925500Y-96263394D01*
X147901463Y-96142548D01*
X147854311Y-96028714D01*
X147854310Y-96028713D01*
X147854307Y-96028707D01*
X147785858Y-95926267D01*
X147785855Y-95926263D01*
X147698736Y-95839144D01*
X147698732Y-95839141D01*
X147596292Y-95770692D01*
X147596283Y-95770687D01*
X147491457Y-95727267D01*
X147482452Y-95723537D01*
X147482448Y-95723536D01*
X147482444Y-95723535D01*
X147361610Y-95699500D01*
X147361606Y-95699500D01*
X147238394Y-95699500D01*
X147238389Y-95699500D01*
X147117555Y-95723535D01*
X147117545Y-95723538D01*
X147003716Y-95770687D01*
X147003707Y-95770692D01*
X146901267Y-95839141D01*
X146901263Y-95839144D01*
X146814144Y-95926263D01*
X146814141Y-95926267D01*
X146745692Y-96028707D01*
X146745687Y-96028716D01*
X146698538Y-96142545D01*
X146698535Y-96142555D01*
X146674500Y-96263389D01*
X145600000Y-96263389D01*
X145600000Y-96050000D01*
X144750000Y-96050000D01*
X144750000Y-96800000D01*
X144250000Y-96800000D01*
X144250000Y-96050000D01*
X143400000Y-96050000D01*
X143400000Y-96347844D01*
X136522102Y-96347844D01*
X137933127Y-94936819D01*
X137994450Y-94903334D01*
X138020808Y-94900500D01*
X143336764Y-94900500D01*
X143403803Y-94920185D01*
X143449558Y-94972989D01*
X143459502Y-95042147D01*
X143452946Y-95067833D01*
X143406403Y-95192620D01*
X143406401Y-95192627D01*
X143400000Y-95252155D01*
X143400000Y-95550000D01*
X145600000Y-95550000D01*
X145600000Y-95252172D01*
X145599999Y-95252155D01*
X145593598Y-95192627D01*
X145593596Y-95192620D01*
X145543354Y-95057913D01*
X145543352Y-95057910D01*
X145518512Y-95024728D01*
X145494094Y-94959264D01*
X145508945Y-94890990D01*
X145518505Y-94876114D01*
X145543796Y-94842331D01*
X145594091Y-94707483D01*
X145600500Y-94647873D01*
X145600499Y-93552128D01*
X145594091Y-93492517D01*
X145582847Y-93462371D01*
X145543797Y-93357671D01*
X145543795Y-93357668D01*
X145509069Y-93311280D01*
X145484652Y-93245818D01*
X145499503Y-93177545D01*
X145520648Y-93149296D01*
X145733128Y-92936816D01*
X145794450Y-92903334D01*
X145820808Y-92900500D01*
X146790546Y-92900500D01*
X146857585Y-92920185D01*
X146903340Y-92972989D01*
X146913284Y-93042147D01*
X146884259Y-93105703D01*
X146878227Y-93112181D01*
X146814144Y-93176263D01*
X146814141Y-93176267D01*
X146745692Y-93278707D01*
X146745687Y-93278716D01*
X146698538Y-93392545D01*
X146698535Y-93392555D01*
X146674500Y-93513389D01*
X146674500Y-93636610D01*
X146698535Y-93757444D01*
X146698537Y-93757452D01*
X146698556Y-93757498D01*
X146745687Y-93871283D01*
X146745692Y-93871292D01*
X146814141Y-93973732D01*
X146814144Y-93973736D01*
X146901263Y-94060855D01*
X146901267Y-94060858D01*
X147003707Y-94129307D01*
X147003713Y-94129310D01*
X147003714Y-94129311D01*
X147117548Y-94176463D01*
X147238389Y-94200499D01*
X147238393Y-94200500D01*
X147238394Y-94200500D01*
X147361607Y-94200500D01*
X147361608Y-94200499D01*
X147482452Y-94176463D01*
X147596286Y-94129311D01*
X147698733Y-94060858D01*
X147785858Y-93973733D01*
X147854311Y-93871286D01*
X147901463Y-93757452D01*
X147925500Y-93636606D01*
X147925500Y-93513394D01*
X147901463Y-93392548D01*
X147854311Y-93278714D01*
X147854310Y-93278713D01*
X147854307Y-93278707D01*
X147785858Y-93176267D01*
X147785855Y-93176263D01*
X147721773Y-93112181D01*
X147688288Y-93050858D01*
X147693272Y-92981166D01*
X147735144Y-92925233D01*
X147800608Y-92900816D01*
X147809454Y-92900500D01*
X148679192Y-92900500D01*
X148746231Y-92920185D01*
X148766873Y-92936819D01*
X149037017Y-93206963D01*
X149070502Y-93268286D01*
X149065518Y-93337978D01*
X149058168Y-93354071D01*
X149056204Y-93357667D01*
X149005908Y-93492517D01*
X148999501Y-93552116D01*
X148999501Y-93552123D01*
X148999500Y-93552135D01*
X148999500Y-94647870D01*
X148999501Y-94647876D01*
X149005908Y-94707483D01*
X149056202Y-94842328D01*
X149056204Y-94842331D01*
X149081487Y-94876105D01*
X149105905Y-94941568D01*
X149091054Y-95009841D01*
X149081488Y-95024726D01*
X149056649Y-95057906D01*
X149056645Y-95057913D01*
X149006403Y-95192620D01*
X149006401Y-95192627D01*
X149000000Y-95252155D01*
X149000000Y-95550000D01*
X151200000Y-95550000D01*
X151200000Y-95252172D01*
X151199999Y-95252155D01*
X151193598Y-95192627D01*
X151193596Y-95192620D01*
X151143354Y-95057913D01*
X151143352Y-95057910D01*
X151118512Y-95024728D01*
X151094094Y-94959264D01*
X151108945Y-94890990D01*
X151118505Y-94876114D01*
X151143796Y-94842331D01*
X151194091Y-94707483D01*
X151200500Y-94647873D01*
X151200499Y-93552128D01*
X151194091Y-93492517D01*
X151182847Y-93462371D01*
X151143797Y-93357671D01*
X151143793Y-93357664D01*
X151057547Y-93242455D01*
X151057544Y-93242452D01*
X150942335Y-93156206D01*
X150942328Y-93156202D01*
X150807482Y-93105908D01*
X150807484Y-93105908D01*
X150769984Y-93101877D01*
X150705433Y-93075139D01*
X150681299Y-93045970D01*
X150679850Y-93046939D01*
X150664856Y-93024499D01*
X150664855Y-93024498D01*
X150657745Y-93013857D01*
X150605277Y-92935331D01*
X150605275Y-92935329D01*
X150605273Y-92935326D01*
X149414673Y-91744726D01*
X149414666Y-91744721D01*
X149308127Y-91673535D01*
X149304334Y-91671964D01*
X149189744Y-91624499D01*
X149189738Y-91624497D01*
X149064071Y-91599500D01*
X149064069Y-91599500D01*
X145435931Y-91599500D01*
X145435929Y-91599500D01*
X145310261Y-91624497D01*
X145310257Y-91624498D01*
X145288934Y-91633331D01*
X145288933Y-91633331D01*
X145191881Y-91673530D01*
X145191863Y-91673540D01*
X145085332Y-91744721D01*
X145085325Y-91744727D01*
X143994726Y-92835326D01*
X143931395Y-92930110D01*
X143931394Y-92930112D01*
X143923534Y-92941873D01*
X143886683Y-93030840D01*
X143842841Y-93085243D01*
X143799437Y-93101456D01*
X143800068Y-93104124D01*
X143792520Y-93105907D01*
X143657671Y-93156202D01*
X143657664Y-93156206D01*
X143542455Y-93242452D01*
X143542452Y-93242455D01*
X143456206Y-93357664D01*
X143456202Y-93357671D01*
X143405908Y-93492517D01*
X143404126Y-93500062D01*
X143401853Y-93499525D01*
X143379571Y-93553312D01*
X143322177Y-93593157D01*
X143283024Y-93599500D01*
X137635929Y-93599500D01*
X137510261Y-93624497D01*
X137510255Y-93624499D01*
X137401868Y-93669394D01*
X137401868Y-93669395D01*
X137391873Y-93673535D01*
X137391869Y-93673537D01*
X137285326Y-93744726D01*
X135628362Y-95401690D01*
X135567039Y-95435175D01*
X135497347Y-95430191D01*
X135441414Y-95388319D01*
X135416997Y-95322855D01*
X135424499Y-95270677D01*
X135436992Y-95237183D01*
X135443401Y-95177573D01*
X135443400Y-89722428D01*
X135436992Y-89662817D01*
X135436991Y-89662814D01*
X135406131Y-89580073D01*
X135401147Y-89510381D01*
X135434632Y-89449058D01*
X135495956Y-89415574D01*
X135522799Y-89412742D01*
X182125875Y-89599903D01*
G37*
%TD.AperFunction*%
%TA.AperFunction,Conductor*%
G36*
X121232790Y-89355352D02*
G01*
X121299749Y-89375306D01*
X121345291Y-89428293D01*
X121354957Y-89497491D01*
X121348473Y-89522683D01*
X121296208Y-89662814D01*
X121296207Y-89662816D01*
X121289800Y-89722416D01*
X121289800Y-89722423D01*
X121289799Y-89722435D01*
X121289799Y-95177570D01*
X121289800Y-95177576D01*
X121296207Y-95237183D01*
X121346501Y-95372028D01*
X121346505Y-95372035D01*
X121432751Y-95487244D01*
X121432754Y-95487247D01*
X121547963Y-95573493D01*
X121547970Y-95573497D01*
X121682816Y-95623791D01*
X121682815Y-95623791D01*
X121689743Y-95624535D01*
X121742426Y-95630200D01*
X123500519Y-95630199D01*
X123567558Y-95649884D01*
X123613313Y-95702687D01*
X123623257Y-95771846D01*
X123594232Y-95835402D01*
X123543853Y-95870381D01*
X123501969Y-95886002D01*
X123501964Y-95886005D01*
X123386755Y-95972251D01*
X123386752Y-95972254D01*
X123300506Y-96087463D01*
X123300502Y-96087470D01*
X123250208Y-96222316D01*
X123243801Y-96281915D01*
X123243800Y-96281928D01*
X123243800Y-99324302D01*
X123224115Y-99391341D01*
X123171311Y-99437096D01*
X123119628Y-99448302D01*
X120085080Y-99444104D01*
X120085077Y-99444104D01*
X120085056Y-99444104D01*
X116879048Y-99481501D01*
X113161374Y-99524867D01*
X113138781Y-99523058D01*
X111885484Y-99306141D01*
X111823326Y-99275807D01*
X110795858Y-98343918D01*
X110764358Y-98298928D01*
X110707781Y-98160314D01*
X110284333Y-97122866D01*
X110275141Y-97075302D01*
X110288661Y-94722815D01*
X113149500Y-94722815D01*
X113149500Y-94965392D01*
X113181161Y-95205889D01*
X113243947Y-95440208D01*
X113322644Y-95630198D01*
X113336776Y-95664316D01*
X113458064Y-95874393D01*
X113458066Y-95874396D01*
X113458067Y-95874397D01*
X113605733Y-96066840D01*
X113605739Y-96066847D01*
X113777256Y-96238364D01*
X113777263Y-96238370D01*
X113848279Y-96292862D01*
X113969711Y-96386040D01*
X114179788Y-96507328D01*
X114403900Y-96600158D01*
X114638211Y-96662942D01*
X114818586Y-96686688D01*
X114878711Y-96694604D01*
X114878712Y-96694604D01*
X115121289Y-96694604D01*
X115169388Y-96688271D01*
X115361789Y-96662942D01*
X115596100Y-96600158D01*
X115820212Y-96507328D01*
X116030289Y-96386040D01*
X116222738Y-96238369D01*
X116394265Y-96066842D01*
X116541936Y-95874393D01*
X116663224Y-95664316D01*
X116756054Y-95440204D01*
X116818838Y-95205893D01*
X116850500Y-94965392D01*
X116850500Y-94722816D01*
X116848481Y-94707483D01*
X116836009Y-94612747D01*
X116818838Y-94482315D01*
X116756054Y-94248004D01*
X116752443Y-94239286D01*
X116663225Y-94023894D01*
X116663222Y-94023889D01*
X116648123Y-93997737D01*
X116541936Y-93813815D01*
X116414170Y-93647307D01*
X116394266Y-93621367D01*
X116394260Y-93621360D01*
X116222743Y-93449843D01*
X116222736Y-93449837D01*
X116030293Y-93302171D01*
X116030292Y-93302170D01*
X116030289Y-93302168D01*
X115820212Y-93180880D01*
X115812161Y-93177545D01*
X115596104Y-93088051D01*
X115457299Y-93050858D01*
X115361789Y-93025266D01*
X115361788Y-93025265D01*
X115361785Y-93025265D01*
X115121289Y-92993604D01*
X115121288Y-92993604D01*
X114878712Y-92993604D01*
X114878711Y-92993604D01*
X114638214Y-93025265D01*
X114403895Y-93088051D01*
X114179794Y-93180877D01*
X114179785Y-93180881D01*
X113969706Y-93302171D01*
X113777263Y-93449837D01*
X113777256Y-93449843D01*
X113605739Y-93621360D01*
X113605733Y-93621367D01*
X113458067Y-93813810D01*
X113336777Y-94023889D01*
X113336775Y-94023894D01*
X113243947Y-94247999D01*
X113181161Y-94482318D01*
X113149500Y-94722815D01*
X110288661Y-94722815D01*
X110299941Y-92760185D01*
X110301721Y-92739958D01*
X110593008Y-91040784D01*
X110623737Y-90978036D01*
X110630084Y-90971587D01*
X111485127Y-90164046D01*
X111518598Y-90141475D01*
X112677444Y-89610337D01*
X112724797Y-89599138D01*
X119897623Y-89350082D01*
X119902361Y-89350009D01*
X121232790Y-89355352D01*
G37*
%TD.AperFunction*%
%TA.AperFunction,Conductor*%
G36*
X132615745Y-89401067D02*
G01*
X132682701Y-89421020D01*
X132728243Y-89474007D01*
X132737909Y-89543205D01*
X132731425Y-89568397D01*
X132696210Y-89662814D01*
X132696209Y-89662816D01*
X132689802Y-89722416D01*
X132689802Y-89722423D01*
X132689801Y-89722435D01*
X132689801Y-95177570D01*
X132689802Y-95177576D01*
X132696209Y-95237183D01*
X132746503Y-95372028D01*
X132746507Y-95372035D01*
X132832753Y-95487244D01*
X132832756Y-95487247D01*
X132947965Y-95573493D01*
X132947972Y-95573497D01*
X132989851Y-95589117D01*
X133045785Y-95630988D01*
X133070202Y-95696452D01*
X133055350Y-95764725D01*
X133005945Y-95814131D01*
X132946518Y-95829299D01*
X131696429Y-95829299D01*
X131696423Y-95829300D01*
X131636816Y-95835707D01*
X131501971Y-95886001D01*
X131501969Y-95886003D01*
X131440911Y-95931711D01*
X131375447Y-95956128D01*
X131307174Y-95941277D01*
X131292290Y-95931711D01*
X131231232Y-95886003D01*
X131231229Y-95886001D01*
X131096383Y-95835707D01*
X131096384Y-95835707D01*
X131036784Y-95829300D01*
X131036782Y-95829299D01*
X131036774Y-95829299D01*
X131036766Y-95829299D01*
X130724500Y-95829299D01*
X130657461Y-95809614D01*
X130611706Y-95756810D01*
X130600500Y-95705299D01*
X130600500Y-95385928D01*
X130575502Y-95260261D01*
X130575501Y-95260260D01*
X130575501Y-95260256D01*
X130526465Y-95141873D01*
X130498867Y-95100569D01*
X130498867Y-95100568D01*
X130455275Y-95035328D01*
X130455272Y-95035325D01*
X129821722Y-94401776D01*
X129788237Y-94340453D01*
X129786182Y-94327973D01*
X129785368Y-94320745D01*
X129725789Y-94150478D01*
X129712486Y-94129307D01*
X129646251Y-94023894D01*
X129629816Y-93997738D01*
X129502262Y-93870184D01*
X129349523Y-93774211D01*
X129179254Y-93714631D01*
X129179249Y-93714630D01*
X129000004Y-93694435D01*
X128999996Y-93694435D01*
X128820750Y-93714630D01*
X128820745Y-93714631D01*
X128650476Y-93774211D01*
X128497737Y-93870184D01*
X128370184Y-93997737D01*
X128274211Y-94150476D01*
X128214631Y-94320745D01*
X128214630Y-94320750D01*
X128194435Y-94499996D01*
X128194435Y-94500003D01*
X128214630Y-94679249D01*
X128214632Y-94679257D01*
X128268824Y-94834129D01*
X128272385Y-94903907D01*
X128237656Y-94964535D01*
X128175663Y-94996762D01*
X128165665Y-94998303D01*
X128020750Y-95014630D01*
X128020745Y-95014631D01*
X127850476Y-95074211D01*
X127697737Y-95170184D01*
X127570184Y-95297737D01*
X127474210Y-95450478D01*
X127414630Y-95620750D01*
X127402256Y-95730577D01*
X127393597Y-95764145D01*
X127373746Y-95812070D01*
X127329905Y-95866474D01*
X127263611Y-95888539D01*
X127215852Y-95880800D01*
X127096278Y-95836202D01*
X127096271Y-95836200D01*
X127036743Y-95829799D01*
X126616599Y-95829799D01*
X126616599Y-98055999D01*
X126596914Y-98123038D01*
X126544110Y-98168793D01*
X126492599Y-98179999D01*
X126240599Y-98179999D01*
X126173560Y-98160314D01*
X126127805Y-98107510D01*
X126116599Y-98055999D01*
X126116599Y-95829799D01*
X125696454Y-95829799D01*
X125636926Y-95836200D01*
X125636919Y-95836202D01*
X125493900Y-95889545D01*
X125492695Y-95886316D01*
X125440598Y-95897625D01*
X125375145Y-95873179D01*
X125333299Y-95817226D01*
X125325500Y-95773945D01*
X125325500Y-95547718D01*
X125342112Y-95485720D01*
X125352179Y-95468284D01*
X125410674Y-95288256D01*
X125430460Y-95100000D01*
X125410674Y-94911744D01*
X125388269Y-94842789D01*
X125386274Y-94772948D01*
X125422354Y-94713115D01*
X125455758Y-94691194D01*
X125527730Y-94659151D01*
X125680871Y-94547888D01*
X125807533Y-94407216D01*
X125902179Y-94243284D01*
X125960674Y-94063256D01*
X125980460Y-93875000D01*
X125960674Y-93686744D01*
X125902179Y-93506716D01*
X125807533Y-93342784D01*
X125680871Y-93202112D01*
X125651648Y-93180880D01*
X125527734Y-93090851D01*
X125527729Y-93090848D01*
X125354807Y-93013857D01*
X125354802Y-93013855D01*
X125201007Y-92981166D01*
X125169646Y-92974500D01*
X124980354Y-92974500D01*
X124948993Y-92981166D01*
X124795197Y-93013855D01*
X124795192Y-93013857D01*
X124622270Y-93090848D01*
X124622265Y-93090851D01*
X124469129Y-93202111D01*
X124342466Y-93342785D01*
X124274785Y-93460013D01*
X124224218Y-93508228D01*
X124155611Y-93521452D01*
X124090747Y-93495484D01*
X124050218Y-93438570D01*
X124043398Y-93398013D01*
X124043398Y-89722429D01*
X124043397Y-89722423D01*
X124043396Y-89722416D01*
X124036990Y-89662817D01*
X123989026Y-89534221D01*
X123984043Y-89464531D01*
X124017528Y-89403208D01*
X124078851Y-89369723D01*
X124105703Y-89366890D01*
X132615745Y-89401067D01*
G37*
%TD.AperFunction*%
%TA.AperFunction,Conductor*%
G36*
X172180203Y-96920549D02*
G01*
X172211382Y-96961858D01*
X172244429Y-97032728D01*
X172244432Y-97032734D01*
X172252575Y-97044363D01*
X172274902Y-97110569D01*
X172275000Y-97115486D01*
X172275000Y-97510000D01*
X172322828Y-97510000D01*
X172322844Y-97509999D01*
X172382372Y-97503598D01*
X172382376Y-97503597D01*
X172517089Y-97453352D01*
X172518924Y-97452350D01*
X172520968Y-97451905D01*
X172525398Y-97450253D01*
X172525635Y-97450889D01*
X172587196Y-97437493D01*
X172649480Y-97459603D01*
X172679359Y-97480524D01*
X172722262Y-97510566D01*
X172722266Y-97510568D01*
X172928504Y-97606739D01*
X173148308Y-97665635D01*
X173310230Y-97679801D01*
X173374998Y-97685468D01*
X173375000Y-97685468D01*
X173375002Y-97685468D01*
X173431673Y-97680509D01*
X173601692Y-97665635D01*
X173821496Y-97606739D01*
X174027734Y-97510568D01*
X174206825Y-97385167D01*
X174273031Y-97362841D01*
X174340798Y-97379851D01*
X174388611Y-97430800D01*
X174401289Y-97499509D01*
X174374807Y-97564166D01*
X174365629Y-97574424D01*
X173978873Y-97961181D01*
X173917550Y-97994666D01*
X173891192Y-97997500D01*
X171940567Y-97997500D01*
X171873528Y-97977815D01*
X171827773Y-97925011D01*
X171817829Y-97855853D01*
X171823526Y-97832545D01*
X171860366Y-97727262D01*
X171860369Y-97727249D01*
X171872440Y-97620117D01*
X171899506Y-97555703D01*
X171957101Y-97516147D01*
X171971081Y-97513918D01*
X171975000Y-97510000D01*
X171975000Y-97014262D01*
X171994685Y-96947223D01*
X172047489Y-96901468D01*
X172116647Y-96891524D01*
X172180203Y-96920549D01*
G37*
%TD.AperFunction*%
%TA.AperFunction,Conductor*%
G36*
X172180203Y-94060549D02*
G01*
X172211382Y-94101858D01*
X172244429Y-94172728D01*
X172244432Y-94172734D01*
X172252575Y-94184363D01*
X172274902Y-94250569D01*
X172275000Y-94255486D01*
X172275000Y-94540000D01*
X172322828Y-94540000D01*
X172322844Y-94539999D01*
X172382372Y-94533598D01*
X172382375Y-94533597D01*
X172434075Y-94514314D01*
X172503766Y-94509328D01*
X172548530Y-94528918D01*
X172579606Y-94550677D01*
X172623231Y-94605253D01*
X172630425Y-94674751D01*
X172623045Y-94699703D01*
X172614878Y-94719420D01*
X172614876Y-94719427D01*
X172584500Y-94872138D01*
X172584500Y-95027861D01*
X172614876Y-95180572D01*
X172614879Y-95180583D01*
X172623044Y-95200296D01*
X172630511Y-95269765D01*
X172599235Y-95332244D01*
X172579607Y-95349320D01*
X172548536Y-95371077D01*
X172482331Y-95393405D01*
X172434079Y-95385685D01*
X172382382Y-95366403D01*
X172382372Y-95366401D01*
X172322844Y-95360000D01*
X172275000Y-95360000D01*
X172275000Y-95644512D01*
X172255315Y-95711551D01*
X172252576Y-95715633D01*
X172244435Y-95727258D01*
X172244434Y-95727261D01*
X172230655Y-95756810D01*
X172212217Y-95796352D01*
X172211382Y-95798142D01*
X172165209Y-95850581D01*
X172098016Y-95869733D01*
X172031135Y-95849517D01*
X171985800Y-95796352D01*
X171975000Y-95745737D01*
X171975000Y-95360000D01*
X171927155Y-95360000D01*
X171867627Y-95366401D01*
X171867620Y-95366403D01*
X171732913Y-95416645D01*
X171732906Y-95416649D01*
X171617812Y-95502809D01*
X171617809Y-95502812D01*
X171531649Y-95617906D01*
X171531645Y-95617913D01*
X171515682Y-95660714D01*
X171473811Y-95716648D01*
X171408346Y-95741065D01*
X171340073Y-95726213D01*
X171290668Y-95676808D01*
X171275500Y-95617381D01*
X171275500Y-95580812D01*
X171294506Y-95514840D01*
X171307769Y-95493732D01*
X171380789Y-95377522D01*
X171440368Y-95207255D01*
X171440369Y-95207249D01*
X171460565Y-95028003D01*
X171460565Y-95027996D01*
X171440369Y-94848750D01*
X171440368Y-94848745D01*
X171424069Y-94802166D01*
X171380789Y-94678478D01*
X171380788Y-94678476D01*
X171294506Y-94541159D01*
X171275500Y-94475187D01*
X171275500Y-94282618D01*
X171295185Y-94215579D01*
X171347989Y-94169824D01*
X171417147Y-94159880D01*
X171480703Y-94188905D01*
X171515682Y-94239286D01*
X171531644Y-94282084D01*
X171531649Y-94282093D01*
X171617809Y-94397187D01*
X171617812Y-94397190D01*
X171732906Y-94483350D01*
X171732913Y-94483354D01*
X171867620Y-94533596D01*
X171867627Y-94533598D01*
X171927155Y-94539999D01*
X171927172Y-94540000D01*
X171975000Y-94540000D01*
X171975000Y-94154262D01*
X171994685Y-94087223D01*
X172047489Y-94041468D01*
X172116647Y-94031524D01*
X172180203Y-94060549D01*
G37*
%TD.AperFunction*%
%TA.AperFunction,Conductor*%
G36*
X167409926Y-94173785D02*
G01*
X167459332Y-94223190D01*
X167474500Y-94282618D01*
X167474500Y-95617381D01*
X167454815Y-95684420D01*
X167402011Y-95730175D01*
X167332853Y-95740119D01*
X167269297Y-95711094D01*
X167234318Y-95660714D01*
X167218354Y-95617913D01*
X167218350Y-95617906D01*
X167132190Y-95502812D01*
X167132187Y-95502809D01*
X167017093Y-95416649D01*
X167017086Y-95416645D01*
X166882379Y-95366403D01*
X166882372Y-95366401D01*
X166822844Y-95360000D01*
X166775000Y-95360000D01*
X166775000Y-95477216D01*
X166755315Y-95544255D01*
X166702511Y-95590010D01*
X166633353Y-95599954D01*
X166569797Y-95570929D01*
X166547192Y-95545038D01*
X166513675Y-95493737D01*
X166513671Y-95493732D01*
X166507767Y-95487318D01*
X166476847Y-95424662D01*
X166475000Y-95403339D01*
X166475000Y-95360000D01*
X166444953Y-95360000D01*
X166377914Y-95340315D01*
X166353725Y-95319985D01*
X166352269Y-95318403D01*
X166352264Y-95318399D01*
X166352262Y-95318397D01*
X166164215Y-95172034D01*
X166164209Y-95172030D01*
X166086395Y-95129919D01*
X166020481Y-95094248D01*
X165970892Y-95045029D01*
X165955500Y-94985194D01*
X165955500Y-94914805D01*
X165975185Y-94847766D01*
X166020481Y-94805751D01*
X166164207Y-94727971D01*
X166170830Y-94722816D01*
X166352262Y-94581603D01*
X166352263Y-94581601D01*
X166352269Y-94581597D01*
X166353724Y-94580015D01*
X166354478Y-94579562D01*
X166356040Y-94578125D01*
X166356335Y-94578446D01*
X166413612Y-94544026D01*
X166444953Y-94540000D01*
X166475000Y-94540000D01*
X166475000Y-94496660D01*
X166494685Y-94429621D01*
X166507770Y-94412677D01*
X166513673Y-94406265D01*
X166547191Y-94354962D01*
X166600337Y-94309605D01*
X166669568Y-94300181D01*
X166732904Y-94329683D01*
X166770236Y-94388743D01*
X166775000Y-94422783D01*
X166775000Y-94540000D01*
X166822828Y-94540000D01*
X166822844Y-94539999D01*
X166882372Y-94533598D01*
X166882379Y-94533596D01*
X167017086Y-94483354D01*
X167017093Y-94483350D01*
X167132187Y-94397190D01*
X167132190Y-94397187D01*
X167218350Y-94282093D01*
X167218355Y-94282084D01*
X167234318Y-94239286D01*
X167276189Y-94183352D01*
X167341653Y-94158934D01*
X167409926Y-94173785D01*
G37*
%TD.AperFunction*%
%TA.AperFunction,Conductor*%
G36*
X173340279Y-91418185D02*
G01*
X173360921Y-91434819D01*
X174069731Y-92143629D01*
X174103216Y-92204952D01*
X174098232Y-92274644D01*
X174056360Y-92330577D01*
X173990896Y-92354994D01*
X173929645Y-92343692D01*
X173901520Y-92330577D01*
X173821496Y-92293261D01*
X173821492Y-92293260D01*
X173821488Y-92293258D01*
X173601697Y-92234366D01*
X173601693Y-92234365D01*
X173601692Y-92234365D01*
X173601691Y-92234364D01*
X173601686Y-92234364D01*
X173375002Y-92214532D01*
X173374998Y-92214532D01*
X173148313Y-92234364D01*
X173148302Y-92234366D01*
X172928511Y-92293258D01*
X172928502Y-92293261D01*
X172722267Y-92389431D01*
X172649480Y-92440396D01*
X172583273Y-92462723D01*
X172525597Y-92449213D01*
X172525399Y-92449746D01*
X172521229Y-92448190D01*
X172518933Y-92447653D01*
X172517091Y-92446647D01*
X172382379Y-92396403D01*
X172382372Y-92396401D01*
X172322844Y-92390000D01*
X172255788Y-92390000D01*
X172188749Y-92370315D01*
X172142994Y-92317511D01*
X172138746Y-92306954D01*
X172133559Y-92292131D01*
X172100789Y-92198478D01*
X172004816Y-92045738D01*
X171877262Y-91918184D01*
X171724523Y-91822211D01*
X171554254Y-91762631D01*
X171554249Y-91762630D01*
X171375004Y-91742435D01*
X171374996Y-91742435D01*
X171270309Y-91754230D01*
X171201487Y-91742175D01*
X171150108Y-91694826D01*
X171139384Y-91671964D01*
X171115733Y-91604373D01*
X171105742Y-91588473D01*
X171086741Y-91521237D01*
X171107108Y-91454401D01*
X171160375Y-91409187D01*
X171210735Y-91398500D01*
X173273240Y-91398500D01*
X173340279Y-91418185D01*
G37*
%TD.AperFunction*%
%TD*%
M02*
