M48
; DRILL file {KiCad 8.0.5} date 2025-06-09T13:31:49+0300
; FORMAT={-:-/ absolute / inch / decimal}
; #@! TF.CreationDate,2025-06-09T13:31:49+03:00
; #@! TF.GenerationSoftware,Kicad,Pcbnew,8.0.5
; #@! TF.FileFunction,Plated,1,2,PTH
FMAT,2
INCH
; #@! TA.AperFunction,Plated,PTH,ViaDrill
T1C0.0118
; #@! TA.AperFunction,Plated,PTH,ViaDrill
T2C0.0157
; #@! TA.AperFunction,Plated,PTH,ComponentDrill
T3C0.0492
%
G90
G05
T1
X4.9094Y-3.5748
X5.0177Y-3.7126
X5.0472Y-3.7717
X5.0787Y-3.7205
X5.0866Y-3.6732
X5.1772Y-3.6791
X5.4035Y-3.6791
X5.4921Y-3.6791
X5.5965Y-3.6791
X5.6998Y-3.81
X5.9173Y-3.814
X6.0256Y-3.6772
X6.0896Y-3.6772
X6.1478Y-3.7511
X6.1481Y-3.7179
X6.1859Y-3.7342
X6.3563Y-3.7461
X6.3839Y-3.7697
X6.5581Y-3.8405
X6.5659Y-3.7342
X6.5856Y-3.6239
X6.5856Y-3.8995
X6.6274Y-3.872
X6.6699Y-3.6137
X6.7083Y-3.6202
X6.7187Y-3.7413
X6.7352Y-3.8405
X6.747Y-3.6436
X6.7707Y-3.7342
X6.7943Y-3.62
X6.7943Y-3.8483
X6.9262Y-3.7411
T2
X4.3878Y-3.7953
X4.3917Y-3.685
X4.4508Y-3.6043
X4.4803Y-3.8622
X4.6122Y-3.8563
X4.628Y-3.6004
X4.7008Y-3.7953
X4.7067Y-3.686
X4.7441Y-3.5886
X4.7451Y-3.877
X4.9026Y-3.7441
X4.9242Y-3.6959
X4.9744Y-3.7638
X5.3051Y-3.8642
X5.3937Y-3.8642
X5.4528Y-3.8031
X5.5098Y-3.8661
X5.563Y-3.8091
X5.6043Y-3.877
X5.7057Y-3.8799
X5.815Y-3.8839
X5.9213Y-3.8848
X6.0108Y-3.8839
X6.0709Y-3.8327
X6.1289Y-3.8868
X6.1807Y-3.8289
X6.2358Y-3.8879
X6.2909Y-3.8289
X6.3559Y-3.8899
X6.4189Y-3.6852
X6.9852Y-3.8612
X7.0039Y-3.5935
X7.0827Y-3.8858
X7.0846Y-3.5748
X7.1831Y-3.8543
X7.1909Y-3.6043
X7.2205Y-3.7382
T3
X6.5108Y-3.6819
X6.5108Y-3.7945
X6.8258Y-3.6819
X6.8258Y-3.7945
M30
