%TF.GenerationSoftware,KiCad,Pcbnew,8.0.5*%
%TF.CreationDate,2025-06-09T13:31:45+03:00*%
%TF.ProjectId,Secondary Board,5365636f-6e64-4617-9279-20426f617264,rev?*%
%TF.SameCoordinates,Original*%
%TF.FileFunction,Copper,L2,Bot*%
%TF.FilePolarity,Positive*%
%FSLAX46Y46*%
G04 Gerber Fmt 4.6, Leading zero omitted, Abs format (unit mm)*
G04 Created by KiCad (PCBNEW 8.0.5) date 2025-06-09 13:31:45*
%MOMM*%
%LPD*%
G01*
G04 APERTURE LIST*
%TA.AperFunction,ComponentPad*%
%ADD10C,1.875000*%
%TD*%
%TA.AperFunction,ComponentPad*%
%ADD11C,1.600000*%
%TD*%
%TA.AperFunction,ViaPad*%
%ADD12C,0.600000*%
%TD*%
%TA.AperFunction,ViaPad*%
%ADD13C,0.800000*%
%TD*%
%TA.AperFunction,Conductor*%
%ADD14C,0.300000*%
%TD*%
%TA.AperFunction,Conductor*%
%ADD15C,1.250000*%
%TD*%
%TA.AperFunction,Conductor*%
%ADD16C,0.800000*%
%TD*%
%TA.AperFunction,Conductor*%
%ADD17C,1.000000*%
%TD*%
%TA.AperFunction,Conductor*%
%ADD18C,1.500000*%
%TD*%
G04 APERTURE END LIST*
D10*
%TO.P,J1,MH1,MH1*%
%TO.N,unconnected-(J1-PadMH1)*%
X165375000Y-93520000D03*
D11*
%TO.P,J1,MH2,MH2*%
%TO.N,unconnected-(J1-PadMH2)*%
X173375000Y-93520000D03*
%TO.P,J1,MH3,MH3*%
%TO.N,unconnected-(J1-PadMH3)*%
X173375000Y-96380000D03*
D10*
%TO.P,J1,MH4,MH4*%
%TO.N,unconnected-(J1-PadMH4)*%
X165375000Y-96380000D03*
%TD*%
D12*
%TO.N,/USB_C_P*%
X169415380Y-91788380D03*
X167275000Y-99048000D03*
%TO.N,/USB_C_N*%
X170389944Y-91953896D03*
X168337000Y-98348000D03*
%TO.N,/USB_N*%
X156162932Y-94433492D03*
X129000000Y-94500000D03*
%TO.N,GND*%
X175925000Y-95025000D03*
D13*
X113050000Y-91550000D03*
D12*
X154675000Y-93400000D03*
D13*
X179900000Y-98700000D03*
X163039944Y-93603896D03*
X111450000Y-96400000D03*
D12*
X166575000Y-97548000D03*
D13*
X147700000Y-98650000D03*
X139950000Y-98200000D03*
X113800000Y-98100000D03*
D12*
X166775000Y-94848000D03*
D13*
X120500000Y-91150000D03*
X117550000Y-91450000D03*
X134750000Y-98150000D03*
D12*
X144775000Y-96775000D03*
D13*
X137000000Y-98150000D03*
X182650000Y-91550000D03*
X159789944Y-97253896D03*
X155675000Y-98725000D03*
D12*
X129200000Y-93300000D03*
D13*
X161439944Y-98803896D03*
X111550000Y-93600000D03*
X177425000Y-98075000D03*
D12*
X139500000Y-93450000D03*
X171975000Y-94848000D03*
D13*
X119550000Y-93625000D03*
X150400000Y-98675000D03*
X182450000Y-97900000D03*
X126350000Y-95599998D03*
X152675000Y-98650000D03*
D12*
X157120840Y-94848000D03*
D13*
X119400000Y-96400000D03*
X177900000Y-91275000D03*
D12*
X124700000Y-90800000D03*
D13*
X142350000Y-98475000D03*
X144925000Y-98550000D03*
D12*
X172575000Y-97748000D03*
D13*
X138500000Y-96600000D03*
X120525000Y-98475000D03*
D12*
X153050000Y-93400000D03*
X137250000Y-93450000D03*
D13*
X154200000Y-97350000D03*
X156989944Y-97253896D03*
X179950000Y-90800000D03*
D12*
X172575000Y-91948000D03*
D13*
X141300000Y-96750000D03*
D12*
X142150000Y-93450000D03*
X131500000Y-93450000D03*
X127450000Y-94300000D03*
D13*
X117150000Y-97950000D03*
X158389944Y-98753896D03*
X183400000Y-94950000D03*
D12*
X150300000Y-96875000D03*
%TO.N,/USB_P*%
X156154234Y-95277449D03*
X128200000Y-95800000D03*
%TO.N,/VBUS*%
X171375000Y-92548000D03*
D13*
X125075000Y-93875000D03*
D12*
X171075000Y-97548000D03*
X167275000Y-92048000D03*
X161450000Y-95150000D03*
X162150000Y-95750000D03*
X170655000Y-95028000D03*
D13*
X124525000Y-95100000D03*
%TD*%
D14*
%TO.N,/USB_C_P*%
X167275000Y-97948000D02*
X167275000Y-99048000D01*
X167775000Y-97448000D02*
X167275000Y-97948000D01*
X167775000Y-93418840D02*
X167775000Y-97448000D01*
X169415380Y-91788380D02*
X169405460Y-91788380D01*
X169405460Y-91788380D02*
X167775000Y-93418840D01*
%TO.N,/USB_C_N*%
X168337000Y-94006840D02*
X168337000Y-98348000D01*
X170389944Y-91953896D02*
X168337000Y-94006840D01*
%TO.N,/USB_N*%
X156162932Y-94433492D02*
X156162932Y-94461669D01*
X129000000Y-94500000D02*
X129150000Y-94650000D01*
X155946424Y-94650000D02*
X156162932Y-94433492D01*
X129150000Y-94650000D02*
X155946424Y-94650000D01*
%TO.N,/USB_P*%
X128200000Y-95800000D02*
X128775000Y-95225000D01*
X156154234Y-95277449D02*
X156105681Y-95228896D01*
X128775000Y-95225000D02*
X156101785Y-95225000D01*
X156101785Y-95225000D02*
X156154234Y-95277449D01*
D15*
%TO.N,/VBUS*%
X125150000Y-93825000D02*
X124550000Y-94425000D01*
D16*
X171375000Y-91561604D02*
X170461396Y-90648000D01*
D17*
X166975000Y-91748000D02*
X167275000Y-92048000D01*
D16*
X171075000Y-97548000D02*
X170675000Y-97148000D01*
D14*
X171275000Y-92448000D02*
X171275000Y-92028761D01*
D17*
X124550000Y-95100000D02*
X124550000Y-94400000D01*
X161075000Y-91748000D02*
X162039944Y-91748000D01*
X161075000Y-92712944D02*
X162039944Y-91748000D01*
D18*
X127180896Y-91744104D02*
X159886048Y-91744104D01*
D17*
X161075000Y-94648000D02*
X161075000Y-94700000D01*
D16*
X170675000Y-97148000D02*
X170675000Y-93248000D01*
X170461396Y-90648000D02*
X168075000Y-90648000D01*
X170675000Y-93248000D02*
X171375000Y-92548000D01*
D17*
X161075000Y-93053896D02*
X161075000Y-94648000D01*
X161075000Y-94700000D02*
X162150000Y-95775000D01*
D16*
X171375000Y-92548000D02*
X171375000Y-91561604D01*
D18*
X159886048Y-91744104D02*
X159889944Y-91748000D01*
D16*
X168075000Y-90648000D02*
X166975000Y-91748000D01*
D18*
X125109552Y-93815448D02*
X127055896Y-91869104D01*
D17*
X161075000Y-92933056D02*
X159889944Y-91748000D01*
X161075000Y-91748000D02*
X166975000Y-91748000D01*
D14*
X171375000Y-92548000D02*
X171275000Y-92448000D01*
D17*
X161075000Y-93053896D02*
X161075000Y-92712944D01*
X161075000Y-93053896D02*
X161075000Y-92933056D01*
D18*
X159889944Y-91748000D02*
X161075000Y-91748000D01*
D17*
X161075000Y-91748000D02*
X161075000Y-93053896D01*
D18*
X127055896Y-91869104D02*
X127180896Y-91744104D01*
%TD*%
%TA.AperFunction,Conductor*%
%TO.N,GND*%
G36*
X182125875Y-89599903D02*
G01*
X182172327Y-89609134D01*
X182187116Y-89615184D01*
X183001979Y-89948537D01*
X183233828Y-90043384D01*
X183263714Y-90060827D01*
X184166333Y-90773421D01*
X184206754Y-90830411D01*
X184210047Y-90841698D01*
X184596307Y-92444675D01*
X184599740Y-92475766D01*
X184575288Y-93959995D01*
X184575056Y-93974104D01*
X184575288Y-93999500D01*
X184599874Y-96696257D01*
X184597112Y-96723437D01*
X184346733Y-97888664D01*
X184318925Y-97944148D01*
X183398974Y-98998258D01*
X183353374Y-99031130D01*
X182183032Y-99520371D01*
X182135035Y-99529965D01*
X168135813Y-99510593D01*
X168068801Y-99490816D01*
X168023119Y-99437948D01*
X168013272Y-99368776D01*
X168018944Y-99345638D01*
X168062669Y-99220681D01*
X168065434Y-99221648D01*
X168093121Y-99172112D01*
X168154770Y-99139233D01*
X168193817Y-99137433D01*
X168336996Y-99153565D01*
X168337000Y-99153565D01*
X168337004Y-99153565D01*
X168516249Y-99133369D01*
X168516252Y-99133368D01*
X168516255Y-99133368D01*
X168686522Y-99073789D01*
X168839262Y-98977816D01*
X168966816Y-98850262D01*
X169062789Y-98697522D01*
X169122368Y-98527255D01*
X169131242Y-98448498D01*
X169142565Y-98348003D01*
X169142565Y-98347996D01*
X169122369Y-98168750D01*
X169122366Y-98168737D01*
X169062790Y-97998481D01*
X169062789Y-97998478D01*
X169028651Y-97944148D01*
X169006506Y-97908903D01*
X168987500Y-97842931D01*
X168987500Y-94327648D01*
X169007185Y-94260609D01*
X169023819Y-94239967D01*
X169562819Y-93700967D01*
X169624142Y-93667482D01*
X169693834Y-93672466D01*
X169749767Y-93714338D01*
X169774184Y-93779802D01*
X169774500Y-93788648D01*
X169774500Y-97236696D01*
X169809103Y-97410659D01*
X169809104Y-97410663D01*
X169809105Y-97410666D01*
X169829254Y-97459308D01*
X169876984Y-97574542D01*
X169876988Y-97574549D01*
X169918510Y-97636692D01*
X169918511Y-97636692D01*
X169975537Y-97722038D01*
X169975540Y-97722041D01*
X170500960Y-98247460D01*
X170500964Y-98247463D01*
X170648446Y-98346008D01*
X170648455Y-98346013D01*
X170685579Y-98361390D01*
X170812334Y-98413894D01*
X170986303Y-98448498D01*
X170986307Y-98448499D01*
X170986308Y-98448499D01*
X171163692Y-98448499D01*
X171163693Y-98448498D01*
X171337666Y-98413894D01*
X171501546Y-98346012D01*
X171649035Y-98247463D01*
X171774463Y-98122035D01*
X171873012Y-97974546D01*
X171940894Y-97810666D01*
X171974866Y-97639873D01*
X171975499Y-97636692D01*
X171975499Y-97459303D01*
X171940895Y-97285341D01*
X171940894Y-97285334D01*
X171873012Y-97121453D01*
X171873011Y-97121452D01*
X171873008Y-97121446D01*
X171774463Y-96973964D01*
X171774460Y-96973960D01*
X171611819Y-96811319D01*
X171578334Y-96749996D01*
X171575500Y-96723638D01*
X171575500Y-93672361D01*
X171595185Y-93605322D01*
X171611819Y-93584680D01*
X171717075Y-93479424D01*
X171866314Y-93330184D01*
X171927635Y-93296701D01*
X171997326Y-93301685D01*
X172053260Y-93343556D01*
X172077677Y-93409021D01*
X172077521Y-93428673D01*
X172069532Y-93519996D01*
X172069532Y-93520001D01*
X172089364Y-93746686D01*
X172089366Y-93746697D01*
X172148258Y-93966488D01*
X172148261Y-93966497D01*
X172244431Y-94172732D01*
X172244432Y-94172734D01*
X172374954Y-94359141D01*
X172535857Y-94520044D01*
X172535860Y-94520046D01*
X172535861Y-94520047D01*
X172579606Y-94550677D01*
X172623231Y-94605252D01*
X172630425Y-94674751D01*
X172623045Y-94699703D01*
X172614878Y-94719420D01*
X172614876Y-94719427D01*
X172584500Y-94872138D01*
X172584500Y-95027861D01*
X172614876Y-95180572D01*
X172614878Y-95180580D01*
X172623043Y-95200293D01*
X172623044Y-95200294D01*
X172630513Y-95269764D01*
X172599238Y-95332243D01*
X172579608Y-95349320D01*
X172535861Y-95379953D01*
X172374951Y-95540862D01*
X172244432Y-95727265D01*
X172244431Y-95727267D01*
X172148261Y-95933502D01*
X172148258Y-95933511D01*
X172089366Y-96153302D01*
X172089364Y-96153313D01*
X172069532Y-96379998D01*
X172069532Y-96380001D01*
X172089364Y-96606686D01*
X172089366Y-96606697D01*
X172148258Y-96826488D01*
X172148261Y-96826497D01*
X172244431Y-97032732D01*
X172244432Y-97032734D01*
X172374954Y-97219141D01*
X172535858Y-97380045D01*
X172535861Y-97380047D01*
X172722266Y-97510568D01*
X172928504Y-97606739D01*
X173148308Y-97665635D01*
X173310230Y-97679801D01*
X173374998Y-97685468D01*
X173375000Y-97685468D01*
X173375002Y-97685468D01*
X173431673Y-97680509D01*
X173601692Y-97665635D01*
X173821496Y-97606739D01*
X174027734Y-97510568D01*
X174214139Y-97380047D01*
X174375047Y-97219139D01*
X174505568Y-97032734D01*
X174601739Y-96826496D01*
X174660635Y-96606692D01*
X174680468Y-96380000D01*
X174680467Y-96379994D01*
X174669000Y-96248921D01*
X174660635Y-96153308D01*
X174601739Y-95933504D01*
X174505568Y-95727266D01*
X174375047Y-95540861D01*
X174375045Y-95540858D01*
X174214140Y-95379953D01*
X174170394Y-95349322D01*
X174126769Y-95294745D01*
X174119576Y-95225247D01*
X174126957Y-95200293D01*
X174135119Y-95180588D01*
X174135119Y-95180585D01*
X174135122Y-95180580D01*
X174165500Y-95027857D01*
X174165500Y-94872143D01*
X174135797Y-94722815D01*
X178134556Y-94722815D01*
X178134556Y-94965392D01*
X178166217Y-95205889D01*
X178229003Y-95440208D01*
X178321829Y-95664309D01*
X178321832Y-95664316D01*
X178443120Y-95874393D01*
X178443122Y-95874396D01*
X178443123Y-95874397D01*
X178590789Y-96066840D01*
X178590795Y-96066847D01*
X178762312Y-96238364D01*
X178762319Y-96238370D01*
X178794925Y-96263389D01*
X178954767Y-96386040D01*
X179164844Y-96507328D01*
X179388956Y-96600158D01*
X179623267Y-96662942D01*
X179803642Y-96686688D01*
X179863767Y-96694604D01*
X179863768Y-96694604D01*
X180106345Y-96694604D01*
X180154444Y-96688271D01*
X180346845Y-96662942D01*
X180581156Y-96600158D01*
X180805268Y-96507328D01*
X181015345Y-96386040D01*
X181207794Y-96238369D01*
X181379321Y-96066842D01*
X181526992Y-95874393D01*
X181648280Y-95664316D01*
X181741110Y-95440204D01*
X181803894Y-95205893D01*
X181835556Y-94965392D01*
X181835556Y-94722816D01*
X181803894Y-94482315D01*
X181741110Y-94248004D01*
X181648280Y-94023892D01*
X181526992Y-93813815D01*
X181399853Y-93648124D01*
X181379322Y-93621367D01*
X181379316Y-93621360D01*
X181207799Y-93449843D01*
X181207792Y-93449837D01*
X181015349Y-93302171D01*
X181015348Y-93302170D01*
X181015345Y-93302168D01*
X180805268Y-93180880D01*
X180800068Y-93178726D01*
X180581160Y-93088051D01*
X180346841Y-93025265D01*
X180106345Y-92993604D01*
X180106344Y-92993604D01*
X179863768Y-92993604D01*
X179863767Y-92993604D01*
X179623270Y-93025265D01*
X179388951Y-93088051D01*
X179164850Y-93180877D01*
X179164841Y-93180881D01*
X178954762Y-93302171D01*
X178762319Y-93449837D01*
X178762312Y-93449843D01*
X178590795Y-93621360D01*
X178590789Y-93621367D01*
X178443123Y-93813810D01*
X178321833Y-94023889D01*
X178321831Y-94023894D01*
X178229003Y-94247999D01*
X178166217Y-94482318D01*
X178134556Y-94722815D01*
X174135797Y-94722815D01*
X174135122Y-94719420D01*
X174126955Y-94699705D01*
X174119486Y-94630238D01*
X174150759Y-94567758D01*
X174170386Y-94550682D01*
X174214139Y-94520047D01*
X174375047Y-94359139D01*
X174505568Y-94172734D01*
X174601739Y-93966496D01*
X174660635Y-93746692D01*
X174680468Y-93520000D01*
X174680467Y-93519994D01*
X174672478Y-93428673D01*
X174660635Y-93293308D01*
X174601739Y-93073504D01*
X174505568Y-92867266D01*
X174375047Y-92680861D01*
X174375045Y-92680858D01*
X174214141Y-92519954D01*
X174027734Y-92389432D01*
X174027732Y-92389431D01*
X173821497Y-92293261D01*
X173821488Y-92293258D01*
X173601697Y-92234366D01*
X173601693Y-92234365D01*
X173601692Y-92234365D01*
X173601691Y-92234364D01*
X173601686Y-92234364D01*
X173375002Y-92214532D01*
X173374998Y-92214532D01*
X173148313Y-92234364D01*
X173148302Y-92234366D01*
X172928511Y-92293258D01*
X172928502Y-92293261D01*
X172722267Y-92389431D01*
X172722265Y-92389432D01*
X172535858Y-92519954D01*
X172487181Y-92568632D01*
X172425858Y-92602117D01*
X172356166Y-92597133D01*
X172300233Y-92555261D01*
X172275816Y-92489797D01*
X172275500Y-92480951D01*
X172275500Y-91472914D01*
X172275499Y-91472907D01*
X172272169Y-91456161D01*
X172272169Y-91456160D01*
X172240896Y-91298945D01*
X172240895Y-91298938D01*
X172189841Y-91175684D01*
X172173013Y-91135057D01*
X172173012Y-91135055D01*
X172173011Y-91135053D01*
X172084783Y-91003012D01*
X172084780Y-91003008D01*
X172074464Y-90987568D01*
X171035431Y-89948535D01*
X171035426Y-89948531D01*
X170976357Y-89909064D01*
X170976356Y-89909063D01*
X170887940Y-89849985D01*
X170887938Y-89849984D01*
X170806003Y-89816046D01*
X170806002Y-89816046D01*
X170750291Y-89792969D01*
X170695889Y-89749128D01*
X170673825Y-89682834D01*
X170691105Y-89615135D01*
X170742242Y-89567525D01*
X170798241Y-89554410D01*
X182125875Y-89599903D01*
G37*
%TD.AperFunction*%
%TA.AperFunction,Conductor*%
G36*
X167768522Y-89542243D02*
G01*
X167835482Y-89562197D01*
X167881024Y-89615184D01*
X167890690Y-89684382D01*
X167861410Y-89747820D01*
X167815477Y-89780803D01*
X167730393Y-89816046D01*
X167648455Y-89849985D01*
X167560040Y-89909063D01*
X167560039Y-89909064D01*
X167500961Y-89948537D01*
X167500960Y-89948538D01*
X166738319Y-90711181D01*
X166676996Y-90744666D01*
X166650638Y-90747500D01*
X161865699Y-90747500D01*
X161798660Y-90727815D01*
X161792814Y-90723818D01*
X161730408Y-90678478D01*
X161730407Y-90678477D01*
X161730405Y-90678476D01*
X161675636Y-90650569D01*
X161555029Y-90589117D01*
X161367826Y-90528290D01*
X161173422Y-90497500D01*
X161173417Y-90497500D01*
X160018822Y-90497500D01*
X159999424Y-90495973D01*
X159990094Y-90494495D01*
X159984466Y-90493604D01*
X159984465Y-90493604D01*
X127082479Y-90493604D01*
X127082474Y-90493604D01*
X126888069Y-90524394D01*
X126700865Y-90585221D01*
X126525490Y-90674580D01*
X126434638Y-90740588D01*
X126366251Y-90790275D01*
X126366249Y-90790277D01*
X126366248Y-90790277D01*
X124155726Y-93000799D01*
X124155726Y-93000800D01*
X124155724Y-93000802D01*
X124137950Y-93025266D01*
X124040028Y-93160042D01*
X123950670Y-93335416D01*
X123950668Y-93335421D01*
X123950668Y-93335422D01*
X123926754Y-93409021D01*
X123913077Y-93451113D01*
X123882828Y-93500474D01*
X123691513Y-93691790D01*
X123587389Y-93835106D01*
X123506957Y-93992960D01*
X123452214Y-94161442D01*
X123432553Y-94285579D01*
X123424500Y-94336421D01*
X123424500Y-94513579D01*
X123430183Y-94549459D01*
X123452214Y-94688557D01*
X123506957Y-94857040D01*
X123506960Y-94857047D01*
X123535984Y-94914007D01*
X123549500Y-94970303D01*
X123549500Y-95198541D01*
X123549500Y-95198543D01*
X123549499Y-95198543D01*
X123587947Y-95391829D01*
X123587950Y-95391839D01*
X123663364Y-95573907D01*
X123663371Y-95573920D01*
X123772860Y-95737781D01*
X123772863Y-95737785D01*
X123912214Y-95877136D01*
X123912218Y-95877139D01*
X124076079Y-95986628D01*
X124076092Y-95986635D01*
X124221715Y-96046953D01*
X124258165Y-96062051D01*
X124258169Y-96062051D01*
X124258170Y-96062052D01*
X124451456Y-96100500D01*
X124451459Y-96100500D01*
X124648543Y-96100500D01*
X124817779Y-96066836D01*
X124841835Y-96062051D01*
X125023914Y-95986632D01*
X125187782Y-95877139D01*
X125327139Y-95737782D01*
X125436632Y-95573914D01*
X125512051Y-95391835D01*
X125530768Y-95297738D01*
X125550500Y-95198543D01*
X125550500Y-95070229D01*
X125570185Y-95003190D01*
X125618204Y-94959745D01*
X125764957Y-94884972D01*
X125924198Y-94769276D01*
X127662551Y-93030923D01*
X127723874Y-92997438D01*
X127750232Y-92994604D01*
X146703537Y-92994604D01*
X146770576Y-93014289D01*
X146816331Y-93067093D01*
X146826275Y-93136251D01*
X146806639Y-93187495D01*
X146745692Y-93278707D01*
X146745687Y-93278716D01*
X146698538Y-93392545D01*
X146698535Y-93392555D01*
X146674500Y-93513389D01*
X146674500Y-93636610D01*
X146698535Y-93757444D01*
X146698537Y-93757452D01*
X146721881Y-93813810D01*
X146727779Y-93828047D01*
X146735248Y-93897516D01*
X146703973Y-93959995D01*
X146643885Y-93995648D01*
X146613218Y-93999500D01*
X129682941Y-93999500D01*
X129615902Y-93979815D01*
X129595260Y-93963182D01*
X129559089Y-93927011D01*
X129502262Y-93870184D01*
X129446436Y-93835106D01*
X129349523Y-93774211D01*
X129179254Y-93714631D01*
X129179249Y-93714630D01*
X129000004Y-93694435D01*
X128999996Y-93694435D01*
X128820750Y-93714630D01*
X128820745Y-93714631D01*
X128650476Y-93774211D01*
X128497737Y-93870184D01*
X128370184Y-93997737D01*
X128274211Y-94150476D01*
X128214631Y-94320745D01*
X128214630Y-94320750D01*
X128194435Y-94499996D01*
X128194435Y-94500003D01*
X128214631Y-94679252D01*
X128237155Y-94743623D01*
X128240716Y-94813402D01*
X128207794Y-94872258D01*
X128101775Y-94978277D01*
X128040452Y-95011762D01*
X128027988Y-95013815D01*
X128020752Y-95014630D01*
X128020744Y-95014632D01*
X127850478Y-95074210D01*
X127697737Y-95170184D01*
X127570184Y-95297737D01*
X127474211Y-95450476D01*
X127414631Y-95620745D01*
X127414630Y-95620750D01*
X127394435Y-95799996D01*
X127394435Y-95800003D01*
X127414630Y-95979249D01*
X127414631Y-95979254D01*
X127474211Y-96149523D01*
X127570184Y-96302262D01*
X127697738Y-96429816D01*
X127788080Y-96486582D01*
X127821100Y-96507330D01*
X127850478Y-96525789D01*
X127925785Y-96552140D01*
X128020745Y-96585368D01*
X128020750Y-96585369D01*
X128199996Y-96605565D01*
X128200000Y-96605565D01*
X128200004Y-96605565D01*
X128379249Y-96585369D01*
X128379252Y-96585368D01*
X128379255Y-96585368D01*
X128549522Y-96525789D01*
X128702262Y-96429816D01*
X128829816Y-96302262D01*
X128925789Y-96149522D01*
X128985368Y-95979255D01*
X128985369Y-95979249D01*
X128986917Y-95972468D01*
X128989886Y-95973145D01*
X129011736Y-95921181D01*
X129069340Y-95881639D01*
X129107872Y-95875500D01*
X146623573Y-95875500D01*
X146690612Y-95895185D01*
X146736367Y-95947989D01*
X146746311Y-96017147D01*
X146738134Y-96046953D01*
X146698538Y-96142545D01*
X146698535Y-96142555D01*
X146674500Y-96263389D01*
X146674500Y-96386610D01*
X146698535Y-96507444D01*
X146698538Y-96507454D01*
X146745687Y-96621283D01*
X146745692Y-96621292D01*
X146814141Y-96723732D01*
X146814144Y-96723736D01*
X146901263Y-96810855D01*
X146901267Y-96810858D01*
X147003707Y-96879307D01*
X147003713Y-96879310D01*
X147003714Y-96879311D01*
X147117548Y-96926463D01*
X147238389Y-96950499D01*
X147238393Y-96950500D01*
X147238394Y-96950500D01*
X147361607Y-96950500D01*
X147361608Y-96950499D01*
X147482452Y-96926463D01*
X147596286Y-96879311D01*
X147698733Y-96810858D01*
X147785858Y-96723733D01*
X147854311Y-96621286D01*
X147901463Y-96507452D01*
X147925500Y-96386606D01*
X147925500Y-96263394D01*
X147901463Y-96142548D01*
X147861866Y-96046953D01*
X147854397Y-95977483D01*
X147885672Y-95915004D01*
X147945761Y-95879352D01*
X147976427Y-95875500D01*
X155568845Y-95875500D01*
X155635884Y-95895185D01*
X155646121Y-95903434D01*
X155646529Y-95902924D01*
X155651971Y-95907264D01*
X155651972Y-95907265D01*
X155716784Y-95947989D01*
X155778288Y-95986635D01*
X155804712Y-96003238D01*
X155972784Y-96062049D01*
X155974979Y-96062817D01*
X155974984Y-96062818D01*
X156154230Y-96083014D01*
X156154234Y-96083014D01*
X156154238Y-96083014D01*
X156333483Y-96062818D01*
X156333486Y-96062817D01*
X156333489Y-96062817D01*
X156503756Y-96003238D01*
X156656496Y-95907265D01*
X156784050Y-95779711D01*
X156880023Y-95626971D01*
X156939602Y-95456704D01*
X156939603Y-95456698D01*
X156959799Y-95277452D01*
X156959799Y-95277445D01*
X156939603Y-95098199D01*
X156939602Y-95098194D01*
X156925749Y-95058605D01*
X156880023Y-94927927D01*
X156880022Y-94927926D01*
X156880020Y-94927919D01*
X156877003Y-94921654D01*
X156878232Y-94921061D01*
X156861298Y-94861119D01*
X156880299Y-94796417D01*
X156888721Y-94783014D01*
X156948300Y-94612747D01*
X156948862Y-94607760D01*
X156968497Y-94433495D01*
X156968497Y-94433488D01*
X156948301Y-94254242D01*
X156948300Y-94254237D01*
X156915830Y-94161444D01*
X156888721Y-94083970D01*
X156792748Y-93931230D01*
X156665194Y-93803676D01*
X156618301Y-93774211D01*
X156512455Y-93707703D01*
X156342186Y-93648123D01*
X156342181Y-93648122D01*
X156162936Y-93627927D01*
X156162928Y-93627927D01*
X155983682Y-93648122D01*
X155983677Y-93648123D01*
X155813408Y-93707703D01*
X155660669Y-93803676D01*
X155533116Y-93931229D01*
X155533114Y-93931232D01*
X155526681Y-93941471D01*
X155474347Y-93987763D01*
X155421687Y-93999500D01*
X147986782Y-93999500D01*
X147919743Y-93979815D01*
X147873988Y-93927011D01*
X147864044Y-93857853D01*
X147872221Y-93828047D01*
X147878116Y-93813815D01*
X147901463Y-93757452D01*
X147925500Y-93636606D01*
X147925500Y-93513394D01*
X147901463Y-93392548D01*
X147854311Y-93278714D01*
X147854310Y-93278713D01*
X147854307Y-93278707D01*
X147793361Y-93187495D01*
X147772483Y-93120817D01*
X147790968Y-93053437D01*
X147842946Y-93006747D01*
X147896463Y-92994604D01*
X159670266Y-92994604D01*
X159737305Y-93014289D01*
X159757947Y-93030923D01*
X160038181Y-93311157D01*
X160071666Y-93372480D01*
X160074500Y-93398838D01*
X160074500Y-94798542D01*
X160083836Y-94845476D01*
X160083836Y-94845477D01*
X160112947Y-94991828D01*
X160112949Y-94991836D01*
X160132548Y-95039152D01*
X160132548Y-95039153D01*
X160188364Y-95173907D01*
X160188371Y-95173920D01*
X160297859Y-95337780D01*
X160297860Y-95337781D01*
X160297861Y-95337782D01*
X160437218Y-95477139D01*
X160437219Y-95477139D01*
X160444286Y-95484206D01*
X160444285Y-95484206D01*
X160444289Y-95484209D01*
X161512215Y-96552137D01*
X161512219Y-96552140D01*
X161676079Y-96661628D01*
X161676088Y-96661633D01*
X161717334Y-96678717D01*
X161858165Y-96737052D01*
X162048941Y-96775000D01*
X162051455Y-96775500D01*
X162051458Y-96775501D01*
X162051460Y-96775501D01*
X162248543Y-96775501D01*
X162248544Y-96775500D01*
X162441836Y-96737052D01*
X162623915Y-96661632D01*
X162787782Y-96552140D01*
X162927140Y-96412782D01*
X163036632Y-96248915D01*
X163112052Y-96066836D01*
X163150501Y-95873541D01*
X163150501Y-95676460D01*
X163150501Y-95676457D01*
X163150500Y-95676455D01*
X163140657Y-95626971D01*
X163112052Y-95483165D01*
X163043804Y-95318400D01*
X163036633Y-95301088D01*
X163036628Y-95301079D01*
X162927140Y-95137219D01*
X162927137Y-95137215D01*
X162111819Y-94321897D01*
X162078334Y-94260574D01*
X162075500Y-94234216D01*
X162075500Y-93178726D01*
X162095185Y-93111687D01*
X162111819Y-93091045D01*
X162418045Y-92784819D01*
X162479368Y-92751334D01*
X162505726Y-92748500D01*
X163953358Y-92748500D01*
X164020397Y-92768185D01*
X164066152Y-92820989D01*
X164076096Y-92890147D01*
X164066914Y-92922310D01*
X164010254Y-93051481D01*
X163951751Y-93282505D01*
X163932072Y-93519994D01*
X163932072Y-93520005D01*
X163951751Y-93757494D01*
X164010254Y-93988518D01*
X164105982Y-94206757D01*
X164236322Y-94406259D01*
X164236325Y-94406263D01*
X164236327Y-94406265D01*
X164397731Y-94581597D01*
X164397734Y-94581599D01*
X164397737Y-94581602D01*
X164585784Y-94727965D01*
X164585791Y-94727969D01*
X164585793Y-94727971D01*
X164729518Y-94805751D01*
X164779108Y-94854969D01*
X164794500Y-94914805D01*
X164794500Y-94985194D01*
X164774815Y-95052233D01*
X164729518Y-95094249D01*
X164585790Y-95172030D01*
X164585784Y-95172034D01*
X164397737Y-95318397D01*
X164397734Y-95318400D01*
X164397731Y-95318402D01*
X164397731Y-95318403D01*
X164369269Y-95349321D01*
X164236322Y-95493740D01*
X164105982Y-95693242D01*
X164010254Y-95911481D01*
X163951751Y-96142505D01*
X163932072Y-96379994D01*
X163932072Y-96380005D01*
X163951751Y-96617494D01*
X163951751Y-96617497D01*
X163951752Y-96617498D01*
X163952711Y-96621286D01*
X164010254Y-96848518D01*
X164105982Y-97066757D01*
X164236322Y-97266259D01*
X164236325Y-97266263D01*
X164236327Y-97266265D01*
X164397731Y-97441597D01*
X164397734Y-97441599D01*
X164397737Y-97441602D01*
X164585784Y-97587965D01*
X164585790Y-97587969D01*
X164585793Y-97587971D01*
X164729300Y-97665633D01*
X164765951Y-97685468D01*
X164795382Y-97701395D01*
X165020782Y-97778775D01*
X165255844Y-97818000D01*
X165255845Y-97818000D01*
X165494155Y-97818000D01*
X165494156Y-97818000D01*
X165729218Y-97778775D01*
X165954618Y-97701395D01*
X166164207Y-97587971D01*
X166352269Y-97441597D01*
X166513673Y-97266265D01*
X166644017Y-97066758D01*
X166739746Y-96848518D01*
X166798248Y-96617498D01*
X166807367Y-96507452D01*
X166817928Y-96380005D01*
X166817928Y-96379994D01*
X166798830Y-96149523D01*
X166798248Y-96142502D01*
X166739746Y-95911482D01*
X166644017Y-95693242D01*
X166596653Y-95620745D01*
X166513677Y-95493740D01*
X166513674Y-95493737D01*
X166513673Y-95493735D01*
X166352269Y-95318403D01*
X166352264Y-95318399D01*
X166352262Y-95318397D01*
X166164215Y-95172034D01*
X166164209Y-95172030D01*
X166020482Y-95094249D01*
X165970892Y-95045029D01*
X165955500Y-94985194D01*
X165955500Y-94914805D01*
X165975185Y-94847766D01*
X166020481Y-94805751D01*
X166164207Y-94727971D01*
X166170832Y-94722815D01*
X166312255Y-94612741D01*
X166352269Y-94581597D01*
X166513673Y-94406265D01*
X166644017Y-94206758D01*
X166739746Y-93988518D01*
X166798248Y-93757498D01*
X166808265Y-93636610D01*
X166817928Y-93520005D01*
X166817928Y-93519994D01*
X166802633Y-93335422D01*
X166798248Y-93282502D01*
X166760168Y-93132127D01*
X166762793Y-93062310D01*
X166802749Y-93004993D01*
X166867350Y-92978376D01*
X166927825Y-92987128D01*
X166983164Y-93010051D01*
X167072473Y-93027815D01*
X167134382Y-93060199D01*
X167168956Y-93120914D01*
X167165217Y-93190684D01*
X167162845Y-93196874D01*
X167149499Y-93229096D01*
X167149498Y-93229099D01*
X167149498Y-93229100D01*
X167149497Y-93229101D01*
X167124500Y-93354768D01*
X167124500Y-97127191D01*
X167104815Y-97194230D01*
X167088181Y-97214872D01*
X166769727Y-97533325D01*
X166769724Y-97533328D01*
X166720673Y-97606740D01*
X166698535Y-97639871D01*
X166649499Y-97758255D01*
X166649497Y-97758261D01*
X166624500Y-97883928D01*
X166624500Y-98542931D01*
X166605494Y-98608903D01*
X166549211Y-98698477D01*
X166549209Y-98698481D01*
X166489633Y-98868737D01*
X166489630Y-98868750D01*
X166469435Y-99047996D01*
X166469435Y-99048003D01*
X166489630Y-99227249D01*
X166489632Y-99227257D01*
X166530222Y-99343256D01*
X166533783Y-99413034D01*
X166499054Y-99473662D01*
X166437061Y-99505889D01*
X166413008Y-99508210D01*
X120085080Y-99444104D01*
X120085077Y-99444104D01*
X120085056Y-99444104D01*
X116879048Y-99481501D01*
X113161374Y-99524867D01*
X113138781Y-99523058D01*
X111885484Y-99306141D01*
X111823326Y-99275807D01*
X110997992Y-98527249D01*
X110795857Y-98343917D01*
X110764358Y-98298928D01*
X110692158Y-98122038D01*
X110284333Y-97122866D01*
X110275141Y-97075302D01*
X110288661Y-94722815D01*
X113149500Y-94722815D01*
X113149500Y-94965392D01*
X113181161Y-95205889D01*
X113243947Y-95440208D01*
X113336773Y-95664309D01*
X113336776Y-95664316D01*
X113458064Y-95874393D01*
X113458066Y-95874396D01*
X113458067Y-95874397D01*
X113605733Y-96066840D01*
X113605739Y-96066847D01*
X113777256Y-96238364D01*
X113777263Y-96238370D01*
X113809869Y-96263389D01*
X113969711Y-96386040D01*
X114179788Y-96507328D01*
X114403900Y-96600158D01*
X114638211Y-96662942D01*
X114818586Y-96686688D01*
X114878711Y-96694604D01*
X114878712Y-96694604D01*
X115121289Y-96694604D01*
X115169388Y-96688271D01*
X115361789Y-96662942D01*
X115596100Y-96600158D01*
X115820212Y-96507328D01*
X116030289Y-96386040D01*
X116222738Y-96238369D01*
X116394265Y-96066842D01*
X116541936Y-95874393D01*
X116663224Y-95664316D01*
X116756054Y-95440204D01*
X116818838Y-95205893D01*
X116850500Y-94965392D01*
X116850500Y-94722816D01*
X116818838Y-94482315D01*
X116756054Y-94248004D01*
X116663224Y-94023892D01*
X116541936Y-93813815D01*
X116414797Y-93648124D01*
X116394266Y-93621367D01*
X116394260Y-93621360D01*
X116222743Y-93449843D01*
X116222736Y-93449837D01*
X116030293Y-93302171D01*
X116030292Y-93302170D01*
X116030289Y-93302168D01*
X115820212Y-93180880D01*
X115815012Y-93178726D01*
X115596104Y-93088051D01*
X115361785Y-93025265D01*
X115121289Y-92993604D01*
X115121288Y-92993604D01*
X114878712Y-92993604D01*
X114878711Y-92993604D01*
X114638214Y-93025265D01*
X114403895Y-93088051D01*
X114179794Y-93180877D01*
X114179785Y-93180881D01*
X113969706Y-93302171D01*
X113777263Y-93449837D01*
X113777256Y-93449843D01*
X113605739Y-93621360D01*
X113605733Y-93621367D01*
X113458067Y-93813810D01*
X113336777Y-94023889D01*
X113336775Y-94023894D01*
X113243947Y-94247999D01*
X113181161Y-94482318D01*
X113149500Y-94722815D01*
X110288661Y-94722815D01*
X110299941Y-92760185D01*
X110301721Y-92739958D01*
X110593008Y-91040784D01*
X110623737Y-90978036D01*
X110630084Y-90971587D01*
X111485127Y-90164046D01*
X111518598Y-90141475D01*
X112677444Y-89610337D01*
X112724797Y-89599138D01*
X119897623Y-89350082D01*
X119902361Y-89350009D01*
X167768522Y-89542243D01*
G37*
%TD.AperFunction*%
%TD*%
M02*
